<svg width="669" height="390" viewBox="0 0 669 390" fill="none" xmlns="http://www.w3.org/2000/svg">
<path d="M254.52 144.707C254.524 145.741 254.835 146.752 255.413 147.61C255.992 148.468 256.812 149.135 257.769 149.527C258.727 149.919 259.78 150.018 260.794 149.811C261.808 149.605 262.737 149.102 263.466 148.367C264.194 147.632 264.688 146.697 264.884 145.681C265.081 144.665 264.972 143.614 264.571 142.66C264.17 141.706 263.495 140.892 262.632 140.322C261.768 139.752 260.755 139.451 259.72 139.457C259.033 139.458 258.353 139.595 257.72 139.86C257.086 140.125 256.511 140.512 256.028 141C255.545 141.488 255.163 142.067 254.904 142.703C254.645 143.339 254.515 144.02 254.52 144.707V144.707Z" fill="#E0E0E0"/>
<path d="M270.19 137.987C268.855 136.546 267.241 135.392 265.446 134.595C263.652 133.797 261.714 133.372 259.75 133.346C257.786 133.32 255.838 133.693 254.022 134.442C252.207 135.192 250.563 136.302 249.19 137.707C246.52 140.397 242.34 136.257 245.02 133.567C246.94 131.627 249.23 130.093 251.753 129.052C254.276 128.012 256.982 127.488 259.711 127.51C262.44 127.533 265.136 128.101 267.642 129.183C270.148 130.264 272.412 131.836 274.3 133.807C276.9 136.547 272.77 140.737 270.16 137.987H270.19Z" fill="#E0E0E0"/>
<path d="M287.96 113.647C279.96 106.777 270.51 102.447 259.89 102.417C249.292 102.31 239.051 106.243 231.25 113.417C228.49 116.007 224.3 111.877 227.07 109.277C235.987 101.026 247.712 96.4848 259.86 96.5766C272.09 96.5766 282.96 101.577 292.09 109.507C294.96 111.987 290.81 116.157 287.96 113.687V113.647Z" fill="#E0E0E0"/>
<path d="M280.95 127.137C278.298 124.18 275.064 121.805 271.449 120.161C267.835 118.516 263.919 117.637 259.948 117.58C255.978 117.523 252.038 118.288 248.378 119.828C244.718 121.367 241.416 123.648 238.68 126.527C236.03 129.247 231.85 125.107 234.5 122.387C237.78 118.961 241.728 116.245 246.101 114.407C250.473 112.569 255.176 111.648 259.919 111.701C264.661 111.755 269.342 112.781 273.672 114.717C278.002 116.653 281.888 119.458 285.09 122.957C287.65 125.727 283.52 129.957 280.95 127.137Z" fill="#E0E0E0"/>
<path d="M656.56 224.626L625.67 197.387L609.09 209.487L573.78 173.047L521.88 224.487L656.56 224.626Z" fill="#EBEBEB"/>
<path d="M224.88 224.626L177.88 198.837L114.59 213.906L74.9999 173.047L23.0999 224.487L224.88 224.626Z" fill="#EBEBEB"/>
<path d="M14.9499 126.937C14.0399 120.337 23.3599 114.937 30.3499 114.337C33.6899 114.067 37.1599 114.577 40.3499 113.477C47.1999 111.087 49.9399 102.237 56.6199 99.4165C61.6199 97.3165 67.3699 99.1865 72.2199 101.627C77.0699 104.067 81.8499 107.137 87.2199 107.477C91.9299 107.787 97.0499 106.037 101.22 108.337C104.28 110.047 105.89 113.587 108.72 115.677C111.55 117.767 115.1 118.147 118.54 118.337C121.98 118.527 125.54 118.557 128.65 119.987C131.76 121.417 134.37 124.727 133.72 128.107L14.9499 126.937Z" fill="#EBEBEB"/>
<path d="M544.55 26.3965C543.7 20.2765 552.35 15.2365 558.84 14.7165C561.94 14.4665 565.16 14.9365 568.09 13.9165C574.45 11.6965 576.99 3.48651 583.19 0.866506C587.83 -1.13349 593.19 0.656505 597.67 2.9165C602.15 5.1765 606.61 8.02651 611.67 8.34651C616.04 8.62651 620.78 7.0065 624.61 9.1365C627.45 10.7265 628.95 14.0165 631.61 15.9465C634.27 17.8765 637.53 18.2465 640.72 18.4165C643.91 18.5865 647.2 18.6265 650.11 19.9565C653.02 21.2865 655.41 24.3465 654.81 27.4865L544.55 26.3965Z" fill="#F5F5F5"/>
<path d="M353.82 53.4465C353.3 49.6565 358.65 46.5265 362.68 46.2065C364.6 46.0465 366.59 46.3465 368.41 45.7065C372.35 44.3365 373.92 39.2465 377.77 37.6265C380.64 36.4165 383.95 37.4965 386.77 38.8965C389.59 40.2965 392.3 42.0665 395.42 42.2665C398.12 42.4365 401.06 41.4365 403.42 42.7565C405.19 43.7565 406.11 45.7565 407.74 46.9765C409.434 48.0177 411.392 48.5489 413.38 48.5065C415.363 48.4505 417.338 48.7729 419.2 49.4565C421 50.2765 422.49 52.1765 422.11 54.1265L353.82 53.4465Z" fill="#F5F5F5"/>
<path d="M69.4799 35.3265C68.9599 31.5265 74.32 28.4065 78.34 28.0765C80.26 27.9265 82.2599 28.2165 84.0699 27.5865C88.0099 26.2165 89.5899 21.1265 93.4299 19.4965C96.3099 18.2865 99.6099 19.3665 102.43 20.7665C105.25 22.1665 107.97 23.9365 111.08 24.1365C113.79 24.3065 116.73 23.3065 119.08 24.6265C120.84 25.6265 121.77 27.6265 123.4 28.8465C125.091 29.8935 127.051 30.4252 129.04 30.3765C131.025 30.3472 132.998 30.6863 134.86 31.3765C136.65 32.2065 138.14 34.1065 137.77 36.0465L69.4799 35.3265Z" fill="#F5F5F5"/>
<path d="M195.1 19.8865C195.1 19.8865 195.66 19.7365 196.66 19.5365C198.07 19.2555 199.517 19.2183 200.94 19.4265C203.043 19.7172 205.026 20.5822 206.67 21.9265C208.662 23.5819 210.066 25.8376 210.67 28.3565V28.4265L210.92 29.4265L211.28 28.5165C212.271 26.0814 213.985 24.0085 216.19 22.5765C217.962 21.4198 219.999 20.7316 222.11 20.5765C224.072 20.4702 226.037 20.7209 227.91 21.3165C227.459 21.0222 226.962 20.8059 226.44 20.6765C225.032 20.2323 223.555 20.0459 222.08 20.1265C219.87 20.2364 217.728 20.9262 215.87 22.1265C213.577 23.5915 211.792 25.7289 210.76 28.2465H211.37V28.1765C210.73 25.5123 209.22 23.1373 207.08 21.4265C205.629 20.2799 203.931 19.4869 202.121 19.1103C200.311 18.7336 198.438 18.7837 196.65 19.2565C196.101 19.3761 195.577 19.5892 195.1 19.8865V19.8865Z" fill="#E0E0E0"/>
<path d="M594.28 107.106C594.716 107.681 595.187 108.229 595.69 108.746C596.987 110.223 598.157 111.805 599.19 113.476C602.604 118.989 604.396 125.352 604.36 131.836V132.066H605C605.994 125.707 608.948 119.817 613.45 115.216C615.348 113.359 617.417 111.685 619.63 110.216C619.449 110.265 619.277 110.343 619.12 110.446C618.646 110.688 618.185 110.955 617.74 111.246C616.077 112.294 614.531 113.518 613.13 114.896C608.445 119.497 605.373 125.488 604.37 131.976L605 132.026V131.796C605.056 125.195 603.167 118.722 599.57 113.186C598.496 111.518 597.263 109.958 595.89 108.526C595.41 108.016 594.99 107.666 594.73 107.406C594.59 107.293 594.439 107.192 594.28 107.106V107.106Z" fill="#E0E0E0"/>
<path d="M0 222.496C0 222.636 147.14 222.756 328.61 222.756C510.08 222.756 657.25 222.636 657.25 222.496C657.25 222.356 510.14 222.236 328.61 222.236C147.08 222.236 0 222.356 0 222.496Z" fill="#455A64"/>
<path d="M427.96 234.026C427.96 234.176 468.66 234.286 518.85 234.286C569.04 234.286 609.74 234.176 609.74 234.026C609.74 233.876 569.05 233.766 518.85 233.766C468.65 233.766 427.96 233.886 427.96 234.026Z" fill="#263238"/>
<path d="M462.03 242.876C462.03 243.016 481.59 243.136 505.72 243.136C529.85 243.136 549.41 243.016 549.41 242.876C549.41 242.736 529.85 242.606 505.72 242.606C481.59 242.606 462.03 242.726 462.03 242.876Z" fill="#263238"/>
<path d="M475.76 169.456C467.41 182.266 450.45 188.746 435.68 184.786C420.91 180.826 409.49 166.706 408.68 151.446C407.87 136.186 417.74 120.936 432 115.446C446.26 109.956 463.82 114.586 473.48 126.446C483.14 138.306 484.16 156.446 475.9 169.286" fill="#13548D"/>
<path d="M530.84 222.576L487.4 169.456L461.83 193.826L400.31 123.286L371.2 111.296L313.45 180.266L292.89 172.276L259.1 201.726L246.03 191.956L207.95 221.826L530.84 222.576Z" fill="#455A64"/>
<path d="M638.81 345.626C636.71 348.476 632.81 347.416 631.01 345.626C629.21 343.836 628.52 341.226 627.87 338.766C626.4 333.146 624.93 327.246 626.26 321.596C626.59 319.878 627.385 318.283 628.56 316.986C629.157 316.352 629.909 315.884 630.742 315.63C631.575 315.376 632.46 315.343 633.31 315.536C635.31 316.106 636.47 318.086 637.31 319.966C639.807 325.496 641.043 331.511 640.93 337.576C640.87 340.396 640.46 343.346 638.81 345.636" fill="#13548D"/>
<g opacity="0.2">
<path opacity="0.2" d="M638.81 345.626C636.71 348.476 632.81 347.416 631.01 345.626C629.21 343.836 628.52 341.226 627.87 338.766C626.4 333.146 624.93 327.246 626.26 321.596C626.59 319.878 627.385 318.283 628.56 316.986C629.157 316.352 629.909 315.884 630.742 315.63C631.575 315.376 632.46 315.343 633.31 315.536C635.31 316.106 636.47 318.086 637.31 319.966C639.807 325.496 641.043 331.511 640.93 337.576C640.87 340.396 640.46 343.346 638.81 345.636" fill="black"/>
</g>
<path d="M630.85 360.106C627.49 358.428 623.68 357.871 619.98 358.516C617.959 358.646 616.041 359.449 614.53 360.796C613.15 362.246 612.83 364.856 614.35 366.166C615.323 366.881 616.514 367.235 617.72 367.166C620.61 367.166 623.82 366.766 626.08 368.566C627.37 369.566 628.2 371.246 629.76 371.776C630.542 371.978 631.368 371.919 632.113 371.609C632.859 371.298 633.482 370.753 633.89 370.056C634.674 368.631 634.882 366.96 634.47 365.386C634.316 364.286 633.909 363.237 633.281 362.321C632.653 361.404 631.821 360.646 630.85 360.106V360.106Z" fill="#13548D"/>
<path d="M644.28 349.917C643.272 348.529 642.617 346.917 642.373 345.22C642.13 343.523 642.303 341.791 642.88 340.177C644.085 336.944 646.161 334.11 648.88 331.987C651.946 329.389 655.489 327.412 659.31 326.167C660.794 325.613 662.38 325.384 663.96 325.497C664.747 325.561 665.507 325.816 666.173 326.242C666.839 326.667 667.391 327.249 667.78 327.937C668.78 330.037 667.72 332.507 666.54 334.527C664.476 338.078 662.135 341.462 659.54 344.647C657.45 347.217 655.06 349.727 651.95 350.837C648.84 351.947 645.63 351.727 644.05 349.547" fill="#13548D"/>
<path d="M637.88 389.326C637.781 388.893 637.731 388.451 637.73 388.006C637.66 387.006 637.57 385.846 637.47 384.406C637.333 382.633 637.106 380.867 636.79 379.116C636.369 376.986 635.777 374.892 635.02 372.856C634.297 370.82 633.287 368.897 632.02 367.146C630.977 365.722 629.632 364.548 628.08 363.706C627.02 363.153 625.879 362.772 624.7 362.576C624.258 362.542 623.819 362.468 623.39 362.356C623.835 362.308 624.285 362.308 624.73 362.356C625.947 362.478 627.132 362.817 628.23 363.356C629.861 364.18 631.281 365.367 632.38 366.826C633.714 368.599 634.775 370.56 635.53 372.646C636.299 374.714 636.885 376.846 637.28 379.016C637.578 380.787 637.769 382.573 637.85 384.366C637.93 385.896 637.94 387.136 637.94 387.986C637.972 388.434 637.952 388.884 637.88 389.326V389.326Z" fill="#263238"/>
<path d="M637.7 386.576C637.672 386.374 637.672 386.169 637.7 385.966C637.7 385.506 637.7 384.966 637.75 384.216C637.75 382.706 637.84 380.506 637.83 377.796C637.83 372.376 637.54 364.886 636.83 356.646C636.12 348.406 635.1 340.976 634.14 335.646C633.91 334.306 633.68 333.106 633.46 332.046C633.24 330.986 633.07 330.046 632.9 329.346C632.73 328.646 632.63 328.086 632.53 327.636C632.473 327.441 632.443 327.24 632.44 327.036C632.529 327.221 632.596 327.416 632.64 327.616C632.76 328.056 632.91 328.616 633.1 329.296C633.29 329.976 633.52 330.936 633.76 331.986C634 333.036 634.26 334.236 634.51 335.576C635.843 342.519 636.798 349.53 637.37 356.576C638.07 364.826 638.3 372.336 638.2 377.776C638.2 380.486 638.05 382.686 637.95 384.196L637.8 385.946C637.795 386.16 637.762 386.372 637.7 386.576V386.576Z" fill="#263238"/>
<path d="M638.02 372.096C637.969 371.487 637.969 370.875 638.02 370.266C638.12 369.096 638.32 367.406 638.7 365.336C639.163 362.918 639.76 360.528 640.49 358.176C641.363 355.288 642.439 352.464 643.71 349.726C645.92 344.689 649.031 340.097 652.89 336.176C653.56 335.502 654.271 334.871 655.02 334.286C655.34 334.026 655.63 333.766 655.93 333.556L656.75 333.026C657.243 332.668 657.765 332.35 658.31 332.076C656.515 333.427 654.805 334.886 653.19 336.446C649.44 340.402 646.396 344.972 644.19 349.956C642.93 352.672 641.851 355.468 640.96 358.326C640.212 360.657 639.581 363.023 639.07 365.416C638.64 367.416 638.39 369.136 638.23 370.286C638.201 370.894 638.131 371.499 638.02 372.096V372.096Z" fill="#263238"/>
<path d="M411.81 337.116L433.81 357.526C433.81 357.526 461.95 341.996 466.39 345.366L428.39 389.486L392.78 359.096L411.81 337.116Z" fill="#13548D"/>
<path d="M420.19 369.516C419.96 370.052 419.935 370.653 420.12 371.206C420.304 371.759 420.685 372.225 421.19 372.516C421.716 372.774 422.321 372.819 422.88 372.642C423.439 372.465 423.908 372.08 424.19 371.566C424.439 370.998 424.469 370.357 424.273 369.768C424.077 369.178 423.67 368.683 423.13 368.376C422.555 368.171 421.922 368.194 421.364 368.442C420.806 368.689 420.364 369.142 420.13 369.706" fill="#E0E0E0"/>
<path d="M428.37 389.486L424.93 386.556L462.67 345.186C462.67 345.186 465.21 343.956 466.41 345.366L428.37 389.486Z" fill="#263238"/>
<path d="M434.19 356.576C434.4 356.766 433.57 357.926 433.35 359.576C433.13 361.226 433.55 362.576 433.29 362.706C433.03 362.836 432.07 361.436 432.37 359.436C432.67 357.436 434.07 356.396 434.19 356.576Z" fill="#263238"/>
<path d="M440.13 353.636C440.38 353.766 439.94 355.016 440.22 356.536C440.5 358.056 441.28 359.096 441.09 359.296C440.9 359.496 439.56 358.596 439.24 356.696C438.92 354.796 439.92 353.466 440.13 353.636Z" fill="#263238"/>
<path d="M447.93 355.786C447.81 356.016 446.47 355.396 445.77 353.786C445.07 352.176 445.47 350.786 445.72 350.866C445.97 350.946 446.07 352.096 446.72 353.376C447.37 354.656 448.09 355.576 447.93 355.786Z" fill="#263238"/>
<path d="M428.69 352.576C428.81 352.836 427.69 353.576 426.69 354.856C425.69 356.136 425.29 357.426 425.01 357.376C424.73 357.326 424.74 355.756 425.91 354.246C427.08 352.736 428.61 352.266 428.69 352.576Z" fill="#263238"/>
<path d="M174 95.9363C174.883 95.4318 175.639 94.7315 176.209 93.8892C176.779 93.0469 177.148 92.085 177.288 91.0776C177.428 90.0702 177.335 89.0442 177.017 88.0783C176.698 87.1124 176.162 86.2325 175.45 85.5063C174.35 84.3763 172.86 83.6563 171.83 82.5063C171.06 81.4407 170.39 80.3058 169.83 79.1163C168.72 77.3202 167.203 75.8105 165.401 74.7091C163.6 73.6078 161.565 72.9456 159.46 72.7763C155.215 72.4996 151.016 73.7913 147.66 76.4063C146.32 77.4063 145.06 78.6163 143.44 79.0563C141.82 79.4963 140.23 79.1263 138.61 79.1263C136.674 79.1168 134.771 79.6182 133.091 80.5798C131.411 81.5414 130.015 82.9291 129.043 84.603C128.072 86.2768 127.559 88.1773 127.556 90.1128C127.554 92.0483 128.062 93.9501 129.03 95.6263C126.933 96.3883 125.172 97.8654 124.057 99.7979C122.942 101.73 122.544 103.994 122.933 106.191C123.322 108.388 124.474 110.377 126.186 111.808C127.897 113.24 130.059 114.022 132.29 114.016C135.02 114.016 137.6 112.826 140.1 111.746C150.267 107.354 160.908 104.15 171.81 102.196" fill="#263238"/>
<path d="M129.6 163.306C124.354 157.329 121.377 149.697 121.19 141.746C121.03 133.876 122.45 124.066 127.43 117.966C124.09 114.226 125.57 110.156 128.07 105.816C130.57 101.476 134.96 98.5463 139.49 96.3963C146.257 93.1977 153.617 91.4438 161.1 91.2463C167.18 91.0963 175.26 92.2463 176.01 96.6463C176.8 101.226 173.8 103.216 173.8 103.216C178.002 104.693 181.823 107.084 184.99 110.216C192.47 117.616 195.31 125.026 194.17 133.216C193.03 141.406 191.17 147.756 186.17 152.876" fill="#13548D"/>
<path d="M181.12 162.386C181.982 161.544 183.035 160.923 184.19 160.576H183.96C184.174 160.533 184.391 160.509 184.61 160.506C185.004 160.41 185.414 160.397 185.813 160.468C186.212 160.538 186.593 160.691 186.93 160.916C188.212 161.456 189.246 162.454 189.83 163.716C190.278 164.831 190.41 166.048 190.212 167.233C190.015 168.419 189.495 169.527 188.71 170.436C188.142 171.285 187.327 171.94 186.375 172.312C185.423 172.684 184.381 172.755 183.387 172.517C182.394 172.278 181.497 171.741 180.818 170.978C180.139 170.214 179.711 169.261 179.59 168.246C179.326 167.22 179.329 166.143 179.596 165.118C179.864 164.093 180.388 163.153 181.12 162.386V162.386Z" fill="#455A64"/>
<path d="M132.05 189.956L130.11 126.956C130.115 125.422 130.694 123.945 131.735 122.818C132.775 121.69 134.201 120.994 135.73 120.866L168.42 113.386C178.85 112.526 185.49 125.496 185.91 135.956C186.38 147.576 186.49 161.786 184.91 170.416C181.75 187.766 168.35 189.676 168.35 189.676C168.35 189.676 167.99 201.756 167.77 208.086L165.39 233.396L132.05 189.956Z" fill="#AB6E65"/>
<path d="M181.86 150.366C181.85 150.948 181.613 151.503 181.201 151.914C180.788 152.325 180.232 152.559 179.65 152.566C179.366 152.584 179.081 152.544 178.812 152.449C178.544 152.354 178.298 152.206 178.088 152.014C177.878 151.822 177.708 151.589 177.59 151.33C177.472 151.071 177.407 150.791 177.4 150.506C177.405 149.924 177.638 149.366 178.049 148.953C178.461 148.54 179.017 148.304 179.6 148.296C179.885 148.282 180.17 148.324 180.438 148.42C180.707 148.516 180.953 148.665 181.163 148.858C181.374 149.051 181.544 149.283 181.663 149.542C181.783 149.801 181.85 150.081 181.86 150.366V150.366Z" fill="#263238"/>
<path d="M182.66 143.236C182.38 143.516 180.66 142.236 178.31 142.176C175.96 142.116 174.12 143.296 173.86 142.996C173.74 142.856 174.03 142.336 174.86 141.796C175.918 141.102 177.165 140.753 178.43 140.796C179.679 140.818 180.888 141.238 181.88 141.996C182.56 142.576 182.8 143.106 182.66 143.236Z" fill="#263238"/>
<path d="M159.34 150.376C159.332 150.957 159.098 151.512 158.687 151.923C158.276 152.334 157.721 152.569 157.14 152.576C156.855 152.591 156.57 152.549 156.302 152.453C156.033 152.356 155.787 152.207 155.576 152.015C155.366 151.822 155.196 151.589 155.077 151.33C154.957 151.071 154.89 150.791 154.88 150.506C154.888 149.925 155.122 149.37 155.533 148.959C155.944 148.548 156.499 148.314 157.08 148.306C157.365 148.289 157.652 148.329 157.921 148.424C158.191 148.52 158.438 148.668 158.649 148.862C158.86 149.055 159.03 149.288 159.149 149.549C159.267 149.809 159.332 150.09 159.34 150.376Z" fill="#263238"/>
<path d="M159.03 143.146C158.74 143.436 157.03 142.146 154.68 142.146C152.33 142.146 150.49 143.256 150.23 142.956C150.11 142.826 150.4 142.306 151.23 141.766C152.288 141.072 153.535 140.723 154.8 140.766C156.049 140.797 157.256 141.22 158.25 141.976C158.93 142.486 159.19 143.016 159.03 143.146Z" fill="#263238"/>
<path d="M167.35 161.166C167.35 161.026 168.84 160.806 171.26 160.546C171.88 160.496 172.46 160.396 172.58 159.976C172.642 159.343 172.514 158.705 172.21 158.146C171.66 156.646 171.1 155.076 170.5 153.436C168.13 146.726 166.43 141.216 166.7 141.116C166.97 141.016 169.11 146.386 171.48 153.116L173.11 157.856C173.481 158.606 173.576 159.463 173.38 160.276C173.288 160.486 173.15 160.673 172.978 160.824C172.805 160.974 172.601 161.084 172.38 161.146C172.053 161.227 171.717 161.267 171.38 161.266C168.86 161.326 167.35 161.306 167.35 161.166Z" fill="#263238"/>
<path d="M168.36 189.636C160.161 189.573 152.14 187.237 145.19 182.886C145.19 182.886 150.58 194.976 168.04 193.746L168.36 189.636Z" fill="#7C4B43"/>
<path d="M166.86 166.876C166.339 166.068 165.628 165.4 164.79 164.93C163.952 164.459 163.011 164.2 162.05 164.176C161.423 164.171 160.803 164.318 160.246 164.605C159.688 164.893 159.209 165.312 158.85 165.826C158.449 166.423 158.24 167.127 158.25 167.845C158.26 168.564 158.489 169.262 158.906 169.846C159.324 170.431 159.909 170.875 160.585 171.118C161.262 171.361 161.996 171.392 162.69 171.206C164.037 170.799 165.268 170.075 166.28 169.096C166.598 168.86 166.863 168.56 167.06 168.216C167.155 168.024 167.198 167.811 167.186 167.597C167.173 167.383 167.106 167.176 166.99 166.996" fill="#7C4B43"/>
<path d="M160.19 162.666C160.58 162.666 160.52 165.266 162.71 167.166C164.9 169.066 167.71 168.846 167.71 169.166C167.71 169.336 167.08 169.656 165.9 169.666C164.374 169.648 162.902 169.096 161.74 168.106C160.603 167.161 159.885 165.807 159.74 164.336C159.75 163.286 160.06 162.646 160.19 162.666Z" fill="#263238"/>
<path d="M160.14 136.656C159.89 137.296 157.5 136.936 154.67 137.216C151.84 137.496 149.55 138.216 149.18 137.606C149.02 137.326 149.43 136.716 150.37 136.106C151.608 135.343 153.01 134.887 154.46 134.776C155.907 134.639 157.367 134.845 158.72 135.376C159.74 135.816 160.25 136.346 160.14 136.656Z" fill="#263238"/>
<path d="M181.93 136.256C181.5 136.796 179.86 136.186 177.87 136.116C175.88 136.046 174.18 136.406 173.81 135.826C173.64 135.546 173.92 134.996 174.67 134.496C175.669 133.887 176.833 133.604 178 133.686C179.169 133.729 180.296 134.138 181.22 134.856C181.91 135.426 182.13 135.996 181.93 136.256Z" fill="#263238"/>
<path d="M170.64 118.376C170.64 118.376 154.31 117.646 141.4 135.726C132.89 147.646 130.72 162.856 130.72 162.856L125.27 133.626L130.39 120.576L141.87 114.516L163.33 113.946L171.33 118.186" fill="#13548D"/>
<path d="M138.58 118.946C164.79 113.446 185.34 122.676 188.58 143.186L194.19 129.916L181.19 113.216L166.49 108.926L136.49 112.576L138.58 118.946Z" fill="#13548D"/>
<path d="M126.8 160.846C127.734 159.918 128.88 159.231 130.14 158.846H129.89C130.12 158.796 130.354 158.766 130.59 158.756C131.015 158.658 131.455 158.646 131.885 158.721C132.314 158.797 132.724 158.958 133.09 159.196C134.467 159.773 135.579 160.843 136.21 162.196C136.69 163.398 136.831 164.709 136.618 165.986C136.405 167.262 135.845 168.456 135 169.436C134.382 170.339 133.504 171.032 132.483 171.424C131.462 171.817 130.346 171.89 129.282 171.634C128.219 171.378 127.258 170.806 126.527 169.992C125.797 169.178 125.33 168.161 125.19 167.076C124.916 165.986 124.919 164.844 125.201 163.756C125.482 162.668 126.032 161.667 126.8 160.846V160.846Z" fill="#455A64"/>
<path d="M133.19 151.736C132.777 151.671 132.384 151.514 132.04 151.276C131.067 150.674 130.27 149.825 129.73 148.816C128.869 147.298 128.646 145.499 129.11 143.816C129.35 142.896 129.72 141.996 129.9 141.056C130.02 140.605 130.026 140.132 129.917 139.678C129.809 139.224 129.59 138.805 129.28 138.456C128.545 137.777 127.708 137.217 126.8 136.796C125.902 136.319 125.11 135.666 124.47 134.876C123.419 133.527 122.811 131.885 122.73 130.176C122.666 129.037 122.876 127.899 123.34 126.856C123.484 126.479 123.71 126.138 124 125.856C123.412 127.22 123.152 128.703 123.24 130.186C123.379 131.767 123.984 133.271 124.98 134.506C125.576 135.22 126.311 135.805 127.14 136.226C128.119 136.679 129.02 137.283 129.81 138.016C130.191 138.448 130.46 138.966 130.594 139.525C130.729 140.085 130.724 140.669 130.58 141.226C130.37 142.226 129.98 143.166 129.74 144.036C129.313 145.552 129.474 147.173 130.19 148.576C130.656 149.541 131.341 150.383 132.19 151.036C132.86 151.496 133.26 151.676 133.19 151.736Z" fill="white"/>
<path d="M129.73 116.176C129.181 117.458 128.879 118.832 128.84 120.226C128.843 121.72 129.259 123.183 130.04 124.456C130.88 125.916 132.48 126.926 134.04 128.196C134.864 128.815 135.546 129.602 136.04 130.506C136.472 131.386 136.635 132.374 136.51 133.346C136.31 135.136 135.72 136.606 135.79 137.866C135.769 138.869 136.126 139.844 136.79 140.596C137.28 141.106 137.72 141.166 137.69 141.236C137.66 141.306 137.58 141.236 137.38 141.236C137.095 141.155 136.832 141.012 136.61 140.816C136.213 140.442 135.895 139.991 135.675 139.491C135.455 138.991 135.338 138.452 135.33 137.906C135.19 136.506 135.76 134.966 135.9 133.306C135.988 132.458 135.836 131.602 135.46 130.836C135.001 130.029 134.382 129.325 133.64 128.766C132.13 127.556 130.39 126.436 129.5 124.816C128.687 123.431 128.288 121.841 128.35 120.236C128.381 119.168 128.637 118.119 129.1 117.156C129.236 116.787 129.451 116.453 129.73 116.176Z" fill="white"/>
<path d="M147.68 129.096C147.68 129.096 147.47 129.356 146.97 129.236C146.675 129.155 146.415 128.979 146.23 128.736C145.981 128.413 145.854 128.014 145.87 127.606C145.87 126.726 146.36 125.826 146.43 124.916C146.5 124.006 145.74 123.176 144.74 122.636C143.662 122.154 142.715 121.421 141.98 120.496C141.404 119.716 141.03 118.806 140.89 117.846C140.684 116.975 140.801 116.058 141.22 115.266C141.207 116.096 141.261 116.925 141.38 117.746C141.583 118.603 141.964 119.408 142.5 120.106C143.206 120.933 144.092 121.586 145.09 122.016C145.651 122.312 146.147 122.717 146.55 123.206C146.949 123.698 147.139 124.326 147.08 124.956C146.93 126.126 146.39 126.956 146.37 127.626C146.329 127.895 146.374 128.17 146.498 128.412C146.622 128.655 146.818 128.852 147.06 128.976C147.41 129.146 147.66 129.036 147.68 129.096Z" fill="white"/>
<path d="M153.06 115.076C153.06 115.076 153.23 115.076 153.42 115.226C153.537 115.362 153.624 115.522 153.674 115.695C153.724 115.867 153.736 116.049 153.71 116.226C153.596 116.685 153.442 117.134 153.25 117.566C153.098 118.042 153.077 118.55 153.19 119.036C153.447 119.967 153.92 120.823 154.57 121.536C155.06 122.126 155.37 122.536 155.3 122.596C155.23 122.656 154.81 122.406 154.21 121.886C153.364 121.192 152.761 120.246 152.49 119.186C152.353 118.569 152.402 117.926 152.63 117.336C152.844 116.943 153.037 116.539 153.21 116.126C153.297 115.77 153.244 115.394 153.06 115.076V115.076Z" fill="white"/>
<path d="M179.37 106.336C179.37 106.336 179.31 106.616 179.06 107.036C178.81 107.456 178.39 108.036 178 108.726C177.555 109.554 177.451 110.523 177.71 111.426C178.109 112.613 178.351 113.847 178.43 115.096C178.408 116.396 178.001 117.659 177.26 118.726C176.647 119.582 175.829 120.27 174.88 120.726C174.054 121.222 173.078 121.403 172.13 121.236C172.999 120.983 173.843 120.648 174.65 120.236C175.478 119.763 176.184 119.102 176.71 118.306C177.345 117.332 177.691 116.199 177.71 115.036C177.632 113.842 177.414 112.66 177.06 111.516C176.931 110.994 176.909 110.451 176.995 109.92C177.081 109.389 177.273 108.881 177.56 108.426C177.939 107.859 178.363 107.324 178.83 106.826C179.19 106.516 179.32 106.316 179.37 106.336Z" fill="white"/>
<path d="M191.4 118.876C191.5 118.996 190.61 119.376 190.25 120.646C190.08 121.306 189.73 122.096 189.47 122.926C189.225 123.902 188.89 124.852 188.47 125.766C187.994 126.594 187.316 127.288 186.499 127.783C185.683 128.278 184.754 128.558 183.8 128.596C183.018 128.702 182.225 128.51 181.58 128.056C182.306 128.096 183.034 128.096 183.76 128.056C184.601 127.957 185.408 127.663 186.116 127.198C186.824 126.733 187.414 126.109 187.84 125.376C188.246 124.505 188.581 123.602 188.84 122.676C189.17 121.786 189.54 121.086 189.78 120.436C189.966 119.891 190.315 119.416 190.78 119.076C191.19 118.906 191.38 118.846 191.4 118.876Z" fill="white"/>
<path d="M193.19 136.376C193.27 136.376 193.19 136.816 192.82 137.376C192.293 138.072 191.54 138.56 190.69 138.758C189.841 138.955 188.949 138.848 188.17 138.456C187.59 138.146 187.34 137.816 187.4 137.746C187.46 137.676 188.83 138.456 190.53 138.066C192.23 137.676 193.08 136.266 193.19 136.376Z" fill="white"/>
<path d="M163.97 103.286C164.04 103.396 163.23 103.796 162.47 104.916C161.981 105.627 161.671 106.446 161.568 107.304C161.466 108.161 161.572 109.03 161.88 109.836C162.415 110.75 162.723 111.779 162.78 112.836C162.709 113.719 162.359 114.556 161.78 115.226C160.83 116.336 160.01 116.716 159.97 116.656C159.93 116.596 160.6 116.026 161.38 114.926C161.843 114.316 162.114 113.581 162.16 112.816C162.057 111.859 161.75 110.935 161.26 110.106C160.851 109.105 160.76 108.001 161 106.946C161.188 106.1 161.564 105.307 162.1 104.626C162.536 103.964 163.202 103.487 163.97 103.286V103.286Z" fill="white"/>
<path d="M147.19 115.356C147 115.276 147.58 113.736 147.64 111.766C147.7 109.796 147.28 108.216 147.48 108.156C147.68 108.096 148.48 109.656 148.35 111.796C148.22 113.936 147.37 115.456 147.19 115.356Z" fill="white"/>
<path d="M135.19 113.336C135.19 113.336 135.34 113.156 135.5 112.816C135.718 112.327 135.781 111.782 135.68 111.256C135.47 109.896 134.16 108.336 133.07 106.356C132.534 105.407 132.194 104.359 132.07 103.276C131.976 102.371 132.146 101.457 132.56 100.646C132.832 100.086 133.282 99.6326 133.84 99.3563C134.25 99.1963 134.5 99.2463 134.5 99.2863C134.5 99.3263 134.29 99.3863 133.97 99.6063C133.525 99.924 133.178 100.361 132.97 100.866C132.37 102.116 132.6 104.146 133.65 106.026C134.7 107.906 136 109.576 136.13 111.196C136.206 111.817 136.049 112.444 135.69 112.956C135.44 113.316 135.19 113.366 135.19 113.336Z" fill="white"/>
<path d="M151.96 105.976C151.96 105.976 152.07 105.756 152.35 105.456C152.748 105.107 153.028 104.642 153.15 104.126C153.011 103.358 152.624 102.656 152.05 102.126C151.43 101.426 150.6 100.776 149.76 99.9863C148.871 99.277 148.25 98.2859 148 97.1763C147.964 96.2496 148.216 95.3345 148.72 94.5563C149.08 93.8268 149.591 93.1824 150.22 92.6663C149.93 93.403 149.575 94.1124 149.16 94.7863C148.785 95.4962 148.608 96.2944 148.65 97.0963C148.928 98.0368 149.49 98.8682 150.26 99.4763C151.83 100.936 153.66 102.366 153.65 104.196C153.486 104.815 153.088 105.345 152.54 105.676C152.19 105.896 152 106.016 151.96 105.976Z" fill="white"/>
<path d="M168.19 103.576C168.667 103.172 169.015 102.637 169.19 102.036C169.328 101.39 169.265 100.716 169.01 100.106C168.674 99.3186 168.269 98.5623 167.8 97.8463C167.29 97.0766 166.949 96.2074 166.8 95.2963C166.723 94.512 166.917 93.725 167.35 93.0663C168.02 91.9063 168.98 91.7263 168.97 91.8463C168.475 92.2388 168.075 92.7379 167.8 93.3063C167.487 93.8838 167.365 94.5452 167.45 95.1963C167.64 96.0145 167.979 96.7907 168.45 97.4863C168.945 98.2383 169.354 99.0433 169.67 99.8863C169.924 100.628 169.924 101.434 169.67 102.176C169.509 102.68 169.185 103.116 168.75 103.416C168.4 103.576 168.19 103.626 168.19 103.576Z" fill="white"/>
<path d="M173.78 103.216C173.115 103.281 172.445 103.281 171.78 103.216C170.5 103.156 168.65 103.216 166.38 103.266C160.45 103.533 154.594 104.692 149.01 106.706C143.458 108.84 138.132 111.52 133.11 114.706L128.53 117.586C127.99 117.973 127.414 118.308 126.81 118.586C127.29 118.125 127.812 117.71 128.37 117.346C129.37 116.586 130.93 115.526 132.84 114.276C137.821 110.946 143.166 108.195 148.77 106.076C154.414 104.025 160.356 102.914 166.36 102.786C168.172 102.753 169.984 102.813 171.79 102.966C172.459 102.99 173.125 103.074 173.78 103.216V103.216Z" fill="#263238"/>
<path d="M132.19 118.076C132.252 118.064 132.313 118.044 132.37 118.016L132.86 117.826L133.65 117.506L134.76 117.126C137.112 116.335 139.549 115.821 142.02 115.596C145.688 115.268 149.383 115.395 153.02 115.976C155.08 116.276 157.21 116.726 159.42 117.246C161.63 117.766 163.88 118.386 166.15 119.166C175.31 122.116 182.26 128.166 185.31 133.606C186.528 135.765 187.424 138.089 187.97 140.506C188.17 141.366 188.29 142.036 188.37 142.506C188.37 142.716 188.44 142.886 188.47 143.026C188.463 143.083 188.463 143.14 188.47 143.196C188.47 143.196 188.47 143.136 188.47 143.016C188.47 142.896 188.47 142.706 188.41 142.496C188.336 141.824 188.226 141.157 188.08 140.496C187.592 138.045 186.728 135.684 185.52 133.496C182.52 127.926 175.52 121.796 166.24 118.816C163.96 118.036 161.68 117.426 159.47 116.906C157.26 116.386 155.11 115.906 153.04 115.646C149.371 115.076 145.644 114.979 141.95 115.356C139.46 115.602 137.011 116.16 134.66 117.016L133.57 117.436L132.79 117.796L132.31 118.026C132.28 118.036 132.19 118.066 132.19 118.076Z" fill="#263238"/>
<path d="M166.28 119.116C166.094 119.096 165.906 119.096 165.72 119.116C165.177 119.144 164.636 119.201 164.1 119.286C162.126 119.608 160.203 120.186 158.38 121.006C152.4 123.846 147.19 128.082 143.19 133.356C141.003 136.245 139.07 139.316 137.41 142.536C136.004 145.129 134.749 147.8 133.65 150.536C132.896 152.381 132.281 154.28 131.81 156.216C131.66 156.906 131.55 157.446 131.5 157.816C131.46 158.001 131.437 158.188 131.43 158.376C131.497 158.198 131.547 158.014 131.58 157.826C131.65 157.466 131.79 156.936 131.97 156.256C132.495 154.347 133.143 152.473 133.91 150.646C135.039 147.911 136.317 145.241 137.74 142.646C139.411 139.457 141.341 136.41 143.51 133.536C147.477 128.307 152.614 124.081 158.51 121.196C160.303 120.364 162.19 119.75 164.13 119.366C164.82 119.246 165.36 119.166 165.73 119.126C165.913 119.137 166.097 119.134 166.28 119.116V119.116Z" fill="#263238"/>
<path d="M309.19 253.336L296.62 245.446L275.57 249.386L259.78 263.276L233.78 272.846L234.99 295.216C234.99 295.216 275.88 272.416 279.1 270.326C282.32 268.236 288.45 261.816 288.45 261.816L296.64 259.696H306.29C307.124 258.435 308.104 257.277 309.21 256.246C310.34 255.386 309.19 253.336 309.19 253.336Z" fill="#AB6E65"/>
<path d="M281.77 258.386C282.281 258.183 282.77 257.928 283.23 257.626C284.14 257.106 285.44 256.346 287 255.406H286.91L295.1 254.516L295.8 254.436H295.73C299.47 254.996 302.82 255.436 305.24 255.796L308.11 256.156C308.46 256.216 308.815 256.236 309.17 256.216C308.847 256.094 308.512 256.007 308.17 255.956L305.33 255.446C302.92 255.026 299.57 254.446 295.84 253.916H295.77L295.07 253.996L286.9 254.996H286.85C285.31 255.996 284.05 256.786 283.17 257.366C282.671 257.659 282.202 258.001 281.77 258.386V258.386Z" fill="#7C4B43"/>
<path d="M280.87 253.336C281.462 253.132 282.035 252.875 282.58 252.566C283.65 252.036 285.17 251.256 286.99 250.296H286.91L295.02 249.386L297.16 249.126H297.05C300.46 250.366 303.48 251.446 305.65 252.206L308.22 253.066C308.541 253.192 308.877 253.276 309.22 253.316C308.942 253.137 308.643 252.992 308.33 252.886L305.82 251.886C303.68 251.056 300.68 249.886 297.27 248.646H297.2L295.06 248.896L286.96 249.896C285.15 250.896 283.66 251.726 282.63 252.316C282.01 252.596 281.421 252.938 280.87 253.336V253.336Z" fill="#7C4B43"/>
<path d="M358.31 183.506L330.99 254.816C330.886 255.087 330.728 255.333 330.525 255.539C330.322 255.745 330.078 255.908 329.81 256.016L258.71 284.456C258.387 284.585 258.037 284.632 257.691 284.592C257.345 284.553 257.015 284.429 256.729 284.231C256.443 284.033 256.21 283.767 256.051 283.458C255.893 283.148 255.813 282.804 255.82 282.456V282.456C255.824 282.044 255.948 281.642 256.177 281.299C256.406 280.956 256.73 280.688 257.11 280.526L326.28 251.476L353.55 181.576C353.654 181.313 353.811 181.074 354.011 180.873C354.211 180.672 354.45 180.514 354.713 180.409C354.975 180.303 355.257 180.252 355.54 180.258C355.823 180.265 356.102 180.329 356.36 180.446L357.2 180.816C357.697 181.034 358.089 181.436 358.296 181.938C358.503 182.439 358.508 183.001 358.31 183.506V183.506Z" fill="#E0E0E0"/>
<path d="M430.34 340.576C430.34 340.576 346.91 272.396 342.68 268.646C338.45 264.896 331.42 260.646 320.62 259.726C309.82 258.806 192.47 316.976 192.47 316.976L168.52 368.576C168.52 368.576 183.95 388.576 212.18 382.186C239.76 375.936 257.11 363.186 270.39 351.186C282.48 340.296 319.57 311.186 319.57 311.186L403.71 370.876L430.34 340.576Z" fill="#263238"/>
<path d="M319.58 295.216C319.324 297.875 319.237 300.547 319.32 303.216C319.231 305.886 319.314 308.558 319.57 311.216C319.839 308.559 319.929 305.886 319.84 303.216C319.922 300.547 319.836 297.875 319.58 295.216Z" fill="#455A64"/>
<path d="M203.19 281.926C202.856 273.198 201.325 264.558 198.64 256.246C194.25 243.086 170.93 212.946 170.93 212.946L169.83 207.426C169.83 207.426 144.08 189.836 138.23 186.906C132.38 183.976 128.29 184.046 128.29 184.046L127.52 189.756C127.52 189.756 113.52 203.686 112.63 218.396C111.92 230.146 112.7 265.326 112.7 265.326L116.19 389.066C116.19 389.066 197.02 389.276 204.55 388.696C212.08 388.116 211.49 385.476 211.49 385.476L202.19 309.376L203.19 281.926Z" fill="#13548D"/>
<path d="M136 198.846C142.362 203.474 148.266 208.701 153.63 214.456C163.38 224.686 190.18 268.756 190.18 268.756L235.37 266.226C236.146 266.125 236.931 266.323 237.566 266.78C238.201 267.237 238.639 267.919 238.79 268.686C240.16 275.576 243.12 293.216 238.85 300.196C233.48 308.976 227.15 307.516 227.15 307.516C227.15 307.516 181.82 312.086 175.48 307.606C169.14 303.126 132.34 257.716 126.01 242.126C119.68 226.536 112.12 198.376 136 198.846Z" fill="#13548D"/>
<path d="M126.01 242.126C126.01 242.126 126.09 242.336 126.27 242.746C126.45 243.156 126.74 243.746 127.1 244.566C127.46 245.386 128 246.326 128.61 247.456L129.61 249.276L130.85 251.276C134.35 256.996 139.85 265.026 147.17 274.656C150.83 279.476 154.92 284.656 159.44 290.216C161.71 292.976 164.08 295.816 166.58 298.686C167.84 300.116 169.11 301.576 170.46 303.016C171.12 303.736 171.79 304.466 172.51 305.166C173.203 305.902 173.941 306.593 174.72 307.236L175.3 307.736C175.52 307.876 175.77 308.006 176 308.136C176.475 308.348 176.967 308.522 177.47 308.656C178.474 308.924 179.497 309.118 180.53 309.236C182.59 309.506 184.69 309.636 186.81 309.706C191.05 309.856 195.39 309.776 199.81 309.616C208.64 309.296 217.81 308.616 227.17 307.736H227.09C229.26 308.003 231.454 307.508 233.3 306.336C235.192 305.168 236.82 303.619 238.08 301.786C239.084 300.431 239.845 298.912 240.33 297.296C240.764 295.69 241.042 294.046 241.16 292.386C241.392 289.139 241.358 285.878 241.06 282.636C240.8 279.436 240.39 276.276 239.87 273.186C239.61 271.636 239.33 270.106 239.03 268.576C238.856 267.753 238.379 267.026 237.693 266.539C237.008 266.052 236.164 265.84 235.33 265.946V265.946L190.19 268.576L190.39 268.686C180.5 252.196 171.97 238.796 165.69 229.686C162.53 225.126 159.99 221.606 158.11 219.326C157.21 218.156 156.43 217.326 155.93 216.756C155.43 216.186 155.14 215.916 155.14 215.916C155.14 215.916 155.38 216.226 155.88 216.806C156.38 217.386 157.13 218.226 158.01 219.406C159.86 221.706 162.36 225.256 165.48 229.826C171.7 238.996 180.17 252.436 190.02 268.926L190.08 269.046H190.19L235.38 266.546C236.086 266.456 236.801 266.635 237.381 267.048C237.962 267.462 238.365 268.079 238.51 268.776C238.81 270.296 239.09 271.826 239.35 273.366C239.86 276.456 240.27 279.596 240.53 282.786C240.82 285.999 240.85 289.229 240.62 292.446C240.505 294.069 240.234 295.676 239.81 297.246C239.345 298.808 238.61 300.277 237.64 301.586C236.422 303.358 234.849 304.856 233.02 305.986C231.288 307.09 229.229 307.563 227.19 307.326H227.1C217.73 308.226 208.58 308.886 199.77 309.216C195.36 309.376 191.04 309.456 186.77 309.326C184.66 309.246 182.57 309.136 180.53 308.866C179.517 308.749 178.515 308.559 177.53 308.296C176.56 308.106 175.663 307.649 174.94 306.976C174.175 306.356 173.45 305.688 172.77 304.976C172.06 304.286 171.38 303.566 170.77 302.846C169.43 301.416 168.16 299.966 166.9 298.536C164.393 295.663 162.007 292.85 159.74 290.096C155.21 284.586 151.1 279.386 147.44 274.586C140.1 264.986 134.54 256.996 131 251.316L129.74 249.316L128.74 247.506C128.11 246.386 127.54 245.456 127.19 244.646L126.32 242.846C126.12 242.326 126.01 242.126 126.01 242.126Z" fill="#263238"/>
<path d="M181.19 287.776C181.581 286.814 181.915 285.828 182.19 284.826C183.702 280.087 185.826 275.565 188.51 271.376C189.106 270.529 189.656 269.651 190.16 268.746C189.403 269.478 188.732 270.293 188.16 271.176C186.727 273.234 185.469 275.408 184.4 277.676C183.333 279.931 182.459 282.273 181.79 284.676C181.475 285.684 181.273 286.724 181.19 287.776Z" fill="#263238"/>
<path d="M188.49 287.946C188.617 287.002 188.671 286.049 188.65 285.096C188.65 283.336 188.8 280.906 189.02 278.236C189.24 275.566 189.54 273.156 189.78 271.416C189.958 270.483 190.065 269.537 190.1 268.586C189.772 269.482 189.544 270.411 189.42 271.356C188.999 273.619 188.696 275.902 188.51 278.196C188.313 280.487 188.236 282.787 188.28 285.086C188.255 286.044 188.325 287.002 188.49 287.946Z" fill="#263238"/>
<path d="M224.88 308.136C225.071 307.627 225.215 307.102 225.31 306.566C225.57 305.566 225.88 304.076 226.21 302.236C227.073 297.441 227.611 292.594 227.82 287.726C228.02 282.86 227.896 277.986 227.45 273.136C227.27 271.276 227.09 269.776 226.92 268.746C226.866 268.205 226.765 267.67 226.62 267.146C226.61 267.688 226.644 268.23 226.72 268.766C226.82 269.766 226.95 271.306 227.08 273.166C227.784 282.848 227.371 292.579 225.85 302.166C225.56 304.006 225.31 305.486 225.12 306.516C224.996 307.049 224.916 307.591 224.88 308.136Z" fill="#263238"/>
<path d="M127.49 189.756C127.64 189.865 127.805 189.953 127.98 190.016L129.41 190.666C130.65 191.226 132.41 192.076 134.57 193.216C140.129 196.283 145.474 199.72 150.57 203.506C156.57 207.836 161.87 211.866 165.89 214.606L166.05 214.716L166.15 214.556C167.46 212.416 168.21 210.556 168.85 209.336C169.16 208.716 169.41 208.236 169.59 207.926C169.696 207.772 169.78 207.604 169.84 207.426C169.711 207.56 169.596 207.707 169.5 207.866C169.29 208.166 169.01 208.636 168.67 209.236C167.97 210.436 167.16 212.236 165.84 214.346H166.1C162.1 211.546 156.85 207.466 150.88 203.126C145.777 199.334 140.395 195.931 134.78 192.946C132.6 191.836 130.78 191.036 129.53 190.526L128.06 189.966C127.882 189.868 127.69 189.797 127.49 189.756Z" fill="#263238"/>
<g opacity="0.3">
<path opacity="0.3" d="M169.19 301.466L169.27 301.566C171.22 303.902 173.653 305.789 176.401 307.095C179.149 308.402 182.147 309.098 185.19 309.136L202.19 309.376C197.19 311.596 191.87 314.376 186.46 315.316C181.05 316.256 175.18 315.816 170.46 312.946C166.34 310.416 163.46 306.286 160.79 302.286C151.64 288.776 142.45 275.186 135.74 260.286C147.13 273.926 157.82 287.856 169.19 301.466Z" fill="black"/>
</g>
<g opacity="0.3">
<path opacity="0.3" d="M169.45 207.986L166.21 218.336L137.82 194.796L165.95 214.456L169.45 207.986Z" fill="black"/>
</g>
<path d="M122.41 234.406C122.41 234.406 122.25 233.756 121.96 232.596C121.551 230.956 121.29 229.283 121.18 227.596C121.014 225.099 121.243 222.592 121.86 220.166C122.631 217.214 124.068 214.478 126.06 212.166C128.039 209.832 130.603 208.065 133.49 207.046C135.858 206.256 138.377 206.023 140.85 206.366C142.52 206.604 144.138 207.118 145.64 207.886C146.7 208.436 147.23 208.886 147.26 208.806C147.152 208.684 147.027 208.576 146.89 208.486C146.524 208.202 146.139 207.941 145.74 207.706C144.247 206.849 142.61 206.273 140.91 206.006C138.372 205.6 135.774 205.802 133.33 206.596C130.347 207.614 127.697 209.422 125.66 211.826C123.615 214.21 122.156 217.038 121.4 220.086C120.795 222.565 120.596 225.124 120.81 227.666C120.977 229.362 121.312 231.037 121.81 232.666C121.99 233.246 122.14 233.686 122.26 233.986C122.292 234.132 122.343 234.273 122.41 234.406Z" fill="#263238"/>
<path d="M196.46 309.406C196.436 309.676 196.436 309.947 196.46 310.216C196.46 310.796 196.56 311.566 196.63 312.536C196.78 314.536 197.04 317.446 197.38 321.036C198.06 328.206 199.13 338.106 200.38 349.036C201.63 359.966 202.71 369.796 203.52 377.036C203.91 380.576 204.22 383.456 204.44 385.516C204.55 386.516 204.64 387.246 204.71 387.816C204.731 388.085 204.771 388.353 204.83 388.616C204.854 388.347 204.854 388.076 204.83 387.806C204.83 387.236 204.73 386.466 204.66 385.496C204.51 383.496 204.25 380.586 203.91 376.996C203.23 369.826 202.16 359.926 200.91 348.996C199.66 338.066 198.58 328.226 197.77 320.996C197.38 317.456 197.07 314.566 196.85 312.516C196.74 311.516 196.65 310.786 196.59 310.206C196.569 309.936 196.525 309.669 196.46 309.406Z" fill="#263238"/>
<path d="M166.19 213.906C166.304 214.085 166.435 214.252 166.58 214.406L167.75 215.786C168.75 216.986 170.19 218.786 171.88 220.986C176.25 226.846 180.258 232.967 183.88 239.316C187.586 245.614 190.795 252.19 193.48 258.986C194.293 261.042 194.916 263.167 195.34 265.336C195.471 266.133 195.544 266.939 195.56 267.746C195.609 267.543 195.636 267.335 195.64 267.126C195.663 266.518 195.629 265.909 195.54 265.306C195.191 263.104 194.618 260.942 193.83 258.856C191.239 251.997 188.064 245.373 184.34 239.056C180.711 232.69 176.651 226.579 172.19 220.766C170.45 218.546 168.97 216.816 167.91 215.656C167.39 215.066 166.91 214.656 166.67 214.336C166.531 214.171 166.37 214.026 166.19 213.906Z" fill="#263238"/>
<g opacity="0.3">
<path opacity="0.3" d="M112.65 266.156C112.59 264.086 112.97 260.306 114.98 259.856C118.07 259.156 125.55 269.586 127.1 272.346C135.92 288.036 138.35 300.176 139.26 315.766C140.17 331.356 142.52 346.596 148 361.216C153.48 375.836 166.42 387.576 181.91 388.886L116.19 389.066C115.19 350.126 113.69 305.096 112.65 266.156Z" fill="black"/>
</g>
<path d="M659.82 389.146C659.82 389.006 516.3 388.886 339.31 388.886C162.32 388.886 18.77 389.006 18.77 389.146C18.77 389.286 162.26 389.406 339.31 389.406C516.36 389.406 659.82 389.286 659.82 389.146Z" fill="#263238"/>
<path d="M46.3799 255.676C46.3799 255.676 89.1799 254.836 100.59 255.676C112.59 256.556 119.39 262.786 119.71 272.676C119.86 277.136 125.05 375.786 123.42 381.166C120.5 390.846 109.49 389.166 102.36 389.166H33.3599C27.9099 385.486 26.4399 377.796 26.7999 364.596C27.1599 351.396 24.9299 283.596 24.6599 273.996C24.0299 253.626 46.3799 255.676 46.3799 255.676Z" fill="#455A64"/>
<path d="M106.47 384.276H105.74H103.6L95.3699 384.216L65.0799 383.976C58.6799 383.916 51.6699 383.846 44.1499 383.676C42.2799 383.606 40.3499 383.606 38.4399 383.386C37.4864 383.283 36.5532 383.04 35.6699 382.666C34.7818 382.305 34.0103 381.707 33.4399 380.936C32.8794 380.13 32.5351 379.194 32.4399 378.216C32.3499 377.216 32.4399 376.216 32.3599 375.166C32.2999 373.106 32.2332 371.016 32.1599 368.896C31.8799 360.436 31.5899 351.556 31.4299 342.336C31.3599 337.736 31.2599 333.036 31.4299 328.336C31.4299 327.746 31.4299 327.146 31.5399 326.566L31.6299 325.686L31.8299 324.846C32.1687 323.729 32.7568 322.703 33.5499 321.846C35.2215 320.136 37.3378 318.928 39.6599 318.356H89.7599C91.9399 318.356 94.0999 318.356 96.2399 318.256C100.49 318.096 104.68 317.736 108.61 318.546C110.543 318.862 112.327 319.779 113.71 321.166C114.942 322.607 115.679 324.405 115.81 326.296C116.39 333.846 116.7 340.916 116.96 347.356C117.22 353.796 117.31 359.636 117.23 364.756C117.16 367.316 117.11 369.706 116.84 371.876C116.792 372.407 116.711 372.935 116.6 373.456C116.54 373.706 116.5 373.966 116.45 374.206L116.21 374.926C115.904 375.818 115.495 376.671 114.99 377.466C114.135 378.809 113.075 380.01 111.85 381.026C110.96 381.775 110.006 382.444 109 383.026C108.384 383.392 107.75 383.726 107.1 384.026L106.43 384.336C106.665 384.264 106.895 384.177 107.12 384.076C107.783 383.776 108.431 383.443 109.06 383.076C110.077 382.491 111.044 381.822 111.95 381.076C113.198 380.06 114.281 378.855 115.16 377.506C115.681 376.699 116.104 375.833 116.42 374.926C116.5 374.686 116.58 374.446 116.67 374.196C116.76 373.946 116.77 373.686 116.83 373.436C116.943 372.908 117.03 372.374 117.09 371.836C117.37 369.646 117.44 367.256 117.52 364.696C117.63 359.566 117.52 353.696 117.32 347.276C117.12 340.856 116.81 333.766 116.24 326.186C116.106 324.2 115.334 322.309 114.04 320.796C112.59 319.342 110.724 318.374 108.7 318.026C104.7 317.196 100.46 317.556 96.2199 317.706C94.0899 317.816 91.9299 317.796 89.7499 317.796H39.5399C37.1172 318.394 34.9104 319.658 33.1699 321.446C32.3207 322.361 31.6945 323.46 31.3399 324.656L31.1199 325.556L31.0299 326.466C30.9499 327.066 30.9399 327.666 30.9199 328.266C30.7499 333.036 30.8499 337.726 30.9199 342.336C31.0899 351.556 31.3899 360.446 31.6799 368.906C31.7532 371.02 31.8266 373.106 31.8999 375.166C31.8999 376.166 31.8999 377.166 31.9799 378.256C32.0544 379.303 32.3989 380.313 32.9799 381.186C33.5945 382.027 34.4331 382.679 35.3999 383.066C36.3247 383.457 37.3017 383.71 38.2999 383.816C40.2999 384.046 42.1699 384.026 44.0499 384.096C51.5799 384.256 58.5899 384.296 64.9799 384.336L95.2799 384.406H103.51H105.65C106.19 384.296 106.47 384.276 106.47 384.276Z" fill="#263238"/>
<path d="M31.7199 385.966C31.7199 385.966 31.6399 385.686 31.4699 385.166C31.2069 384.389 30.9996 383.593 30.8499 382.786C30.3323 379.672 29.9984 376.53 29.8499 373.376C29.5999 369.276 29.4599 364.246 29.4499 358.376C29.4499 356.916 29.4499 355.376 29.4499 353.846C29.4499 352.316 29.5099 350.676 29.4499 349.016C29.4499 345.706 29.3499 342.196 29.2899 338.516C29.0699 323.806 28.7999 306.286 28.4999 286.826C28.4999 284.4 28.4633 281.94 28.3899 279.446C28.3378 276.946 28.6752 274.453 29.3899 272.056C30.1341 269.63 31.5154 267.447 33.3899 265.736C34.3284 264.862 35.3733 264.109 36.4999 263.496C37.6707 262.94 38.9123 262.546 40.1899 262.326C42.8015 261.829 45.4446 261.515 48.0999 261.386C50.7799 261.216 53.4799 261.156 56.2199 261.156L72.8399 260.846C78.4599 260.766 83.9999 260.706 89.4699 260.706C92.1999 260.706 94.9199 260.706 97.5999 260.786C98.9499 260.786 100.29 260.846 101.6 260.946C102.27 260.946 102.91 261.056 103.6 261.136C104.242 261.265 104.876 261.429 105.5 261.626C107.99 262.371 110.243 263.749 112.04 265.626C113.79 267.47 114.943 269.798 115.35 272.306C115.87 277.306 116.04 282.306 116.35 287.196C116.8 296.916 117.22 306.146 117.61 314.796C118 323.446 118.44 331.486 118.8 338.796C119.16 346.106 119.5 352.796 119.8 358.626C119.95 361.546 120.08 364.266 120.21 366.766C120.34 369.266 120.53 371.556 120.43 373.596C120.284 376.751 119.702 379.871 118.7 382.866C118.37 383.866 118.06 384.656 117.85 385.166C117.64 385.676 117.52 385.946 117.52 385.946C117.66 385.7 117.787 385.446 117.9 385.186C118.13 384.686 118.45 383.916 118.8 382.896C119.845 379.902 120.462 376.774 120.63 373.606C120.75 371.536 120.55 369.256 120.46 366.756C120.37 364.256 120.22 361.536 120.09 358.616C119.82 352.776 119.52 346.126 119.18 338.776C118.51 324.076 117.72 306.566 116.84 287.126C116.58 282.266 116.41 277.296 115.84 272.196C115.423 269.587 114.227 267.165 112.41 265.246C110.549 263.315 108.22 261.899 105.65 261.136C104.994 260.928 104.326 260.761 103.65 260.636C102.97 260.546 102.29 260.456 101.65 260.436C100.31 260.336 98.9699 260.316 97.6499 260.266C94.9499 260.266 92.2399 260.186 89.4999 260.186C84.0299 260.186 78.4999 260.246 72.8599 260.326L56.2399 260.636C53.5099 260.636 50.7799 260.706 48.0899 260.876C45.4043 261.005 42.7311 261.323 40.0899 261.826C38.7652 262.05 37.479 262.461 36.2699 263.046C35.1049 263.684 34.0233 264.463 33.0499 265.366C31.1087 267.138 29.676 269.396 28.8999 271.906C28.178 274.353 27.8407 276.896 27.8999 279.446C27.9399 281.94 27.9799 284.403 28.0199 286.836C28.3599 306.286 28.6699 323.836 28.9299 338.516C28.9899 342.196 29.0599 345.696 29.1199 349.016C29.1199 350.676 29.1199 352.276 29.1199 353.846V358.376C29.1199 364.226 29.3299 369.266 29.6099 373.376C29.7888 376.533 30.1628 379.676 30.7299 382.786C30.8884 383.593 31.1125 384.386 31.3999 385.156C31.6099 385.706 31.7199 385.966 31.7199 385.966Z" fill="#263238"/>
<path d="M109.26 327.386C109.153 327.376 109.046 327.376 108.94 327.386H107.94H104.07L89.5099 327.326L38.8599 327.206H38.6499V327.416C37.4499 336.416 36.1499 346.096 34.7999 356.196V356.486H37.9099L111.31 356.406H111.5V356.216C110.84 347.286 110.31 340.076 109.94 335.086C109.76 332.636 109.61 330.726 109.51 329.406C109.51 328.776 109.41 328.286 109.39 327.936C109.37 327.586 109.33 327.456 109.33 327.456C109.33 327.456 109.33 327.636 109.33 327.976C109.33 328.316 109.33 328.836 109.41 329.476C109.49 330.806 109.61 332.726 109.76 335.206C110.08 340.206 110.55 347.346 111.12 356.206L111.3 356.016L37.8999 355.936H35.0899L35.3499 356.226C36.6898 346.136 37.9799 336.406 39.1699 327.456L38.9199 327.666L89.4099 327.556L104.03 327.486H107.94H108.94L109.26 327.386Z" fill="#263238"/>
<path d="M87.4099 335.056H97.0999V379.486H87.4099V335.056Z" fill="#263238"/>
<path d="M46.6399 335.056H56.1399V380.976H46.6399V335.056Z" fill="#263238"/>
<path d="M85.8698 257.576C86.7398 254.496 85.4098 249.576 83.1298 247.446C81.7142 246.293 79.9554 245.642 78.1298 245.596C72.7998 245.026 67.3798 244.696 62.0198 244.596C60.1215 244.455 58.2185 244.799 56.4898 245.596C55.4605 246.196 54.5711 247.008 53.8813 247.979C53.1914 248.95 52.717 250.057 52.4898 251.226C52.1362 253.183 52.0621 255.179 52.2698 257.156L56.2698 256.906C56.0962 255.308 56.1399 253.693 56.3998 252.106C56.5078 251.495 56.7412 250.913 57.0854 250.397C57.4297 249.88 57.8773 249.441 58.3998 249.106C59.5354 248.654 60.7644 248.485 61.9798 248.616C67.2098 248.686 72.4998 249.006 77.7098 249.566C78.6829 249.564 79.6366 249.838 80.4598 250.356C81.1262 251.216 81.6122 252.201 81.8889 253.252C82.1655 254.304 82.2271 255.4 82.0698 256.476L85.8698 257.576Z" fill="#455A64"/>
<path d="M47.8699 283.686H96.2399V297.766H47.8699V283.686Z" fill="white"/>
<path d="M280.19 358.207C280.49 358.617 281.26 379.207 283.19 380.547C285.12 381.887 296.06 386.277 296.19 388.197V388.767L255.55 388.957V384.657L281.07 385.657C281.07 385.657 277.78 384.217 277.78 381.907C277.78 379.597 278.19 363.627 278.05 363.087C277.91 362.547 280.19 358.207 280.19 358.207Z" fill="#263238"/>
<path d="M267.14 340.966C267.14 340.966 275.26 344.636 278.07 350.966C280.88 357.296 280.7 363.026 280.57 368.286C280.44 373.546 275.94 389.996 258.85 388.916H257.06V335.816H265.73V340.276L267.14 340.966Z" fill="#455A64"/>
<path d="M249.54 340.966C249.54 340.966 241.41 344.636 238.61 350.966C235.81 357.296 235.98 363.026 236.1 368.286C236.22 373.546 240.74 389.996 257.83 388.916H259.61V335.816H250.94V340.276L249.54 340.966Z" fill="#455A64"/>
<path d="M263.97 325.576H253.19C252.744 325.576 252.317 325.753 252.002 326.068C251.687 326.384 251.51 326.811 251.51 327.256V334.336H265.65V327.256C265.65 326.811 265.473 326.384 265.158 326.068C264.843 325.753 264.415 325.576 263.97 325.576V325.576Z" fill="#E0E0E0"/>
<path d="M250.46 333.707H266.33C266.838 333.707 267.25 334.118 267.25 334.627V335.407C267.25 335.915 266.838 336.327 266.33 336.327H250.46C249.952 336.327 249.54 335.915 249.54 335.407V334.627C249.54 334.118 249.952 333.707 250.46 333.707Z" fill="#E0E0E0"/>
<path d="M250.52 333.707C255.624 334.053 260.746 334.053 265.85 333.707C260.746 333.36 255.624 333.36 250.52 333.707Z" fill="#455A64"/>
<path d="M467.87 341.386L506.44 319.406L574.16 344.076L628.79 388.956H428.83L467.87 341.386Z" fill="#F5F5F5"/>
<path d="M628.79 388.956L559.47 348.656L467.87 341.386L507.98 317.636L574.16 344.076L628.79 388.956Z" fill="#E0E0E0"/>
<path d="M528.48 389.066L494.5 366.076L462.89 363.826L489.33 369.696L502.53 388.956L528.48 389.066Z" fill="#E0E0E0"/>
<path d="M461.81 363.346C462.632 363.53 463.468 363.64 464.31 363.676L471.22 364.296L494.47 366.096L494.27 366.026L498.07 368.636C506.59 374.476 514.33 379.716 519.96 383.486L526.64 387.906L528.48 389.066C528.91 389.326 529.14 389.456 529.16 389.426C529.18 389.396 528.98 389.236 528.58 388.926L526.83 387.636L520.29 382.996C514.75 379.106 507.07 373.786 498.55 367.946L494.74 365.336L494.64 365.276H494.53L471.25 363.756L464.33 363.386C463.492 363.307 462.65 363.294 461.81 363.346Z" fill="#263238"/>
<path d="M467.99 341.236C467.99 341.236 467.74 341.506 467.28 342.046L465.22 344.486L457.3 353.926L428.04 388.926L427.79 389.216H428.19H591.54H628.81H629.52L628.97 388.756L574.46 344.106L508.46 317.526H508.39H508.32L478.64 334.996L470.79 339.646L468.79 340.846C468.34 341.116 468.12 341.266 468.12 341.266L468.82 340.876L470.82 339.706L478.72 335.126L508.36 317.776H508.19L574.19 344.486H574.13C590.74 358.106 609.13 373.176 628.6 389.186L628.77 388.726H591.5L428.15 388.926L428.29 389.216L457.42 354.076L465.26 344.576L467.26 342.096C467.77 341.576 467.99 341.236 467.99 341.236Z" fill="#263238"/>
<path d="M369.4 76.0763C369.4 76.1463 370.51 75.6963 372.56 75.2463C375.46 74.6124 378.45 74.4972 381.39 74.9063C385.756 75.4776 389.877 77.2541 393.29 80.0364C397.47 83.444 400.42 88.1254 401.69 93.3663V93.5163L401.93 94.4663L402.3 93.5664C404.336 88.5911 407.842 84.3559 412.35 81.4264C416.026 79.0338 420.254 77.6223 424.63 77.3263C427.578 77.1145 430.541 77.3882 433.4 78.1363C435.4 78.6663 436.5 79.1363 436.52 79.0763C436.281 78.9251 436.026 78.801 435.76 78.7064C435.015 78.3864 434.25 78.1158 433.47 77.8964C429.889 76.8392 426.123 76.56 422.425 77.0774C418.728 77.5948 415.183 78.8969 412.03 80.8964C407.396 83.8716 403.789 88.2008 401.7 93.2963L402.31 93.3464V93.1963C401.011 87.8251 397.969 83.0356 393.66 79.5763C390.153 76.7539 385.921 74.9791 381.45 74.4564C378.459 74.078 375.424 74.2611 372.5 74.9963C371.71 75.1888 370.935 75.4361 370.18 75.7364C369.911 75.8267 369.65 75.9404 369.4 76.0763Z" fill="#263238"/>
<path d="M296.5 6.46631C296.938 7.04265 297.412 7.59043 297.92 8.10631C299.209 9.58356 300.373 11.1657 301.4 12.8363C304.814 18.3491 306.606 24.7121 306.57 31.1963C306.57 31.2763 306.57 31.3563 306.57 31.4263L307.2 31.4863C308.189 25.1232 311.147 19.2301 315.66 14.6363C317.552 12.7765 319.618 11.1022 321.83 9.63631C321.65 9.68739 321.478 9.7649 321.32 9.86631C321.01 10.0463 320.52 10.2763 319.94 10.6663C318.281 11.7189 316.739 12.9459 315.34 14.3263C310.644 18.9158 307.567 24.9064 306.57 31.3963L307.21 31.4563V31.2163C307.265 24.6052 305.377 18.1234 301.78 12.5763C300.709 10.906 299.477 9.34516 298.1 7.91631C297.63 7.40631 297.21 7.05631 296.94 6.80631C296.808 6.67537 296.66 6.56118 296.5 6.46631V6.46631Z" fill="#263238"/>
<path d="M487.25 40.8663C487.25 40.9263 487.87 40.6963 489 40.4663C490.59 40.1425 492.223 40.0918 493.83 40.3163C496.204 40.6521 498.442 41.6307 500.3 43.1463C502.574 45.0036 504.179 47.553 504.87 50.4063V50.4863L505.11 51.4863L505.48 50.5763C506.59 47.8663 508.498 45.5577 510.95 43.9563C512.949 42.6494 515.248 41.8717 517.63 41.6963C519.244 41.5746 520.867 41.7062 522.44 42.0863C523.55 42.3663 524.15 42.6063 524.17 42.5563C524.19 42.5063 524.04 42.4563 523.76 42.3263C523.35 42.1411 522.929 41.9808 522.5 41.8463C520.918 41.3599 519.263 41.1568 517.61 41.2463C515.123 41.3644 512.71 42.1296 510.61 43.4663C508.035 45.1104 506.03 47.5097 504.87 50.3363H505.48V50.2563C504.761 47.2663 503.069 44.5999 500.67 42.6763C498.717 41.1165 496.363 40.1391 493.88 39.8563C492.223 39.6576 490.543 39.7763 488.93 40.2063C488.494 40.3216 488.067 40.4653 487.65 40.6363C487.38 40.7763 487.19 40.8463 487.25 40.8663Z" fill="#263238"/>
</svg>
