<svg id="Layer_1" data-name="Layer 1" xmlns="http://www.w3.org/2000/svg" xmlns:xlink="http://www.w3.org/1999/xlink" width="163" height="48.3" viewBox="0 0 163 48.3">
  <defs>
    <style>
      .cls-1 {
        fill: #a6a6a6;
      }

      .cls-2 {
        fill: url(#linear-gradient);
      }

      .cls-3 {
        fill: url(#linear-gradient-2);
      }

      .cls-4 {
        fill: url(#linear-gradient-3);
      }

      .cls-5 {
        fill: url(#linear-gradient-4);
      }

      .cls-6 {
        opacity: 0.2;
      }

      .cls-6, .cls-7, .cls-8 {
        isolation: isolate;
      }

      .cls-7 {
        opacity: 0.12;
      }

      .cls-8, .cls-9 {
        fill: #fff;
      }

      .cls-8 {
        opacity: 0.25;
      }
    </style>
    <linearGradient id="linear-gradient" x1="-1000.23" y1="-707.67" x2="-1001.32" y2="-706.58" gradientTransform="translate(18549.17 13115.55) scale(18.52)" gradientUnits="userSpaceOnUse">
      <stop offset="0" stop-color="#00a0ff"/>
      <stop offset="0.01" stop-color="#00a1ff"/>
      <stop offset="0.26" stop-color="#00beff"/>
      <stop offset="0.51" stop-color="#00d2ff"/>
      <stop offset="0.76" stop-color="#00dfff"/>
      <stop offset="1" stop-color="#00e3ff"/>
    </linearGradient>
    <linearGradient id="linear-gradient-2" x1="-999.45" y1="-706.93" x2="-1001.03" y2="-706.93" gradientTransform="translate(18549.17 13115.55) scale(18.52)" gradientUnits="userSpaceOnUse">
      <stop offset="0" stop-color="#ffe000"/>
      <stop offset="0.41" stop-color="#ffbd00"/>
      <stop offset="0.78" stop-color="orange"/>
      <stop offset="1" stop-color="#ff9c00"/>
    </linearGradient>
    <linearGradient id="linear-gradient-3" x1="-1000.04" y1="-706.79" x2="-1001.52" y2="-705.31" gradientTransform="translate(18549.17 13115.55) scale(18.52)" gradientUnits="userSpaceOnUse">
      <stop offset="0" stop-color="#ff3a44"/>
      <stop offset="1" stop-color="#c31162"/>
    </linearGradient>
    <linearGradient id="linear-gradient-4" x1="-1001.18" y1="-708.22" x2="-1000.52" y2="-707.56" gradientTransform="translate(18549.17 13115.55) scale(18.52)" gradientUnits="userSpaceOnUse">
      <stop offset="0" stop-color="#32a071"/>
      <stop offset="0.07" stop-color="#2da771"/>
      <stop offset="0.48" stop-color="#15cf74"/>
      <stop offset="0.8" stop-color="#06e775"/>
      <stop offset="1" stop-color="#00f076"/>
    </linearGradient>
  </defs>
  <title>Store</title>
  <g>
    <path d="M157,48.15H6a6,6,0,0,1-6-6v-36a6,6,0,0,1,6-6H157a6,6,0,0,1,6,6v36A6,6,0,0,1,157,48.15Z"/>
    <path class="cls-1" d="M157,1.11a5.08,5.08,0,0,1,5.07,5v36a5.08,5.08,0,0,1-5.07,5H6a5.08,5.08,0,0,1-5.07-5v-36A5.08,5.08,0,0,1,6,1.11H157m0-1H6a6,6,0,0,0-6,6v36a6,6,0,0,0,6,6H157a6,6,0,0,0,6-6v-36A6,6,0,0,0,157,.15Z"/>
    <path class="cls-2" d="M12.56,9.15a2.3,2.3,0,0,0-.49,1.68V37.35A2.38,2.38,0,0,0,12.68,39l.12.12,15-14.88V24Z"/>
    <path class="cls-3" d="M32.6,29.31l-5-4.92V24l5-4.92.12.12,5.92,3.36c1.69,1,1.69,2.52,0,3.48Z"/>
    <path class="cls-4" d="M32.72,29.19l-5.07-5-15.09,15c.6.6,1.45.6,2.53.12L32.72,29.19"/>
    <path class="cls-5" d="M32.72,19.11l-17.63-10a2,2,0,0,0-2.53.12L27.65,24.15l5.07-5Z"/>
    <path class="cls-6" d="M32.6,29.07,15.09,38.91a2,2,0,0,1-2.41,0l-.12.12.12.12a2,2,0,0,0,2.41,0Z"/>
    <path class="cls-7" d="M12.56,38.91a2.3,2.3,0,0,1-.49-1.68v.12A2.38,2.38,0,0,0,12.68,39v-.12Zm26.08-13.2-6,3.36.12.12,5.92-3.36a2,2,0,0,0,1.2-1.68C39.84,24.75,39.36,25.23,38.64,25.71Z"/>
    <path class="cls-8" d="M15.09,9.27,38.64,22.59c.72.48,1.2,1,1.2,1.56a2,2,0,0,0-1.2-1.68L15.09,9.15c-1.69-1-3-.24-3,1.68V11C12.07,9.15,13.4,8.31,15.09,9.27Z"/>
    <g>
      <path class="cls-9" d="M82.22,26.82A5.07,5.07,0,0,0,77,32a5.14,5.14,0,0,0,5.19,5.16A5.07,5.07,0,0,0,87.42,32,5,5,0,0,0,82.22,26.82Zm0,8.16a3.13,3.13,0,0,1,0-6.24,2.92,2.92,0,0,1,2.9,3.12A3,3,0,0,1,82.22,35ZM71,26.82A5.07,5.07,0,0,0,65.8,32,5.14,5.14,0,0,0,71,37.14,5.07,5.07,0,0,0,76.19,32,5,5,0,0,0,71,26.82ZM71,35a3.13,3.13,0,0,1,0-6.24,2.91,2.91,0,0,1,2.89,3.12A3,3,0,0,1,71,35Zm-13.41-6.6v2.16h5.2a4.6,4.6,0,0,1-1.21,2.76,5.37,5.37,0,0,1-4,1.56,5.6,5.6,0,0,1-5.67-5.76,5.67,5.67,0,0,1,5.67-5.76,6,6,0,0,1,4,1.56l1.57-1.56a7.77,7.77,0,0,0-5.44-2.16,8.13,8.13,0,0,0-8.09,7.92A8.13,8.13,0,0,0,57.71,37a7,7,0,0,0,5.56-2.28,7.19,7.19,0,0,0,1.93-5,4.5,4.5,0,0,0-.12-1.32Zm54.82,1.68a4.68,4.68,0,0,0-4.35-3.24A4.85,4.85,0,0,0,103.23,32a5,5,0,0,0,5.07,5.16,5,5,0,0,0,4.23-2.28l-1.69-1.2a3,3,0,0,1-2.54,1.44,2.62,2.62,0,0,1-2.53-1.56l6.88-2.88-.24-.6Zm-7,1.68a2.92,2.92,0,0,1,2.65-3A2.13,2.13,0,0,1,110,29.82l-4.58,1.92Zm-5.68,4.92H102v-15h-2.3ZM96.11,27.9a4,4,0,0,0-2.78-1.2,5.17,5.17,0,0,0-5,5.16,5,5,0,0,0,5,5A3.47,3.47,0,0,0,96,35.7h.12v.72a2.74,2.74,0,0,1-5.31,1.2l-1.93.84a5,5,0,0,0,4.58,3c2.66,0,4.83-1.56,4.83-5.28V27.06H96.11v.84ZM93.45,35a3.13,3.13,0,0,1,0-6.24,2.9,2.9,0,0,1,2.78,3.12A2.9,2.9,0,0,1,93.45,35Zm29.46-13.32h-5.43v15h2.29V31h3.14a4.69,4.69,0,1,0,0-9.36Zm.12,7.2h-3.26V23.7H123a2.64,2.64,0,0,1,2.66,2.52A2.76,2.76,0,0,1,123,28.86Zm13.89-2.16a4.05,4.05,0,0,0-4,2.28l2.05.84a2.13,2.13,0,0,1,2-1.08,2.28,2.28,0,0,1,2.42,1.92v.12a4.85,4.85,0,0,0-2.3-.6c-2.17,0-4.35,1.2-4.35,3.36a3.54,3.54,0,0,0,3.75,3.36,3.42,3.42,0,0,0,2.9-1.44h.12v1.2h2.17V30.9a4.56,4.56,0,0,0-4.83-4.2ZM136.68,35c-.73,0-1.81-.36-1.81-1.32,0-1.2,1.33-1.56,2.41-1.56a4.65,4.65,0,0,1,2.05.48A2.8,2.8,0,0,1,136.68,35Zm12.68-7.92-2.54,6.48h-.12L144,27.06h-2.41l4,9.12-2.29,5h2.29l6.16-14.16Zm-20.29,9.6h2.3v-15h-2.3Z"/>
      <path class="cls-9" d="M51.67,16.51a17.11,17.11,0,0,1-2.05-.11v-9A15.06,15.06,0,0,1,52,7.24c3.26,0,4.77,1.68,4.77,4.41C56.8,14.8,55,16.51,51.67,16.51Zm.48-8.12a5.26,5.26,0,0,0-1.13.1V15.3a6.78,6.78,0,0,0,.95,0c2.13,0,3.35-1.27,3.35-3.65C55.32,9.57,54.22,8.39,52.15,8.39Zm9.33,8.18a3.07,3.07,0,0,1-3-3.38c0-2,1.21-3.47,3.13-3.47s3,1.36,3,3.37-1.26,3.48-3.13,3.48Zm.05-5.78c-1,0-1.66,1-1.66,2.36s.66,2.34,1.65,2.34,1.64-1.05,1.64-2.37-.65-2.33-1.63-2.33Zm13.56-.94-2,6.58H71.84L71,13.57c-.21-.7-.37-1.41-.51-2.12h0a14.18,14.18,0,0,1-.5,2.12l-.87,2.86H67.83L66,9.85h1.43L68.13,13c.16.74.31,1.44.42,2.11h0A20.32,20.32,0,0,1,69.1,13L70,9.85h1.14L72,12.92c.21.75.38,1.48.51,2.17h0A20.55,20.55,0,0,1,73,12.92l.77-3.07Zm7.24,6.58H80.94V12.65c0-1.16-.43-1.74-1.27-1.74a1.49,1.49,0,0,0-1.4,1.61v3.91h-1.4v-4.7c0-.58,0-1.2-.05-1.88h1.23l.07,1h0a2.24,2.24,0,0,1,2-1.15c1.32,0,2.19,1,2.19,2.77v3.94Zm3.86,0h-1.4V6.84h1.4Zm5.1.14a3.07,3.07,0,0,1-3-3.38c0-2,1.21-3.47,3.13-3.47s3,1.36,3,3.37-1.26,3.48-3.13,3.48Zm0-5.78c-1,0-1.66,1-1.66,2.36s.66,2.34,1.64,2.34S93,14.44,93,13.12s-.65-2.33-1.63-2.33Zm8.59,5.64-.1-.76h0a2.11,2.11,0,0,1-1.84.9A1.86,1.86,0,0,1,96,14.64c0-1.62,1.35-2.46,3.68-2.46v-.12a1.15,1.15,0,0,0-1.31-1.3,2.81,2.81,0,0,0-1.64.49l-.28-1a3.86,3.86,0,0,1,2.16-.57c1.64,0,2.47.9,2.47,2.72v2.42a10.78,10.78,0,0,0,.09,1.57Zm-.19-3.28c-1.55,0-2.33.39-2.33,1.33a.91.91,0,0,0,1,1,1.36,1.36,0,0,0,1.37-1.33Zm8.15,3.28-.07-1.06h0a2.08,2.08,0,0,1-2,1.2c-1.51,0-2.64-1.39-2.64-3.35s1.17-3.5,2.76-3.5a1.85,1.85,0,0,1,1.77.89h0V6.84h1.4v7.81c0,.64,0,1.23,0,1.78Zm-.21-3.87a1.57,1.57,0,0,0-1.47-1.71c-1,0-1.67,1-1.67,2.32s.66,2.23,1.64,2.23a1.62,1.62,0,0,0,1.5-1.75V12.56Zm10.27,4a3.08,3.08,0,0,1-3-3.38c0-2,1.22-3.47,3.14-3.47s3,1.36,3,3.37A3.16,3.16,0,0,1,118,16.57Zm0-5.78c-1,0-1.65,1-1.65,2.36s.66,2.34,1.64,2.34,1.64-1.05,1.64-2.37S119,10.79,118,10.79Zm10.6,5.64h-1.4V12.65q0-1.74-1.26-1.74a1.49,1.49,0,0,0-1.4,1.61v3.91h-1.4v-4.7c0-.58,0-1.2,0-1.88h1.23l.06,1h0a2.23,2.23,0,0,1,2-1.15c1.33,0,2.19,1,2.19,2.77ZM138,11h-1.54v3.19c0,.81.27,1.22.81,1.22a2.59,2.59,0,0,0,.62-.07l0,1.11a2.93,2.93,0,0,1-1.08.16c-1.1,0-1.76-.63-1.76-2.3V11h-.92V9.85h.92V8.65l1.37-.43V9.85H138V11Zm7.4,5.48H144V12.68c0-1.18-.42-1.77-1.27-1.77a1.4,1.4,0,0,0-1.4,1.55v4H140V6.84h1.39v3.95h0a2.1,2.1,0,0,1,1.89-1.07c1.34,0,2.15,1.08,2.15,2.8v3.91ZM153,13.49H148.8a1.84,1.84,0,0,0,2,1.95,4.54,4.54,0,0,0,1.69-.31l.22,1a5,5,0,0,1-2.11.41,3,3,0,0,1-3.13-3.32c0-2,1.19-3.53,3-3.53C152,9.7,153,11,153,12.83a2.94,2.94,0,0,1,0,.66Zm-1.28-1c0-1-.49-1.73-1.38-1.73a1.7,1.7,0,0,0-1.53,1.73Z"/>
    </g>
  </g>
</svg>
