<svg id="Layer_1" data-name="Layer 1" xmlns="http://www.w3.org/2000/svg" xmlns:xlink="http://www.w3.org/1999/xlink" width="163" height="48.3" viewBox="0 0 163 48.3">
  <defs>
    <style>
      .cls-1 {
        fill: #fff;
      }

      .cls-2 {
        fill: #a6a6a6;
      }

      .cls-3 {
        fill: url(#linear-gradient);
      }
    </style>
    <linearGradient id="linear-gradient" x1="-913.33" y1="-878.87" x2="-913.33" y2="-876.54" gradientTransform="matrix(74.17, 0, 0, -74.13, 67865.7, -65106.54)" gradientUnits="userSpaceOnUse">
      <stop offset="0" stop-color="#1a1a1a" stop-opacity="0.1"/>
      <stop offset="0.12" stop-color="#212121" stop-opacity="0.15"/>
      <stop offset="0.31" stop-color="#353535" stop-opacity="0.23"/>
      <stop offset="0.53" stop-color="#575757" stop-opacity="0.32"/>
      <stop offset="0.78" stop-color="#858585" stop-opacity="0.42"/>
      <stop offset="1" stop-color="#b3b3b3" stop-opacity="0.51"/>
    </linearGradient>
  </defs>
  <title>Store</title>
  <path class="cls-1" d="M161.92,42.48a4.61,4.61,0,0,1-4.63,4.6H5.71a4.61,4.61,0,0,1-4.63-4.6V5.82a4.61,4.61,0,0,1,4.63-4.6H157.29a4.62,4.62,0,0,1,4.63,4.6h0V42.48Z"/>
  <path class="cls-2" d="M157.29,48.15H5.71A5.7,5.7,0,0,1,0,42.48V5.82A5.69,5.69,0,0,1,5.71.15H157.29A5.7,5.7,0,0,1,163,5.82V42.48a5.7,5.7,0,0,1-5.71,5.67Z"/>
  <path d="M161.92,42.48a4.61,4.61,0,0,1-4.63,4.6H5.71a4.61,4.61,0,0,1-4.63-4.6V5.82a4.61,4.61,0,0,1,4.63-4.6H157.29a4.62,4.62,0,0,1,4.63,4.6h0V42.48Z"/>
  <path class="cls-1" d="M36.4,23.9a6.92,6.92,0,0,1,3.33-5.84,7.17,7.17,0,0,0-5.65-3c-2.37-.25-4.68,1.42-5.89,1.42s-3.1-1.39-5.11-1.35a7.53,7.53,0,0,0-6.33,3.83c-2.73,4.71-.69,11.63,1.93,15.44,1.31,1.86,2.85,3.94,4.85,3.87S26.23,37,28.6,37s3,1.24,5.08,1.19,3.43-1.87,4.7-3.75a15.64,15.64,0,0,0,2.15-4.35A6.72,6.72,0,0,1,36.4,23.9ZM32.53,12.52a6.81,6.81,0,0,0,1.58-4.91,7.05,7.05,0,0,0-4.54,2.33A6.45,6.45,0,0,0,28,14.67a5.8,5.8,0,0,0,4.58-2.15Z"/>
  <path class="cls-3" d="M157.29.15H76.1l31.8,48h49.39A5.7,5.7,0,0,0,163,42.48V5.82A5.7,5.7,0,0,0,157.29.15Z"/>
  <path class="cls-1" d="M64.83,38H62.09l-1.51-4.69H55.36L53.93,38H51.26l5.17-16h3.2l5.2,16Zm-4.7-6.66-1.36-4.17c-.14-.42-.41-1.43-.81-3h-.05c-.16.68-.41,1.69-.76,3L55.81,31.3Zm18,.76a6.52,6.52,0,0,1-1.61,4.65,4.72,4.72,0,0,1-3.57,1.51,3.58,3.58,0,0,1-3.31-1.63v6H67.05V30.23q0-1.85-.09-3.78h2.26l.14,1.82h0a4.61,4.61,0,0,1,7.34-.45,6.34,6.34,0,0,1,1.37,4.24Zm-2.63.1a4.75,4.75,0,0,0-.76-2.78,2.64,2.64,0,0,0-2.24-1.13,2.7,2.7,0,0,0-1.73.62,2.91,2.91,0,0,0-1,1.65,3,3,0,0,0-.11.78v1.92a3,3,0,0,0,.77,2.12,2.58,2.58,0,0,0,2,.87,2.63,2.63,0,0,0,2.26-1.11A4.92,4.92,0,0,0,75.49,32.16Zm16-.1a6.48,6.48,0,0,1-1.61,4.65,4.72,4.72,0,0,1-3.57,1.51A3.58,3.58,0,0,1,83,36.59v6H80.38V30.23q0-1.85-.09-3.78h2.26l.15,1.82h0a4.61,4.61,0,0,1,7.34-.45,6.34,6.34,0,0,1,1.37,4.24Zm-2.62.1a4.75,4.75,0,0,0-.77-2.78,2.63,2.63,0,0,0-2.24-1.13,2.74,2.74,0,0,0-1.73.62,2.9,2.9,0,0,0-1,1.65,3.37,3.37,0,0,0-.12.78v1.92a3.07,3.07,0,0,0,.77,2.12,2.58,2.58,0,0,0,2,.87A2.63,2.63,0,0,0,88,35.1,4.92,4.92,0,0,0,88.83,32.16Zm17.53,1.32a4.25,4.25,0,0,1-1.43,3.32,6.38,6.38,0,0,1-4.38,1.4,7.6,7.6,0,0,1-4.16-1L97,35.07a7.16,7.16,0,0,0,3.72,1,3.57,3.57,0,0,0,2.27-.65,2.13,2.13,0,0,0,.81-1.74,2.24,2.24,0,0,0-.67-1.64,6.19,6.19,0,0,0-2.22-1.23q-4.22-1.56-4.22-4.58A4,4,0,0,1,98.16,23a5.91,5.91,0,0,1,4-1.26,7.93,7.93,0,0,1,3.65.76l-.65,2.09a6.42,6.42,0,0,0-3.09-.74,3.16,3.16,0,0,0-2.13.67A1.86,1.86,0,0,0,99.25,26a1.94,1.94,0,0,0,.74,1.57,8.08,8.08,0,0,0,2.33,1.23,8,8,0,0,1,3.06,1.94,4.06,4.06,0,0,1,1,2.77Zm8.54-5.11h-2.84V34q0,2.13,1.5,2.13A4.52,4.52,0,0,0,114.7,36l.07,1.94a5.76,5.76,0,0,1-2,.29,3.07,3.07,0,0,1-2.38-.93,4.45,4.45,0,0,1-.86-3.1V28.36h-1.69V26.44h1.69V24.33l2.53-.76v2.87h2.84v1.93Zm12.78,3.74a6.29,6.29,0,0,1-1.53,4.36,5.45,5.45,0,0,1-4.24,1.75,5.2,5.2,0,0,1-4.07-1.68,6.09,6.09,0,0,1-1.52-4.24,6.24,6.24,0,0,1,1.57-4.38,5.41,5.41,0,0,1,4.21-1.71,5.32,5.32,0,0,1,4.1,1.68,6,6,0,0,1,1.48,4.22Zm-2.67.06a5.14,5.14,0,0,0-.69-2.72A2.56,2.56,0,0,0,122,28.08a2.6,2.6,0,0,0-2.36,1.37,5.25,5.25,0,0,0-.69,2.77,5.1,5.1,0,0,0,.69,2.71,2.65,2.65,0,0,0,4.66,0,5.15,5.15,0,0,0,.71-2.74Zm11-3.47a4.36,4.36,0,0,0-.81-.08,2.44,2.44,0,0,0-2.1,1,3.85,3.85,0,0,0-.64,2.27v6h-2.58V30.07c0-1.21,0-2.42-.07-3.62h2.24l.1,2.2h.07a3.93,3.93,0,0,1,1.29-1.83,3.09,3.09,0,0,1,1.86-.61,4.14,4.14,0,0,1,.64,0V28.7Zm11.52,3a5.62,5.62,0,0,1-.09,1.16h-7.73a3.36,3.36,0,0,0,1.12,2.61,3.89,3.89,0,0,0,2.53.8,8.71,8.71,0,0,0,3.13-.54l.4,1.78a9.82,9.82,0,0,1-3.89.71,5.66,5.66,0,0,1-4.23-1.58,5.78,5.78,0,0,1-1.54-4.23A6.59,6.59,0,0,1,138.7,28a5,5,0,0,1,4.06-1.85A4.33,4.33,0,0,1,146.55,28a6.16,6.16,0,0,1,1,3.62ZM145.12,31a3.43,3.43,0,0,0-.5-2A2.27,2.27,0,0,0,142.57,28a2.45,2.45,0,0,0-2,1,3.85,3.85,0,0,0-.77,2Z"/>
  <path class="cls-1" d="M54.62,16.34a16.2,16.2,0,0,1-1.85-.09V8.53A13.26,13.26,0,0,1,55,8.36c2.95,0,4.31,1.45,4.31,3.8C59.26,14.88,57.65,16.34,54.62,16.34Zm.43-7a5.86,5.86,0,0,0-1,.08V15.3a5.59,5.59,0,0,0,.86,0c1.93,0,3-1.1,3-3.15A2.57,2.57,0,0,0,55.05,9.35Zm8.45,7a2.69,2.69,0,0,1-2.74-2.91,2.76,2.76,0,0,1,2.83-3,2.68,2.68,0,0,1,2.75,2.9,2.78,2.78,0,0,1-2.84,3Zm0-5c-.92,0-1.5.85-1.5,2s.6,2,1.49,2,1.48-.91,1.48-2-.58-2-1.47-2Zm12.28-.8-1.78,5.66H72.89l-.74-2.46c-.18-.6-.34-1.21-.46-1.82h0a12.76,12.76,0,0,1-.46,1.82l-.78,2.46H69.25l-1.67-5.66h1.3l.64,2.69c.15.64.28,1.25.39,1.82h0c.1-.48.25-1.07.47-1.81l.81-2.7h1L73,13.26c.18.64.34,1.27.45,1.86h0a16.64,16.64,0,0,1,.38-1.86l.7-2.65Zm6.56,5.66H81.12V13c0-1-.38-1.5-1.15-1.5a1.31,1.31,0,0,0-1.26,1.39v3.36H77.44v-4c0-.5,0-1,0-1.62h1.11l.06.87h0a2.06,2.06,0,0,1,1.81-1c1.2,0,2,.9,2,2.38v3.39Zm3.49,0H84.61V8h1.27Zm4.62.13a2.7,2.7,0,0,1-2.75-2.91,2.77,2.77,0,0,1,2.84-3,2.67,2.67,0,0,1,2.74,2.9,2.77,2.77,0,0,1-2.83,3Zm0-5c-.91,0-1.5.85-1.5,2s.6,2,1.49,2,1.49-.91,1.49-2-.58-2-1.48-2Zm7.79,4.86-.1-.65h0a2,2,0,0,1-1.67.78,1.65,1.65,0,0,1-1.74-1.67c0-1.39,1.22-2.12,3.33-2.12v-.1c0-.75-.4-1.12-1.19-1.12a2.64,2.64,0,0,0-1.48.42L95.19,11a3.71,3.71,0,0,1,2-.48c1.49,0,2.24.78,2.24,2.34v2.08a7.92,7.92,0,0,0,.09,1.35Zm-.18-2.82c-1.4,0-2.11.34-2.11,1.14a.8.8,0,0,0,.87.89,1.21,1.21,0,0,0,1.24-1.15Zm7.38,2.82-.06-.91h0a1.92,1.92,0,0,1-1.83,1c-1.37,0-2.39-1.2-2.39-2.89s1-3,2.49-3a1.72,1.72,0,0,1,1.61.77h0V8h1.26v6.74c0,.54,0,1.06,0,1.52Zm-.18-3.33A1.38,1.38,0,0,0,104,11.47c-.94,0-1.51.83-1.51,2s.59,1.93,1.49,1.93a1.42,1.42,0,0,0,1.36-1.51v-.94Zm9.3,3.46a2.69,2.69,0,0,1-2.74-2.91,2.76,2.76,0,0,1,2.83-3,2.68,2.68,0,0,1,2.75,2.9,2.78,2.78,0,0,1-2.84,3Zm0-5c-.91,0-1.49.85-1.49,2s.59,2,1.48,2,1.49-.91,1.49-2-.58-2-1.48-2Zm9.6,4.86H123V13c0-1-.39-1.5-1.15-1.5a1.31,1.31,0,0,0-1.27,1.39v3.36h-1.26v-4c0-.5,0-1,0-1.62h1.11l.06.87h0a2.05,2.05,0,0,1,1.8-1c1.2,0,2,.91,2,2.39Zm8.52-4.72h-1.39V14.3c0,.7.24,1,.74,1a2.23,2.23,0,0,0,.56-.06l0,1a2.87,2.87,0,0,1-1,.14c-1,0-1.59-.55-1.59-2V11.55h-.84v-.94h.84v-1l1.24-.37v1.41h1.39v.94Zm6.7,4.72h-1.26V13.05c0-1-.39-1.53-1.15-1.53a1.24,1.24,0,0,0-1.27,1.34v3.41h-1.26V8h1.26v3.4h0a1.93,1.93,0,0,1,1.71-.92c1.21,0,1.94.94,1.94,2.42v3.36Zm6.87-2.53h-3.8a1.63,1.63,0,0,0,1.8,1.68,4.13,4.13,0,0,0,1.53-.27l.2.88a4.82,4.82,0,0,1-1.91.35,2.64,2.64,0,0,1-2.84-2.86,2.77,2.77,0,0,1,2.7-3c1.45,0,2.36,1.07,2.36,2.69a2.13,2.13,0,0,1,0,.57Zm-1.16-.89c0-.88-.44-1.49-1.25-1.49a1.5,1.5,0,0,0-1.39,1.49Z"/>
</svg>
