<svg xmlns="http://www.w3.org/2000/svg" width="100" height="100" viewBox="0 0 100 100">
  <defs>
    <style>
      .cls-1 {
        fill: #fff;
      }
    </style>
  </defs>
  <title>Icon</title>
  <g id="Group_1" data-name="Group 1">
    <g id="Shape_10" data-name="Shape 10">
      <path class="cls-1" d="M100,7.56c0-1.89,0-3.79,0-5.68A1.91,1.91,0,0,0,98.14.05c-1.84,0-3.68,0-5.53,0H73.21a3.66,3.66,0,0,0-.66,0,2.09,2.09,0,0,0-1.42,3.13,2.12,2.12,0,0,0,2,1H83.62c1.8,0,3.59,0,5.39,0l6,0h.76V8.31H12.54V4.2H49.36c2.28,0,4.57,0,6.85,0a2.08,2.08,0,0,0,1.84-3.15A2.16,2.16,0,0,0,56,0H46L20.8,0,11.24,0c-.31,0-.63,0-.93,0a2.06,2.06,0,0,0-2,2.12c0,2.75,0,5.5,0,8.24a2.81,2.81,0,0,0,.42,1.3,2.06,2.06,0,0,0,1.65.87V20.9a2.06,2.06,0,0,0,2.35,2,2,2,0,0,0,1.83-2.13c0-2.61,0-5.21,0-7.82v-.41H93.74V70.82h-52a2.41,2.41,0,0,0-.54,0,2.06,2.06,0,0,0-1.65,2.21A2.09,2.09,0,0,0,41.71,75h54a3,3,0,0,0,.42,0,2.12,2.12,0,0,0,1.81-2.29V12.55A2.11,2.11,0,0,0,100,10.23ZM89,91.89c-.48-.09-1-.15-1.48-.22a9.39,9.39,0,0,0,1-4.9,8.52,8.52,0,0,0-3.06-6.1,6.51,6.51,0,0,0-8.27-.11c-2.9,2.41-3.72,5.54-3,9.14a16.7,16.7,0,0,0,.66,2A7.52,7.52,0,0,0,71,92.9a.33.33,0,0,1-.3,0,6.48,6.48,0,0,0-2.43-1c-.49-.11-1-.17-1.51-.25a9.29,9.29,0,0,0,.94-5,8.49,8.49,0,0,0-3.14-6.11,6.58,6.58,0,0,0-7.21-.67,8.71,8.71,0,0,0-4,9.36A25,25,0,0,0,54,91.71,7.38,7.38,0,0,0,50,93a7.61,7.61,0,0,0-4.09-1.29.35.35,0,0,1,0-.13,9.24,9.24,0,0,0,.9-5,8.62,8.62,0,0,0-2.61-5.53,6.55,6.55,0,0,0-9.29,0c-2.64,2.63-3.21,5.81-2.18,9.33.13.44.33.85.51,1.3l-.25,0a7.48,7.48,0,0,0-3.68,1.15.55.55,0,0,1-.39,0c-.7-.28-1.38-.63-2.1-.86a12.58,12.58,0,0,0-1.77-.32A9.37,9.37,0,0,0,26,86.47,8.63,8.63,0,0,0,23.38,81a6.56,6.56,0,0,0-7.72-1.11,8.69,8.69,0,0,0-4,9.29c.17.83.48,1.64.73,2.47-.45.07-.93.12-1.41.21a5.58,5.58,0,0,0-3.46,1.94A6.08,6.08,0,0,0,6.26,98,2,2,0,0,0,8.41,100a2.07,2.07,0,0,0,2-2.08c0-.25.05-.51.08-.77a1.07,1.07,0,0,1,.87-1,10.52,10.52,0,0,1,1.75-.24c1.5,0,3,0,4.5,0l3,0c1,0,2,0,3,0a22.24,22.24,0,0,1,2.44.29,1,1,0,0,1,.91,1c0,.3.05.59.08.89a2.1,2.1,0,0,0,3.55,1.41,2.17,2.17,0,0,0,.63-1.61c0-1.46.41-1.65,1.67-1.84a15.08,15.08,0,0,1,2.23-.11c3.29,0,6.58,0,9.87,0a11.71,11.71,0,0,1,2,.29,1,1,0,0,1,.78.9c0,.33.05.67.08,1a2.1,2.1,0,0,0,3.53,1.38,2.4,2.4,0,0,0,.67-1.79c0-1.15.3-1.47,1.35-1.61a23.61,23.61,0,0,1,2.65-.19c1.38,0,2.76,0,4.14,0,2.29,0,4.57,0,6.85.1,1.12,0,1.46.41,1.62,1.51a3.55,3.55,0,0,1,0,.46,2.08,2.08,0,0,0,1.66,2,2.06,2.06,0,0,0,2.36-1.3,3.4,3.4,0,0,0,.15-1.06c0-1,.33-1.4,1.33-1.58a8.34,8.34,0,0,1,1.41-.16c1.18,0,2.35,0,3.53,0,2.59,0,5.18,0,7.78,0a9.18,9.18,0,0,1,1.78.29,1,1,0,0,1,.74.89,7,7,0,0,1,.09.92,2,2,0,0,0,1.87,2,2,2,0,0,0,2.24-1.63A5.88,5.88,0,0,0,92.62,94,5.42,5.42,0,0,0,89,91.89Zm-68.5-1a2.55,2.55,0,0,1-4-.5,5.25,5.25,0,0,1-.89-3.28,4.37,4.37,0,0,1,1.38-3,2.39,2.39,0,0,1,3.32-.13A4.94,4.94,0,0,1,20.54,90.86Zm21.26-.51a2.56,2.56,0,0,1-4.4.05,5.09,5.09,0,0,1,.05-5.91,2.59,2.59,0,0,1,4.49.3,5.18,5.18,0,0,1,.77,2.86A4.76,4.76,0,0,1,41.8,90.35Zm20.75.11a2.59,2.59,0,0,1-4.49-.29,5.24,5.24,0,0,1-.77-2.73,4.89,4.89,0,0,1,1.12-3.12,2.52,2.52,0,0,1,3.92-.1A5,5,0,0,1,62.55,90.46Zm20.54.31a2.44,2.44,0,0,1-3.67,0,5,5,0,0,1,0-6.7,2.53,2.53,0,0,1,4,.46,5.13,5.13,0,0,1,.9,3.24A4.32,4.32,0,0,1,83.09,90.77ZM17.87,45.84a2.93,2.93,0,0,1,1,.2,7.81,7.81,0,0,0,5.51.14,5.82,5.82,0,0,1,2.15-.36c2.24,0,4.49,0,6.73,0a2.88,2.88,0,0,0,1-.2c1.74-.71,3.47-1.44,5.2-2.16l19.09-8a2.82,2.82,0,0,1,3.44,1,2.74,2.74,0,0,1-.38,3.56,4.78,4.78,0,0,1-1.45.85q-6.94,2.87-13.92,5.69L32.72,52.16a2.07,2.07,0,0,0-1.47,2.15v8.17c0,3.49,0,7,0,10.46a2,2,0,0,0,2.49,2,2.08,2.08,0,0,0,1.69-2.14V56c0-.22,0-.4.26-.51,1.65-.66,3.29-1.34,4.93-2l9.86-4c3.86-1.57,7.71-3.18,11.58-4.71a7.06,7.06,0,0,0,4.52-7.65,7,7,0,0,0-8.66-5.74,27,27,0,0,0-3.2,1.23l-20.4,8.51a4.88,4.88,0,0,1-1.39.54c-1.06.08-2.13,0-3.22,0,0-.07,0-.11.05-.14a12.86,12.86,0,0,0,1.33-8.12,11.32,11.32,0,0,0-3.51-6.84,8.09,8.09,0,0,0-6.85-2.23,8.34,8.34,0,0,0-5.48,3.2A12.48,12.48,0,0,0,13,39.05c.24.88.65,1.72,1,2.59H13.6a46.13,46.13,0,0,0-4.71.17A10.38,10.38,0,0,0,0,52.2C0,57.45,0,62.7,0,68v2.71c0,.85,0,1.7.05,2.55A2,2,0,0,0,2.43,75a2.07,2.07,0,0,0,1.76-2.2v-10c0-3.56,0-7.13,0-10.69a6.77,6.77,0,0,1,.39-2.18,6.2,6.2,0,0,1,6-4.11Q14.21,45.82,17.87,45.84ZM17.58,31.5a5.43,5.43,0,0,1,2.78-2.78A4.14,4.14,0,0,1,25,29.85,7.62,7.62,0,0,1,27,34.17c.06.42.08.85.1,1.12a8.3,8.3,0,0,1-1.8,5.42,4.25,4.25,0,0,1-6.93-.14,7.79,7.79,0,0,1-1.57-3.73A8.8,8.8,0,0,1,17.58,31.5Zm73.48-3.31a2,2,0,0,0-.08-3,3,3,0,0,0-1.39-.58c-1.82-.32-3.66-.59-5.49-.85a.5.5,0,0,1-.44-.34q-1.29-2.76-2.59-5.52a2,2,0,0,0-1.9-1.22,2.08,2.08,0,0,0-2,1.31c-.85,1.82-1.7,3.63-2.56,5.45-.06.12-.18.27-.29.29-1.73.27-3.46.52-5.18.8a5.2,5.2,0,0,0-1.31.3,2.08,2.08,0,0,0-.56,3.4c1.39,1.42,2.79,2.83,4.16,4.27a.76.76,0,0,1,.2.57c-.31,2.06-.65,4.11-1,6.16a1.94,1.94,0,0,0,.86,2,2,2,0,0,0,2.25.1l5-2.78a.57.57,0,0,1,.67,0c.56.34,1.14.64,1.72,1,1.12.62,2.25,1.25,3.38,1.86a2,2,0,0,0,2.23-.14,1.94,1.94,0,0,0,.84-2c-.32-2-.66-4.09-1-6.13a.74.74,0,0,1,.23-.72C88.29,31,89.67,29.62,91.06,28.19Zm-7.8,2A2.7,2.7,0,0,0,82.39,33c.18.85.3,1.72.45,2.65-.86-.48-1.67-.94-2.5-1.37a2.19,2.19,0,0,0-1-.32,3.17,3.17,0,0,0-1.29.27c-.86.42-1.69.92-2.59,1.42.14-.91.24-1.77.43-2.61a2.69,2.69,0,0,0-.85-2.89c-.6-.52-1.13-1.13-1.69-1.7-.08-.08-.15-.17-.26-.3l2.06-.32c.38-.05.77-.09,1.15-.17a2.09,2.09,0,0,0,1.5-1.16l1.33-2.82c.4.84.8,1.59,1.11,2.38a2.53,2.53,0,0,0,2.34,1.71c.85.08,1.69.24,2.62.39C84.54,28.88,83.94,29.57,83.26,30.17ZM56.89,63.05a2.15,2.15,0,0,0-.5,2.31,2.05,2.05,0,0,0,1.93,1.29H79.11A2,2,0,0,0,81,65.59a2.09,2.09,0,0,0-1.87-3.12c-2.1,0-4.2,0-6.31,0H58.41A2.15,2.15,0,0,0,56.89,63.05Zm-46.8-11a2.11,2.11,0,0,0-1.76,2.13q0,9.33,0,18.66A2.1,2.1,0,0,0,10.43,75a2.08,2.08,0,0,0,2.08-2.13V54.25a1.94,1.94,0,0,0,0-.54A2.08,2.08,0,0,0,10.09,52.09Zm75.23-6.27H73.82c-1,0-2,0-3,0a2.05,2.05,0,0,0-2,2.16,2.07,2.07,0,0,0,2.13,2h14.6a2.09,2.09,0,1,0-.16-4.18Zm0,8.34c-1,.05-2,0-3.06,0h-3a2.32,2.32,0,0,0-.65.06,2.09,2.09,0,0,0,.53,4.11c2.08,0,4.15,0,6.23,0a2.1,2.1,0,1,0-.08-4.19Zm-27,4.19h4.1a2.1,2.1,0,1,0,0-4.19c-.64.05-1.29,0-1.93,0-.47,0-.93,0-1.39,0a5.91,5.91,0,0,0-1.27.07,2,2,0,0,0-1.51,2.36A2.08,2.08,0,0,0,58.33,58.35Zm10.42-2.14a2.07,2.07,0,0,0,2.08,2.13,2.1,2.1,0,0,0,2.1-2.08,2.07,2.07,0,0,0-2.08-2.09A2,2,0,0,0,68.75,56.21Zm-4.19-52a2.06,2.06,0,0,0,2.09-2A2.06,2.06,0,0,0,64.57,0a2.11,2.11,0,0,0-2.09,2.09A2.11,2.11,0,0,0,64.56,4.2Z"/>
    </g>
  </g>
</svg>
