<svg xmlns="http://www.w3.org/2000/svg" width="100" height="100" viewBox="0 0 100 100">
  <defs>
    <style>
      .cls-1 {
        fill: #fff;
      }
    </style>
  </defs>
  <title>Icon</title>
  <g id="Group_1" data-name="Group 1">
    <g id="Shape_8" data-name="Shape 8">
      <path class="cls-1" d="M99.89,50.48a7.5,7.5,0,0,0-1.44-4.1c-3.25-4.12-6.7-8.08-10.11-12.08a6,6,0,0,0-4.77-2.17H72.86V30.37c0-3.79-1.47-5.25-5.22-5.25H25.39c-3.26,0-4.83,1.56-4.84,4.82,0,2.14,0,4.28,0,6.57H18.84c-2.58,0-5.15,0-7.73,0-.81,0-1.7,0-1.68,1.08s1,1,1.74,1h9.27v4.16c-.5,0-.91.09-1.31.09-1.7,0-3.41-.05-5.11.07-.39,0-.75.64-1.13,1,.38.34.7.81,1.14,1a4.62,4.62,0,0,0,1.54.05h4.86v4.27H2.21a3.26,3.26,0,0,0-1.37.07A1.7,1.7,0,0,0,0,50.38c0,.27.48.73.84.9a3.07,3.07,0,0,0,1.22.06H20.45v4.28H7.07c-.8,0-1.88-.2-1.9,1s1.12,1.1,2,1.11c3.46,0,6.92,0,10.37,0h3.05c0,2.19,0,4.19,0,6.18a4,4,0,0,0,4.14,4.25c1.6.06,3.21.08,4.8,0,1.11,0,1.69.15,2.06,1.4a7.5,7.5,0,0,0,7.35,5.31,7.64,7.64,0,0,0,7.38-5.3c.15-.43.28-.87.42-1.34H77.12c.17.52.3,1,.47,1.49a7.75,7.75,0,0,0,6.73,5.14c3.31.2,6.44-1.31,7.5-4.32.78-2.18,1.94-2.49,3.92-2.41,2.69.1,4.2-1.53,4.21-4.22C100,59.43,100.07,55,99.89,50.48Zm-61,22.3a5.65,5.65,0,1,1,5.71-5.65A5.62,5.62,0,0,1,38.87,72.78Zm31.86-8.52V66h-24c-.14-.44-.28-.87-.43-1.3a7.72,7.72,0,0,0-7.38-5.33,7.54,7.54,0,0,0-7.36,5.32,1.65,1.65,0,0,1-2,1.42c-1.49-.09-3,0-4.49,0s-2.33-.75-2.36-2.39c0-1.9,0-3.8,0-6H31a3.71,3.71,0,0,0,1.38,0,7.84,7.84,0,0,0,1.45-1c-.49-.34-1-1-1.45-1-2.63-.1-5.26,0-7.89,0H22.76V51.34H45.21a3.65,3.65,0,0,0,1.37-.07,1.4,1.4,0,0,0,.79-1,1.4,1.4,0,0,0-.76-1,3.44,3.44,0,0,0-1.37-.09H22.75V45H51a3.52,3.52,0,0,0,1.38-.05,4.64,4.64,0,0,0,1.1-1,4.75,4.75,0,0,0-1.14-1,4,4,0,0,0-1.38,0H22.8V38.63h14c.31,0,.68.11.92,0a13.18,13.18,0,0,0,1.41-1.08c-.49-.34-1-1-1.47-1-4.38-.08-8.77-.05-13.16-.05H22.7c0-2.63-.11-5.09.08-7.53,0-.62,1-1.22,1.68-1.69.28-.2.81-.06,1.22-.06H67.63c2.55,0,3.11.55,3.11,3.05Q70.74,47.28,70.73,64.26Zm14.14,8.53a5.65,5.65,0,1,1,5.73-5.63A5.66,5.66,0,0,1,84.87,72.79Zm13-9.06c0,1.7-.65,2.31-2.35,2.37a9.73,9.73,0,0,0-1.08,0c-1.26.18-1.83-.27-2.24-1.57a7.52,7.52,0,0,0-7.46-5.17,7.76,7.76,0,0,0-7.22,5.35L77.11,66H73V34.32c3.85,0,7.65-.08,11.44.07a4.07,4.07,0,0,1,2.43,1.45c3.35,3.84,6.65,7.72,9.84,11.7a5.69,5.69,0,0,1,1.16,3.22C98,55.08,97.91,59.41,97.89,63.73ZM85.3,37.89a4.28,4.28,0,0,0-2.51-1.21,48.35,48.35,0,0,0-5.25,0,1.68,1.68,0,0,0-1.89,1.91c0,2.36,0,4.73,0,7.09,0,1.45.72,2,2.12,2,2,0,3.91,0,5.87,0s3.92.07,5.87,0c.63,0,1.58-.4,1.77-.85a2.48,2.48,0,0,0-.41-2.05C89.1,42.36,87.26,40.06,85.3,37.89Zm-7.44,7.54V38.74c1.68,0,3.36,0,5,0a1.14,1.14,0,0,1,.77.41c1.67,2,3.31,4,5.14,6.26ZM38.93,63.67a3.46,3.46,0,1,0,0,6.91,3.46,3.46,0,1,0,0-6.91Zm46.05,0a3.46,3.46,0,1,0,3.43,3.42A3.44,3.44,0,0,0,85,63.67Z"/>
    </g>
  </g>
</svg>
