<svg id="Layer_1" data-name="Layer 1" xmlns="http://www.w3.org/2000/svg" width="166" height="53" viewBox="0 0 166 53">
  <defs>
    <style>
      .cls-1 {
        fill: #f28d2a;
      }

      .cls-2 {
        fill: #185690;
      }

      .cls-3 {
        fill: #fff;
      }

      .cls-4 {
        fill: #1b5792;
      }
    </style>
  </defs>
  <title>storak 166x53</title>
  <g>
    <g>
      <g>
        <path class="cls-1" d="M55.66,7.25c-.76,0-.89.41-.89,1.1v6.21a3,3,0,0,1-1.38,2.7,5.51,5.51,0,0,1-2,.82h-.28a.19.19,0,0,1,.07-.13,2.76,2.76,0,0,0,1.38-1.66,4.69,4.69,0,0,0,.27-1.73V6.91h3.11v.27Z"/>
        <path class="cls-1" d="M66.36,7.18c-.76,0-.9.42-.9,1.11v5.65h2.28v.62H65.39v.35a3.08,3.08,0,0,1-1.31,2.76,5.39,5.39,0,0,1-1.93.83h-.28c-.07,0,0-.07.07-.14a2.72,2.72,0,0,0,1.38-1.66,5.29,5.29,0,0,0,.28-2.07H62.15a6.07,6.07,0,0,1-3.73-1.1A3.39,3.39,0,0,1,57,10.77c0-2.42,2.21-3.93,5.52-3.93h4.08v.27Zm-7.45,3.59A3,3,0,0,0,61.8,14h1.73V7.8a4,4,0,0,0-1.31-.2C60.29,7.66,58.91,8.7,58.91,10.77Z"/>
        <path class="cls-1" d="M71.88,7.25c-.76,0-.9.48-.9,1.17v5.52H74.5v.62H66.7v-.62h2.35V7h3.11v.21ZM69.81,4.56a1,1,0,1,1-1.93,0,.94.94,0,0,1,1-1A1,1,0,0,1,69.81,4.56Zm2.41,0a1,1,0,1,1-1-1A.94.94,0,0,1,72.22,4.56Z"/>
        <path class="cls-1" d="M88.65,7.18c-.83,0-.9.48-.9,1.17v3a3,3,0,0,1-1,2.28,3.15,3.15,0,0,1-2.41,1A3.09,3.09,0,0,1,83,14.22a1.61,1.61,0,0,1-1-1,2.75,2.75,0,0,1-2.27,1.25,3,3,0,0,1-2.49-1.11,3.32,3.32,0,0,1-2.34,1.17H73.47v-.62h.41a2.42,2.42,0,0,0,1.59-.62,3.15,3.15,0,0,0,.76-2V7.46h3.1v.27h-.21c-.82,0-1,.49-1,1.18v3.65A1.46,1.46,0,0,0,79.61,14h0a1.51,1.51,0,0,0,1.45-1.45V7.18h3.1v.28h-.27c-.76,0-.9.2-.9.89V12.7a1.41,1.41,0,0,0,1.38,1.24,1.44,1.44,0,0,0,1.45-1.38V6.91h3.1v.27Z"/>
        <path class="cls-1" d="M45.11,8.42c0,1.45-1.18,2.14-3.59,2.14a5.62,5.62,0,0,1-1.8-.27c-.13-.07-.2-.28-.13-.56s.06-.41.27-.41a6.2,6.2,0,0,0,1.59.21A4.21,4.21,0,0,0,44,8.84l-.07-.21c0-.07-.07-.14-.2-.14A1.35,1.35,0,0,0,43,8.7a3,3,0,0,1-.76.14.79.79,0,0,1-.9-.83,2.19,2.19,0,0,1,.62-1.45,2.17,2.17,0,0,1,1.38-.76c.35,0,.48.21.48.62a1.2,1.2,0,0,1-.06.49,1.46,1.46,0,0,0-.07.55l.13.07C44.62,7.6,45.11,7.87,45.11,8.42ZM42.9,7.66V7a1,1,0,0,0-.83.42c0,.14.14.2.48.2Z"/>
        <path class="cls-1" d="M49,2.42V14.63H50.9V3.8c0-.69.14-1.17.9-1.17h.28V2.42Z"/>
        <path class="cls-1" d="M49,13.94H33.72a2.19,2.19,0,0,1-1.86-1,4.47,4.47,0,0,1-.62-2.28c0-1.86.76-3,2.48-3,1.24,0,2.14.42,2.21,1.8h.34c0-1.24,0-1.66-.41-2.07a3.51,3.51,0,0,0-2.48-.55,3.94,3.94,0,0,0-3,1.17,3.8,3.8,0,0,0-1.11,2.76,3.55,3.55,0,0,0,1.11,2.69,4.35,4.35,0,0,0,3,1.17H49Z"/>
      </g>
      <polygon class="cls-2" points="98.45 43.62 15.92 43.62 26.41 20.15 110.18 20.15 98.45 43.62"/>
      <polygon class="cls-1" points="122.67 25.4 116.18 38.37 110.52 26.98 97.55 53 84.58 53 110.52 1.04 122.67 25.4"/>
      <polygon class="cls-2" points="136.47 26.98 149.44 53 136.47 53 129.98 40.03 123.49 53 110.52 53 117.01 40.03 123.49 26.98 136.47 1.04 149.44 1.04 136.47 26.98"/>
      <g>
        <path class="cls-3" d="M28,26.3H38.34a2.06,2.06,0,0,1,1.66,1,2.92,2.92,0,0,1,.41,1.52V29H29.17v2.27H38a2.26,2.26,0,0,1,2.28,1.94l.06.69v2.34a2.91,2.91,0,0,1-1.1,2.28,2.17,2.17,0,0,1-1,.34H28a1.77,1.77,0,0,0-.55-.13,2.41,2.41,0,0,1-1.24-1.11,4.13,4.13,0,0,1-.35-1.24H37.1V34.09H28.27A2.26,2.26,0,0,1,26,32.16l-.14-.62V28.92A2.69,2.69,0,0,1,27,26.64,1.6,1.6,0,0,1,28,26.3Z"/>
        <path class="cls-3" d="M41.72,26.23H56.28l.07.07V29l-.07.07H50.7v9.79l-.07.07H47.38l-.07-.07V29H41.72l-.06-.07.06-2.69Z"/>
        <path class="cls-3" d="M60,26.3h9.8A2.31,2.31,0,0,1,72.09,28a3.41,3.41,0,0,1,.13.83v7.38a2.68,2.68,0,0,1-1.17,2.28,2.34,2.34,0,0,1-1.24.34H60a2.25,2.25,0,0,1-2.28-1.93l-.07-.69V28.85a2.92,2.92,0,0,1,1.11-2.28A2.65,2.65,0,0,1,60,26.3Zm1,2.76V36.3h7.86V29.06Z"/>
        <path class="cls-3" d="M73.54,26.23H85.82A2.23,2.23,0,0,1,88,28.09a2.4,2.4,0,0,1,.13.69v2.48a2.71,2.71,0,0,1-1,2.21,2.66,2.66,0,0,1-1.24.42h-1.8l4.49,4.9H84.09l-6.9-7.39h7.66V29H76.92v9.8H73.6l-.06-.07V26.23Z"/>
      </g>
    </g>
    <g>
      <g>
        <path class="cls-2" d="M21.44,46.65a1.31,1.31,0,0,0-1.11.48,2.1,2.1,0,0,0-.41,1.38,2.07,2.07,0,0,0,.41,1.38,1.29,1.29,0,0,0,1.11.49,1.91,1.91,0,0,0,.62-.07c.21-.07.41-.07.62-.14v.69a4,4,0,0,1-1.31.21,2.27,2.27,0,0,1-1.66-.62,2.56,2.56,0,0,1-.55-1.87,2.61,2.61,0,0,1,.28-1.31,2.5,2.5,0,0,1,.82-.89,2.36,2.36,0,0,1,1.25-.28,3.27,3.27,0,0,1,1.38.34l-.28.69-.55-.2A.85.85,0,0,0,21.44,46.65Z"/>
        <path class="cls-2" d="M24.4,51h-.75V45.75h.75Z"/>
        <path class="cls-2" d="M25.51,46.31a.53.53,0,0,1,.14-.35.51.51,0,0,1,.34-.14.46.46,0,0,1,.48.49.72.72,0,0,1-.13.34.53.53,0,0,1-.35.14.51.51,0,0,1-.34-.14C25.58,46.51,25.51,46.44,25.51,46.31ZM26.34,51h-.76V47.27h.76Z"/>
        <path class="cls-2" d="M29,51.07a1.7,1.7,0,0,1-1.31-.49,2.21,2.21,0,0,1-.42-1.44,1.91,1.91,0,0,1,.49-1.45,1.68,1.68,0,0,1,1.31-.49,2.25,2.25,0,0,1,1,.21l-.21.62a2.33,2.33,0,0,0-.82-.21c-.62,0-1,.42-1,1.32a1.8,1.8,0,0,0,.21,1,.84.84,0,0,0,.69.35,1.91,1.91,0,0,0,1-.28v.69a3.24,3.24,0,0,1-.48.21A1.45,1.45,0,0,1,29,51.07Z"/>
        <path class="cls-2" d="M31.65,49l.41-.55,1.11-1.18h.9l-1.52,1.59L34.13,51h-.89l-1.11-1.66-.41.35V51H31V45.75h.76v2.56l-.07.69Z"/>
        <path class="cls-2" d="M41.38,49.62a1.24,1.24,0,0,1-.48,1,2,2,0,0,1-1.31.35,2.67,2.67,0,0,1-1.38-.28V50a2.71,2.71,0,0,0,.69.28,2.28,2.28,0,0,0,.69.07.92.92,0,0,0,.69-.21.69.69,0,0,0,0-1,3.66,3.66,0,0,0-.9-.48,3,3,0,0,1-1-.62,1.36,1.36,0,0,1,.14-1.79A2,2,0,0,1,39.72,46a3,3,0,0,1,1.38.28l-.27.69a2.63,2.63,0,0,0-1.18-.28,1.38,1.38,0,0,0-.62.14.66.66,0,0,0-.2.48.63.63,0,0,0,.07.35.86.86,0,0,0,.27.27,6.82,6.82,0,0,0,.69.35,4.57,4.57,0,0,1,.83.41.84.84,0,0,1,.34.42C41.1,49.2,41.38,49.41,41.38,49.62Z"/>
        <path class="cls-2" d="M45.52,51h-.83V48.72a.85.85,0,0,0-.21-.62.65.65,0,0,0-.55-.21,1,1,0,0,0-.76.28,1.92,1.92,0,0,0-.2,1V51h-.76V45.75H43v1.32a2.59,2.59,0,0,1-.07.69H43a.89.89,0,0,1,.48-.42,2,2,0,0,1,.69-.14,1.24,1.24,0,0,1,1.38,1.38Z"/>
        <path class="cls-2" d="M49.94,49.14a1.9,1.9,0,0,1-.49,1.44,1.7,1.7,0,0,1-1.31.49,1.74,1.74,0,0,1-.9-.21,2.1,2.1,0,0,1-.62-.69,2.42,2.42,0,0,1-.2-1,1.9,1.9,0,0,1,.48-1.45,1.7,1.7,0,0,1,1.31-.49,1.75,1.75,0,0,1,1.31.56A2.28,2.28,0,0,1,49.94,49.14Zm-2.76,0c0,.82.34,1.31,1,1.31s1-.42,1-1.31-.35-1.32-1-1.32a.77.77,0,0,0-.69.35A1.78,1.78,0,0,0,47.18,49.14Z"/>
        <path class="cls-2" d="M52.7,51.07a1.29,1.29,0,0,1-1.11-.49h-.07a2.65,2.65,0,0,0,.07.56v1.51h-.76V47.27h.62c0,.07.07.21.14.49h.07a1.34,1.34,0,0,1,1.11-.56,1.28,1.28,0,0,1,1.1.49,2.75,2.75,0,0,1,0,2.89A1.41,1.41,0,0,1,52.7,51.07Zm-.14-3.25a.72.72,0,0,0-.69.28,1.55,1.55,0,0,0-.21.9v.14a1.64,1.64,0,0,0,.21,1,.72.72,0,0,0,.69.28.73.73,0,0,0,.62-.35,1.78,1.78,0,0,0,.21-1,1.81,1.81,0,0,0-.21-1A.88.88,0,0,0,52.56,47.82Z"/>
        <path class="cls-2" d="M59.6,49v2h-.83V46.1h1.38a2.44,2.44,0,0,1,1.38.34A1.43,1.43,0,0,1,62,47.55a1.38,1.38,0,0,1-1,1.31l1.38,2.21h-.9l-1.17-2H59.6Zm0-.62h.55a1.48,1.48,0,0,0,.83-.21.69.69,0,0,0,.27-.62.68.68,0,0,0-.27-.62,1.48,1.48,0,0,0-.83-.21H59.6Z"/>
        <path class="cls-2" d="M64.77,51.07a1.69,1.69,0,0,1-1.86-1.87,1.93,1.93,0,0,1,.48-1.44,1.75,1.75,0,0,1,2.42-.14,1.7,1.7,0,0,1,.41,1.24v.41H63.74a1.46,1.46,0,0,0,.27.83,1,1,0,0,0,.76.28,1.85,1.85,0,0,0,.62-.07L66,50.1v.62a5.37,5.37,0,0,0-.55.21A2,2,0,0,1,64.77,51.07Zm-.14-3.25A.85.85,0,0,0,64,48a1.06,1.06,0,0,0-.27.69h1.72a1.09,1.09,0,0,0-.2-.69A1.13,1.13,0,0,0,64.63,47.82Z"/>
        <path class="cls-2" d="M69,51.07a1.27,1.27,0,0,1-1.1-.49h-.07a2.65,2.65,0,0,0,.07.56v1.51h-.76V47.27h.62c0,.07.07.21.14.49H68a1.32,1.32,0,0,1,1.1-.56,1.27,1.27,0,0,1,1.1.49,2.7,2.7,0,0,1,0,2.89A1.4,1.4,0,0,1,69,51.07Zm-.21-3.25a.73.73,0,0,0-.69.28,1.64,1.64,0,0,0-.2.9v.14a1.74,1.74,0,0,0,.2,1A.85.85,0,0,0,69.4,50a1.88,1.88,0,0,0,.2-1,1.92,1.92,0,0,0-.2-1A.77.77,0,0,0,68.77,47.82Z"/>
        <path class="cls-2" d="M73.05,51.07a1.69,1.69,0,0,1-1.86-1.87,1.93,1.93,0,0,1,.48-1.44,1.75,1.75,0,0,1,2.42-.14,1.7,1.7,0,0,1,.41,1.24v.41H72a1.54,1.54,0,0,0,.27.83,1,1,0,0,0,.76.28,1.85,1.85,0,0,0,.62-.07l.62-.21v.62a5.37,5.37,0,0,0-.55.21A2,2,0,0,1,73.05,51.07Zm-.14-3.25a.85.85,0,0,0-.62.21,1.11,1.11,0,0,0-.27.69h1.72a1.09,1.09,0,0,0-.2-.69A1.13,1.13,0,0,0,72.91,47.82Z"/>
        <path class="cls-2" d="M77.68,51l-.14-.55h0c-.21.2-.35.41-.55.48a2.06,2.06,0,0,1-.69.14,1.08,1.08,0,0,1-.83-.28,1.09,1.09,0,0,1-.28-.83,1,1,0,0,1,.42-.89,2.69,2.69,0,0,1,1.31-.35h.62v-.21A1.31,1.31,0,0,0,77.4,48a.62.62,0,0,0-.48-.2,1.78,1.78,0,0,0-.56.06,3.79,3.79,0,0,0-.48.21l-.27-.55a1.13,1.13,0,0,1,.69-.21A2.28,2.28,0,0,1,77,47.2a1.73,1.73,0,0,1,1.1.28,1.11,1.11,0,0,1,.34,1v2.48h-.75Zm-1.18-.55a1,1,0,0,0,.69-.21.79.79,0,0,0,.28-.69V49.2H77a1.44,1.44,0,0,0-.83.21.71.71,0,0,0-.28.48.51.51,0,0,0,.62.56Z"/>
        <path class="cls-2" d="M80.78,50.45a1.32,1.32,0,0,0,.55-.07V51a.5.5,0,0,1-.34.07c-.14,0-.28.07-.42.07-.76,0-1.1-.42-1.1-1.18V48H79v-.34l.55-.28.27-.76h.49v.69h1v.62h-1v2a.59.59,0,0,0,.14.42A.49.49,0,0,0,80.78,50.45Z"/>
      </g>
      <rect class="cls-4" x="35.58" y="45.27" width="0.35" height="6.21"/>
      <rect class="cls-4" x="56.15" y="45.27" width="0.35" height="6.21"/>
    </g>
  </g>
</svg>
