<svg xmlns="http://www.w3.org/2000/svg" width="100" height="100" viewBox="0 0 100 100">
  <defs>
    <style>
      .cls-1 {
        fill: #fff;
      }
    </style>
  </defs>
  <title>Icon</title>
  <g id="Group_1" data-name="Group 1">
    <g id="Shape_9" data-name="Shape 9">
      <path class="cls-1" d="M22.62,6.07a27.13,27.13,0,0,1,5.1-1.66,26.68,26.68,0,0,1,5.71-.6,2,2,0,0,0,1.7-1.17A2,2,0,0,0,34.55.49c-.22-.18-.47-.33-.71-.49H31.16a1.17,1.17,0,0,1-.41.19,26.1,26.1,0,0,0-6.26,1.16,29.91,29.91,0,0,0-5.9,2.49,31.42,31.42,0,0,0-6.41,4.69A30.88,30.88,0,0,0,4,21.78,25.88,25.88,0,0,0,2.86,27.5a1.56,1.56,0,0,1-.19.49v3.38a3.58,3.58,0,0,1,.29.39,1.88,1.88,0,0,0,3.45-.7c0-.48,0-1,.08-1.43.19-1.64.31-3.29.64-4.9a24,24,0,0,1,2-5.63,27.14,27.14,0,0,1,13.53-13Zm49.3,83.17c-1,0-2,0-3,0-.29,0-.41.15-.4.44s0,.73,0,1.09-.14.62-.61.62c-7.58,0-15.16,0-22.73,0H29.43c-.36,0-.62,0-.62-.51q0-29.7,0-59.4c0-.45.05-.69.61-.69q19.24,0,38.51,0c.43,0,.58.12.57.56,0,1.22,0,2.45,0,3.67,0,.36.07.48.5.4a16.77,16.77,0,0,1,2.74-.3c.45,0,.54-.1.53-.49,0-1.44,0-2.88,0-4.32a6.87,6.87,0,0,0-1-3.76A7.2,7.2,0,0,0,65,22.73q-16.36-.07-32.75,0a7,7,0,0,0-5.3,2.61A8.15,8.15,0,0,0,25,31V61.09q0,15.12,0,30.23A9.27,9.27,0,0,0,26,95.81,7.07,7.07,0,0,0,32.45,100c10.64,0,21.28,0,31.91,0A7.65,7.65,0,0,0,72,94.38a17.05,17.05,0,0,0,.28-4.78C72.24,89.47,72,89.24,71.92,89.24Zm23.84-29.3Q85.5,49.68,75.25,39.42a5.63,5.63,0,0,0-8.15,0c-3.6,3.6-7.17,7.24-10.81,10.8a5.78,5.78,0,0,0-.71,7.4,1.12,1.12,0,0,0,1,.53q10.12,0,20.25,0a7,7,0,0,1,3.72,1.05,7.75,7.75,0,0,1,3.87,7c0,4,0,8.1,0,12.15V79a2.3,2.3,0,0,0,.36-.24q5.47-5.48,11-11A5.71,5.71,0,0,0,95.76,59.94ZM77.6,48.28a2,2,0,0,1-.68,1.54c-.54.55-1.09,1.1-1.65,1.64a2,2,0,0,1-3.09,0l-4-4a2,2,0,0,1-.2-2.73,24.64,24.64,0,0,1,2.38-2.3,2,2,0,0,1,2.38.18c1.44,1.45,2.91,2.87,4.32,4.35a5.44,5.44,0,0,1,.66,1.27Zm-.39,12.06c-5-.06-10,0-15,0s-9.86,0-14.79,0a4.7,4.7,0,0,0-2.33.57,5.35,5.35,0,0,0-3,4.88v16a3.7,3.7,0,0,0,.08.94,5.68,5.68,0,0,0,5.71,4.42q14.22,0,28.44,0a8,8,0,0,0,2.32-.37,5.42,5.42,0,0,0,3.68-5.06q0-7.86,0-15.73a5.31,5.31,0,0,0-.59-2.67A5.13,5.13,0,0,0,77.21,60.34Zm-33,4.52a3.74,3.74,0,0,1,3.63-2.62q14.34,0,28.67,0A3.6,3.6,0,0,1,80,64.59a4.44,4.44,0,0,1,.15.52c.09.3-.06.39-.33.38H44.64C44.06,65.49,44,65.4,44.17,64.86ZM80.34,81.17a3.66,3.66,0,0,1-2.17,3.58,3.89,3.89,0,0,1-1.57.37q-14.46,0-28.93,0a3.53,3.53,0,0,1-3.58-3.27C44,80.43,44,79,44,77.59c0-2.15,0-4.3,0-6.45,0-.47.12-.63.62-.63,5.85,0,11.71,0,17.56,0H79.8c.43,0,.57.15.56.58C80.35,74.45,80.38,77.81,80.34,81.17Zm-22.81-36,2.63-2.48A14.76,14.76,0,0,0,48,37.28a15.72,15.72,0,0,0-4.25.79,14.55,14.55,0,0,0-7.07,5.18,14,14,0,0,0-2.87,7.35,29.23,29.23,0,0,0,0,3,11.57,11.57,0,0,0,.88,4,15,15,0,0,0,4.84,6.51c.43.33.44.3.67-.19.39-.87.82-1.71,1.27-2.55.15-.27.15-.45-.08-.63s-.22-.16-.31-.25a11.12,11.12,0,0,1-3.46-9.9,10.31,10.31,0,0,1,2.1-5,10.87,10.87,0,0,1,10.75-4.36,10.57,10.57,0,0,1,5.94,3C56.8,44.54,57.21,44.86,57.53,45.13ZM23.34,14.23a17.75,17.75,0,0,1,6.42-2.45c1.19-.19,2.39-.27,3.59-.35a1.9,1.9,0,0,0,1.88-1.95,1.8,1.8,0,0,0-1.92-1.82A36,36,0,0,0,29.42,8a22.24,22.24,0,0,0-5.51,1.69,22.83,22.83,0,0,0-7.73,5.64,22.93,22.93,0,0,0-5.89,14.53c0,.34,0,.69,0,1a1.83,1.83,0,0,0,1.81,1.79A1.89,1.89,0,0,0,14,30.88c.11-1.33.23-2.66.43-4a16.57,16.57,0,0,1,1.93-5.36A19.32,19.32,0,0,1,23.34,14.23Zm9.39,3.94c.35,0,.58,0,.81,0a1.92,1.92,0,1,0-.52-3.8,17.2,17.2,0,0,0-7,1.76,16.35,16.35,0,0,0-4.88,3.73,15.22,15.22,0,0,0-3.51,6.45A30.76,30.76,0,0,0,17,30.69a1.82,1.82,0,0,0,1.2,1.82,1.74,1.74,0,0,0,2.18-.65,2.63,2.63,0,0,0,.42-1.39,11.25,11.25,0,0,1,.62-3.69,12.69,12.69,0,0,1,11.32-8.61ZM48,47a2.05,2.05,0,0,1,2.71,1.42.46.46,0,0,0,.33.27c.53,0,1.06,0,1.58,0,.32,0,.43-.16.37-.44a3.54,3.54,0,0,0-2.42-3,.78.78,0,0,1-.66-.9c0-1.44.22-1.26-1.24-1.27-1.28,0-1.3,0-1.27,1.27,0,.52,0,.91-.69,1a1.48,1.48,0,0,0-.53.24,3.47,3.47,0,0,0-1.7,4.38A4.39,4.39,0,0,0,47,52.46c1,.51,2,1,3,1.57a1.93,1.93,0,0,1,.68,2.56,2.59,2.59,0,0,1-2.7,1c-.89-.2-1.28-.7-1.48-1.86a.46.46,0,0,0-.28-.31,16.83,16.83,0,0,0-1.74,0c-.1,0-.29.21-.27.28a11,11,0,0,0,.56,2c.37.8.43.78,1.3.62l.15,0,3.4-.26v.08h2.33c.56,0,.79-.32.6-.83a6.47,6.47,0,0,1-.37-1.07A10.19,10.19,0,0,1,52,54.06c.08-1.26.16-1.3-.85-1.91S49,51,47.9,50.4a2.29,2.29,0,0,1-1.23-1.29A1.68,1.68,0,0,1,48,47Zm30,28.7c0-.48-.16-.64-.63-.64q-15.28,0-30.56,0c-.39,0-.53.13-.53.52,0,.8,0,1.62,0,2.43,0,.66,0,.66.65.66H62.16c5.09,0,10.19,0,15.28,0,.44,0,.62-.12.6-.59C78,77.26,78,76.46,78,75.67Z"/>
    </g>
  </g>
</svg>
