<svg xmlns="http://www.w3.org/2000/svg" width="100" height="100" viewBox="0 0 100 100">
  <defs>
    <style>
      .cls-1 {
        fill: #fff;
      }
    </style>
  </defs>
  <title>Icon</title>
  <g id="Group_1" data-name="Group 1">
    <g id="Shape_7" data-name="Shape 7">
      <path class="cls-1" d="M100,50.89A25.22,25.22,0,0,0,91.39,32a.76.76,0,0,1-.2-1.11,20.11,20.11,0,0,0,2.45-11.73,20.43,20.43,0,0,0-40.7,3.5c0,.36,0,.72.06.95H45.62a20.49,20.49,0,0,0-34.83-17A20.74,20.74,0,0,0,8.17,32.36l-.26.28A26,26,0,0,0,0,51.81C0,59.22,0,66.62,0,74c0,1.83.69,2.5,2.55,2.5H24v1q0,9.6,0,19.21c0,2,.61,2.58,2.59,2.58q23.36,0,46.72,0c2,0,2.65-.6,2.65-2.61V76.53h1q10.32,0,20.63,0c1.56,0,2.33-.73,2.33-2.24C100,66.49,100,58.69,100,50.89ZM63.44,8a15.46,15.46,0,0,1,17.4-1.46C87,9.67,90,15,89.73,21.86A16.58,16.58,0,0,1,73.25,37.67c-1.37-.22-2.75-.4-4.11-.68a1.44,1.44,0,0,1-.88-.74A20.81,20.81,0,0,0,57.87,25.36a1.3,1.3,0,0,1-.65-.85C56,17.75,58,12.08,63.44,8ZM49.37,27.47A16.47,16.47,0,1,1,32.83,44,16.49,16.49,0,0,1,49.37,27.47ZM23.17,4.75A16.49,16.49,0,0,1,41.43,24.41a1.32,1.32,0,0,1-.81,1A20.24,20.24,0,0,0,30.4,36.17a1.19,1.19,0,0,1-1,.86c-1.38.2-2.75.42-4.12.64A16.7,16.7,0,0,1,8.87,22.28,16.47,16.47,0,0,1,23.17,4.75Zm.94,67.14c-.05.47-.16.69-.7.69-6.29,0-12.59,0-18.88,0-.15,0-.31,0-.53,0,0-.27,0-.46,0-.64,0-7.06-.08-14.12,0-21.18a21.15,21.15,0,0,1,6.34-14.87c.11-.12.24-.22.4-.37A20.66,20.66,0,0,0,29,41.2a20.68,20.68,0,0,0,3.21,14,26.75,26.75,0,0,0-4.8,6.09A26,26,0,0,0,24.11,71.89ZM72,95.35H28c0-.25,0-.48,0-.71q0-10.2,0-20.4a21.69,21.69,0,0,1,6.1-15.31,4.7,4.7,0,0,0,.48-.74,20.7,20.7,0,0,0,30-.55,21.74,21.74,0,0,1,5.8,8A21.32,21.32,0,0,1,72,73.92q0,10.35,0,20.71C72,94.86,72,95.09,72,95.35ZM96,72.51H76.09c-.39-1.91-.66-3.79-1.17-5.61a24.85,24.85,0,0,0-7.35-11.85,1,1,0,0,1-.24-1.55,19.76,19.76,0,0,0,2.3-11.44c0-.25,0-.51,0-.84a20.89,20.89,0,0,0,19-6.44A22,22,0,0,1,96,51.38q0,10.23,0,20.46C96,72.05,96,72.25,96,72.51Z"/>
    </g>
  </g>
</svg>
