<svg xmlns="http://www.w3.org/2000/svg" width="100" height="100" viewBox="0 0 100 100">
  <defs>
    <style>
      .cls-1 {
        fill: #fff;
      }
    </style>
  </defs>
  <title>Icon</title>
  <g id="Group_1" data-name="Group 1">
    <g id="Shape_5" data-name="Shape 5">
      <path class="cls-1" d="M33.59,72.72a1.94,1.94,0,0,0-1.09-2.23A4.22,4.22,0,0,0,31,70.28q-12.78,0-25.57,0C4,70.27,4,70.26,4,68.89v-36c0-1.36,0-1.36,1.37-1.36H44.51a11.12,11.12,0,0,0,1.29,0,2,2,0,0,0,1.8-2,1.9,1.9,0,0,0-1.83-2c-.4,0-.8,0-1.2,0H11.94a3.25,3.25,0,0,1-1,0c-.24-.08-.59-.36-.59-.56-.06-1.35,0-2.7,0-4.19H48.21a2,2,0,0,0,2.3-1.94,2,2,0,0,0-2.18-2q-19.35,0-38.71,0a3.2,3.2,0,0,0-3.34,3.41c0,.86,0,1.73,0,2.59s.27,2.07-.18,2.48-1.67.24-2.55.26C1.29,27.53,0,28.77,0,31q0,19.86,0,39.7a3.2,3.2,0,0,0,3.56,3.55c5.84,0,11.68,0,17.51,0,3.52,0,7,0,10.55,0A2,2,0,0,0,33.59,72.72ZM100,31.19c0-.2,0-.4,0-.6a3.18,3.18,0,0,0-3-3.09,11.93,11.93,0,0,0-1.89,0c-.94.09-1.31-.22-1.26-1.21.08-1.39,0-2.78,0-4.17a3.15,3.15,0,0,0-3.35-3.38c-6.77,0-13.53,0-20.3,0a4.18,4.18,0,0,0-.5,0,2,2,0,0,0,.41,4c6.21,0,12.41,0,18.61,0,.89,0,1.19.26,1.12,1.13s0,1.52,0,2.29c0,1.37,0,1.38-1.35,1.38H67a9.92,9.92,0,0,0-1.09,0,2,2,0,0,0-1.77,1.94,2,2,0,0,0,1.69,2,8,8,0,0,0,1.29.06H94.51c1.43,0,1.43,0,1.43,1.4V68.53c0,1.94.17,1.73-1.79,1.74H53.65a4,4,0,0,0-1.63.26,1.93,1.93,0,0,0-1,2.29,2,2,0,0,0,2,1.41q10.91,0,21.8,0c7.1,0,14.19-.07,21.29,0a3.56,3.56,0,0,0,3.8-3.79C99.94,57.39,100,44.29,100,31.19ZM66.91,4.34a2.16,2.16,0,0,0-1.1-2.77c-1.4-.71-2.72,0-3.27,1.64L45.65,54.9,32.51,95.18a8.89,8.89,0,0,0-.26,1,2.4,2.4,0,0,0,2,2.5,2.35,2.35,0,0,0,2.52-1.79l4.23-13Q51.94,50.33,62.88,16.8,64.91,10.56,66.91,4.34ZM92,44a6.4,6.4,0,0,0-1.15-.24,8.11,8.11,0,0,1-7.21-7.32c-.09-.92-.45-1.12-1.31-1.11-6.07,0-12.14,0-18.2,0h-.6a2,2,0,0,0-1.92,1.8,1.94,1.94,0,0,0,1.52,2.14,4.56,4.56,0,0,0,1.17.12c4.84,0,9.69,0,14.53,0a1.48,1.48,0,0,1,1.68,1.06,11.36,11.36,0,0,0,6.63,6.48,1,1,0,0,1,.77,1.16c0,2-.05,3.92,0,5.87a1.31,1.31,0,0,1-.95,1.46A11.53,11.53,0,0,0,80.4,62a1.4,1.4,0,0,1-1.59,1c-7.69,0-15.39,0-23.08,0a3.38,3.38,0,0,0-1.42.3,2,2,0,0,0-.89,2.32,2.1,2.1,0,0,0,2.27,1.52c8.92,0,17.85,0,26.77,0,.85,0,1-.37,1.13-1.1A7.88,7.88,0,0,1,91,58.71c.83-.1,1.09-.41,1.08-1.25,0-4.18,0-8.36,0-12.54C92,44.63,92,44.33,92,44Zm-46.8-6.8c0-1.33-.88-2.11-2.44-2.11-8.55,0-17.11,0-25.66,0-.88,0-1.13.33-1.25,1.1-.64,4.37-3.07,6.77-7.44,7.35-.66.08-1,.27-1,1,0,4.34,0,8.69,0,13,0,.22,0,.45.07.73,5.25.46,8,3.46,8.55,8.57.29,0,.52,0,.75,0H33.9a3.82,3.82,0,0,0,.59,0,2,2,0,0,0,1.71-1.69,1.88,1.88,0,0,0-1.14-2.11,3.68,3.68,0,0,0-1.45-.23c-4.38,0-8.75,0-13.13,0A1.31,1.31,0,0,1,19,61.88a11.55,11.55,0,0,0-6.75-6.63,1,1,0,0,1-.74-1.08c0-2,.05-4,0-6a1.25,1.25,0,0,1,.91-1.39A11.51,11.51,0,0,0,19,40.25a1.44,1.44,0,0,1,1.66-1.07c7.36,0,14.72,0,22.08,0C44.21,39.19,45.15,38.39,45.16,37.15ZM58.19,56,57,59.79c3.43.81,6.46.37,8.89-2.15a8.46,8.46,0,0,0,2-9.36,8.22,8.22,0,0,0-5.52-5.16l-1.17,3.77c2.85,1.77,3.78,3.58,3,5.91C63.26,55.59,60.94,56.5,58.19,56ZM40.11,46.13c.25-.83.5-1.62.74-2.4.5-1.62.46-1.69-1.23-1.83h-.2A9,9,0,0,0,29.94,52,8.53,8.53,0,0,0,36,59c.39-1.27.79-2.54,1.17-3.79-2.82-1.55-3.83-3.7-3-6.16S37.18,45.58,40.11,46.13Z"/>
    </g>
  </g>
</svg>
