<svg xmlns="http://www.w3.org/2000/svg" width="100" height="100" viewBox="0 0 100 100">
  <defs>
    <style>
      .cls-1 {
        fill: #fff;
      }
    </style>
  </defs>
  <title>Icon</title>
  <g id="Group_1" data-name="Group 1">
    <g id="Shape_6" data-name="Shape 6">
      <path class="cls-1" d="M96.07,4.78A8.7,8.7,0,0,0,89.6,2Q50,2,10.49,2A8.58,8.58,0,0,0,4.55,4.22,12.55,12.55,0,0,0,0,13.76Q0,42,0,70.24a6.68,6.68,0,0,0,4.51,6.69A16.51,16.51,0,0,0,10,78c8.87.1,17.75,0,26.62,0H38c0,1.39,0,2.59,0,3.8A4,4,0,0,1,33.75,86c-1.84,0-3.67,0-5.5,0a6,6,0,1,0,0,12h43.5a6,6,0,1,0-.06-12c-1.92,0-3.83,0-5.75,0A3.92,3.92,0,0,1,62,82.36C62,81,62,79.55,62,78h1.53c8.75,0,17.5,0,26.25,0a21.47,21.47,0,0,0,3.1-.24c4.65-.72,7.1-3.6,7.1-8.3V14.34A13.26,13.26,0,0,0,96.07,4.78ZM71.24,90a5.2,5.2,0,0,1,1.12,0,2,2,0,0,1,0,3.91,4.65,4.65,0,0,1-1.12,0H28.83a7,7,0,0,1-1.12,0,2,2,0,0,1,0-3.92,5.18,5.18,0,0,1,1.12,0H71.24Zm-29.82-4,.82-7.88H57.77c.28,2.65.54,5.25.81,7.88ZM95.81,71.2a2.65,2.65,0,0,1-2.15,2.21A14.31,14.31,0,0,1,90,74q-40,0-80,0a13.71,13.71,0,0,1-3.9-.68A3,3,0,0,1,4,70.22c0-1.36,0-2.73,0-4.2H95.85C95.85,67.76,96,69.49,95.81,71.2ZM96,60.08v1.83H4V60.46Q4,37.6,4,14.74A10.05,10.05,0,0,1,5.63,9.07,6.08,6.08,0,0,1,11.2,6q38.92.09,77.85,0a5.82,5.82,0,0,1,5.12,2.76,10.13,10.13,0,0,1,1.85,6Q96,37.39,96,60.08ZM89.31,28c-1,0-2-.06-3,0s-1.23-.28-1.59-1c-2.14-4.38-4.33-8.72-6.5-13.07a5.13,5.13,0,0,0-.77-1.28A1.85,1.85,0,0,0,75,12.34a2,2,0,0,0-.65,2.74c1.91,3.87,3.86,7.74,5.79,11.61.2.39.38.79.58,1.22H55.32c.24-.49.41-.86.59-1.23l5.48-10.93c.11-.23.23-.45.34-.67a2,2,0,0,0-.88-2.86,2,2,0,0,0-2.69,1.06c-1.87,3.67-3.7,7.36-5.55,11-.59,1.19-.93,2.82-1.9,3.42s-2.64.25-4,.27c-1.64,0-2.56.63-2.69,1.81s.66,2,2.39,2.29c1.37,6.4,2.73,12.74,4.1,19.08A5.88,5.88,0,0,0,56.38,56H79.63a5.86,5.86,0,0,0,5.87-4.8c.43-2,.84-3.9,1.26-5.85L89.6,32.11c1.73-.32,2.51-1.09,2.39-2.28S90.94,28,89.31,28ZM83.93,39.48c-.72,3.42-1.47,6.83-2.2,10.24-.4,1.85-.92,2.28-2.8,2.28H56.82a2.1,2.1,0,0,1-2.4-1.69c-1.31-6-2.61-12.1-3.94-18.27h35C85,34.57,84.46,37,83.93,39.48ZM37.83,36A2,2,0,0,0,40,34.08,2,2,0,0,0,37.83,32H14.12c-2,0-4.08,0-6.12,0a1.89,1.89,0,0,0-2,1.73A1.94,1.94,0,0,0,7.5,35.93,4.66,4.66,0,0,0,8.62,36H23C27.93,36,32.88,36,37.83,36Zm7.65,12h-29c-1.58,0-2.48.72-2.5,2s.9,2,2.47,2h29c1.65,0,2.59-.75,2.56-2S47.08,48,45.48,48ZM28.33,40c-1.45,0-2.34.81-2.32,2s.91,2,2.39,2c1.87,0,3.74,0,5.61,0s3.74,0,5.61,0c1.47,0,2.36-.75,2.38-2s-.87-2-2.32-2ZM90.21,68C88.76,68,87.3,68,85.85,68A1.94,1.94,0,0,0,84,70a2,2,0,0,0,1.85,2c.7,0,1.41,0,2.11,0a20.9,20.9,0,0,0,2.24,0,2,2,0,0,0,0-3.94ZM54.15,36.73q1.92,5.91,3.91,11.81A2,2,0,0,0,59.86,50a2,2,0,0,0,2-2.71q-1.92-5.92-3.92-11.81a2,2,0,1,0-3.78,1.25ZM75.38,49.9c1.16.4,2.17-.24,2.66-1.72q1.88-5.53,3.71-11.09c.12-.35.2-.71.27-1a2,2,0,0,0-1.63-2.07A2,2,0,0,0,78,35.6c-1.28,3.77-2.53,7.55-3.78,11.33C73.77,48.39,74.2,49.49,75.38,49.9ZM68,50c1.22,0,2-.87,2-2.31Q70,42,70,36.35c0-1.46-.8-2.35-2-2.33s-2,.9-2,2.37c0,1.87,0,3.74,0,5.61s0,3.82,0,5.73A2,2,0,0,0,68,50Z"/>
    </g>
  </g>
</svg>
