<svg xmlns="http://www.w3.org/2000/svg" xmlns:xlink="http://www.w3.org/1999/xlink" width="291" height="273" viewBox="0 0 291 273">
  <defs>
    <style>
      .cls-1 {
        isolation: isolate;
      }

      .cls-2 {
        fill: #fdfefe;
      }

      .cls-3 {
        fill: #4180af;
      }

      .cls-4 {
        fill: #f98b1f;
      }

      .cls-5 {
        fill: #aaa9c7;
      }

      .cls-6 {
        fill: #161326;
      }

      .cls-7 {
        fill: #e2dfea;
      }

      .cls-8 {
        fill: #7d7da2;
      }

      .cls-9 {
        fill: url(#linear-gradient);
      }

      .cls-10 {
        fill: #030000;
      }

      .cls-11 {
        fill: #092236;
      }

      .cls-12 {
        opacity: 0.27;
      }

      .cls-13 {
        fill: #eff7ff;
      }

      .cls-14 {
        fill: #6b8091;
      }

      .cls-15 {
        fill: #00619d;
      }

      .cls-16 {
        fill: #f65c00;
      }

      .cls-17 {
        fill: #fbf9fb;
      }

      .cls-18 {
        fill: #d1c3e3;
      }

      .cls-18, .cls-19, .cls-34, .cls-44, .cls-46 {
        mix-blend-mode: multiply;
      }

      .cls-19 {
        fill: #b09bc5;
      }

      .cls-20 {
        fill: #b8abd3;
      }

      .cls-21 {
        fill: #ede7f2;
      }

      .cls-22 {
        fill: #072439;
      }

      .cls-23 {
        fill: #344e5d;
      }

      .cls-24 {
        fill: #125589;
      }

      .cls-25 {
        fill: #0f496f;
      }

      .cls-26 {
        fill: #b3316e;
      }

      .cls-27 {
        fill: #ffc147;
      }

      .cls-28 {
        fill: #bb2c41;
      }

      .cls-29 {
        fill: #ffe861;
      }

      .cls-30 {
        fill: #ff4e1c;
      }

      .cls-31 {
        fill: #ff7900;
      }

      .cls-32 {
        fill: #df465c;
      }

      .cls-33 {
        fill: #ffec88;
      }

      .cls-34 {
        fill: #dfd0f3;
      }

      .cls-35 {
        fill: #f5497a;
      }

      .cls-36 {
        fill: #f05;
      }

      .cls-37 {
        fill: #923eff;
      }

      .cls-38 {
        fill: #6d21d3;
      }

      .cls-39 {
        fill: #ff594f;
      }

      .cls-40 {
        fill: #ffb523;
      }

      .cls-41 {
        fill: #ffe13e;
      }

      .cls-42 {
        fill: #bd6823;
      }

      .cls-43 {
        fill: #b082f7;
      }

      .cls-45 {
        fill: #cdb3ed;
      }

      .cls-46 {
        fill: #b4a8c3;
      }

      .cls-47 {
        fill: #f5e0dc;
      }

      .cls-48 {
        fill: #167bb8;
      }

      .cls-49 {
        fill: #f9e181;
      }

      .cls-50 {
        fill: #f14290;
      }

      .cls-51 {
        fill: #ffb229;
      }

      .cls-52 {
        fill: #ffc94f;
      }
    </style>
    <linearGradient id="linear-gradient" x1="44.64" y1="155.15" x2="277.5" y2="155.15" gradientUnits="userSpaceOnUse">
      <stop offset="0" stop-color="#ffc482"/>
      <stop offset="1" stop-color="#f03c3c"/>
    </linearGradient>
  </defs>
  <title>Untitled-1</title>
  <g class="cls-1">
    <g id="Layer_1" data-name="Layer 1">
      <g>
        <polygon class="cls-2" points="11.34 109.41 11.35 109.4 11.34 109.41 11.34 109.41"/>
        <path class="cls-3" d="M79.15,234.07c3.13,1.82,3.13,4.75,0,6.56a12.5,12.5,0,0,1-11.36,0c-3.14-1.81-3.14-4.74,0-6.56A12.56,12.56,0,0,1,79.15,234.07Z"/>
        <path class="cls-3" d="M239.38,235.75c3.53,2,3.53,5.35,0,7.39a14.15,14.15,0,0,1-12.8,0c-3.53-2-3.53-5.35,0-7.39A14.15,14.15,0,0,1,239.38,235.75Z"/>
        <path class="cls-4" d="M8.52,181.77c2,1.12,2,2.95,0,4.07a7.78,7.78,0,0,1-7.06,0c-1.95-1.12-1.95-3,0-4.07A7.78,7.78,0,0,1,8.52,181.77Z"/>
        <path class="cls-4" d="M121.59,238.56c1.35.78,1.35,2,0,2.83a5.4,5.4,0,0,1-4.89,0c-1.35-.79-1.35-2,0-2.83A5.4,5.4,0,0,1,121.59,238.56Z"/>
        <g>
          <g>
            <path class="cls-3" d="M107.1,189.86,58.49,217.94a6.31,6.31,0,0,1-5.71,0h0c-1.58-.92-1.58-2.39,0-3.31l48.6-28.08a6.33,6.33,0,0,1,5.72,0h0C108.68,187.47,108.68,189,107.1,189.86Z"/>
            <path class="cls-3" d="M144.65,168.17,119,183a6.25,6.25,0,0,1-5.71,0h0c-1.58-.91-1.58-2.39,0-3.3l25.68-14.84a6.33,6.33,0,0,1,5.72,0h0C146.23,165.77,146.23,167.25,144.65,168.17Z"/>
          </g>
          <path class="cls-3" d="M121.51,166.8,72.9,194.88a6.31,6.31,0,0,1-5.71,0h0c-1.58-.91-1.58-2.39,0-3.3l48.6-28.08a6.27,6.27,0,0,1,5.72,0h0C123.09,164.41,123.09,165.89,121.51,166.8Z"/>
          <path class="cls-3" d="M183.67,130.89,135.06,159a6.27,6.27,0,0,1-5.72,0h0c-1.58-.91-1.58-2.39,0-3.3L178,127.59a6.33,6.33,0,0,1,5.72,0h0C185.24,128.5,185.24,130,183.67,130.89Z"/>
          <path class="cls-3" d="M211.58,144.23,163,172.31a6.25,6.25,0,0,1-5.71,0h0c-1.58-.91-1.58-2.39,0-3.3l48.6-28.08a6.33,6.33,0,0,1,5.72,0h0C213.16,141.84,213.16,143.32,211.58,144.23Z"/>
          <path class="cls-3" d="M119.85,197.22l-14.22,8.22a6.27,6.27,0,0,1-5.72,0h0c-1.58-.91-1.58-2.39,0-3.3l14.23-8.22a6.31,6.31,0,0,1,5.71,0h0C121.43,194.83,121.43,196.31,119.85,197.22Z"/>
          <path class="cls-3" d="M241.84,126.76,227.61,135a6.33,6.33,0,0,1-5.72,0h0c-1.58-.92-1.58-2.4,0-3.31l14.23-8.22a6.33,6.33,0,0,1,5.72,0h0C243.42,124.37,243.42,125.84,241.84,126.76Z"/>
          <path class="cls-3" d="M131.18,146.48,82.57,174.56a6.31,6.31,0,0,1-5.71,0h0c-1.58-.91-1.58-2.39,0-3.3l48.6-28.08a6.33,6.33,0,0,1,5.72,0h0C132.76,144.09,132.76,145.57,131.18,146.48Z"/>
          <path class="cls-3" d="M161.44,129l-14.23,8.22a6.33,6.33,0,0,1-5.72,0h0c-1.58-.91-1.58-2.39,0-3.3l14.23-8.22a6.33,6.33,0,0,1,5.72,0h0C163,126.61,163,128.09,161.44,129Z"/>
        </g>
        <g>
          <g>
            <path class="cls-3" d="M185.34,243.79l-48.61,28.08a6.33,6.33,0,0,1-5.72,0h0c-1.58-.92-1.58-2.39,0-3.31l48.61-28.08a6.33,6.33,0,0,1,5.72,0h0C186.91,241.4,186.91,242.87,185.34,243.79Z"/>
            <path class="cls-3" d="M222.89,222.09,197.2,236.93a6.27,6.27,0,0,1-5.72,0h0c-1.58-.91-1.58-2.39,0-3.3l25.69-14.84a6.33,6.33,0,0,1,5.72,0h0C224.46,219.7,224.46,221.18,222.89,222.09Z"/>
          </g>
          <path class="cls-3" d="M199.75,220.73l-48.61,28.08a6.33,6.33,0,0,1-5.72,0h0c-1.58-.91-1.58-2.39,0-3.3L194,217.43a6.27,6.27,0,0,1,5.72,0h0C201.32,218.34,201.32,219.82,199.75,220.73Z"/>
          <path class="cls-3" d="M261.9,184.82,213.29,212.9a6.25,6.25,0,0,1-5.71,0h0c-1.58-.91-1.58-2.39,0-3.3l48.6-28.08a6.33,6.33,0,0,1,5.72,0h0C263.48,182.43,263.48,183.91,261.9,184.82Z"/>
          <path class="cls-3" d="M289.82,198.16l-48.61,28.08a6.27,6.27,0,0,1-5.72,0h0c-1.58-.91-1.58-2.39,0-3.3l48.61-28.08a6.33,6.33,0,0,1,5.72,0h0C291.39,195.77,291.39,197.25,289.82,198.16Z"/>
          <path class="cls-3" d="M198.09,251.15l-14.23,8.22a6.33,6.33,0,0,1-5.72,0h0c-1.58-.91-1.58-2.39,0-3.3l14.23-8.22a6.33,6.33,0,0,1,5.72,0h0C199.67,248.76,199.67,250.24,198.09,251.15Z"/>
          <path class="cls-3" d="M209.41,200.41l-48.6,28.08a6.33,6.33,0,0,1-5.72,0h0c-1.58-.91-1.58-2.39,0-3.3l48.61-28.08a6.25,6.25,0,0,1,5.71,0h0C211,198,211,199.5,209.41,200.41Z"/>
          <path class="cls-3" d="M239.67,182.93l-14.23,8.22a6.31,6.31,0,0,1-5.71,0h0c-1.58-.91-1.58-2.39,0-3.3L234,179.63a6.33,6.33,0,0,1,5.72,0h0C241.25,180.54,241.25,182,239.67,182.93Z"/>
        </g>
        <g>
          <g>
            <path class="cls-3" d="M152,206.71l-48.61,28.08a6.31,6.31,0,0,1-5.71,0h0c-1.58-.91-1.58-2.39,0-3.3l48.6-28.08a6.33,6.33,0,0,1,5.72,0h0C153.57,204.32,153.57,205.8,152,206.71Z"/>
            <path class="cls-3" d="M189.54,185l-25.69,14.84a6.31,6.31,0,0,1-5.71,0h0c-1.58-.91-1.58-2.39,0-3.3l25.68-14.84a6.27,6.27,0,0,1,5.72,0h0C191.12,182.63,191.12,184.11,189.54,185Z"/>
          </g>
          <path class="cls-3" d="M166.4,183.65l-48.61,28.08a6.31,6.31,0,0,1-5.71,0h0c-1.58-.91-1.58-2.39,0-3.3l48.6-28.08a6.33,6.33,0,0,1,5.72,0h0C168,181.26,168,182.74,166.4,183.65Z"/>
          <path class="cls-3" d="M228.56,147.75,180,175.83a6.33,6.33,0,0,1-5.72,0h0c-1.58-.91-1.58-2.39,0-3.31l48.61-28.08a6.33,6.33,0,0,1,5.72,0h0C230.13,145.36,230.13,146.84,228.56,147.75Z"/>
          <path class="cls-3" d="M256.47,161.09l-48.61,28.08a6.31,6.31,0,0,1-5.71,0h0c-1.58-.91-1.58-2.39,0-3.3l48.6-28.08a6.27,6.27,0,0,1,5.72,0h0C258.05,158.7,258.05,160.18,256.47,161.09Z"/>
          <path class="cls-3" d="M164.74,214.08l-14.22,8.22a6.33,6.33,0,0,1-5.72,0h0c-1.58-.92-1.58-2.39,0-3.31L159,210.78a6.25,6.25,0,0,1,5.71,0h0C166.32,211.69,166.32,213.17,164.74,214.08Z"/>
          <path class="cls-3" d="M286.73,143.61l-14.23,8.22a6.33,6.33,0,0,1-5.72,0h0c-1.58-.91-1.58-2.39,0-3.3L281,140.31a6.27,6.27,0,0,1,5.72,0h0C288.31,141.22,288.31,142.7,286.73,143.61Z"/>
          <path class="cls-3" d="M176.07,163.33l-48.61,28.08a6.25,6.25,0,0,1-5.71,0h0c-1.58-.91-1.58-2.39,0-3.3L170.35,160a6.33,6.33,0,0,1,5.72,0h0C177.65,160.94,177.65,162.42,176.07,163.33Z"/>
          <path class="cls-3" d="M206.33,145.85l-14.23,8.22a6.27,6.27,0,0,1-5.72,0h0c-1.58-.91-1.58-2.39,0-3.3l14.23-8.22a6.33,6.33,0,0,1,5.72,0h0C207.91,143.46,207.91,144.94,206.33,145.85Z"/>
        </g>
        <g>
          <g>
            <path class="cls-3" d="M60.49,173.37l-46,26.56a6,6,0,0,1-5.41,0h0c-1.49-.86-1.49-2.26,0-3.12l46-26.57a6,6,0,0,1,5.41,0h0C62,171.1,62,172.5,60.49,173.37Z"/>
            <path class="cls-3" d="M96,152.84l-24.3,14a5.93,5.93,0,0,1-5.41,0h0c-1.49-.86-1.49-2.26,0-3.12l24.3-14a6,6,0,0,1,5.41,0h0C97.51,150.58,97.51,152,96,152.84Z"/>
          </g>
          <path class="cls-3" d="M74.12,151.55l-46,26.57a6,6,0,0,1-5.41,0h0c-1.49-.87-1.49-2.27,0-3.13l46-26.56a5.93,5.93,0,0,1,5.41,0h0C75.61,149.29,75.61,150.69,74.12,151.55Z"/>
          <path class="cls-3" d="M132.92,117.58l-46,26.57a6,6,0,0,1-5.41,0h0c-1.5-.87-1.5-2.26,0-3.13l46-26.56a5.93,5.93,0,0,1,5.41,0h0C134.42,115.32,134.42,116.72,132.92,117.58Z"/>
          <path class="cls-3" d="M159.33,130.2l-46,26.57a6,6,0,0,1-5.41,0h0c-1.5-.86-1.5-2.26,0-3.13l46-26.56a6,6,0,0,1,5.41,0h0C160.83,127.94,160.83,129.34,159.33,130.2Z"/>
          <path class="cls-3" d="M72.55,180.33l-13.46,7.78a6,6,0,0,1-5.41,0h0c-1.49-.86-1.49-2.26,0-3.12l13.46-7.78a6,6,0,0,1,5.41,0h0C74.05,178.07,74.05,179.47,72.55,180.33Z"/>
          <path class="cls-3" d="M188,113.67l-13.46,7.77a5.93,5.93,0,0,1-5.41,0h0c-1.5-.86-1.5-2.26,0-3.12l13.46-7.78a6,6,0,0,1,5.41,0h0C189.45,111.41,189.45,112.8,188,113.67Z"/>
          <path class="cls-3" d="M83.27,132.33l-46,26.56a5.93,5.93,0,0,1-5.41,0h0c-1.49-.86-1.49-2.26,0-3.12l46-26.57a6,6,0,0,1,5.41,0h0C84.76,130.07,84.76,131.46,83.27,132.33Z"/>
          <path class="cls-3" d="M111.89,115.79l-13.46,7.78a6,6,0,0,1-5.41,0h0c-1.49-.87-1.49-2.26,0-3.13l13.46-7.77a5.93,5.93,0,0,1,5.41,0h0C113.39,113.53,113.39,114.93,111.89,115.79Z"/>
        </g>
        <g>
          <path class="cls-5" d="M43.15,137.62a10.51,10.51,0,0,0,3.12,2.58L187,221.46a17.92,17.92,0,0,0,5.29,2,28.66,28.66,0,0,0,5.69.61,22.15,22.15,0,0,0,11-2.64l66.94-38.66c1.89-1.1,3.95-3,4.44-5.11a4.89,4.89,0,0,0,.11-1.08v10c0,2.75-2.12,4.95-4.55,6.35l-66.94,38.67a17.69,17.69,0,0,1-5.3,2c-5.43,1.17-11.9.75-16.68-2L46.27,150.34a14.88,14.88,0,0,1-1.77-1.2A7.12,7.12,0,0,1,41.72,144h0V133.84h0A6.74,6.74,0,0,0,43.15,137.62Z"/>
          <path class="cls-6" d="M248.07,202a1.21,1.21,0,0,1,1.11-.14,1.1,1.1,0,0,1,.54,1.1v.71a3.63,3.63,0,0,1-1.65,2.86L236.75,213a1,1,0,0,1-1.65-.95v-.72a3.63,3.63,0,0,1,1.65-2.85Z"/>
          <path class="cls-6" d="M222.93,216.31c1.58-1.6,3.09-1,3,.69-.07,2.48-2.53,4.91-3.86,4.08a1.4,1.4,0,0,1-.46-.5,2.16,2.16,0,0,1-.18-1.31,5,5,0,0,1,.47-1.57h0c.12-.2.24-.4.34-.61A6,6,0,0,1,222.93,216.31Z"/>
          <path class="cls-7" d="M45.89,137c1.15,1.4,2.08,1.77,6.13,4.13.07,0,137.1,79.23,137.81,79.58a19,19,0,0,0,8.12,1.7v1.7a28.66,28.66,0,0,1-5.69-.61,17.92,17.92,0,0,1-5.29-2L46.27,140.2a10.51,10.51,0,0,1-3.12-2.58,6.74,6.74,0,0,1-1.43-3.78,4.66,4.66,0,0,1,.11-1.24c.5-2.13,2.55-4,4.44-5.1l66.94-38.67a22.22,22.22,0,0,1,11-2.64v1.69a21.23,21.23,0,0,0-4.33.45,18.17,18.17,0,0,0-6.45,2.79c-2.19,1.31,5-2.92-25.13,14.47-4.9,2.83-9.78,5.72-14.68,8.54s-9.82,5.6-14.71,8.46c-2,1.2-4.07,2.41-6.11,3.56A56.22,56.22,0,0,0,47,129.59C44.46,131.64,43.8,134.48,45.89,137Z"/>
          <g>
            <polygon class="cls-7" points="79.64 164.85 80.77 164.2 68.42 157.07 67.3 157.72 79.64 164.85"/>
            <polygon class="cls-8" points="80.77 165.76 80.77 164.2 79.64 164.85 79.64 166.41 80.77 165.76"/>
            <polygon class="cls-8" points="79.64 166.41 79.64 164.85 67.3 157.72 67.3 159.28 79.64 166.41"/>
          </g>
          <path class="cls-6" d="M215.71,222.89h0a1,1,0,0,0,.44-.74h0c0-.26-.2-.37-.44-.23h0a1,1,0,0,0-.43.74h0C215.28,222.92,215.48,223,215.71,222.89Z"/>
          <g>
            <path class="cls-6" d="M272.29,192.55h0a1.49,1.49,0,0,0,.68-1.14V188.2c0-.41-.31-.57-.68-.36h0a1.47,1.47,0,0,0-.67,1.14v3.21C271.62,192.6,271.92,192.76,272.29,192.55Z"/>
            <path class="cls-6" d="M269.6,194.1h0a1.45,1.45,0,0,0,.67-1.14v-3.2c0-.42-.3-.58-.67-.36h0a1.45,1.45,0,0,0-.67,1.13v3.21C268.93,194.15,269.23,194.32,269.6,194.1Z"/>
            <path class="cls-6" d="M266.91,195.66h0a1.48,1.48,0,0,0,.67-1.14v-3.21c0-.41-.3-.57-.67-.36h0a1.49,1.49,0,0,0-.68,1.14v3.21C266.23,195.71,266.54,195.87,266.91,195.66Z"/>
            <path class="cls-6" d="M264.21,197.21h0a1.46,1.46,0,0,0,.68-1.13v-3.21c0-.41-.31-.58-.68-.36h0a1.45,1.45,0,0,0-.67,1.14v3.2C263.54,197.27,263.84,197.43,264.21,197.21Z"/>
            <path class="cls-6" d="M261.52,198.77h0a1.48,1.48,0,0,0,.67-1.14v-3.21c0-.41-.3-.57-.67-.36h0a1.48,1.48,0,0,0-.67,1.14v3.21C260.85,198.82,261.15,199,261.52,198.77Z"/>
            <path class="cls-6" d="M258.83,200.32h0a1.45,1.45,0,0,0,.67-1.13V196c0-.41-.3-.57-.67-.36h0a1.48,1.48,0,0,0-.68,1.14V200C258.15,200.38,258.46,200.54,258.83,200.32Z"/>
          </g>
          <path class="cls-7" d="M275.88,182.8l-66.94,38.66a22.15,22.15,0,0,1-11,2.64v-1.7a19.46,19.46,0,0,0,7.38-1.37,26.51,26.51,0,0,0,3.41-1.86c2.19-1.31-5,2.92,25.13-14.47,4.9-2.83,9.78-5.72,14.68-8.54s9.82-5.6,14.71-8.46c2-1.2,4.06-2.41,6.12-3.56,4.05-2.29,6-3.18,7.21-5,1.64-2.36,1.26-5.47-2.78-7.87-.16-.09-140.86-81.39-141.49-81.7a19.08,19.08,0,0,0-8.13-1.71V86.19a28.84,28.84,0,0,1,5.7.61,18.09,18.09,0,0,1,5.3,2l140.68,81.26a10.51,10.51,0,0,1,3.12,2.58,6.63,6.63,0,0,1,1.43,3.94,4.89,4.89,0,0,1-.11,1.08C279.83,179.82,277.77,181.7,275.88,182.8Z"/>
          <g>
            <path class="cls-7" d="M134.91,91.08l-2.6-1.49a19.2,19.2,0,0,0-8.13-1.71,21.93,21.93,0,0,0-4.32.45,18.3,18.3,0,0,0-6.46,2.79c-2,1.22,4-2.35-19.37,11.14l-5.76,3.33c-4.9,2.84-9.78,5.72-14.67,8.54q-2,1.17-4,2.31c-3.56,2-7.13,4.08-10.68,6.15-2,1.2-4.07,2.41-6.12,3.56A54.91,54.91,0,0,0,47,129.6c-2.55,2-3.22,4.88-1.13,7.39,1.16,1.4,2.08,1.77,6.13,4.14l59.51,34.37c37.11,21.44,77.92,45,78.31,45.2a18.83,18.83,0,0,0,8.12,1.71,19.41,19.41,0,0,0,7.37-1.38,23.2,23.2,0,0,0,3.41-1.86c2.19-1.31-5,2.92,25.14-14.47,4.9-2.83,9.78-5.71,14.67-8.54s9.83-5.6,14.72-8.46c2-1.2,4.06-2.41,6.11-3.56,4.06-2.28,6-3.17,7.22-5,1.58-2.27,1.29-5.23-2.34-7.58a4.92,4.92,0,0,0-.45-.28C273.66,171.21,154.16,102.16,134.91,91.08Z"/>
            <path class="cls-9" d="M274.25,171.58c3.63,2.35,3.92,5.31,2.34,7.58-1.25,1.81-3.16,2.7-7.22,5-2.05,1.15-4.08,2.36-6.11,3.56-4.89,2.86-9.81,5.63-14.72,8.46s-9.77,5.71-14.67,8.54c-30.11,17.39-23,13.16-25.14,14.47a23.2,23.2,0,0,1-3.41,1.86,20.25,20.25,0,0,1-15.49-.33C189.18,220.38,70,151.53,52,141.13c-4-2.37-5-2.74-6.13-4.14-2.09-2.51-1.42-5.35,1.13-7.39,1.39-1.11,64.44-37.3,66.39-38.48a18.3,18.3,0,0,1,6.46-2.79,20.25,20.25,0,0,1,12.45,1.26C132.4,89.63,128.58,87.43,274.25,171.58Z"/>
          </g>
          <g>
            <path class="cls-10" d="M91.14,107.55a2.42,2.42,0,0,1,2.19,0l.82.47-14.9,8.61a2.43,2.43,0,0,1-2.21,0l-.8-.47Z"/>
            <path class="cls-11" d="M93.33,106l1,.6c.62.35.6.92,0,1.27l-.21.12-.82-.47a2.42,2.42,0,0,0-2.19,0l-14.9,8.61L76,116a.82.82,0,0,1-.46-.63h0a.77.77,0,0,1,.46-.63L91.14,106A2.45,2.45,0,0,1,93.33,106Z"/>
          </g>
        </g>
        <g class="cls-12">
          <path class="cls-13" d="M106.38,123.78,75.87,141.41a4,4,0,0,1-3.59,0h0a1.09,1.09,0,0,1,0-2.07l30.51-17.63a4,4,0,0,1,3.59,0h0A1.09,1.09,0,0,1,106.38,123.78Z"/>
          <path class="cls-13" d="M104.34,133.25l-21.29,12.3a3.92,3.92,0,0,1-3.59,0h0a1.09,1.09,0,0,1,0-2.07l21.29-12.3a4,4,0,0,1,3.59,0h0A1.09,1.09,0,0,1,104.34,133.25Z"/>
          <path class="cls-13" d="M111.51,137.4,90.22,149.7a4,4,0,0,1-3.59,0h0a1.1,1.1,0,0,1,0-2.08l21.29-12.3a4,4,0,0,1,3.59,0h0A1.1,1.1,0,0,1,111.51,137.4Z"/>
        </g>
        <g class="cls-12">
          <path class="cls-13" d="M153.27,153.38,122.76,171a4,4,0,0,1-3.59,0h0a1.1,1.1,0,0,1,0-2.08l30.51-17.62a4,4,0,0,1,3.59,0h0A1.09,1.09,0,0,1,153.27,153.38Z"/>
          <path class="cls-13" d="M151.23,162.85l-21.3,12.3a4,4,0,0,1-3.58,0h0a1.09,1.09,0,0,1,0-2.07l21.29-12.3a4,4,0,0,1,3.59,0h0A1.09,1.09,0,0,1,151.23,162.85Z"/>
          <path class="cls-13" d="M158.4,167l-21.29,12.3a4,4,0,0,1-3.59,0h0a1.1,1.1,0,0,1,0-2.08l21.29-12.3a4,4,0,0,1,3.59,0h0A1.1,1.1,0,0,1,158.4,167Z"/>
        </g>
        <g class="cls-12">
          <path class="cls-13" d="M215.74,144.9l-30.51,17.63a4,4,0,0,1-3.59,0h0a1.1,1.1,0,0,1,0-2.08l30.52-17.62a3.9,3.9,0,0,1,3.58,0h0A1.09,1.09,0,0,1,215.74,144.9Z"/>
          <path class="cls-13" d="M213.7,154.37l-21.29,12.3a4,4,0,0,1-3.59,0h0a1.09,1.09,0,0,1,0-2.07l21.29-12.3a3.92,3.92,0,0,1,3.59,0h0A1.09,1.09,0,0,1,213.7,154.37Z"/>
          <path class="cls-13" d="M220.88,158.51l-21.3,12.31a4,4,0,0,1-3.59,0h0a1.1,1.1,0,0,1,0-2.08l21.3-12.3a4,4,0,0,1,3.59,0h0A1.09,1.09,0,0,1,220.88,158.51Z"/>
        </g>
        <g class="cls-12">
          <path class="cls-13" d="M209.2,184.1l-30.51,17.62a4,4,0,0,1-3.59,0h0a1.09,1.09,0,0,1,0-2.07L205.61,182a4,4,0,0,1,3.59,0h0A1.1,1.1,0,0,1,209.2,184.1Z"/>
          <path class="cls-13" d="M207.15,193.57l-21.29,12.3a4,4,0,0,1-3.59,0h0a1.1,1.1,0,0,1,0-2.08l21.3-12.3a4,4,0,0,1,3.58,0h0A1.1,1.1,0,0,1,207.15,193.57Z"/>
          <path class="cls-13" d="M214.33,197.71,193,210a4,4,0,0,1-3.59,0h0a1.09,1.09,0,0,1,0-2.07l21.29-12.3a3.92,3.92,0,0,1,3.59,0h0A1.09,1.09,0,0,1,214.33,197.71Z"/>
        </g>
        <g class="cls-12">
          <path class="cls-14" d="M165.91,115.09l-30.52,17.62a4,4,0,0,1-3.59,0h0a1.09,1.09,0,0,1,0-2.07L162.32,113a4,4,0,0,1,3.59,0h0A1.1,1.1,0,0,1,165.91,115.09Z"/>
          <path class="cls-14" d="M163.86,124.55l-21.29,12.31a4,4,0,0,1-3.59,0h0a1.1,1.1,0,0,1,0-2.08l21.29-12.3a4,4,0,0,1,3.59,0h0A1.09,1.09,0,0,1,163.86,124.55Z"/>
          <path class="cls-14" d="M171,128.7,149.74,141a4,4,0,0,1-3.59,0h0a1.09,1.09,0,0,1,0-2.07l21.3-12.3a3.92,3.92,0,0,1,3.59,0h0A1.09,1.09,0,0,1,171,128.7Z"/>
        </g>
        <path class="cls-15" d="M75,44.72V61.65c0,5.93-4.16,13.14-9.29,16.1L63.54,79,58.38,91.43,53.23,85c-.73.41-1.45.83-2.17,1.25-.21.12-.42.24-.63.34-2.32,1.16-4.4,1.2-6,.31l-.12-.07c-1.61-1-2.6-3.06-2.6-6V63.92c0-5.93,4.16-13.14,9.3-16.11l14.65-8.46c2.52-1.45,4.8-1.62,6.47-.71l.1.06C74,39.67,75,41.75,75,44.72Z"/>
        <path class="cls-3" d="M37,82.52c-1.69-1-2.72-3.06-2.72-6V59.56c0-5.93,4.15-13.14,9.29-16.1L58.17,35c2.57-1.48,4.89-1.62,6.57-.65l7.44,4.3c-1.67-.91-4-.74-6.47.71L51.06,47.81c-5.14,3-9.3,10.18-9.3,16.11V80.85c0,2.89,1,5,2.6,6Z"/>
        <path class="cls-3" d="M53.23,85l5.15,6.46-7.54-4.35-.41-.52c.21-.1.42-.22.63-.34C51.78,85.8,52.5,85.38,53.23,85Z"/>
        <path class="cls-7" d="M62.65,54.44c-2.17-2.06-6.09-.78-8.75,2.87s-3.07,8.26-.9,10.33c1.88,1.78,5.07,1.06,7.62-1.53l3.93,3.74c.45.42,1.28.13,1.86-.66s.68-1.77.23-2.19l-3.93-3.74C64.48,59.93,64.53,56.23,62.65,54.44Zm-1.84,9.43c-2,2.77-5,3.74-6.65,2.18s-1.34-5.08.68-7.84,5-3.74,6.65-2.18S62.83,61.11,60.81,63.87Z"/>
        <ellipse class="cls-3" cx="36.37" cy="91.95" rx="5.62" ry="3.25"/>
        <path class="cls-3" d="M266.78,129.85c2.19,1.27,2.19,3.32,0,4.59a8.77,8.77,0,0,1-7.95,0c-2.2-1.27-2.2-3.32,0-4.59A8.77,8.77,0,0,1,266.78,129.85Z"/>
        <g>
          <path class="cls-4" d="M42.15,108.81,43,110a.26.26,0,0,0,.34.05l1.82-.78c.37-.17.52.21.25.63l-1.31,2a.68.68,0,0,0-.13.48l.31,1.63a.87.87,0,0,1-.67.86L42,115a.66.66,0,0,0-.42.24L39.9,117c-.33.37-.72.31-.66-.1l.31-2c0-.17,0-.29-.13-.33l-1.31-.52c-.27-.11-.12-.66.25-.93l1.81-1.31a1.1,1.1,0,0,0,.35-.45l.81-2.11C41.5,108.85,42,108.57,42.15,108.81Z"/>
          <path class="cls-4" d="M51.35,103.5l.81,1.17a.26.26,0,0,0,.35,0l1.81-.78c.38-.16.53.21.25.63l-1.31,2a.73.73,0,0,0-.13.48l.31,1.63a.88.88,0,0,1-.66.87l-1.62.08a.67.67,0,0,0-.43.25l-1.62,1.79c-.34.37-.73.31-.67-.1l.31-2c0-.16,0-.29-.13-.33l-1.31-.52c-.27-.11-.12-.66.25-.93l1.82-1.31a1,1,0,0,0,.34-.45l.81-2.11C50.7,103.53,51.18,103.25,51.35,103.5Z"/>
          <path class="cls-4" d="M60.56,98.18l.81,1.18c.06.09.19.11.34,0l1.82-.79c.37-.16.52.22.25.64l-1.31,2a.72.72,0,0,0-.14.48l.31,1.62a.86.86,0,0,1-.66.87l-1.62.08a.72.72,0,0,0-.43.25l-1.62,1.79c-.33.37-.73.31-.66-.1l.31-2c0-.16,0-.28-.13-.32l-1.32-.53c-.27-.1-.12-.65.26-.92l1.81-1.31a1,1,0,0,0,.34-.45l.82-2.12C59.9,98.22,60.39,97.94,60.56,98.18Z"/>
          <path class="cls-4" d="M69.76,92.86,70.57,94a.25.25,0,0,0,.34,0l1.82-.78c.37-.17.52.21.25.63l-1.31,2a.68.68,0,0,0-.13.48l.31,1.63a.87.87,0,0,1-.67.86L69.56,99a.66.66,0,0,0-.42.24l-1.63,1.79c-.33.37-.72.31-.66-.1l.31-2c0-.17,0-.29-.13-.33l-1.31-.52c-.27-.11-.13-.66.25-.93l1.81-1.31a1.1,1.1,0,0,0,.35-.45l.81-2.11C69.11,92.9,69.59,92.62,69.76,92.86Z"/>
          <path class="cls-4" d="M79,87.55l.81,1.17a.26.26,0,0,0,.35,0L81.93,88c.38-.16.53.21.25.63l-1.31,2a.73.73,0,0,0-.13.48l.31,1.63a.88.88,0,0,1-.66.87l-1.63.08a.68.68,0,0,0-.42.25l-1.62,1.79c-.34.37-.73.31-.67-.1l.31-2a.28.28,0,0,0-.13-.33l-1.31-.52c-.27-.11-.12-.65.25-.93L77,90.58a1,1,0,0,0,.34-.45L78.14,88C78.31,87.58,78.79,87.3,79,87.55Z"/>
        </g>
        <path class="cls-4" d="M177.46,16V30a17,17,0,0,0,7.68,13.32l1.8,1,4.26,10.27,4.27-5.34,1.79,1c.17.1.35.2.52.28,1.91,1,3.64,1,4.92.26l.1-.06c1.33-.83,2.15-2.53,2.15-4.92v-14a17,17,0,0,0-7.69-13.32l-12.12-7c-2.08-1.2-4-1.34-5.35-.58l-.08,0C178.32,11.79,177.46,13.51,177.46,16Z"/>
        <path class="cls-16" d="M208.93,47.22c1.39-.8,2.25-2.53,2.25-5v-14a17,17,0,0,0-7.68-13.32l-12.12-7c-2.13-1.23-4-1.34-5.43-.54q-3.09,1.77-6.16,3.56c1.38-.76,3.27-.62,5.35.58l12.12,7A17,17,0,0,1,205,31.84v14c0,2.39-.82,4.09-2.15,4.92Z"/>
        <path class="cls-16" d="M195.47,49.25l-4.27,5.34,6.24-3.6.34-.43c-.17-.08-.35-.18-.52-.28Z"/>
        <path class="cls-17" d="M190.19,25.4a.41.41,0,0,0-.36-.06l-.35.15-1.95-1.13c-.75-.43-1.4-.24-1.5.44l-.18,1.12,1,.59.16-1c0-.23.25-.29.5-.14l2.15,1.24a.42.42,0,0,0,.36.06l.36-.15,1.6.93.36.56a1.09,1.09,0,0,0,.36.35l2.16,1.25a1.13,1.13,0,0,1,.5.73l.15,1.17,1,.59-.17-1.33a3.29,3.29,0,0,0-1.5-2.17l-1.95-1.13-.36-.56a1,1,0,0,0-.36-.36Zm-5.06,1.12c-.28-.16-.5-.06-.5.22v1a1,1,0,0,0,.5.8l.09.05.78,5.17a2.2,2.2,0,0,0,1,1.42l8.4,4.86c.5.28.92.17,1-.27l.79-4.27.08.05c.28.16.51.06.51-.21v-1a1.07,1.07,0,0,0-.51-.8Zm8.6,7.5a1.05,1.05,0,0,1,.51.8v2.53c0,.28-.23.37-.51.21a1,1,0,0,1-.5-.8V34.23c0-.27.22-.37.5-.21Zm-2.53-1.46a1.05,1.05,0,0,1,.51.8v2.53c0,.28-.23.37-.51.21a1,1,0,0,1-.5-.8V32.77c0-.28.22-.37.5-.21Zm-2.53-1.46a1.05,1.05,0,0,1,.51.8v2.53c0,.28-.23.37-.51.21a1,1,0,0,1-.5-.8V31.31c0-.28.22-.37.5-.21Z"/>
        <path class="cls-18" d="M220.36,171.56l-32.23,18.61a12.73,12.73,0,0,1-11.53,0L117.41,156c-3.18-1.83-3.18-4.81,0-6.65l32.23-18.61a12.73,12.73,0,0,1,11.53,0l59.19,34.17C223.54,166.74,223.54,169.72,220.36,171.56Z"/>
        <path class="cls-19" d="M230,189.32c-.76-1.35-2.86-2.28-4.42-2.58a8.09,8.09,0,0,0-5.5.8q-1.68,1-1.68,2.22v1c0,1.13,1.12,2,2.11,2.57a8.8,8.8,0,0,0,5.43,1c1.52-.21,3.44-1,4.12-2.32a1.65,1.65,0,0,0,.19-.77v-1A1.84,1.84,0,0,0,230,189.32Zm-4.57-3.75,8.2,4.74,1-.58v-.95l-2.05-1.18,4.73.58,1.25-.72v-.94l-6.23-.72c.05-2,.05-1.39.05-2.59L231,184c0,1.19,0,.57,0,2.76L226.38,184l-1,.58Zm17,10.28c-5.94,3.92-15.08,4.58-22,2.75-3.37-.89-7.15-2.62-9.31-5.36a6.89,6.89,0,0,1,0-9.11c5.43-6.87,21.14-8.54,30.49-3.17h0a13.08,13.08,0,0,1,3.8,3.14C248.66,188.3,247,192.84,242.42,195.85Z"/>
        <path class="cls-20" d="M205.18,187.57a13.18,13.18,0,0,0,3.81,3.15c6.42,3.69,16,4.1,23.09,1.62a16.52,16.52,0,0,0,7.4-4.79,7.3,7.3,0,0,0,1.71-4.55h0v4.91h0c0,4-3.56,6.92-7.18,8.57a30.31,30.31,0,0,1-23.41,0c-3.62-1.66-7.15-4.6-7.15-8.56V183h0A7.33,7.33,0,0,0,205.18,187.57Z"/>
        <polygon class="cls-16" points="232.63 180.84 232.63 181.79 231.39 182.5 231.39 181.56 232.63 180.84"/>
        <polygon class="cls-16" points="231.39 181.56 231.39 182.5 226.66 181.92 226.38 181.76 226.38 180.94 231.39 181.56"/>
        <polygon class="cls-16" points="228.71 183.1 228.71 184.05 227.7 184.63 227.7 183.69 228.71 183.1"/>
        <polygon class="cls-16" points="227.7 183.69 227.7 184.63 219.49 179.89 219.49 178.94 227.7 183.69"/>
        <path class="cls-4" d="M228.71,183.1l-1,.59-8.21-4.75,1-.58,4.67,2.7a22.72,22.72,0,0,0,0-2.77l1.3-.75-.06,2.58,6.24.72-1.24.72-5-.62,0,.8Z"/>
        <path class="cls-21" d="M224.06,183.64c-.75-1.35-2.86-2.27-4.41-2.58a8.15,8.15,0,0,0-5.5.8q-1.68,1-1.68,2.22V185c0,1.14,1.12,2,2.11,2.57a8.8,8.8,0,0,0,5.43,1c1.51-.21,3.44-1,4.12-2.32a1.72,1.72,0,0,0,.19-.78v-.95A1.78,1.78,0,0,0,224.06,183.64Zm-4.57-3.75,8.21,4.74,1-.58v-1l-2.05-1.18,4.73.59,1.24-.72v-.95l-6.22-.71c.05-2,0-1.4,0-2.59l-1.3.75c0,1.19,0,.58,0,2.77l-4.67-2.7-1,.58Zm17,10.28c-5.93,3.92-15.07,4.59-22,2.75-3.37-.89-7.15-2.62-9.31-5.35a6.89,6.89,0,0,1,0-9.11c5.44-6.88,21.15-8.54,30.5-3.17h0a13.27,13.27,0,0,1,3.8,3.15C242.78,182.63,241.09,187.17,236.53,190.17Z"/>
        <path class="cls-4" d="M222.86,184.73c0-.89-.88-1.58-1.65-2a6.27,6.27,0,0,0-6.12-.3,2,2,0,0,0-1.19,1.6c0,.84,1.09,1.59,1.81,2a6.2,6.2,0,0,0,6,.23A2,2,0,0,0,222.86,184.73Zm1.46-.18a2.89,2.89,0,0,1-1.68,2.22,8.5,8.5,0,0,1-8.06-.12c-1-.57-2.11-1.43-2.11-2.57q0-1.25,1.68-2.22a8.46,8.46,0,0,1,8.18.2C223.26,182.59,224.32,183.48,224.32,184.55Z"/>
        <path class="cls-21" d="M221.21,183.65a3.4,3.4,0,0,1,1.57,1.5c-.55,1.42-3.95,2.66-7.07.86a3.92,3.92,0,0,1-1.71-1.54C214.56,183,217.93,181.75,221.21,183.65Z"/>
        <path class="cls-16" d="M222.86,184.57a1.32,1.32,0,0,1-.08.58,3.4,3.4,0,0,0-1.57-1.5c-3.27-1.89-6.64-.65-7.21.82a.89.89,0,0,1-.1-.47,2,2,0,0,1,1.19-1.6,6.27,6.27,0,0,1,6.12.3C222.26,183.31,222.81,183.94,222.86,184.57Z"/>
        <path class="cls-16" d="M214.58,186.65a8.5,8.5,0,0,0,8.06.12,2.89,2.89,0,0,0,1.68-2.22v.95a1.72,1.72,0,0,1-.19.78c-.68,1.35-2.6,2.11-4.12,2.32a8.83,8.83,0,0,1-5.43-1c-1-.57-2.11-1.43-2.11-2.57v-.95C212.47,185.22,213.59,186.08,214.58,186.65Z"/>
        <polygon class="cls-7" points="159.25 117.1 177.85 105.85 175.72 104.91 156.89 115.8 159.25 117.1"/>
        <polygon class="cls-7" points="148.83 110.71 167.43 99.46 165.29 98.51 146.46 109.41 148.83 110.71"/>
        <polygon class="cls-16" points="132.26 90.42 133.74 101.5 143.15 96.73 132.26 90.42"/>
        <path class="cls-16" d="M128.07,52.55V83.62l18.75,10.75,7-3.79.49-30.88V37.41Z"/>
        <path class="cls-7" d="M126.85,10.4h0A17.41,17.41,0,0,1,133,19.86l3.57,14.63,3-1.7q-1.67-6.85-3.34-13.71a20.74,20.74,0,0,0-7.4-11.32h0l-5.62-4.1h0C118.25,0,110-.65,104.91,2.33h0L92.3,9.62,79.69,16.9h0a7.65,7.65,0,0,0-4.25,6.92,9,9,0,0,0,4,6.58,0,0,0,0,1,0,0h0l5.62,4.11A17.42,17.42,0,0,1,91.23,44h0q2.26,9.27,4.54,18.56s.1,0,.12,0a6.49,6.49,0,0,1,1.38.21,2.9,2.9,0,0,0,1.22.17c.4-.13.55-.75.44-1.21s-.15-.64-.23-1Q96.56,52,94.42,43.2A20.72,20.72,0,0,0,87,31.87h0L81.4,27.76h0c-1.62-1.17-3-3-2.63-5a5,5,0,0,1,2.55-3.05h0l12.62-7.28,12.61-7.28h0c3.85-2.26,10.69-1.84,14.68,1.12h0Z"/>
        <path class="cls-7" d="M107.17,60.21l-2,1.13c.37,3.25.75,6.49,1.13,9.74h0l2.24,1.29Q107.87,66.29,107.17,60.21Z"/>
        <path class="cls-7" d="M111,92.49l-2.3-1.32a10.89,10.89,0,0,0,2.8,5.06C111.38,95,111.21,93.74,111,92.49Z"/>
        <path class="cls-7" d="M116.69,69.46l-6.57,3.79,3.79,2.19,2.78-1.6Z"/>
        <path class="cls-7" d="M110.17,85.91q-.53-3.85-1-7.71l-1.84,1.06c.29,2.39.56,4.78.84,7.18l2.27,1.31Z"/>
        <path class="cls-7" d="M114.44,102.35h0a2,2,0,0,0,.47,1.12,1.48,1.48,0,0,0,1.61.09c2.91-1.64,2.13-1.2,3.59-2l-6.27-3.62C114.05,99.38,114.25,100.87,114.44,102.35Zm16.12,2.81v.28l1.75,1,.3,2.28-10.42-6-2.35,1.36a17,17,0,0,1-3.31,1.64l-.38.07a3.31,3.31,0,0,1-3.76-3.17h0q-.42-3.2-.85-6.39c-.16-1.25-.33-2.49-.5-3.74l2.27,1.31h0l.18,1.41a5.21,5.21,0,0,0,.74.52h0l8,4.6,1.21-.7,2.07,1.19-1.21.7Z"/>
        <path class="cls-7" d="M111.09,90.17a1.7,1.7,0,0,0,1.31-.4c.17-.12.34-.28.31-.44s0-.18,0-.27q-.72-5.4-1.43-10.78c-.76-.43-1.51-.87-2.26-1.31,0,.41.1.82.16,1.23q.51,3.85,1,7.71l.24,1.84c.08.62.17,1.23.25,1.85v0A.67.67,0,0,0,111.09,90.17Z"/>
        <path class="cls-4" d="M116.69,81.43v9.94L128.07,98V88Z"/>
        <path class="cls-4" d="M116.69,73.84v3.21l11.38,6.57V52.55L116.69,46V73.84Z"/>
        <polygon class="cls-4" points="116.69 45.98 128.07 52.55 154.3 37.41 142.91 30.83 139.53 32.79 136.57 34.49 116.69 45.98"/>
        <polygon class="cls-4" points="117.99 45.98 142.91 31.59 153 37.41 128.07 51.8 117.99 45.98"/>
        <path class="cls-22" d="M120.13,155.91h0l2.49-1.44a2.54,2.54,0,0,0,.92-.95,5.73,5.73,0,0,0,.29-3.9l-2.77-1.6,0,2.47h0C121.88,153.14,121.37,155.13,120.13,155.91Z"/>
        <path class="cls-23" d="M111.84,147.28a10.71,10.71,0,0,0,4.51,8.16c1.51,1,2.85,1.06,3.78.47,1.24-.78,1.75-2.77,1-5.4l0,2-.38.23-8.59-5,0-2.23A4.85,4.85,0,0,0,111.84,147.28Z"/>
        <path class="cls-24" d="M121.64,145.27a2.1,2.1,0,0,1,1.4-.76.79.79,0,0,1,.42.12h0l-8.59-5a1.14,1.14,0,0,0-.94,0l-.19.09a3.62,3.62,0,0,0-1.67,2.89v.2l.05,2.74,0,2.23,8.59,5-.08-5.17A3.6,3.6,0,0,1,121.64,145.27Z"/>
        <path class="cls-25" d="M123,144.51a2.1,2.1,0,0,0-1.4.76,3.6,3.6,0,0,0-1,2.34l.08,5.17.38-.23,0-2h0l0-2.47,0-.95a2,2,0,0,1,.19-.69,2.62,2.62,0,0,1,1.31-1.39.81.81,0,0,1,.68,0h0l.7.4a1.14,1.14,0,0,0-.26-.64.65.65,0,0,0-.21-.16A.79.79,0,0,0,123,144.51Z"/>
        <path class="cls-16" d="M128.07,88V98l2.49,1.43v-6c-.19-1.42-.37-2.83-.56-4.25Z"/>
        <path class="cls-16" d="M130.56,93.36v6l.87.5h0Z"/>
        <path class="cls-24" d="M145.29,126.39v2.3l8.59,5V128.4a2.94,2.94,0,0,1-1.27-2.66h0c0-.89,0-1.77,0-2.65l-4.54-2.62a1.08,1.08,0,0,0-.93,0l-.18.08a3.61,3.61,0,0,0-1.68,2.86v3Z"/>
        <path class="cls-7" d="M135.94,115.61c.53.51,1.44.22,2.07-.15h0l3.12-1.8L134.87,110l.6,4.45h0A2,2,0,0,0,135.94,115.61Zm9.6-1.81,7.09,4.1h0v2.39l-9.42-5.44q-2.07,1.22-4.16,2.41c-2.73,1.59-5.28.35-5.63-2.5h0l-.81-6-.3-2.28c-.08-.61-.16-1.21-.25-1.82l2.27,1.31.24,1.82L145.29,114Z"/>
        <path class="cls-22" d="M155.78,135.33a2.53,2.53,0,0,0,.87-.88,5.69,5.69,0,0,0,.31-4l-2.7-1.55v2.56c.78,2.67.23,4.66-1.06,5.41h0c.85-.5,1.71-1,2.57-1.48Z"/>
        <path class="cls-25" d="M154.26,128.6l-.38-.2v5.25l.38-.22V128.6Z"/>
        <path class="cls-23" d="M154.26,133.43l-.38.22-8.59-5v-2.3a4.74,4.74,0,0,0-.3,1.75,10.73,10.73,0,0,0,4.5,8.15c1.47,1,2.79,1.07,3.71.53,1.29-.75,1.84-2.74,1.06-5.41Z"/>
        <path class="cls-24" d="M156.67,125.43l-2-1.14v1.45h0v0a1.75,1.75,0,0,0,.05.44,2.55,2.55,0,0,1,1.2-.87A1,1,0,0,1,156.67,125.43Z"/>
        <path class="cls-7" d="M156.47,125.87a.77.77,0,0,0-.6-.08,2.17,2.17,0,0,0-1,.74l.06.06a.42.42,0,0,0,.32.13,2.93,2.93,0,0,0,1.47-.47h0l.21-.12c-.15-.09-.3-.18-.46-.26Z"/>
        <path class="cls-7" d="M156.46,168.28a3.63,3.63,0,0,1,1.68-2.9l.18-.08h0l-34.39-19.86-.7-.4h0a.81.81,0,0,0-.68,0,2.62,2.62,0,0,0-1.31,1.39,2,2,0,0,0-.19.69l0,.95,2.77,1.6,32.64,18.85Z"/>
        <path class="cls-7" d="M152.61,125.74h0c0-.89,0-1.77,0-2.65s0-1.87,0-2.8V117.9c0-.47,0-.93,0-1.39l2.06,1.19v1.39q3.6,2.09,7.21,4.16l1.2-.69a9,9,0,0,0,2.56.91l-1.69,1,9.25,5.34h0c.64.38,1.55.66,2.08.15a1.92,1.92,0,0,0,.47-1.12h0c.16-1.21.33-2.42.49-3.63l.66-4.91h0L179.2,119c-.27,2-.55,4-.81,6-.19,1.37-.37,2.74-.56,4.1h0c-.37,2.87-2.94,4.07-5.64,2.49h0l-10.28-5.94L159,127.32l-1.25.72h0a4,4,0,0,1-3.49.56l-.38-.2A2.94,2.94,0,0,1,152.61,125.74Zm4.49.29,2.73-1.58-5.14-3v4.26h0v0a1.75,1.75,0,0,0,.05.44.69.69,0,0,0,.12.29l.06.06a.42.42,0,0,0,.32.13,2.93,2.93,0,0,0,1.47-.47h0l.21-.12Z"/>
        <path class="cls-25" d="M154.86,126.53a2.17,2.17,0,0,1,1-.74.77.77,0,0,1,.6.08h0c.16.08.31.17.46.26l.17-.1a1,1,0,0,0-.42-.59h0a1,1,0,0,0-.73-.06,2.55,2.55,0,0,0-1.2.87A.69.69,0,0,0,154.86,126.53Z"/>
        <path class="cls-7" d="M158.2,48.1c-.39,3.33-2.71,25.63-3.09,29L157,78.26c.3-2.54,2.86-26.5,3.15-29Z"/>
        <path class="cls-22" d="M164.65,181.71h0c.85-.5,1.71-1,2.57-1.48a3.47,3.47,0,0,0,1.41-3.12,8.54,8.54,0,0,0-.53-2.82,7.26,7.26,0,0,1-2.66-.68h0l0,2a8.78,8.78,0,0,1,.59,3A3.34,3.34,0,0,1,164.65,181.71Z"/>
        <path class="cls-23" d="M156.53,172c-.6,3.18,1.83,7.86,5,9.49a4,4,0,0,0,1.83.52,2.56,2.56,0,0,0,1.32-.32,3.34,3.34,0,0,0,1.42-3.12,8.78,8.78,0,0,0-.59-3l.05,2.57-.38.23-8.6-5Z"/>
        <path class="cls-7" d="M165.45,173.61a7.26,7.26,0,0,0,2.66.68c3.34.17,5.86-2.4,5.83-6.56h0v-.24h0c0-4.11-2.4-8.84-5.52-11.59h0l-44.29-39.28a13,13,0,0,1-4.28-8.83h0v-3.7a17,17,0,0,1-3.31,1.64l-.38.07v2h0a16.66,16.66,0,0,0,5.52,11.59h0L166,158.65a13,13,0,0,1,4.28,8.83h0v.25h0c0,1.07-.28,2.55-1.36,2.82a2.1,2.1,0,0,1-.71,0,3.17,3.17,0,0,1-.81-.18h0a3.09,3.09,0,0,0-1.88,2.15,1.8,1.8,0,0,0-.05.46v.6Z"/>
        <path class="cls-25" d="M168.18,170.59a.87.87,0,0,0-.32-.34l-.15-.07a1.18,1.18,0,0,0-.84.09,2.67,2.67,0,0,0-1.1,1,3.45,3.45,0,0,0-.71,2l.09,5.17.38-.23-.05-2.57,0-2V173a1.8,1.8,0,0,1,.05-.46,3.09,3.09,0,0,1,1.88-2.15h0A3.17,3.17,0,0,0,168.18,170.59Z"/>
        <path class="cls-24" d="M167.71,170.18l.15.07h0l-8.6-5a1.14,1.14,0,0,0-.94,0h0l-.18.08a3.63,3.63,0,0,0-1.68,2.9v.2l.06,3.54,0,1.43,8.6,5-.09-5.17a3.45,3.45,0,0,1,.71-2,2.67,2.67,0,0,1,1.1-1A1.18,1.18,0,0,1,167.71,170.18Z"/>
        <path class="cls-7" d="M177.63,75.42a.56.56,0,0,1-.11-.41v0c0-.32.07-.64.11-1-.88-.51-19.51-10.42-20.39-10.93v2.84l16.58,9.24a39.59,39.59,0,0,1,4.33.62v-.13A.72.72,0,0,1,177.63,75.42Z"/>
        <path class="cls-7" d="M178.15,75.8A18,18,0,0,1,182.79,77l-3.21-1.85v.07h0a.12.12,0,0,1-.06.09,1.51,1.51,0,0,1-.22.11,2.82,2.82,0,0,1-1.13.24Z"/>
        <path class="cls-7" d="M179.58,75.16l1.59-13.8-1.95-1.13L177.63,74c0,.32-.08.64-.11,1v0a.56.56,0,0,0,.11.41.72.72,0,0,0,.53.25,2.82,2.82,0,0,0,1.13-.24,1.51,1.51,0,0,0,.22-.11.12.12,0,0,0,.06-.09h0Z"/>
        <path class="cls-7" d="M188.13,108.11v1.32l1.85-1.07c.07-.47.13-1,.19-1.43C189.5,107.33,188.82,107.72,188.13,108.11Z"/>
        <path class="cls-7" d="M189.68,149.06a3.63,3.63,0,0,1,1.68-2.86l.18-.08h0q-16.28-9.39-32.54-18.79l-1.25.72h0a4,4,0,0,1-3.49.56v.25l2.7,1.55,32.72,18.9Z"/>
        <path class="cls-7" d="M195,101a9.8,9.8,0,0,1-2.51,4.21l-.24,1.81,2.82-1.63h0a11.28,11.28,0,0,0,1.94-3.89h0c.7-2.79,1.39-5.57,2.09-8.36l-2.5,1.44Q195.81,97.83,195,101Z"/>
        <path class="cls-22" d="M200.37,161.08a3.42,3.42,0,0,0,1.42-3.11,7.94,7.94,0,0,0-.3-2.09c-.07-.26-.15-.52-.24-.77a7.67,7.67,0,0,1-2.59-.68v2.1a8.9,8.9,0,0,1,.56,2.92,3.35,3.35,0,0,1-1.41,3.12h0l2.57-1.48Z"/>
        <path class="cls-23" d="M189.68,152.87c-.61,3.2,1.86,7.91,5,9.52a4.08,4.08,0,0,0,1.83.5,2.6,2.6,0,0,0,1.29-.32,3.35,3.35,0,0,0,1.41-3.12,8.9,8.9,0,0,0-.56-2.92v2.53l-.38.22-8.6-5Z"/>
        <path class="cls-7" d="M178.91,121.37c5.77,5.11,14.52,13,20.28,18.1a13,13,0,0,1,4.28,8.83h0v.25h0c0,1.09-.29,2.55-1.37,2.82a2,2,0,0,1-.7,0,3.73,3.73,0,0,1-.83-.2h0a3.19,3.19,0,0,0-1.51,1.28,2.57,2.57,0,0,0-.4,1.29v.63a7.67,7.67,0,0,0,2.59.68h.26c3.24.07,5.68-2.48,5.65-6.57h0v-.25h0c0-4.17-2.46-8.88-5.53-11.59h0l-13.36-11.85a4.05,4.05,0,0,1-3.65-.43h0c-.47-.27-4.05-5.74-4.51-6l-.9.56C178.77,119.17,179.36,121.21,178.91,121.37Z"/>
        <path class="cls-7" d="M199.53,87.75a3.13,3.13,0,0,0,.84-.24c.06,0,.16-.08.18-.14h0l0-.09c1.07-4.29,2.15-8.58,3.21-12.87l-1.86-1.07L198.71,86.2l-.21.81h0a.56.56,0,0,0,.46.74A1.51,1.51,0,0,0,199.53,87.75Z"/>
        <path class="cls-7" d="M200.37,87.51a3.13,3.13,0,0,1-.84.24,1.51,1.51,0,0,1-.56,0,.56.56,0,0,1-.46-.74h0l.21-.81-13-7.5c1.63,1.31-27-16.49-27.06-14.89,0,.43-.47,2.42-.47,2.84,3.07,1.78,36.09,21.38,39.17,23.15l3.79-2.19-.58-.33,0,.09h0C200.53,87.43,200.43,87.48,200.37,87.51Z"/>
        <path class="cls-25" d="M200.1,151.09a2.62,2.62,0,0,0-1.1,1,3.47,3.47,0,0,0-.72,2v5.26l.38-.22V153.8a2.57,2.57,0,0,1,.4-1.29,3.19,3.19,0,0,1,1.51-1.28h0a3.73,3.73,0,0,0,.83.2.9.9,0,0,0-.32-.35l-.15-.07A1.16,1.16,0,0,0,200.1,151.09Z"/>
        <path class="cls-24" d="M201.08,151.07l-8.6-5a1.11,1.11,0,0,0-.94,0l-.18.08a3.63,3.63,0,0,0-1.68,2.86v5.26l8.6,5V154a3.47,3.47,0,0,1,.72-2,2.62,2.62,0,0,1,1.1-1,1.16,1.16,0,0,1,.83-.09l.15.07Z"/>
        <path class="cls-7" d="M201.15,92l2.25,1.3c.13-.93.26-1.87.38-2.81Z"/>
        <path class="cls-26" d="M201.25,155.11c.09.25.17.51.24.77h0l0-.76Z"/>
        <path class="cls-7" d="M202.75,102.05c.46.29,1.12.53,1.45.1a.68.68,0,0,0,.14-.31s0,0,0-.08c.08-.61.17-1.22.25-1.83.25-1.84.49-3.68.74-5.52.18-1.35.37-2.71.55-4.06.05-.4.11-.79.16-1.18l-2.27,1.31c-.12.94-.25,1.88-.38,2.81-.36,2.65-.71,5.3-1.07,7.94,0,.11,0,.22,0,.32h0a.44.44,0,0,0,.18.29A2.55,2.55,0,0,0,202.75,102.05Z"/>
        <g>
          <g>
            <path class="cls-27" d="M169.88,56.56l-4.94,2.85c0-1.18,0-2.37,0-3.57Z"/>
            <path class="cls-28" d="M164.86,63.32a.85.85,0,0,1,.42-.19.68.68,0,0,1,.57.19,1.25,1.25,0,0,1,.15,1A4.13,4.13,0,0,0,164.86,63.32Z"/>
            <path class="cls-29" d="M163.69,53c.71,1.63,1.08,2.51,1.24,2.86,0,1.2,0,2.39,0,3.57l-1.56.91C163.59,55.24,163.62,54.82,163.69,53Z"/>
            <path class="cls-28" d="M164.69,65.84a.58.58,0,0,1-.62-.33,1.83,1.83,0,0,0,.28-.1A2.79,2.79,0,0,1,164.69,65.84Z"/>
            <path class="cls-28" d="M164.07,65.51a1,1,0,0,1-.1-.45,3,3,0,0,1,.38.35A1.83,1.83,0,0,1,164.07,65.51Z"/>
            <path class="cls-30" d="M163.88,63.73c.67-1.22,2.1-1.89,2.6-.61a2.68,2.68,0,0,1-.14,1.67h0a5,5,0,0,0-.33-.47c.13-.57,0-1.18-.62-1.2h-.1a.85.85,0,0,0-.42.19,1.93,1.93,0,0,0-.65.75,2,2,0,0,0-.24,1c0,.61.39.83.72.77a5,5,0,0,1,.28.56C163.62,67,162.93,65.5,163.88,63.73Z"/>
            <path class="cls-27" d="M163.69,53c-.07,1.84-.1,2.3-.31,7.34q-10,5.79-20.1,11.6l-1.23-2.86-5-.72Z"/>
            <path class="cls-31" d="M163.45,65.36a1.14,1.14,0,0,0,.55,1.08c-.22-.1-.44-.22-.66-.33a.76.76,0,0,1-.25-.2,2.41,2.41,0,0,1,.21-2.61,2.46,2.46,0,0,1,1-1,1.19,1.19,0,0,1,1-.09c.2.09.38.2.58.3-.48-.2-1.42.1-2.05,1.24A3.23,3.23,0,0,0,163.45,65.36Z"/>
            <path class="cls-28" d="M152.35,70.51a.69.69,0,0,1,.55.18,1.21,1.21,0,0,1,.16,1,5.76,5.76,0,0,0-.41-.44c-.34-.3-.14-.07-.23-.52A1.29,1.29,0,0,0,152.35,70.51Z"/>
            <path class="cls-28" d="M152.56,71.24c-.17-.13-.47-.44-.65-.55a.81.81,0,0,1,.44-.18A2.43,2.43,0,0,1,152.56,71.24Z"/>
            <path class="cls-32" d="M151.91,70.69A4.81,4.81,0,0,1,153.34,72l.07.09h0c1.64,2.22,2.44,7.07,4.27,8.19a1.76,1.76,0,0,0,1.33.18,5.27,5.27,0,0,0,1.32-.53,0,0,0,0,1,0,0,7.35,7.35,0,0,0,1.11-.75c4.53-3.57,5.27-12,2.52-14.15a2.19,2.19,0,0,1,.78-1.67c.13-.1.08-.08.16,0,3.88,2.34,3.63,12.39-2,17.2-1.48,1.26-3.64,2.4-5.49,1.78-3.69-1.15-4-8.11-6.39-9.89A2.25,2.25,0,0,1,151.91,70.69Z"/>
            <path class="cls-28" d="M151.78,73.22a.69.69,0,0,1-.67-.34.68.68,0,0,0,.31-.11S151.78,73.19,151.78,73.22Z"/>
            <path class="cls-28" d="M151.42,72.77a.58.58,0,0,1-.31.11.94.94,0,0,1-.09-.44A2.37,2.37,0,0,1,151.42,72.77Z"/>
            <path class="cls-27" d="M171.59,56.29,142.81,72.9l1.72,36.39L173.3,92.68Zm-7.24,22.77a10.6,10.6,0,0,1-2.93,2.55,7.3,7.3,0,0,1-2.44.88c-4.44.48-5.18-5.94-6.87-8.76a1.17,1.17,0,0,1-1,.13l-.11,0h0l-.64-.33a1.09,1.09,0,0,1-.55-1.11,3.29,3.29,0,0,1,1.34-2.62,1.11,1.11,0,0,1,1.22-.2l.66.34v0c.69.25.65,1.46.35,2.2h0c1.23,1.66,2,4.82,3.14,6.89.72,1.21,1.47,1.83,2.8,1.39a8.51,8.51,0,0,0,4.16-3.51c2.24-3.5,2.53-8.15,1.46-10.5-.69.31-.89.07-1.63-.29a.76.76,0,0,1-.25-.2,2.41,2.41,0,0,1,.21-2.61,2.46,2.46,0,0,1,1-1,1.19,1.19,0,0,1,1-.09c.2.09.38.2.58.3a1.15,1.15,0,0,1,.55.63,2.68,2.68,0,0,1-.14,1.67h0a.86.86,0,0,0,.07.1C168.49,68.33,167.6,75.16,164.35,79.06Z"/>
            <path class="cls-30" d="M152.32,69.86a1.16,1.16,0,0,1,1,.19,2,2,0,0,1,.13,2.07,3.36,3.36,0,0,0-.35-.44,1.2,1.2,0,0,0-.16-1,.69.69,0,0,0-.55-.18,1,1,0,0,0-.58.29,2,2,0,0,0-.66,2.08.68.68,0,0,0,.67.34,2.91,2.91,0,0,1,.33.51c-1.1.6-1.92-.31-1.56-1.62A3,3,0,0,1,152.32,69.86Z"/>
            <path class="cls-31" d="M151.5,70.38a3.57,3.57,0,0,0-.95,1.73,2.07,2.07,0,0,0,0,1,1.17,1.17,0,0,0,.49.71h0l-.64-.33a1.09,1.09,0,0,1-.55-1.11,3.29,3.29,0,0,1,1.34-2.62,1.11,1.11,0,0,1,1.22-.2l.66.34v0a1.24,1.24,0,0,0-.74-.06A1.75,1.75,0,0,0,151.5,70.38Z"/>
            <polygon class="cls-29" points="142.81 72.9 144.53 109.29 141.33 104.88 141.33 69.47 142.81 72.9"/>
            <path class="cls-33" d="M141.33,69.47l-5.94-.86L164.17,52l1.48,3.43,5.94.86L142.81,72.9Zm-4.24-1.13,5,.72,1.23,2.86,26.6-15.36-4.95-.72L163.69,53Z"/>
            <polygon class="cls-27" points="141.33 69.47 141.33 104.88 133.68 103.03 135.39 68.61 141.33 69.47"/>
          </g>
          <path class="cls-34" d="M183.27,87c-5.05-.58-10.31-1.41-10.31-1.41l-1.37-29.29S158.37,64,153.53,66.67a40.6,40.6,0,0,1-6.1,3.19c.17-.42,2-1.52,2-1.52l13.9-8,1.56-.91s-1.14-6.14-1.25-6.43l-26.6,15.36c.26,0,4.74,1,6.19,3.58,1.17,2.08.88,6.63.46,14.52a1.7,1.7,0,0,1-2,1.59c-1.59-.25-1.51,1-1.51,1l1.06.32,2.92,12.86.28,7.05s14,2.51,18.41,2.32a14.8,14.8,0,0,0,7.87-2.49,4.21,4.21,0,0,0,2.22-3.43c1.38-.8,2.71-1.59,4.05-2.36,3.2-1.82,6.18-4.11,9.95-4.76a3.88,3.88,0,0,0,.72-.26,2.12,2.12,0,0,0,1.48-1.4,22.43,22.43,0,0,0,.25-2.37A7.07,7.07,0,0,0,183.27,87ZM152.9,109.56a23.39,23.39,0,0,1,7.67-.46C158.13,110.06,155.65,110.68,152.9,109.56Zm13.25-35.65a7.31,7.31,0,0,1-.19-1,25.62,25.62,0,0,0-.93-7.07,1.46,1.46,0,0,1,.55-1.85,8.75,8.75,0,0,1,1.27,1.88A14.13,14.13,0,0,1,166.15,73.91Z"/>
          <g>
            <path class="cls-35" d="M146.34,70h0l-.65.37C145.89,69.72,146.14,69.35,146.34,70Z"/>
            <path class="cls-36" d="M145.15,89.51a.41.41,0,0,1-.07.15.36.36,0,0,1-.3.11c-4.74-.74-4.45-.69-4.51-.71a.22.22,0,0,1-.14-.14c-.21-.82-.44-3.8-.5-4.65a52.28,52.28,0,0,1,.45-12.18,14.81,14.81,0,0,1,.79-3.06c.13-.25.29-.46.57-.41,4.86.75,4.54.66,4.7.81a1.16,1.16,0,0,1,.24.5l0,0c-.27-.83-.61.14-.84,1a32.9,32.9,0,0,0-.74,4.44A60.18,60.18,0,0,0,145.15,89.51Z"/>
          </g>
        </g>
        <g>
          <g>
            <polygon class="cls-37" points="188.64 75.57 188.64 80.83 185.91 78.2 188.64 75.57"/>
            <path class="cls-38" d="M187.3,76,185,78.2c0,.73,0,1.46,0,2.19H157c0-.73,0-1.46,0-2.19L154.68,76Z"/>
            <path class="cls-37" d="M187.3,80.39H185c0-.73,0-1.46,0-2.19Z"/>
            <path class="cls-39" d="M180.38,85.22c0-.21,0-.3,0-.44,0-.79,0-.87-.06-1.06a.65.65,0,0,0-.21-.28A1,1,0,0,1,180.38,85.22Z"/>
            <path class="cls-40" d="M177.65,84.38a1.91,1.91,0,0,1,2.58-1.5,1.66,1.66,0,0,1,1.24,1.51,1.69,1.69,0,0,1-1.12,1.48s0-.44,0-.65a1.15,1.15,0,0,0,.37-.45c.4-.94-.8-1.76-1.75-1.34h0a1,1,0,0,0-.32,1.75c0,.06,0,.44,0,.65A1.62,1.62,0,0,1,177.65,84.38Z"/>
            <path class="cls-41" d="M178.72,82.94a1.74,1.74,0,0,0-1.07,1.44V84a1.58,1.58,0,0,1,.63-1.2,2.18,2.18,0,0,1,2.57,0,1.6,1.6,0,0,1,.62,1.19v.42A1.93,1.93,0,0,0,178.72,82.94Z"/>
            <path class="cls-38" d="M153.35,80.83v31.91h35.29V80.83Zm28.12,3.56a1.69,1.69,0,0,1-1.12,1.48c-.18,3.31-1.13,7-3.67,9.06a8.44,8.44,0,0,1-7,1.5c-4.87-1-6.54-5.63-6.83-10.65a1.68,1.68,0,0,1-1.11-1.47v-.42a1.63,1.63,0,0,1,.63-1.2,2.21,2.21,0,0,1,2.58,0,1.62,1.62,0,0,1,.62,1.2v.42a1.63,1.63,0,0,1-1,1.44A18.23,18.23,0,0,0,165,89c.55,2.43,1.85,4.81,4.22,5.56a7.41,7.41,0,0,0,5.38-.28c2.38-1.2,3.4-3.93,3.83-6.57,0-.07.2-1.36.2-1.86a1.62,1.62,0,0,1-1-1.43V84a1.58,1.58,0,0,1,.63-1.2,2.18,2.18,0,0,1,2.57,0,1.6,1.6,0,0,1,.62,1.19Z"/>
            <path class="cls-39" d="M164.53,83.91a.73.73,0,0,0-.29-.57,1.18,1.18,0,0,1,.72,1,1,1,0,0,1-.41.79C164.55,85,164.53,84,164.53,83.91Z"/>
            <path class="cls-42" d="M178.7,84.73v0C178.7,85.08,178.69,84.81,178.7,84.73Zm-15.86,0c0-.8,0-.86.06-1a.66.66,0,0,1,.19-.27,1.39,1.39,0,0,1,1.15,0,.69.69,0,0,1,.29.58A21.4,21.4,0,0,0,165,89c.77,3.38,2.68,5.78,6.12,5.92s6.4-1.65,7.31-7.21c0-.08.17-1.11.2-1.85,0,0,0-.46,0-.66a1,1,0,0,1-.4-.79,1.29,1.29,0,0,1,1.75-1l.1,0a.65.65,0,0,1,.21.28c.1.2.06.27.06,1.06a19.84,19.84,0,0,1-.92,5.84c-1.13,3.38-3.45,5.66-7,6C165.59,97.14,162.84,91.48,162.84,84.69Z"/>
            <path class="cls-39" d="M163.09,83.37a.75.75,0,0,0-.25.52c0,.39,0,.86,0,1.23h0A1,1,0,0,1,163.09,83.37Z"/>
            <path class="cls-40" d="M161.77,84.31A1.69,1.69,0,0,1,163,82.79a1.92,1.92,0,0,1,2.58,1.52,1.63,1.63,0,0,1-1,1.44c0-.14,0-.29,0-.43,0-.32-.06-.13.16-.37a1.08,1.08,0,0,0,.24-.64,1.18,1.18,0,0,0-.72-1c-.94-.43-2.14.42-1.75,1.34a1.11,1.11,0,0,0,.36.44h0c0,.49,0,.59,0,.66A1.68,1.68,0,0,1,161.77,84.31Z"/>
            <path class="cls-41" d="M161.77,83.89a1.63,1.63,0,0,1,.63-1.2,2,2,0,0,1,1.29-.42,1.77,1.77,0,0,1,1.91,1.62v.42a1.75,1.75,0,0,0-1-1.44,1.93,1.93,0,0,0-2.78,1.44Z"/>
            <path class="cls-37" d="M157,78.2c0,.73,0,1.46,0,2.19h-2.27C157.15,78,156.66,78.49,157,78.2Z"/>
            <polygon class="cls-37" points="156.08 78.2 153.35 80.83 153.35 75.57 156.08 78.2"/>
            <path class="cls-43" d="M154.68,80.39H187.3L185,78.2,187.3,76H154.68L157,78.2C156.64,78.51,157.19,78,154.68,80.39Zm-1.33.44,2.73-2.63-2.73-2.63h35.29l-2.73,2.63,2.73,2.63Z"/>
          </g>
          <g class="cls-44">
            <path class="cls-45" d="M153.36,99c0-.23,0-3.23,0-6.7v7.53C153.36,99.5,153.35,99.23,153.36,99Z"/>
          </g>
        </g>
        <path class="cls-46" d="M202.48,110a28.29,28.29,0,0,0,1.22-3.71h0c-1.54-.09-3.16.09-4.34-1.3a1.33,1.33,0,0,0-.76-.33,20.43,20.43,0,0,0-3-.6c-1.8-.13-3.61-.09-5.41-.15-.43,0-1.66-.23-1.66-.23s.19-20.27.07-22.85H153.35s0,17.89,0,18.12,0,.55,0,.83c0,.76,0,1.52,0,2.3v5.47c0,.57,0,1.13,0,1.7V111a18.15,18.15,0,0,0,.13,2.08c.74,0,1.41.06,2.07.06,8.41,0,16.81,0,25.22,0a159.69,159.69,0,0,0,16.36-.55,3.38,3.38,0,0,1,.88.13,6.33,6.33,0,0,1-3.61,1c-8,.15-8.79.08-9.64.19-.17,0-.3.23-.49.39.57.5,1.14.33,1.68.33q3.63,0,7.28,0a25,25,0,0,0,2.87-.13c1.39-.18,2.86-.33,3.89-1.41a1.91,1.91,0,0,1,1.47-.61c7.77-.36-2.54.35,0,0C200.56,111.59,203.19,110.72,202.48,110ZM161.9,83.57c1.25-1.5,2.12-1.55,3.52-.16A3.22,3.22,0,0,0,161.9,83.57Zm18.5,1.81c-.49,1.91-.92,3.83-1.52,5.7a7.7,7.7,0,0,1-2.82,4.09,6.45,6.45,0,0,1-4.39,1.24c.08-1.22.07-1.26,1.08-1.38a5.57,5.57,0,0,0,4.66-3.44,21.39,21.39,0,0,0,1.17-3.85,24.18,24.18,0,0,0,.31-2.84c0-.17,0-.4.09-.48s.53-.49.79-.47.53.35.64.6A1.38,1.38,0,0,1,180.4,85.38Zm-2-2.29c.9-.86,1.54-.87,2.58,0Zm15,22.57a9.91,9.91,0,0,1-4.71-.58c3.1-.57,7.29-.27,9.25.65C196.38,106.25,194.93,105.66,193.48,105.66Z"/>
        <path class="cls-7" d="M132.11,102.3a1.65,1.65,0,0,0,1.31-.39c.13-.09.31-.25.32-.4h0a2.91,2.91,0,0,1,0-.31l-1.44-10.77L130,89.11c.19,1.42.37,2.83.56,4.25l.87,6.52c.09.63.17,1.25.25,1.87h0A.65.65,0,0,0,132.11,102.3Z"/>
        <path class="cls-7" d="M154.71,113.63v-.31c0-1.6,0-3.21,0-4.82s0-3.4,0-5.1l-2.07-1.2q0,3.75,0,7.5c0,.81,0,1.62,0,2.43v1.65h0a.64.64,0,0,0,.07.31c.19.38.6.41,1,.29s1-.43,1-.75Z"/>
        <path class="cls-7" d="M201.92,73.34l1.86,1.07,8.83,5.1h0a2.23,2.23,0,0,1,.65.53c.13.16.11.2.11.21s0,0,0,0a1.05,1.05,0,0,1-.31.39,3.12,3.12,0,0,1-.45.32h0l-11.46,6.61-3.79,2.19-9.23,5.33-16.87,9.74h0a7.31,7.31,0,0,1-6.36,0h0l-2.53-1.46-17.06-9.85-14.73-8.5-2.49-1.44-11.38-6.57-2.78-1.61-3.79-2.19h0l-1.53-.88-2.24-1.29h0l-7.71-4.45h0A2.29,2.29,0,0,1,98,66.1c-.13-.16-.12-.21-.12-.22v0a1.14,1.14,0,0,1,.3-.39,3.5,3.5,0,0,1,.45-.32h0l6.58-3.8,2-1.13,9.52-5.49V50.34l-18,10.38c.08.32.16.64.23,1s0,1.08-.44,1.21a2.9,2.9,0,0,1-1.22-.17,6.49,6.49,0,0,0-1.38-.21s-.13,0-.12,0a4.4,4.4,0,0,0-1.69,3.34,4.77,4.77,0,0,0,2.66,4h0l9.58,5.53L109,77c.75.44,1.5.88,2.26,1.31l5.45,3.15L128.07,88,130,89.11l2.26,1.31,13,7.52,7.38,4.26,2.07,1.2,4.41,2.54,3.2,1.85.63.37h0a11,11,0,0,0,10.16,0h0l5.86-3.39,2.26-1.3,6.85-4h0l3.3-1.9h0l2.27-1.31,2.9-1.68,2.5-1.44h0L201.15,92l2.63-1.51,2.27-1.31,8.45-4.88h0a4.38,4.38,0,0,0,0-8.06h0L154.3,41.46v4.39l3.9,2.25,2,1.12,19.07,11,1.95,1.13Z"/>
        <path class="cls-7" d="M204.2,102.15c-.33.43-1,.19-1.45-.1a2.55,2.55,0,0,1-.28-.21.44.44,0,0,1-.18-.29h0c0-.1,0-.21,0-.32l-7.26,4.2h0l-2.82,1.63c-.09.62-.17,1.25-.26,1.88a.65.65,0,0,1-.14.34c-.33.43-1,.19-1.45-.09a3.4,3.4,0,0,1-.28-.21.44.44,0,0,1-.18-.3h0c0-.1,0-.21,0-.32l-1.85,1.07-8.29,4.79c-.09.61-.17,1.22-.25,1.83h0s0,.06,0,.08a.71.71,0,0,1-.14.32c-.33.43-1,.19-1.45-.1-.16-.1-.46-.32-.46-.51v0c0-.1,0-.19,0-.29l-6.33,3.66h0a7.31,7.31,0,0,1-6.36,0h0l-2.51-1.46c-2.55-1.46-5.09-2.94-7.64-4.41v.31h0c0,.32-.66.65-1,.75s-.81.09-1-.29a.64.64,0,0,1-.07-.31h0v-1.65l-2.1-1.21-5.25-3-11.59-6.7a2.91,2.91,0,0,0,0,.31h0c0,.15-.19.31-.32.4a1.65,1.65,0,0,1-1.31.39.65.65,0,0,1-.43-.54h0c-.08-.62-.16-1.24-.25-1.87h0l-.87-.5L128.07,98l-11.38-6.58-4-2.31h0c0,.09,0,.18,0,.27s-.14.32-.31.44a1.7,1.7,0,0,1-1.31.4.67.67,0,0,1-.43-.54v0c-.08-.62-.17-1.23-.25-1.85l-2.27-1.31-5.35-3.09h0a2.37,2.37,0,0,1-.65-.53c-.12-.16-.11-.2-.11-.21s0,0,0,0a1.14,1.14,0,0,1,.3-.39,3.12,3.12,0,0,1,.45-.32h0l4.51-2.6,1.84-1.06c-.06-.41-.11-.82-.16-1.23l-2.66-1.53-5.42,3.14a4.38,4.38,0,0,0,0,8h0l7.84,4.53,2.3,1.32,2.27,1.31h0l10.09,5.83,2.07,1.19,5.09,2.94,1.5.87,2.27,1.31,11,6.33,1.46.84,5.89,3.4,2.06,1.19,8.26,4.77h0l.14.09a9,9,0,0,0,2.56.91,11.55,11.55,0,0,0,1.78.23,10.46,10.46,0,0,0,5.68-1.23h0l3.79-2.19h0L179.2,119l8.93-5.16,1.21-.69,2.27-1.31h0L201.69,106l2.27-1.3,6.39-3.69h0a4.39,4.39,0,0,0,0-8.07h0l-4.46-2.57c-.18,1.35-.37,2.71-.55,4.06l3.11,1.8h0a2.19,2.19,0,0,1,.64.53c.13.16.12.2.12.21v0a1.14,1.14,0,0,1-.3.39,3.12,3.12,0,0,1-.45.32h0l-3.85,2.23c-.08.61-.17,1.22-.25,1.83,0,0,0,0,0,.08A.68.68,0,0,1,204.2,102.15Z"/>
        <path class="cls-7" d="M178,116.35c.46.29,1.12.53,1.45.1a.71.71,0,0,0,.14-.32.25.25,0,0,1,0-.08h0c.08-.61.16-1.22.25-1.83l1.44-10.75-2.26,1.3q-.74,5.39-1.45,10.76c0,.1,0,.19,0,.29v0C177.53,116,177.83,116.25,178,116.35Z"/>
        <path class="cls-7" d="M189.94,108.68a.44.44,0,0,0,.18.3,3.4,3.4,0,0,0,.28.21c.46.28,1.12.52,1.45.09a.65.65,0,0,0,.14-.34c.09-.63.17-1.26.26-1.88l.24-1.81c.4-3,.8-6,1.21-9l-2.27,1.31h0l-1.26,9.32c-.06.48-.12,1-.19,1.43,0,.11,0,.22,0,.32Z"/>
        <path class="cls-7" d="M184.62,124.43a4.05,4.05,0,0,0,3.65.43,3.48,3.48,0,0,0,2-2.93h0c.36-2.64.71-5.27,1.07-7.9l.3-2.22-2.27,1.31c-.38,2.84-.77,5.69-1.15,8.54h0a1.92,1.92,0,0,1-.47,1.11c-.53.52-1.44.23-2.08-.14h0c-.11-.07-5.43-4.16-5.54-4.22-.64.46,3.86,4.87,3.12,5.21l1.39.8h0Z"/>
        <path class="cls-7" d="M191.61,111.81l-.3,2.22,5.65,3.26h0c2.7,1.58,5.27.39,5.63-2.49h0c.46-3.37.92-6.75,1.37-10.12l-2.27,1.3q-.57,4.27-1.15,8.55h0a1.92,1.92,0,0,1-.47,1.11c-.53.52-1.44.23-2.07-.14h0Z"/>
        <path class="cls-16" d="M116.85,232.09v-1c21.12-12.19,20-11.49,20.29-11.84a1.11,1.11,0,0,0,.24-.62v1a1.27,1.27,0,0,1-.46.86C136.77,220.6,138.45,219.62,116.85,232.09Z"/>
        <polygon class="cls-47" points="129.41 218.06 126.72 219.62 118.62 214.94 121.32 213.38 129.41 218.06"/>
        <polygon class="cls-47" points="118.85 211.96 116.16 213.52 108.06 208.84 110.75 207.29 118.85 211.96"/>
        <path class="cls-4" d="M117.65,224.87a2.48,2.48,0,0,1-1.48-.3.81.81,0,0,1-.5-.86c0-.36.41-.74,1.09-1.14a4.5,4.5,0,0,1,1.94-.65,2.71,2.71,0,0,1,1.48.29.87.87,0,0,1,.53.89c-.07.36-.45.75-1.18,1.17A4,4,0,0,1,117.65,224.87Z"/>
        <path class="cls-24" d="M116.85,231.05v1l-7.21,4.15v-1Z"/>
        <path class="cls-48" d="M67.35,202.49l49.5,28.56-7.21,4.17L60.17,206.64Z"/>
        <path class="cls-48" d="M116.17,224.57a2.48,2.48,0,0,0,1.48.3,4,4,0,0,0,1.88-.6c.73-.42,1.11-.81,1.18-1.17a.87.87,0,0,0-.53-.89,2.71,2.71,0,0,0-1.48-.29,4.5,4.5,0,0,0-1.94.65c-.68.4-1.05.78-1.09,1.14A.81.81,0,0,0,116.17,224.57ZM114.69,223a5.08,5.08,0,0,1,2.84-1.67,4.57,4.57,0,0,1,3.31.37,1.16,1.16,0,0,1,.73,1.26l2.61-1.52.9.52-7.3,4.22-.83-.48c1.59-.91.06.18-1.6-.79C114.58,224.5,114.2,223.8,114.69,223Z"/>
        <path class="cls-48" d="M110.11,221.79l5.29-3,.81.47-.8.46a4.73,4.73,0,0,1,1.31-.1,1.57,1.57,0,0,1,1.38.93l-1.14.3c-.25-.65-1.25-.84-2-.61s-1,.42-4,2.11Z"/>
        <polygon class="cls-47" points="108.3 205.87 105.59 207.43 97.5 202.75 100.19 201.19 108.3 205.87"/>
        <path class="cls-4" d="M107.9,219.58c-.51-.08-1.64-.48-1.7-1s.45-.63.87-.68c1-.1,1.79.64,3.41,1A3.35,3.35,0,0,1,107.9,219.58Z"/>
        <path class="cls-48" d="M107.71,217.94c-1.11-.24-2.2.51-1,1.23a3.55,3.55,0,0,0,2.36.4,5.15,5.15,0,0,0,1.37-.63C109.34,218.66,108.3,218.06,107.71,217.94Zm-2.79.5c0-.68.81-1.09,1.5-1.21,1.84-.3,3,.83,4.76,1.3.28-.15.78-.4.76-.73-.08-.57-1.29-1.12-1.87-1.17a3.15,3.15,0,0,0-1.24.2l-.75-.57a4,4,0,0,1,2.63-.16,5.44,5.44,0,0,1,2.32,1.31c.32.39.33.7-.1,1.11s-2.74,1.56-3.5,2.15a1.38,1.38,0,0,0-.42.49l-.93-.54a1.42,1.42,0,0,1,.47-.48,5.83,5.83,0,0,1-2.71-.69C105.26,219.12,105,218.78,104.92,218.44Z"/>
        <path class="cls-48" d="M100.62,212a7.45,7.45,0,0,1,5-.93c2.35.41,4.64,1.94,3,3.65l-1.16-.41c.65-.73.62-1.4-.43-2a4.89,4.89,0,0,0-3.69-.42,6.33,6.33,0,0,0-3,1.78c-.58.79-.12,1.52.7,2a4.68,4.68,0,0,0,4,.15l.73.7a6.51,6.51,0,0,1-5.46-.34,3,3,0,0,1-1.44-1.38C98.36,213.71,99.58,212.64,100.62,212Z"/>
        <polygon class="cls-47" points="97.74 199.76 95.03 201.32 86.93 196.65 89.64 195.09 97.74 199.76"/>
        <path class="cls-4" d="M136.64,217.55c.35.21.8.65.74,1a1.3,1.3,0,0,1-.74,1l-19.79,11.42-49.5-28.56C88.91,190,87.31,190.88,88,190.73a4.1,4.1,0,0,1,2.73.32Zm-18-2.61,8.1,4.68,2.69-1.56-8.09-4.68Zm-2.78,7.11c-1.8,1-1.67,2.21-.49,2.9,1.66,1,3.18-.11,1.6.79l.83.48,7.3-4.22-.9-.52L121.57,223C121.92,221.66,118.83,220.33,115.84,222.05Zm-.44-3.31-5.29,3,.9.51c3-1.71,3.1-1.85,4-2.11s1.74,0,2,.61l1.14-.3a1.57,1.57,0,0,0-1.38-.93,4.73,4.73,0,0,0-1.31.1l.8-.46Zm-7.34-9.9,8.1,4.68,2.69-1.56-8.1-4.67Zm-2.52,8.69c-.85.5-.91,1.23.3,1.92a5.8,5.8,0,0,0,2.71.69,1.42,1.42,0,0,0-.47.48l.93.54c.22-.44.6-.66,1.93-1.45.36-.2,1.67-.93,2-1.19a.7.7,0,0,0,.1-1.11,5.56,5.56,0,0,0-2.32-1.31,4,4,0,0,0-2.63.16l.75.57a3.15,3.15,0,0,1,1.24-.2c.58.05,1.79.6,1.87,1.17,0,.33-.49.59-.76.73-1-.26-2.08-.86-2.84-1.13A3.57,3.57,0,0,0,105.54,217.53Zm.15-1-.73-.7a4.68,4.68,0,0,1-4-.15c-.81-.48-1.28-1.21-.7-2a6.4,6.4,0,0,1,3-1.78,4.89,4.89,0,0,1,3.69.42c1,.61,1.08,1.27.43,2l1.16.41c1.68-1.71-.61-3.24-3-3.65a7.45,7.45,0,0,0-5,.93c-1,.6-2.26,1.67-1.83,2.8a3,3,0,0,0,1.44,1.38A6.51,6.51,0,0,0,105.69,216.56ZM91.78,202.68c-.16-.53-.67-.79-1.13-1-1-.53-1.3-.78-2.73-1.58-.5-.28-1-.56-1.51-.86a7,7,0,0,0-1.24-.66,4.28,4.28,0,0,0-2.07-.15,9.55,9.55,0,0,0-2.81,1.39c-1.21.76-1.2.7-1.83,1.06-.92.57-.93,1.28-.32,1.85.27.23,4.2,2.43,5,2.91a4.24,4.24,0,0,0,2.26.85c2,.12,3.06-1.09,5.21-2.24.42-.22,1-.5,1.17-1A1,1,0,0,0,91.78,202.68ZM95,201.32l2.71-1.56-8.1-4.67-2.71,1.56Zm13.27,4.55-8.11-4.68-2.69,1.56,8.09,4.68Z"/>
        <path class="cls-49" d="M81.6,204.73c-2.6-1.5-2.28-1.34-2.72-1.58s-1-.52-1.13-1a1,1,0,0,1,.3-1,4,4,0,0,1,.88-.57c2.11-1.1,3.23-2.37,5.21-2.24a4.2,4.2,0,0,1,2.27.86c.51.31,4.63,2.62,5,2.91a1,1,0,0,1,.37,1.09c-.17.51-.73.79-1.17,1-2.14,1.14-3.24,2.36-5.21,2.24C84.15,206.37,84.09,206.11,81.6,204.73Z"/>
        <path class="cls-4" d="M59.26,209.24c-1-.61-.94-1.57,0-2.07l.9-.53c.11,0-.53-.31,49.48,28.58l-.9.51a3.92,3.92,0,0,1-2.73.33C105.27,235.9,108.37,237.6,59.26,209.24Z"/>
        <path class="cls-16" d="M58.51,209.24v-1a1.07,1.07,0,0,0,.24.62c.25.33-2.75-1.46,46.39,26.91a4,4,0,0,0,2.74.33,5.65,5.65,0,0,0,1.76-.84v1l-.9.52a4,4,0,0,1-2.73.33c-.7-.15,2.29,1.49-46.75-26.82A1.28,1.28,0,0,1,58.51,209.24Z"/>
        <polygon class="cls-50" points="121.85 44.63 121.85 56.13 107.01 64.85 96.92 59.02 121.85 44.63"/>
        <g>
          <path class="cls-51" d="M261.73,148.52c2.46,3.31,1.82,7.07-1.67,9.11s-9.23,1.74-13.46-1.19a9,9,0,0,1-3.86-5.07,5.43,5.43,0,0,1,.78-4.5,8.1,8.1,0,0,1,5.53-3.11C253.83,143,259.17,145.06,261.73,148.52Zm-3.94,3.58a1.62,1.62,0,0,0,.69-1.44,2.42,2.42,0,0,0-.78-1.39l.45-.26-.53-.48-.45.26a4.79,4.79,0,0,0-1.87-.91,3.26,3.26,0,0,0-2.31.33,1.43,1.43,0,0,0-.8,1.78,4.16,4.16,0,0,0,.69,1.28l-3,1.72a1.21,1.21,0,0,1-.35-1.13,1.85,1.85,0,0,1,.73-1l-1.09-.7a2.13,2.13,0,0,0-.87,1,1.54,1.54,0,0,0,0,1.08,4.11,4.11,0,0,0,.79,1.16l-.94.54.54.48c.31-.19.63-.37,1-.55a4.3,4.3,0,0,0,2.25,1,3.5,3.5,0,0,0,2.23-.41,1.64,1.64,0,0,0,.92-1.34,1.88,1.88,0,0,0-.22-.89,7.79,7.79,0,0,0-.63-1l2.71-1.57a1,1,0,0,1-.2,1.63Z"/>
          <path class="cls-52" d="M258.48,150.66a1.62,1.62,0,0,1-.69,1.44l-1.08-.75a1,1,0,0,0,.2-1.63l-2.71,1.57a7.79,7.79,0,0,1,.63,1,1.88,1.88,0,0,1,.22.89,1.64,1.64,0,0,1-.92,1.34,3.5,3.5,0,0,1-2.23.41,4.3,4.3,0,0,1-2.25-1c-.32.18-.64.36-1,.55l-.54-.48.94-.54a4.11,4.11,0,0,1-.79-1.16,1.54,1.54,0,0,1,0-1.08,2.13,2.13,0,0,1,.87-1l1.09.7a1.85,1.85,0,0,0-.73,1,1.21,1.21,0,0,0,.35,1.13l3-1.72a4.16,4.16,0,0,1-.69-1.28,1.43,1.43,0,0,1,.8-1.78,3.26,3.26,0,0,1,2.31-.33,4.79,4.79,0,0,1,1.87.91l.45-.26.53.48-.45.26A2.42,2.42,0,0,1,258.48,150.66Zm-4.69.09,2.59-1.51c-1.41-1-2.84-.36-3,.43A1.69,1.69,0,0,0,253.79,150.75Zm-.08,2.25a2,2,0,0,0-.42-1.18l-2.86,1.65a2.81,2.81,0,0,0,1.35.5,2.28,2.28,0,0,0,1.35-.28A1.05,1.05,0,0,0,253.71,153Z"/>
          <path class="cls-51" d="M256.38,149.24l-2.59,1.51a1.69,1.69,0,0,1-.37-1.08C253.54,148.88,255,148.27,256.38,149.24Z"/>
          <path class="cls-51" d="M253.29,151.82a2,2,0,0,1,.42,1.18,1.05,1.05,0,0,1-.58.69,2.28,2.28,0,0,1-1.35.28,2.81,2.81,0,0,1-1.35-.5Z"/>
          <path class="cls-52" d="M230.42,148.74c-.13-3.43,3.94-6.51,9.8-7.31A21.24,21.24,0,0,1,249,142a13.7,13.7,0,0,0-3.1.7,17.65,17.65,0,0,0-6.47.19,11.08,11.08,0,0,0-5.3,2.58c-2.11,2.06-1.91,4.62.43,6.55a12,12,0,0,0,5.44,2.31c.09.28.25.71.3.81.11.26.25.53.3.63a15.82,15.82,0,0,1-7.56-2.75,7,7,0,0,1-2-2.16A4.76,4.76,0,0,1,230.42,148.74Z"/>
          <path class="cls-52" d="M241.51,145.92a9.92,9.92,0,0,1,6.71-3.78c5.72-.93,12.26,1.54,15.41,5.78,3,4,2.2,8.62-2,11.07s-11.2,2.13-16.36-1.43a11.09,11.09,0,0,1-4.68-6.17A6.59,6.59,0,0,1,241.51,145.92Zm18.55,11.71c3.49-2,4.13-5.8,1.67-9.11-2.56-3.46-7.9-5.54-12.68-4.76a8.1,8.1,0,0,0-5.53,3.11,5.43,5.43,0,0,0-.78,4.5,9,9,0,0,0,3.86,5.07C250.83,159.37,256.55,159.66,260.06,157.63Z"/>
          <path class="cls-51" d="M240.36,148.72c-.13.47-.25.94-.38,1.41a.77.77,0,0,1-.18-.68A1.55,1.55,0,0,1,240.36,148.72Z"/>
          <path class="cls-51" d="M240,154.37a12,12,0,0,1-5.44-2.31c-2.34-1.93-2.54-4.49-.43-6.55a11.08,11.08,0,0,1,5.3-2.58,17.65,17.65,0,0,1,6.47-.19,8,8,0,0,0-5.37,5.29c0,.17-.09.34-.13.5l-1-.39a2.14,2.14,0,0,0-.87.93,1,1,0,0,0,0,.86,2.94,2.94,0,0,0,.83.85l-.94.54.55.32.72-.42s0,.13,0,.17a7.1,7.1,0,0,0,.16,2.5C239.92,154.08,240,154.31,240,154.37Z"/>
          <path class="cls-52" d="M240.41,148.53a1.8,1.8,0,0,0,0,.19,1.55,1.55,0,0,0-.56.73.77.77,0,0,0,.18.68,8.26,8.26,0,0,0-.25,1.09l-.72.42-.55-.32.94-.54a2.94,2.94,0,0,1-.83-.85,1,1,0,0,1,0-.86,2.14,2.14,0,0,1,.87-.93Z"/>
          <path class="cls-51" d="M240.41,148.53h0a6.92,6.92,0,0,0,.13,2.85,11.09,11.09,0,0,0,4.68,6.17c5.16,3.56,12.12,3.9,16.36,1.43a7.35,7.35,0,0,0,3.58-4.33c-.21.81-.43,1.61-.64,2.41a6.88,6.88,0,0,1-.83,1.88c-.13.21-.43.59-.46.63a9.8,9.8,0,0,1-5.2,3.1,17.06,17.06,0,0,1-15.59-4.36,10.87,10.87,0,0,1-1.91-2.64,7.92,7.92,0,0,1-.87-3,6.28,6.28,0,0,1,0-1.31A21.31,21.31,0,0,1,240.41,148.53Z"/>
          <path class="cls-51" d="M211.05,134.18a1.21,1.21,0,0,0,0,.19v-3s0,.32,0,.51a5.16,5.16,0,0,0,1.16,2.56,7.55,7.55,0,0,0,.56.62,12,12,0,0,0,4.54,2.62l.42.13c4.51,1.4,10.44,1.16,14.58-1,2.18-1.14,4.22-3,4.22-5.47v3a6,6,0,0,1-3,4.77,16.71,16.71,0,0,1-8.09,2.54h0a21.57,21.57,0,0,1-7.46-.76,12.4,12.4,0,0,1-5.2-2.85A5.18,5.18,0,0,1,211.05,134.18Z"/>
          <path class="cls-52" d="M234.93,138a7.5,7.5,0,0,1-3.51,3.82c-5.49,3.17-14.63,2.8-19.27-.82a19.56,19.56,0,0,0,7.49,1.46,16.25,16.25,0,0,0,10.21-1.58,14,14,0,0,0,3.67-1.72,8.67,8.67,0,0,0,1.4-1.16Z"/>
          <path class="cls-51" d="M230.43,151.85c0-.14,0,.05,0-3.11a4.76,4.76,0,0,0,.65,2.16,7,7,0,0,0,2,2.16,15.82,15.82,0,0,0,7.56,2.75,11.19,11.19,0,0,0,1.85,2.51c.24.25.47.47.7.67-3.71,0-8.28-1-10.93-3.59A5.44,5.44,0,0,1,230.43,151.85Z"/>
          <path class="cls-51" d="M219.64,142.44a20.53,20.53,0,0,0,5.78-.76,19.6,19.6,0,0,0,4.43-.82A16.27,16.27,0,0,1,219.64,142.44Z"/>
          <path class="cls-51" d="M207,134.9a1,1,0,0,0,0,.17v-3a4.88,4.88,0,0,0,1,2.83,10.67,10.67,0,0,0,5,3.4h0a12.59,12.59,0,0,0,5,2.63,21.3,21.3,0,0,0,7.45.76c-5.09,1.46-11,.73-14.64-1.38a7.65,7.65,0,0,1-3.47-3.64A4.43,4.43,0,0,1,207,134.9Z"/>
          <g>
            <path class="cls-51" d="M211,131.34v-2.67h0a5,5,0,0,0,1.14,2.72c3.7,4.67,14.33,5.76,20.62,2.14a8.63,8.63,0,0,0,2.57-2.12,5,5,0,0,0,1.17-3.09v3c0,2.45-2.05,4.35-4.22,5.48a18.61,18.61,0,0,1-7.9,1.88,20.93,20.93,0,0,1-7.1-1,10.77,10.77,0,0,1-5.35-3.58A4.78,4.78,0,0,1,211,131.34Z"/>
            <path class="cls-52" d="M235.4,125.24a4.65,4.65,0,0,1,0,6.16,8.63,8.63,0,0,1-2.57,2.12c-6.29,3.62-16.92,2.53-20.62-2.14a4.58,4.58,0,0,1-.75-4.92,7.74,7.74,0,0,1,3.34-3.36c4.28-2.46,10.73-2.79,15.61-1.09A11,11,0,0,1,235.4,125.24Zm-2.06,5.61a3.81,3.81,0,0,0,0-5.06c-3-3.83-11.78-4.75-17-1.77a7.2,7.2,0,0,0-2.12,1.76,3.82,3.82,0,0,0,0,5.06c3,3.83,11.78,4.74,17,1.77A7.2,7.2,0,0,0,233.34,130.85Z"/>
            <path class="cls-51" d="M233.35,125.79a3.81,3.81,0,0,1,0,5.06,7.2,7.2,0,0,1-2.12,1.76c-5.19,3-13.93,2.06-17-1.77a3.82,3.82,0,0,1,0-5.06,7.2,7.2,0,0,1,2.12-1.76C221.57,121,230.31,122,233.35,125.79Zm-7.1.93,1.39-.06a1.56,1.56,0,0,0-.88-1.19A4.59,4.59,0,0,0,225,125l.06-.36-.78,0-.06.37a5.43,5.43,0,0,0-2,.32,1.7,1.7,0,0,0-1.19,1.27c-.1.71.45,1.19,1.12,1.45a7.58,7.58,0,0,0,1.61.44c-.11.81-.23,1.62-.35,2.44a2.25,2.25,0,0,1-1.27-.52,1.39,1.39,0,0,1-.41-.93l-1.36.08a1.44,1.44,0,0,0,.39,1,2.48,2.48,0,0,0,1,.65,7.83,7.83,0,0,0,1.58.33c0,.26-.07.51-.11.76l.78,0c0-.26.07-.51.11-.77a5,5,0,0,0,2.35-.46,1.74,1.74,0,0,0,1.06-1.28,1.26,1.26,0,0,0-.63-1.25,3.68,3.68,0,0,0-.95-.43c-.21-.06-.64-.16-1.3-.29.11-.73.22-1.47.32-2.2a2.19,2.19,0,0,1,1,.36A1,1,0,0,1,226.25,126.72Z"/>
            <path class="cls-52" d="M227.64,126.66l-1.39.06a1,1,0,0,0-.39-.72,2.19,2.19,0,0,0-1-.36c-.1.73-.21,1.47-.32,2.2.66.13,1.09.23,1.3.29a3.68,3.68,0,0,1,.95.43,1.26,1.26,0,0,1,.63,1.25,1.74,1.74,0,0,1-1.06,1.28,5,5,0,0,1-2.35.46c0,.26-.07.51-.11.77l-.78,0c0-.25.07-.5.11-.76a7.83,7.83,0,0,1-1.58-.33,2.48,2.48,0,0,1-1-.65,1.44,1.44,0,0,1-.39-1l1.36-.08a1.39,1.39,0,0,0,.41.93,2.25,2.25,0,0,0,1.27.52c.12-.82.24-1.63.35-2.44a7.58,7.58,0,0,1-1.61-.44c-.67-.26-1.22-.74-1.12-1.45a1.7,1.7,0,0,1,1.19-1.27,5.43,5.43,0,0,1,2-.32l.06-.37.78,0L225,125a4.59,4.59,0,0,1,1.78.48A1.56,1.56,0,0,1,227.64,126.66Zm-1.55,3.13a.71.71,0,0,0-.26-.68,3.64,3.64,0,0,0-1.36-.52c-.11.77-.23,1.55-.34,2.32a2.84,2.84,0,0,0,1.33-.32A1.12,1.12,0,0,0,226.09,129.79Zm-2.28-2.08.3-2.12a2.86,2.86,0,0,0-1.27.3,1,1,0,0,0-.54.66C222.2,127.27,223.1,127.55,223.81,127.71Z"/>
            <path class="cls-51" d="M225.83,129.11a.71.71,0,0,1,.26.68,1.12,1.12,0,0,1-.63.8,2.84,2.84,0,0,1-1.33.32c.11-.77.23-1.55.34-2.32A3.64,3.64,0,0,1,225.83,129.11Z"/>
            <path class="cls-51" d="M224.11,125.59l-.3,2.12c-.71-.16-1.61-.44-1.51-1.16a1,1,0,0,1,.54-.66A2.86,2.86,0,0,1,224.11,125.59Z"/>
          </g>
          <path class="cls-52" d="M213,138.28a10.67,10.67,0,0,1-5-3.4,4.71,4.71,0,0,1,.61-6.39,10,10,0,0,1,2.85-2,4.55,4.55,0,0,0-.41,1.85v.36c-2.43,2.1-2.34,4.84.17,6.89a5.61,5.61,0,0,0,1.34,2.28C212.71,138,213,138.27,213,138.28Z"/>
          <path class="cls-51" d="M211.07,134.82a4.67,4.67,0,0,0,.14.74c-2.51-2.05-2.6-4.79-.17-6.89C211,134.7,211,134.58,211.07,134.82Z"/>
          <path class="cls-51" d="M209.69,139.59a12.12,12.12,0,0,0,2.19,1.27l.27.12c4.64,3.62,13.78,4,19.27.82a7.5,7.5,0,0,0,3.51-3.82h0l.23-.25v1.73a4.4,4.4,0,0,1-.47,2.15,5.63,5.63,0,0,1-.86,1.28,7,7,0,0,1-.59.61c-5.31,5-17.85,4.47-22.24-.57a5.07,5.07,0,0,1-1.35-3.36v0Z"/>
        </g>
        <g>
          <path class="cls-51" d="M19.12,198.91v-2.67l0,0A5,5,0,0,0,20.28,199c3.7,4.66,14.33,5.76,20.62,2.14A8.82,8.82,0,0,0,43.47,199a4.93,4.93,0,0,0,1.17-3.08v3c0,2.44-2,4.34-4.22,5.47a18.61,18.61,0,0,1-7.9,1.88,20.93,20.93,0,0,1-7.1-1,10.82,10.82,0,0,1-5.35-3.57A4.83,4.83,0,0,1,19.12,198.91Z"/>
          <path class="cls-52" d="M43.48,192.81a4.64,4.64,0,0,1,0,6.15,8.82,8.82,0,0,1-2.57,2.13C34.61,204.71,24,203.61,20.28,199a4.6,4.6,0,0,1-.75-4.93,7.85,7.85,0,0,1,3.34-3.36c4.28-2.46,10.73-2.79,15.61-1.09A11.06,11.06,0,0,1,43.48,192.81Zm-2.06,5.61a3.83,3.83,0,0,0,0-5.07c-3-3.83-11.78-4.75-17-1.76a7,7,0,0,0-2.12,1.75,3.81,3.81,0,0,0,0,5.06c3,3.84,11.78,4.75,17,1.77A7.33,7.33,0,0,0,41.42,198.42Z"/>
          <path class="cls-51" d="M41.43,193.35a3.83,3.83,0,0,1,0,5.07,7.33,7.33,0,0,1-2.12,1.75c-5.19,3-13.93,2.07-17-1.77a3.81,3.81,0,0,1,0-5.06,7,7,0,0,1,2.12-1.75C29.65,188.6,38.39,189.52,41.43,193.35Zm-7.1.93,1.39-.05a1.55,1.55,0,0,0-.88-1.19,4.59,4.59,0,0,0-1.78-.48l.06-.37-.78,0-.06.36a5.64,5.64,0,0,0-2,.32,1.72,1.72,0,0,0-1.19,1.27c-.1.71.45,1.19,1.12,1.45a8.27,8.27,0,0,0,1.61.45c-.11.81-.23,1.62-.35,2.43a2.25,2.25,0,0,1-1.27-.52,1.35,1.35,0,0,1-.41-.93l-1.36.08a1.48,1.48,0,0,0,.38,1,2.48,2.48,0,0,0,1,.65,7.83,7.83,0,0,0,1.58.33l-.11.77.78,0c0-.26.07-.52.11-.78a4.84,4.84,0,0,0,2.35-.46,1.72,1.72,0,0,0,1.06-1.28,1.26,1.26,0,0,0-.63-1.25,4,4,0,0,0-1-.43c-.2-.06-.63-.16-1.29-.28.11-.74.21-1.47.32-2.21a2.19,2.19,0,0,1,1,.37A1,1,0,0,1,34.33,194.28Z"/>
          <path class="cls-52" d="M35.72,194.23l-1.39.05a1,1,0,0,0-.39-.71,2.19,2.19,0,0,0-1-.37c-.11.74-.21,1.47-.32,2.21.66.12,1.09.22,1.29.28a4,4,0,0,1,1,.43,1.26,1.26,0,0,1,.63,1.25,1.72,1.72,0,0,1-1.06,1.28,4.84,4.84,0,0,1-2.35.46c0,.26-.07.52-.11.78l-.78,0,.11-.77a7.83,7.83,0,0,1-1.58-.33,2.48,2.48,0,0,1-1-.65,1.48,1.48,0,0,1-.38-1l1.36-.08a1.35,1.35,0,0,0,.41.93,2.25,2.25,0,0,0,1.27.52c.12-.81.24-1.62.35-2.43a8.27,8.27,0,0,1-1.61-.45c-.67-.26-1.22-.74-1.12-1.45a1.72,1.72,0,0,1,1.19-1.27,5.64,5.64,0,0,1,2-.32l.06-.36.78,0-.06.37a4.59,4.59,0,0,1,1.78.48A1.55,1.55,0,0,1,35.72,194.23Zm-1.55,3.13a.72.72,0,0,0-.26-.69,3.82,3.82,0,0,0-1.36-.52c-.11.78-.23,1.55-.34,2.33a2.84,2.84,0,0,0,1.33-.33A1.1,1.1,0,0,0,34.17,197.36Zm-2.28-2.09.3-2.11a2.86,2.86,0,0,0-1.27.3.91.91,0,0,0-.54.66C30.28,194.83,31.18,195.11,31.89,195.27Z"/>
          <path class="cls-51" d="M33.91,196.67a.72.72,0,0,1,.26.69,1.1,1.1,0,0,1-.63.79,2.84,2.84,0,0,1-1.33.33c.11-.78.23-1.55.34-2.33A3.82,3.82,0,0,1,33.91,196.67Z"/>
          <path class="cls-51" d="M32.19,193.16l-.3,2.11c-.71-.16-1.61-.44-1.51-1.15a.91.91,0,0,1,.54-.66A2.86,2.86,0,0,1,32.19,193.16Z"/>
        </g>
        <g>
          <path class="cls-51" d="M147.1,252.9c2.46,3.31,1.83,7.08-1.67,9.11s-9.23,1.74-13.46-1.18a9.09,9.09,0,0,1-3.86-5.08,5.44,5.44,0,0,1,.78-4.5,8.16,8.16,0,0,1,5.53-3.11C139.2,247.37,144.54,249.45,147.1,252.9Zm-3.94,3.59a1.63,1.63,0,0,0,.69-1.45,2.45,2.45,0,0,0-.78-1.39l.45-.26-.53-.47-.45.26a4.59,4.59,0,0,0-1.87-.91,3.22,3.22,0,0,0-2.31.33,1.44,1.44,0,0,0-.8,1.78,4.13,4.13,0,0,0,.7,1.27l-3,1.73a1.2,1.2,0,0,1-.36-1.14,1.87,1.87,0,0,1,.74-1l-1.09-.71a2.12,2.12,0,0,0-.88,1,1.52,1.52,0,0,0,0,1.07,4.18,4.18,0,0,0,.79,1.16l-.94.55.54.47,1-.55a4.31,4.31,0,0,0,2.25,1,3.55,3.55,0,0,0,2.23-.41,1.66,1.66,0,0,0,.93-1.35,2,2,0,0,0-.23-.88,8.46,8.46,0,0,0-.63-1l2.71-1.56a1,1,0,0,1-.2,1.63Z"/>
          <path class="cls-52" d="M143.85,255a1.63,1.63,0,0,1-.69,1.45l-1.08-.75a1,1,0,0,0,.2-1.63l-2.71,1.56a8.46,8.46,0,0,1,.63,1,2,2,0,0,1,.23.88,1.66,1.66,0,0,1-.93,1.35,3.55,3.55,0,0,1-2.23.41,4.31,4.31,0,0,1-2.25-1l-1,.55-.54-.47.94-.55a4.18,4.18,0,0,1-.79-1.16,1.52,1.52,0,0,1,0-1.07,2.12,2.12,0,0,1,.88-1l1.09.71a1.87,1.87,0,0,0-.74,1,1.2,1.2,0,0,0,.36,1.14l3-1.73a4.13,4.13,0,0,1-.7-1.27,1.44,1.44,0,0,1,.8-1.78,3.22,3.22,0,0,1,2.31-.33,4.59,4.59,0,0,1,1.87.91l.45-.26.53.47-.45.26A2.45,2.45,0,0,1,143.85,255Zm-4.69.09,2.6-1.5c-1.41-1-2.84-.36-3,.42A1.6,1.6,0,0,0,139.16,255.13Zm-.08,2.26a2.05,2.05,0,0,0-.42-1.19l-2.86,1.65a2.71,2.71,0,0,0,1.35.5,2.2,2.2,0,0,0,1.35-.27A1,1,0,0,0,139.08,257.39Z"/>
          <path class="cls-51" d="M141.76,253.63l-2.6,1.5a1.6,1.6,0,0,1-.36-1.08C138.92,253.27,140.35,252.66,141.76,253.63Z"/>
          <path class="cls-51" d="M138.66,256.2a2.05,2.05,0,0,1,.42,1.19,1,1,0,0,1-.58.69,2.2,2.2,0,0,1-1.35.27,2.71,2.71,0,0,1-1.35-.5Z"/>
          <path class="cls-52" d="M115.8,253.13c-.14-3.43,3.93-6.51,9.79-7.32a21.4,21.4,0,0,1,8.79.61,14.39,14.39,0,0,0-3.1.7,17.87,17.87,0,0,0-6.47.19,11.08,11.08,0,0,0-5.3,2.58c-2.1,2.06-1.91,4.62.44,6.56a12.08,12.08,0,0,0,5.43,2.31c.09.28.26.71.31.81.1.26.25.52.29.62a16,16,0,0,1-7.56-2.74,7.08,7.08,0,0,1-2-2.17A4.58,4.58,0,0,1,115.8,253.13Z"/>
          <path class="cls-52" d="M126.88,250.31a9.87,9.87,0,0,1,6.72-3.78c5.71-.94,12.25,1.53,15.4,5.78,3,4,2.2,8.61-2,11.07s-11.19,2.12-16.35-1.44a11,11,0,0,1-4.69-6.16A6.62,6.62,0,0,1,126.88,250.31ZM145.43,262c3.5-2,4.13-5.8,1.67-9.11s-7.9-5.53-12.68-4.76a8.16,8.16,0,0,0-5.53,3.11,5.44,5.44,0,0,0-.78,4.5,9.09,9.09,0,0,0,3.86,5.08C136.2,263.75,141.92,264.05,145.43,262Z"/>
          <path class="cls-51" d="M125.73,253.1c-.13.47-.25.94-.38,1.41a.76.76,0,0,1-.18-.68A1.55,1.55,0,0,1,125.73,253.1Z"/>
          <path class="cls-51" d="M125.38,258.76a12.08,12.08,0,0,1-5.43-2.31c-2.35-1.94-2.54-4.5-.44-6.56a11.08,11.08,0,0,1,5.3-2.58,17.87,17.87,0,0,1,6.47-.19,8,8,0,0,0-5.37,5.3c0,.17-.09.33-.13.5l-1-.4a2.32,2.32,0,0,0-.87.93,1,1,0,0,0,0,.87,3.07,3.07,0,0,0,.83.84l-.94.54.56.32.71-.41s0,.13,0,.16a6.88,6.88,0,0,0,.17,2.5C125.29,258.46,125.36,258.7,125.38,258.76Z"/>
          <path class="cls-52" d="M125.78,252.92c0,.06,0,.12,0,.18a1.55,1.55,0,0,0-.56.73.76.76,0,0,0,.18.68,9.84,9.84,0,0,0-.25,1.1l-.71.41-.56-.32.94-.54a3.07,3.07,0,0,1-.83-.84,1,1,0,0,1,0-.87,2.32,2.32,0,0,1,.87-.93Z"/>
          <path class="cls-51" d="M125.78,252.92h0a6.92,6.92,0,0,0,.12,2.85,11,11,0,0,0,4.69,6.16c5.16,3.56,12.11,3.9,16.35,1.44a7.43,7.43,0,0,0,3.59-4.33c-.22.8-.44,1.6-.65,2.41a6.66,6.66,0,0,1-.83,1.87,5.85,5.85,0,0,1-.46.63,9.75,9.75,0,0,1-5.19,3.1,17,17,0,0,1-15.6-4.36,10.87,10.87,0,0,1-1.91-2.64,8.1,8.1,0,0,1-.87-3,7.06,7.06,0,0,1,0-1.31A21,21,0,0,1,125.78,252.92Z"/>
          <path class="cls-51" d="M115.8,256.24c0-.15,0,.05,0-3.11a4.58,4.58,0,0,0,.64,2.15,7.08,7.08,0,0,0,2,2.17,16,16,0,0,0,7.56,2.74,11.58,11.58,0,0,0,1.85,2.51c.25.26.48.47.7.67-3.71,0-8.27-1-10.92-3.59A5.38,5.38,0,0,1,115.8,256.24Z"/>
        </g>
      </g>
    </g>
  </g>
</svg>
