<svg id="Layer_1" enable-background="new 0 0 512 512" height="512" viewBox="0 0 512 512" width="512" xmlns="http://www.w3.org/2000/svg"><g><path d="m438.33 130.877-413.2 59.2c-4.398.577-8.126-2.31-8.96-6.27-.87-4.12 1.61-8.21 5.67-9.35 142.798-40.053 65.731-18.439 384.27-107.77 13.092-3.525 26.357 4.316 29.6 17.33 4.484 17.947 2.451 9.817 9.25 37 1.145 4.58-1.917 9.19-6.63 9.86z" fill="#79cb9c"/><path d="m438.33 130.877-413.2 59.2c-4.068.533-7.533-1.902-8.7-5.34l375.9-53.86c4.711-.67 7.775-5.278 6.63-9.86l-9.25-37c-1.05-4.22-3.18-7.99-6.15-11l22.55-6.33c13.092-3.525 26.357 4.316 29.6 17.33l9.25 37c1.145 4.58-1.917 9.19-6.63 9.86z" fill="#63ac7d"/><path d="m438.33 130.877-413.2 59.2c-4.398.577-8.126-2.31-8.96-6.27-.87-4.12 1.61-8.21 5.67-9.35l118.15-33.14 299.34-42.81 5.63 22.51c1.145 4.58-1.917 9.19-6.63 9.86z" fill="#63ac7d"/><path d="m480 190.157h-456c-4.2 0-7.68-3.25-7.98-7.43-.3-4.19 2.69-7.9 6.85-8.49 10.014-1.432 419.075-59.95 431.94-61.79 13.451-1.835 25.5 7.643 27.14 20.8 3.916 31.362 2.504 20.071 5.99 47.92.593 4.81-3.169 8.99-7.94 8.99z" fill="#79cb9c"/><path d="m480 190.157h-49c4.769 0 8.533-4.179 7.94-8.99l-5.99-47.92c-.8-6.42-4.07-12.12-9.2-16.06-.445-.364-3.978.27 31.06-4.74 13.451-1.835 25.5 7.643 27.14 20.8l5.99 47.92c.593 4.81-3.169 8.99-7.94 8.99z" fill="#63ac7d"/><path d="m480 190.157h-456c-4.2 0-7.68-3.25-7.98-7.43-.3-4.19 2.69-7.9 6.85-8.49l112.41-16.08h349.78l2.88 23.01c.593 4.81-3.169 8.99-7.94 8.99z" fill="#63ac7d"/><path d="m488 174.157h-464c-13.233 0-24 10.767-24 24v224c0 13.233 10.767 24 24 24h464c13.233 0 24-10.767 24-24v-224c0-13.233-10.767-24-24-24z" fill="#79cb9c"/><g fill="#63ac7d"><path d="m512 198.157v224c0 13.23-10.77 24-24 24h-48c13.23 0 24-10.77 24-24v-224c0-13.23-10.77-24-24-24h48c13.23 0 24 10.77 24 24z"/><path d="m256 270.157c8.822 0 16 7.178 16 16 0 4.418 3.582 8 8 8s8-3.582 8-8c0-14.883-10.214-27.426-24-30.987v-9.013c0-4.418-3.582-8-8-8s-8 3.582-8 8v9.013c-13.786 3.562-24 16.104-24 30.987 0 17.645 14.355 32 32 32 8.822 0 16 7.178 16 16s-7.178 16-16 16-16-7.178-16-16c0-4.418-3.582-8-8-8s-8 3.582-8 8c0 14.883 10.214 27.426 24 30.987v9.013c0 4.418 3.582 8 8 8s8-3.582 8-8v-9.013c13.786-3.562 24-16.104 24-30.987 0-17.645-14.355-32-32-32-8.822 0-16-7.178-16-16s7.178-16 16-16z"/><path d="m256 206.157c-57.346 0-104 46.654-104 104s46.654 104 104 104 104-46.654 104-104-46.654-104-104-104zm0 192c-48.523 0-88-39.477-88-88s39.477-88 88-88 88 39.477 88 88-39.477 88-88 88z"/><path d="m472 230.157c-8.822 0-16-7.178-16-16 0-4.418-3.582-8-8-8h-104c-4.418 0-8 3.582-8 8s3.582 8 8 8h97.013c2.9 11.229 11.759 20.087 22.987 22.987v130.026c-11.229 2.9-20.087 11.759-22.987 22.987h-97.013c-4.418 0-8 3.582-8 8s3.582 8 8 8h104c4.418 0 8-3.582 8-8 0-8.822 7.178-16 16-16 4.418 0 8-3.582 8-8v-144c0-4.418-3.582-8-8-8z"/><path d="m168 398.157h-97.013c-2.9-11.229-11.759-20.087-22.987-22.987v-130.025c11.229-2.9 20.087-11.759 22.987-22.987h97.013c4.418 0 8-3.582 8-8s-3.582-8-8-8h-104c-4.418 0-8 3.582-8 8 0 8.822-7.178 16-16 16-4.418 0-8 3.582-8 8v144c0 4.418 3.582 8 8 8 8.822 0 16 7.178 16 16 0 4.418 3.582 8 8 8h104c4.418 0 8-3.582 8-8s-3.582-8.001-8-8.001z"/><path d="m72 310.157c0 13.233 10.767 24 24 24s24-10.767 24-24-10.767-24-24-24-24 10.767-24 24zm32 0c0 4.411-3.589 8-8 8s-8-3.589-8-8 3.589-8 8-8 8 3.589 8 8z"/><path d="m440 310.157c0-13.233-10.767-24-24-24s-24 10.767-24 24 10.767 24 24 24 24-10.766 24-24zm-32 0c0-4.411 3.589-8 8-8s8 3.589 8 8-3.589 8-8 8-8-3.588-8-8z"/></g></g></svg>