<svg id="Isolation_Mode" data-name="Isolation Mode" xmlns="http://www.w3.org/2000/svg" width="417.79" height="283.46" viewBox="0 0 417.79 283.46">
  <defs>
    <style>
      .cls-1 {
        fill: #b11722;
      }

      .cls-2 {
        fill: #dc5f34;
      }

      .cls-3 {
        fill: #221b22;
      }

      .cls-4 {
        fill: #ececec;
      }

      .cls-5 {
        fill: #e38d2f;
      }

      .cls-6 {
        fill: #345589;
      }

      .cls-23, .cls-24, .cls-25, .cls-7 {
        fill: #fff;
      }

      .cls-8 {
        fill: #016be3;
      }

      .cls-9 {
        fill: #fe5736;
      }

      .cls-10 {
        fill: #f7c12d;
      }

      .cls-11 {
        fill: #f2d15a;
      }

      .cls-12 {
        fill: #f79e0b;
      }

      .cls-13 {
        fill: #e7e2e8;
      }

      .cls-14 {
        fill: #d1cad3;
      }

      .cls-15 {
        fill: #0236a5;
      }

      .cls-16 {
        fill: #f4a390;
      }

      .cls-17 {
        fill: #4c414c;
      }

      .cls-18 {
        fill: #870020;
      }

      .cls-19 {
        fill: #ed727e;
      }

      .cls-20 {
        opacity: 0.8;
      }

      .cls-21 {
        fill: #d6a793;
      }

      .cls-22, .cls-23, .cls-24, .cls-25 {
        isolation: isolate;
      }

      .cls-23, .cls-24, .cls-25 {
        font-size: 0.96px;
        font-family: FuturaLT-Bold, Futura LT Book;
        font-weight: 700;
      }

      .cls-23 {
        letter-spacing: 0.22em;
      }

      .cls-24 {
        letter-spacing: 0.16em;
      }

      .cls-25 {
        letter-spacing: 0.22em;
      }
    </style>
  </defs>
  <title>Vectors</title>
  <g>
    <polygon class="cls-1" points="117.88 277.48 51.6 277.48 60.73 203.73 108.76 203.73 117.88 277.48"/>
    <polygon class="cls-2" points="114.52 277.48 48.25 277.48 57.38 203.73 105.4 203.73 114.52 277.48"/>
    <g>
      <path class="cls-1" d="M73.11,207.42a2.26,2.26,0,1,1-2.26-2.26h0A2.27,2.27,0,0,1,73.11,207.42Z"/>
      <path class="cls-1" d="M96.27,207.42A2.26,2.26,0,1,1,94,205.16h0A2.27,2.27,0,0,1,96.27,207.42Z"/>
      <path class="cls-3" d="M70.9,207.16h0a1,1,0,0,1-.92-1v-.06a99.59,99.59,0,0,1,1.77-14.39c2.2-10.55,5.88-15.91,10.93-15.91s8.64,5.36,10.65,15.93a99.45,99.45,0,0,1,1.5,14.4.94.94,0,0,1-.92,1h0a.94.94,0,0,1-.94-.92c-.22-8.74-2.36-28.46-10.28-28.46s-10.42,19.76-10.83,28.51A.94.94,0,0,1,70.9,207.16Z"/>
      <path class="cls-3" d="M75.1,207.16h0a.92.92,0,0,1-.88-.95A95.49,95.49,0,0,1,76,192.31c2.12-10.21,5.67-15.42,10.56-15.42S94.88,182,96.8,192.31a95.23,95.23,0,0,1,1.45,13.89.91.91,0,0,1-.88.94h0a.91.91,0,0,1-.92-.89c-.2-8.45-2.28-27.52-9.93-27.52s-10.09,19.08-10.45,27.54A.92.92,0,0,1,75.1,207.16Z"/>
    </g>
    <rect class="cls-4" x="45.05" y="7.51" width="170.26" height="103.36" rx="4.32"/>
    <g>
      <path class="cls-5" d="M205.2,32.16H152.49a.75.75,0,0,1,0-1.5H205.2a.75.75,0,1,1,0,1.5Z"/>
      <path class="cls-5" d="M205.2,43.21H152.49a.76.76,0,0,1-.67-.85.75.75,0,0,1,.67-.66H205.2a.76.76,0,0,1,0,1.51Z"/>
      <path class="cls-5" d="M205.2,54.17H152.49a.75.75,0,0,1-.75-.76.74.74,0,0,1,.75-.74H205.2a.74.74,0,0,1,.75.74.76.76,0,0,1-.75.76Z"/>
      <path class="cls-5" d="M205.2,65.16H152.49a.75.75,0,0,1,0-1.5H205.2a.76.76,0,0,1,.75.76A.75.75,0,0,1,205.2,65.16Z"/>
      <path class="cls-5" d="M205.2,76.16H152.49a.75.75,0,0,1,0-1.5H205.2a.75.75,0,0,1,0,1.5Z"/>
      <path class="cls-5" d="M205.2,87.17H152.49a.76.76,0,0,1-.67-.84.76.76,0,0,1,.67-.67H205.2a.76.76,0,0,1,.66.85A.74.74,0,0,1,205.2,87.17Z"/>
      <path class="cls-5" d="M205.2,98.17H152.49a.75.75,0,1,1,0-1.5H205.2a.75.75,0,0,1,0,1.5Z"/>
    </g>
    <rect class="cls-6" x="60.8" y="29.91" width="81.08" height="67.51" rx="9.6"/>
    <path class="cls-7" d="M135.39,38.84h-5.63a.89.89,0,0,0-.87.67l-.82,3H76.28a.92.92,0,0,0-.68.3.9.9,0,0,0-.21.72l.83,6a.88.88,0,0,0,0,.23.84.84,0,0,0,.13.45l1,7.52.24,1.79,1,7.09.25,1.79.87,6.27a.89.89,0,0,0,.88.77h38.27l-1.24,4.5A4.9,4.9,0,0,1,113,83.45H85.7a.92.92,0,0,0-.92.81.89.89,0,0,0,.75,1h3.53a3.52,3.52,0,1,0,4.86,1.07,3.6,3.6,0,0,0-1.06-1.07h15.41a3.53,3.53,0,1,0,4.87,1.08,3.45,3.45,0,0,0-1.07-1.08H113a6.69,6.69,0,0,0,6.42-4.87l1.53-5.5h0v-.11l1.78-6.4.55-1.84,2-7.09.5-1.79,2.05-7.33.25-.89h0l1.62-5.82v-.08l.81-2.93h4.94a.91.91,0,1,0,.19-1.8.61.61,0,0,0-.19,0Zm-14.7,30.27h0v.12l-1.22,4.39h-38l-.73-5.26H120.9Zm.71-2.54h-41l-1-7.09h44Zm2.47-8.88H79.16l-1-7.09h47.7Zm2.45-8.87H77.93L77.3,44.3h50.3Z"/>
    <path class="cls-3" d="M215.31,11.55v6.1H45.05v-6.1a4,4,0,0,1,4-4H211.26a4,4,0,0,1,4.05,4Z"/>
    <g>
      <circle class="cls-8" cx="190.7" cy="12.58" r="2.37"/>
      <circle class="cls-9" cx="198.97" cy="12.58" r="2.37"/>
      <circle class="cls-10" cx="207.2" cy="12.58" r="2.37"/>
    </g>
    <g>
      <rect class="cls-10" x="142.95" y="224.95" width="69.2" height="52.56"/>
      <rect class="cls-11" x="140.65" y="222.31" width="73.78" height="8.74"/>
      <rect class="cls-12" x="142.95" y="231.06" width="69.2" height="4.81"/>
      <rect class="cls-7" x="174.51" y="222.31" width="6.06" height="55.23"/>
      <rect class="cls-13" x="174.51" y="235.87" width="6.06" height="41.68"/>
      <rect class="cls-14" x="174.51" y="231.06" width="6.06" height="4.81"/>
    </g>
    <path class="cls-3" d="M108.85,237.68h0c-.41,0-.72-.54-.69-1.16a51,51,0,0,1,1.87-11c2.41-8.05,6.66-12.33,12.34-12.33s9.83,4.26,12.1,12.33a50.86,50.86,0,0,1,1.65,11c0,.62-.3,1.13-.71,1.13h0c-.37,0-.68-.44-.7-1a47.09,47.09,0,0,0-1.57-10.28c-2.06-7.28-5.67-11-10.77-11s-8.83,3.72-11,11.05a47.76,47.76,0,0,0-1.75,10.28C109.55,237.27,109.23,237.7,108.85,237.68Z"/>
    <polygon class="cls-15" points="155.75 277.5 87.71 277.5 93.98 229.56 149.48 229.56 155.75 277.5"/>
    <polygon class="cls-8" points="152.17 277.5 84.13 277.5 90.39 229.56 145.9 229.56 152.17 277.5"/>
    <g>
      <path class="cls-15" d="M133.41,233.91a2.18,2.18,0,1,1-2.18-2.29A2.24,2.24,0,0,1,133.41,233.91Z"/>
      <path class="cls-15" d="M107.11,233.91a2.18,2.18,0,1,1-2.17-2.29A2.24,2.24,0,0,1,107.11,233.91Z"/>
      <path class="cls-3" d="M104.88,234.55a.73.73,0,0,0,.72-.64,46.45,46.45,0,0,1,1.55-8c2.19-7.33,5.9-11,11-11s8.73,3.69,10.78,11a44.13,44.13,0,0,1,1.41,8.07.72.72,0,0,0,.71.65h0a.73.73,0,0,0,.73-.72.43.43,0,0,0,0,0,47.92,47.92,0,0,0-1.52-8.73c-2.26-8.06-6.44-12.34-12.1-12.34s-9.91,4.26-12.33,12.34a48.8,48.8,0,0,0-1.69,8.73.72.72,0,0,0,.65.78h.06Z"/>
    </g>
    <rect class="cls-4" x="226.11" y="7.51" width="71.82" height="130.94" rx="3.02"/>
    <g>
      <path class="cls-5" d="M288,105.19H236a.68.68,0,0,1-.69-.68.7.7,0,0,1,.69-.7H288a.69.69,0,0,1,0,1.38Z"/>
      <path class="cls-5" d="M288,111.1H236a.68.68,0,0,1-.69-.68.69.69,0,0,1,.69-.69H288a.68.68,0,0,1,.69.68.69.69,0,0,1-.69.69Z"/>
      <path class="cls-5" d="M288,117H236a.68.68,0,0,1-.69-.68.69.69,0,0,1,.69-.69H288a.68.68,0,0,1,.69.68.69.69,0,0,1-.69.69Z"/>
      <path class="cls-5" d="M288,122.92H236a.68.68,0,0,1-.69-.68.69.69,0,0,1,.69-.69H288a.68.68,0,0,1,.69.68.69.69,0,0,1-.69.69Z"/>
      <path class="cls-5" d="M288,128.83H236a.68.68,0,0,1-.69-.68.69.69,0,0,1,.69-.69H288a.68.68,0,0,1,.69.68.69.69,0,0,1-.69.69Z"/>
    </g>
    <g>
      <path class="cls-9" d="M285.51,88.09s-.12.16-.38.45a18.89,18.89,0,0,1-1.9,1.79,28,28,0,0,1-5.14,3.34c-.58.29-1.19.56-1.83.84a34,34,0,0,1-3.79,1.33c-.54.15-1.1.3-1.69.43a39.8,39.8,0,0,1-8.77,1,33.53,33.53,0,0,1-8.52-1.1h0c-.74-.2-1.45-.42-2.14-.64A34.51,34.51,0,0,1,241.24,90a27.88,27.88,0,0,1-2.13-1.85c-.45-.44-.6-.61-.6-.61s.87-1.2,2.15-3.08c.29-.43.62-.9,1-1.41,1-1.56,2.27-3.42,3.49-5.38l1.14-1.84h0a60,60,0,0,0,5.14-9.9c.06-.16.12-.31.17-.47a9.54,9.54,0,0,0,.29-1.2h0a14.14,14.14,0,0,0,.15-3.56,21.26,21.26,0,0,0-.29-2.23,43.52,43.52,0,0,0-3.83-10.85l-.42-.8.07-.11c4-5.41,2.89-14.21,2.23-17.69l1.56-1.25a2.07,2.07,0,0,1,3.18.93,13.73,13.73,0,0,0,3.62,5.88,6.77,6.77,0,0,0,2.19,1.34,7.13,7.13,0,0,0,2.58.46,7.77,7.77,0,0,0,1-.06,6.54,6.54,0,0,0,2.62-1,10.22,10.22,0,0,0,3.65-4.82c.21-.53.39-1.07.55-1.62a1.21,1.21,0,0,1,.11-.32,2.26,2.26,0,0,1,2.83-1.23l.82.29a43.81,43.81,0,0,0,1.79,13.75c.16.5.32,1,.47,1.39A19.29,19.29,0,0,0,278,45.57l-.25.61c-.23.52-.58,1.38-1,2.5C276,50.51,275.13,53,274.31,56a25.31,25.31,0,0,0-.45,9.42,32,32,0,0,0,3.57,10.41c.4.8.82,1.57,1.24,2.31a78.25,78.25,0,0,0,6.17,9.14Z"/>
      <g>
        <g>
          <path class="cls-1" d="M254.09,29.85a1.41,1.41,0,1,1-1.41-1.41h0A1.41,1.41,0,0,1,254.09,29.85Z"/>
          <path class="cls-1" d="M272.77,29.85a1.41,1.41,0,0,1-2.65.66c.21-.53.39-1.07.55-1.62a1.21,1.21,0,0,1,.11-.32,1.31,1.31,0,0,1,.59-.13A1.41,1.41,0,0,1,272.77,29.85Z"/>
        </g>
        <g>
          <path class="cls-1" d="M254.09,35.8a1.41,1.41,0,1,1-1.41-1.41h0A1.42,1.42,0,0,1,254.09,35.8Z"/>
          <path class="cls-1" d="M260.3,36a1.41,1.41,0,1,1-2.79-.36,1.39,1.39,0,0,1,.6-1A6.74,6.74,0,0,0,260.3,36Z"/>
          <path class="cls-1" d="M266.54,35.8a1.42,1.42,0,0,1-1.42,1.41h0a1.4,1.4,0,0,1-1.28-.84,6.4,6.4,0,0,0,2.62-1A1.07,1.07,0,0,1,266.54,35.8Z"/>
          <path class="cls-1" d="M272.77,35.8a1.41,1.41,0,1,1-1.4-1.41h0A1.41,1.41,0,0,1,272.77,35.8Z"/>
        </g>
        <g>
          <path class="cls-1" d="M254.09,41.72a1.41,1.41,0,1,1-1.41-1.41h0A1.41,1.41,0,0,1,254.09,41.72Z"/>
          <circle class="cls-1" cx="258.91" cy="41.72" r="1.41"/>
          <circle class="cls-1" cx="265.14" cy="41.72" r="1.41"/>
          <path class="cls-1" d="M272.77,41.72a1.41,1.41,0,1,1-1.4-1.41h0A1.41,1.41,0,0,1,272.77,41.72Z"/>
          <path class="cls-1" d="M276.69,42.8a1.39,1.39,0,0,1-.5-1.09,1.5,1.5,0,0,1,0-.3C276.4,41.91,276.54,42.38,276.69,42.8Z"/>
        </g>
        <g>
          <path class="cls-1" d="M247.86,47.61l-.42-.8.07-.11A1.54,1.54,0,0,1,247.86,47.61Z"/>
          <path class="cls-1" d="M254.09,47.63a1.41,1.41,0,1,1-1.41-1.41h0A1.41,1.41,0,0,1,254.09,47.63Z"/>
          <circle class="cls-1" cx="258.91" cy="47.63" r="1.41"/>
          <circle class="cls-1" cx="265.14" cy="47.63" r="1.41"/>
          <path class="cls-1" d="M272.77,47.63a1.41,1.41,0,1,1-1.4-1.41h0A1.41,1.41,0,0,1,272.77,47.63Z"/>
          <path class="cls-1" d="M277.71,46.23c-.23.52-.58,1.38-1,2.5a1.35,1.35,0,0,1-.53-1.1,1.41,1.41,0,0,1,1.4-1.41Z"/>
        </g>
        <g>
          <path class="cls-1" d="M254.09,53.55a1.41,1.41,0,1,1-1.41-1.41h0A1.41,1.41,0,0,1,254.09,53.55Z"/>
          <path class="cls-1" d="M260.32,53.55a1.41,1.41,0,1,1-1.41-1.41h0A1.41,1.41,0,0,1,260.32,53.55Z"/>
          <path class="cls-1" d="M266.54,53.55a1.41,1.41,0,1,1-1.45-1.41,1.41,1.41,0,0,1,1.45,1.41Z"/>
          <path class="cls-1" d="M272.77,53.55a1.41,1.41,0,1,1-1.4-1.41h0A1.41,1.41,0,0,1,272.77,53.55Z"/>
        </g>
        <g>
          <path class="cls-1" d="M254.09,59.47a1.43,1.43,0,0,1-1.41,1.41,1.32,1.32,0,0,1-.7-.19,21.26,21.26,0,0,0-.29-2.23,1.42,1.42,0,0,1,2.4,1Z"/>
          <path class="cls-1" d="M260.32,59.47a1.41,1.41,0,1,1-1.41-1.41h0A1.43,1.43,0,0,1,260.32,59.47Z"/>
          <path class="cls-1" d="M266.54,59.47a1.41,1.41,0,1,1-1.45-1.41,1.41,1.41,0,0,1,1.45,1.41Z"/>
          <path class="cls-1" d="M272.77,59.47a1.41,1.41,0,1,1-1.4-1.41h0A1.41,1.41,0,0,1,272.77,59.47Z"/>
        </g>
        <g>
          <path class="cls-1" d="M254.09,65.39a1.41,1.41,0,0,1-2.72.54c.06-.16.12-.31.17-.47a9.54,9.54,0,0,0,.29-1.2h0a1.42,1.42,0,0,1,2,.32,1.49,1.49,0,0,1,.27.82Z"/>
          <circle class="cls-1" cx="258.91" cy="65.39" r="1.41"/>
          <circle class="cls-1" cx="265.14" cy="65.39" r="1.41"/>
          <path class="cls-1" d="M272.77,65.39a1.41,1.41,0,1,1-1.4-1.41h0A1.41,1.41,0,0,1,272.77,65.39Z"/>
        </g>
        <g>
          <path class="cls-1" d="M254.09,71.3a1.41,1.41,0,1,1-1.45-1.36h0A1.42,1.42,0,0,1,254.09,71.3Z"/>
          <circle class="cls-1" cx="258.91" cy="71.3" r="1.41"/>
          <circle class="cls-1" cx="265.14" cy="71.3" r="1.41"/>
          <path class="cls-1" d="M272.77,71.3a1.41,1.41,0,1,1-1.45-1.36h.05A1.4,1.4,0,0,1,272.77,71.3Z"/>
        </g>
        <g>
          <path class="cls-1" d="M247.86,77.22a1.41,1.41,0,0,1-2.75.45l1.14-1.84h.2A1.41,1.41,0,0,1,247.86,77.22Z"/>
          <path class="cls-1" d="M254.09,77.22a1.41,1.41,0,1,1-1.41-1.41h0A1.41,1.41,0,0,1,254.09,77.22Z"/>
          <path class="cls-1" d="M260.32,77.22a1.41,1.41,0,1,1-1.41-1.41h0A1.42,1.42,0,0,1,260.32,77.22Z"/>
          <path class="cls-1" d="M266.54,77.22a1.41,1.41,0,1,1-1.45-1.41,1.41,1.41,0,0,1,1.45,1.41Z"/>
          <path class="cls-1" d="M272.77,77.22a1.41,1.41,0,1,1-1.4-1.41h0A1.41,1.41,0,0,1,272.77,77.22Z"/>
          <path class="cls-1" d="M278.66,78.16a1.36,1.36,0,0,1-1,.5,1.41,1.41,0,0,1-1.42-1.4,1.4,1.4,0,0,1,1.24-1.4C277.82,76.62,278.24,77.39,278.66,78.16Z"/>
        </g>
        <g>
          <path class="cls-1" d="M241.63,83.14a1.4,1.4,0,0,1-1,1.33c.29-.43.62-.91,1-1.41A.25.25,0,0,1,241.63,83.14Z"/>
          <circle class="cls-1" cx="246.45" cy="83.14" r="1.41"/>
          <path class="cls-1" d="M254.09,83.14a1.41,1.41,0,1,1-1.41-1.4h0A1.42,1.42,0,0,1,254.09,83.14Z"/>
          <circle class="cls-1" cx="258.91" cy="83.14" r="1.41"/>
          <circle class="cls-1" cx="265.14" cy="83.14" r="1.41"/>
          <path class="cls-1" d="M272.77,83.14a1.41,1.41,0,1,1-1.4-1.4h0A1.4,1.4,0,0,1,272.77,83.14Z"/>
          <circle class="cls-1" cx="277.59" cy="83.14" r="1.41"/>
        </g>
        <g>
          <path class="cls-1" d="M241.63,89.06a1.42,1.42,0,0,1-.38,1,27.88,27.88,0,0,1-2.13-1.85,1.41,1.41,0,0,1,2.51.89Z"/>
          <circle class="cls-1" cx="246.45" cy="89.06" r="1.41"/>
          <path class="cls-1" d="M254.09,89.06a1.41,1.41,0,1,1-1.41-1.4h0A1.41,1.41,0,0,1,254.09,89.06Z"/>
          <circle class="cls-1" cx="258.91" cy="89.06" r="1.41"/>
          <circle class="cls-1" cx="265.14" cy="89.06" r="1.41"/>
          <path class="cls-1" d="M272.77,89.06a1.41,1.41,0,1,1-1.4-1.4h0A1.4,1.4,0,0,1,272.77,89.06Z"/>
          <circle class="cls-1" cx="277.59" cy="89.06" r="1.41"/>
          <path class="cls-1" d="M285.13,88.54a18.89,18.89,0,0,1-1.9,1.79,1.37,1.37,0,0,1-.81-1.27,1.41,1.41,0,0,1,2.71-.52Z"/>
        </g>
        <g>
          <path class="cls-1" d="M254.09,95a1.44,1.44,0,0,1-.59,1.15h0c-.74-.2-1.45-.42-2.14-.64a1.44,1.44,0,0,1-.09-.51,1.41,1.41,0,0,1,2.82,0Z"/>
          <path class="cls-1" d="M260.32,95a1.41,1.41,0,0,1-1.4,1.42,1.41,1.41,0,1,1,0-2.81h0A1.41,1.41,0,0,1,260.32,95Z"/>
          <path class="cls-1" d="M266.54,95a1.41,1.41,0,1,1-1.45-1.39A1.4,1.4,0,0,1,266.54,95Z"/>
          <path class="cls-1" d="M272.77,95a1.42,1.42,0,0,1-.29.87c-.54.15-1.1.3-1.69.43a1.41,1.41,0,1,1,2-1.3Z"/>
          <path class="cls-1" d="M278.1,93.67c-.58.29-1.19.56-1.83.84a1.4,1.4,0,0,1,1.32-.94A1.25,1.25,0,0,1,278.1,93.67Z"/>
        </g>
      </g>
    </g>
    <path class="cls-3" d="M297.93,10.48v7.11H226.11V10.48a3,3,0,0,1,3-3H295A3,3,0,0,1,297.93,10.48Z"/>
    <g>
      <path class="cls-8" d="M279.64,12.55a2.15,2.15,0,1,1,0-.05Z"/>
      <path class="cls-9" d="M287.23,12.55A2.18,2.18,0,1,1,285,10.38h0A2.18,2.18,0,0,1,287.23,12.55Z"/>
      <path class="cls-10" d="M294.78,12.55a2.18,2.18,0,1,1-2.19-2.17h0A2.18,2.18,0,0,1,294.78,12.55Z"/>
    </g>
    <g>
      <g>
        <g>
          <path class="cls-15" d="M374.39,279a1.43,1.43,0,0,0,.5-.09,1.37,1.37,0,0,0,.78-1.78h0l-27.51-69.9a1.38,1.38,0,0,0-2.56,1h0l27.51,69.9A1.36,1.36,0,0,0,374.39,279Z"/>
          <path class="cls-15" d="M301.51,279a1.36,1.36,0,0,0,1.28-.87l27.51-69.9a1.38,1.38,0,0,0-2.56-1l-27.51,69.9a1.38,1.38,0,0,0,.78,1.79h0A1.25,1.25,0,0,0,301.51,279Z"/>
          <path class="cls-15" d="M314.24,246.67a1.71,1.71,0,0,0,.45-.09L356.36,232a1.37,1.37,0,1,0-.9-2.59h0L313.78,244a1.38,1.38,0,0,0-.83,1.77,1.4,1.4,0,0,0,1.29.91Z"/>
          <path class="cls-15" d="M361.72,246.67a1.38,1.38,0,0,0,.45-2.68l-41.68-14.6a1.37,1.37,0,1,0-.9,2.59h0l41.67,14.6A1.45,1.45,0,0,0,361.72,246.67Z"/>
        </g>
        <g>
          <path class="cls-15" d="M323,279a1.43,1.43,0,0,0,.5-.09,1.38,1.38,0,0,0,.77-1.79l-27.5-69.9a1.38,1.38,0,0,0-1.8-.76,1.37,1.37,0,0,0-.76,1.79l27.5,69.9A1.38,1.38,0,0,0,323,279Z"/>
          <path class="cls-15" d="M250.11,279a1.34,1.34,0,0,0,1.27-.87l27.51-69.9a1.38,1.38,0,0,0-2.56-1h0l-27.51,69.9a1.38,1.38,0,0,0,.78,1.79h0A1.26,1.26,0,0,0,250.11,279Z"/>
          <path class="cls-15" d="M262.83,246.67a1.79,1.79,0,0,0,.46-.09L305,232a1.38,1.38,0,0,0-.72-2.66l-.2.07L262.38,244a1.36,1.36,0,0,0-.85,1.72v0A1.39,1.39,0,0,0,262.83,246.67Z"/>
          <path class="cls-15" d="M310.26,246.67a1.38,1.38,0,0,0,.45-2.68L269,229.39a1.38,1.38,0,0,0-1.11,2.52l.2.07,41.68,14.6A1.39,1.39,0,0,0,310.26,246.67Z"/>
        </g>
        <path class="cls-8" d="M254.17,209.43s58,33.2,94.8,6.35a53.23,53.23,0,0,0,4.29-3.5c.48-.43,1-.87,1.42-1.33,31.38-30.67-8.63-79.86-8.63-79.86-1,.44-2.05.88-3.08,1.34l-1.09.49C284.55,158.76,254.17,209.43,254.17,209.43Z"/>
        <path class="cls-15" d="M353,150.85c4.79,9.59,10.05,23.94,7.91,37.82-1.87,12.1-6.23,20.85-11.95,27.11a53.23,53.23,0,0,0,4.29-3.5c4.46-6.35,7.42-14.18,8.85-23.42a52.65,52.65,0,0,0-1.22-20.46,86.74,86.74,0,0,0-6.81-18.11,110.92,110.92,0,0,0-11.14-17.86l-1.09.49a.53.53,0,0,0,.11.21A107.81,107.81,0,0,1,353,150.85Z"/>
        <path class="cls-15" d="M334.88,160.7s11.2,30.47.55,44.2-35.29,20.29-71-.53Z"/>
      </g>
      <g>
        <g>
          <path class="cls-10" d="M298.05,112.26l-.06.51-.1.66c-.08.44-.16.9-.24,1.36-.15.93-.34,1.86-.55,2.81-.4,1.88-.86,3.77-1.37,5.65a111.69,111.69,0,0,1-3.65,11.15q-1,2.72-2.26,5.4c-.82,1.78-1.66,3.55-2.56,5.28-.22.43-.46.86-.68,1.29s-.45.86-.7,1.29c-.47.84-.95,1.69-1.45,2.52-.26.42-.49.85-.75,1.26l-.78,1.23-.2.31-.09.15h0v-.06c.06-.07.09-.12.14-.17l.11-.1c.1-.1.05,0,0,.07a9.16,9.16,0,0,1-1.43.88c-.64.33-1.4.68-2.2,1-1.61.66-3.42,1.25-5.27,1.81s-3.79,1-5.74,1.53-3.94.92-5.94,1.33c-4,.83-8.07,1.57-12.15,2.24-2.06.34-4.11.67-6.17,1l-3.08.45-1.53.21-1.51.21,1.22,13.94,1.66-.1,1.63-.1,3.23-.25q3.24-.25,6.48-.58c4.31-.44,8.63-1,13-1.65s8.7-1.46,13.15-2.57a64.92,64.92,0,0,0,6.85-2.05c1.17-.43,2.37-.91,3.63-1.49a25.55,25.55,0,0,0,4.06-2.33,16.29,16.29,0,0,0,2.35-2.05c.2-.21.42-.44.63-.69s.42-.51.63-.81l.23-.33.12-.18.25-.35,1-1.41c.31-.48.62-1,.94-1.44.63-1,1.22-1.94,1.83-2.91.3-.49.59-1,.88-1.47s.58-1,.86-1.49l.84-1.49.8-1.51c.55-1,1-2.06,1.57-3.09q1.5-3.08,2.82-6.24A124.9,124.9,0,0,0,313,128c.63-2.2,1.2-4.42,1.7-6.68.26-1.13.5-2.26.71-3.42.11-.58.21-1.16.3-1.77l.14-.92.07-.48.07-.58Z"/>
          <g>
            <path class="cls-12" d="M287.71,158a.53.53,0,0,0,.45-.13.52.52,0,0,0,0-.73,42.7,42.7,0,0,0-4.81-4.5.52.52,0,0,0-.64.82,41.27,41.27,0,0,1,4.68,4.38A.58.58,0,0,0,287.71,158Z"/>
            <path class="cls-12" d="M286.84,154.29a.54.54,0,0,0,.63-.4.53.53,0,0,0-.4-.63s-2-.54-3.67-.87a.53.53,0,0,0-.61.42.52.52,0,0,0,.42.61c1.64.32,3.57.85,3.58.86Z"/>
          </g>
          <g>
            <g>
              <path class="cls-12" d="M247.33,178.36h.16a.51.51,0,0,0,.46-.56h0l-1.59-16.37a.52.52,0,0,0-.57-.46.51.51,0,0,0-.46.56l1.59,16.35A.52.52,0,0,0,247.33,178.36Z"/>
              <path class="cls-12" d="M239.13,174.59h.15l7.52-.87a.49.49,0,0,0,.45-.54v0a.51.51,0,0,0-.57-.45l-7.51.86a.51.51,0,0,0-.46.56h0A.52.52,0,0,0,239.13,174.59Z"/>
            </g>
            <path class="cls-12" d="M241.45,169.3a1.2,1.2,0,1,0,1.57-.64,1.18,1.18,0,0,0-1.56.64Z"/>
          </g>
        </g>
        <g>
          <g>
            <polygon class="cls-16" points="242.11 258.08 239.16 265.74 228.2 264.22 230.46 256.08 242.11 258.08"/>
            <g>
              <path class="cls-3" d="M199.53,277.88l39.87,5.54a5.61,5.61,0,0,0,.83-2.13c.72-3.34.39-8.88.34-12.34v-1.13a9.38,9.38,0,0,1,.07-1.4,2.06,2.06,0,0,0-1.37-2.56,2.22,2.22,0,0,0-.77-.08c-4.58,3.4-8.32-3.17-11.3-1.59,0,0-1.27.66-4.84,3.08s-9.25,3.54-14.06,4.82c-6.26,1.66-8.28,3.9-8.85,5.55A3.2,3.2,0,0,0,199.53,277.88Z"/>
              <path class="cls-17" d="M199.53,277.88l39.87,5.54a5.61,5.61,0,0,0,.83-2.13l-40.72-5.67A3.2,3.2,0,0,0,199.53,277.88Z"/>
              <g>
                <path class="cls-7" d="M226.42,263.79s-.47-1.84-2.12-1.51-1.87,3-1.87,3S223.05,267.76,226.42,263.79Z"/>
                <path class="cls-7" d="M225.82,271.7a.68.68,0,0,0,.75-.57,8.51,8.51,0,0,0-1.72-6.56.67.67,0,0,0-1,.89,7.15,7.15,0,0,1,1.4,5.49A.68.68,0,0,0,225.82,271.7Z"/>
                <path class="cls-7" d="M218.25,265.38a.65.65,0,0,0,.45-.11c1-.62,3.42-.42,4.75-.14a.66.66,0,0,0,.78-.51h0a.66.66,0,0,0-.51-.79c-.41-.08-4.05-.78-5.75.35a.66.66,0,0,0-.18.91h0A.62.62,0,0,0,218.25,265.38Z"/>
                <path class="cls-7" d="M224.34,264l.29.39h0l-.47,1.31h.16a8.78,8.78,0,0,0,1.24.25h.28a22.19,22.19,0,0,0,2.94.16,5.52,5.52,0,0,0,4-1.33,2.53,2.53,0,0,0,.43-.6l.06-.12a2,2,0,0,0-.24-2.06,2.88,2.88,0,0,0-1.94-1.17h0a5,5,0,0,0-1.92.14,13.12,13.12,0,0,0-3.47,1.52l-.23.13c-.37.22-.69.44-.93.61l-.42.29Zm1.36.59a4.11,4.11,0,0,1-.47-.07c.32-.22.72-.48,1.18-.75a14.29,14.29,0,0,1,2.21-1,7.58,7.58,0,0,1,1.24-.34,3.7,3.7,0,0,1,.94,0h0a1.38,1.38,0,0,1,1,.58.61.61,0,0,1,.12.58.24.24,0,0,1,0,.12,2.23,2.23,0,0,1-1.43.94,6.44,6.44,0,0,1-1.74.22,21.2,21.2,0,0,1-3.08-.25Z"/>
                <path class="cls-7" d="M223.11,264.93l.79-1.2c-1.23-.8-2.26-2.61-2.06-3.59,0-.23.2-.52.84-.61a.76.76,0,0,1,.76.2c.62.63.59,2.46.42,3.45l1.42.24c.05-.34.52-3.35-.8-4.7a2.23,2.23,0,0,0-2-.61,2.2,2.2,0,0,0-2.06,1.71C220.07,261.56,221.54,263.9,223.11,264.93Z"/>
              </g>
              <path class="cls-17" d="M235.36,282.86l1.18.16a8.84,8.84,0,0,1-1.25-6.68,11.29,11.29,0,0,1,5.31-7.4v-1.13a12.33,12.33,0,0,0-6.25,8.35A9.76,9.76,0,0,0,235.36,282.86Z"/>
              <path class="cls-7" d="M222.78,267.7a.67.67,0,0,0,.33-1.28l-2.4-1a.66.66,0,0,0-.9.27.67.67,0,0,0,.27.91l.14.05,2.4,1Z"/>
              <path class="cls-7" d="M220.08,268.8a.67.67,0,0,0,.73-.6.67.67,0,0,0-.39-.68l-2.4-1a.67.67,0,0,0-.83.46.69.69,0,0,0,.33.77l2.41,1Z"/>
              <path class="cls-7" d="M217.4,269.85a.67.67,0,0,0,.34-1.28l-2.41-1a.68.68,0,0,0-.86.37.66.66,0,0,0,.34.86h0l2.4,1Z"/>
              <path class="cls-7" d="M214.5,270.76a.67.67,0,0,0,.34-1.27l-2.41-1a.64.64,0,0,0-.85.36h0a.66.66,0,0,0,.37.86l2.41,1Z"/>
              <path class="cls-7" d="M211.41,271.41a.67.67,0,0,0,.7-.41.65.65,0,0,0-.34-.85l0,0-2.41-1a.65.65,0,0,0-.86.36h0a.66.66,0,0,0,.37.86l2.4,1Z"/>
            </g>
          </g>
          <g>
            <g>
              <polygon class="cls-16" points="200.5 253.56 196.29 258.76 186.84 253 191.05 247.8 200.5 253.56"/>
              <g>
                <path class="cls-3" d="M155.11,254.09l34.36,21a5.56,5.56,0,0,0,1.61-1.63c2-2.77,3.9-8,5.24-11.18.15-.38.29-.73.44-1a9.75,9.75,0,0,1,.63-1.25,2.06,2.06,0,0,0-.25-2.9,2.15,2.15,0,0,0-.66-.37c-5.56,1.28-6.37-6.24-9.7-6,0,0-1.42.1-5.66.89s-9.85-.43-14.81-1.19c-6.4-1-9.15.26-10.28,1.55A3.16,3.16,0,0,0,155.11,254.09Z"/>
                <path class="cls-17" d="M155.11,254.09l34.36,21a5.56,5.56,0,0,0,1.61-1.63L156,252A3.11,3.11,0,0,0,155.11,254.09Z"/>
                <g>
                  <path class="cls-7" d="M185.39,251.88s.3-1.87-1.36-2.23-2.89,2-2.89,2S180.71,254.18,185.39,251.88Z"/>
                  <path class="cls-7" d="M181.68,258.91a.66.66,0,0,0,.91-.23,8.49,8.49,0,0,0,1-6.7.68.68,0,0,0-.84-.42.66.66,0,0,0-.42.84,7.19,7.19,0,0,1-.91,5.59A.67.67,0,0,0,181.68,258.91Z"/>
                  <path class="cls-7" d="M177.26,250.09a.67.67,0,0,0,.46.08c1.11-.19,3.29,1,4.41,1.76a.66.66,0,0,0,.92-.15h0a.67.67,0,0,0-.17-.92c-.34-.25-3.4-2.34-5.41-2a.66.66,0,0,0-.53.76h0A.63.63,0,0,0,177.26,250.09Z"/>
                  <path class="cls-7" d="M183.4,251.23l.11.47h0l-.95,1,.12.1a7.85,7.85,0,0,0,1,.72l.23.15a26,26,0,0,0,2.64,1.32,5.56,5.56,0,0,0,4.23.37,2.61,2.61,0,0,0,.62-.37l.11-.09a2.06,2.06,0,0,0,.58-2,2.81,2.81,0,0,0-1.31-1.85h0a5,5,0,0,0-1.82-.64,13.37,13.37,0,0,0-3.79,0h-.26c-.43.05-.82.12-1.09.17l-.51.12Zm1,1.1-.4-.26c.37-.08.86-.15,1.38-.21a14.43,14.43,0,0,1,2.46-.11,9.1,9.1,0,0,1,1.26.18,3.4,3.4,0,0,1,.88.36h0a1.37,1.37,0,0,1,.67.92.61.61,0,0,1-.11.58l-.09.09a2.31,2.31,0,0,1-1.7.29,6,6,0,0,1-1.67-.48,24.21,24.21,0,0,1-2.69-1.36Z"/>
                  <path class="cls-7" d="M181.89,251.62l1.21-.79c-.8-1.22-1-3.3-.44-4.11.14-.2.39-.4,1-.23a.82.82,0,0,1,.63.48c.31.83-.45,2.49-1,3.34l1.22.79c.18-.29,1.8-2.87,1.14-4.63a2.28,2.28,0,0,0-1.6-1.37,2.24,2.24,0,0,0-2.56.76C180.46,247.31,180.87,250.06,181.89,251.62Z"/>
                </g>
                <path class="cls-17" d="M185.94,272.94l1,.63a8.82,8.82,0,0,1,1.51-6.63,11.3,11.3,0,0,1,7.83-4.67c.15-.38.29-.73.44-1a12.35,12.35,0,0,0-9.06,5.14A9.76,9.76,0,0,0,185.94,272.94Z"/>
                <path class="cls-7" d="M180.49,254a.65.65,0,0,0,.81-.1.67.67,0,0,0,0-.93l-1.82-1.85a.66.66,0,1,0-.94.93h0l1.82,1.85Z"/>
                <path class="cls-7" d="M177.58,253.93a.66.66,0,0,0,.81-1l-1.82-1.85a.66.66,0,1,0-.94.93h0l1.82,1.84A.41.41,0,0,0,177.58,253.93Z"/>
                <path class="cls-7" d="M174.69,253.84a.66.66,0,0,0,.82-1h0L173.68,251a.68.68,0,0,0-.94,0,.66.66,0,0,0,0,.94l1.82,1.85Z"/>
                <path class="cls-7" d="M171.68,253.52a.66.66,0,0,0,.81-.09.68.68,0,0,0,0-.94l-1.82-1.85a.68.68,0,0,0-.94.09.66.66,0,0,0,0,.85l1.83,1.84Z"/>
                <path class="cls-7" d="M168.55,252.91a.68.68,0,0,0,.81-.1.66.66,0,0,0,0-.93h0L167.54,250a.65.65,0,0,0-.93,0,.66.66,0,0,0,0,.93h0l1.82,1.84A.63.63,0,0,0,168.55,252.91Z"/>
              </g>
            </g>
            <path class="cls-1" d="M235.11,174.84c4.2-2.78,63.16-6.05,80.63,2.71,1.33,4.49-27.59,16.26-36.07,24.52-25.07-.76-40.22,4.77-40.22,4.77s-12.49,18.24-19,24.55-20.24,24.67-20.24,24.67l-12.18-9S223.67,182.43,235.11,174.84Z"/>
            <path class="cls-18" d="M205.26,249a.49.49,0,0,0,.52-.22.5.5,0,0,0-.12-.71h0l-12.6-8.63a.52.52,0,1,0-.59.85l12.6,8.64A.5.5,0,0,0,205.26,249Z"/>
            <path class="cls-18" d="M202,246.74a.5.5,0,0,0,.52-.21c.07-.09,1.6-2.23,12-13.63,11.36-12.43,23.95-31.07,24.08-31.26a.51.51,0,0,0-.13-.71h0a.53.53,0,0,0-.72.15c-.13.18-12.68,18.76-24,31.13-10.54,11.54-12.05,13.65-12.11,13.74a.51.51,0,0,0,.13.71h0A.41.41,0,0,0,202,246.74Z"/>
          </g>
          <path class="cls-9" d="M336.32,176.84s10.95,45.8-42.22,38.64c-24-3.23-34.61-9.12-34.61-9.12s-4.67,20.85-7.49,29.48-9.19,23.79-9.19,23.79l-14.22-2.77s6.89-65.78,19.74-70.65,33.78-6.28,62.62-3.48C311,182.73,331.76,178,336.32,176.84Z"/>
          <path class="cls-1" d="M242.53,251.67a.51.51,0,0,0,.58-.31c4-9.75,7.19-22.26,9.7-32.3,2.06-8.34,4.11-16.2,5.36-16.95,1-.61,4.54.7,9,2.37,8.86,3.3,22.27,8.3,38.22,7.71,8.7-.31,15.59-3.17,20.56-8.47,8.47-9.15,8-22.62,8-22.75a.52.52,0,0,0-.54-.5.52.52,0,0,0-.5.54c0,.14.41,13.19-7.77,22-4.72,5.14-11.38,7.83-19.78,8.14-15.76.57-29-4.38-37.83-7.66-5.26-2-8.44-3.14-9.9-2.29s-3.08,6.67-5.82,17.59c-2.52,10-5.66,22.48-9.66,32.17a.5.5,0,0,0,.27.66h0A.09.09,0,0,0,242.53,251.67Z"/>
          <path class="cls-1" d="M229.8,249.19h0l15.88,2.74a.52.52,0,0,0,.19-1h0L230,248.17a.53.53,0,0,0-.6.42.51.51,0,0,0,.41.6Z"/>
          <g>
            <rect class="cls-3" x="266.68" y="151.31" width="7.5" height="57.59" rx="1.18" transform="translate(79.34 442.9) rotate(-87.64)"/>
            <path class="cls-3" d="M235.5,182.42a4.79,4.79,0,0,1-4.47-3.74l-9.11-40.74a3.87,3.87,0,0,1,2.92-4.63,4,4,0,0,1,1-.1l25.76,1a3.89,3.89,0,0,1,3.62,3l11,46.43Z"/>
            <g>
              <path class="cls-10" d="M238.17,158.34c.6,2.67,3,5,5.41,5.21s3.86-1.79,3.26-4.45-3-5-5.41-5.23S237.58,155.7,238.17,158.34Z"/>
              <g>
                <path class="cls-3" d="M243,157.89c.12.54.39,1,.59,1s.28-.4.16-.93-.38-1-.59-1S242.9,157.36,243,157.89Z"/>
                <path class="cls-3" d="M240.75,157.7c.13.53.38,1,.6,1s.28-.4.15-.94-.38-1-.58-1S240.63,157.16,240.75,157.7Z"/>
              </g>
              <path class="cls-3" d="M243,161.1c1.87.17,1.83-1.87,1.83-1.89a.32.32,0,0,0-.2-.27.14.14,0,0,0-.18.07.22.22,0,0,0,0,.08c0,.07,0,1.73-1.53,1.6a3.21,3.21,0,0,1-2.32-1.94.27.27,0,0,0-.26-.18c-.1,0-.14.12-.09.24S241.13,161,243,161.1Z"/>
            </g>
            <g>
              <path class="cls-3" d="M255.26,137.25l10.91,46.05,2.94.13-10.9-46.05a3.89,3.89,0,0,0-3.62-3l-3-.13A3.89,3.89,0,0,1,255.26,137.25Z"/>
              <path class="cls-17" d="M265.39,180.44a.43.43,0,0,1-.41-.32l-10.16-42.76a.42.42,0,0,1,.31-.51h0a.42.42,0,0,1,.5.3h0l10.13,42.76a.43.43,0,0,1-.32.51h-.06Z"/>
            </g>
          </g>
          <g>
            <path class="cls-10" d="M288.43,144.22v.15A12.34,12.34,0,0,0,289,146a25.2,25.2,0,0,0,4.47,6.71l.4.42v.55a23.39,23.39,0,0,1-.36,2.35c-2.22,10.14-2.77,11.83-3.67,16.13,13.26,19.18,44.78,7.1,46.45,4.73,1.46-10.28,1.46-10.28,3-20.2a110.59,110.59,0,0,1,5.34-19.15l.3-.85c.8-2.06,1.63-4.2,2.51-6.17,3.84-8.82,3-16.75-2.19-20.37-1.74-1.23-7.12-2.85-9.51-3.36l-1.87-.38c-3.35-.65-6-1-6-1l-16.1.11c-1.59.17-3,.37-4.29.61s-2.15.42-3.09.66c-8.22,2.24-8.54,6.56-10.05,14.39a58,58,0,0,1-1.73,6.49c-.21.66-.43,1.31-.65,2C289.86,135.64,287.53,140.94,288.43,144.22Z"/>
            <path class="cls-16" d="M312.22,104.75l-.6,5.7a5.64,5.64,0,0,0,5,6.19,5.71,5.71,0,0,0,3.52-.8c4.66-2.83,8.84-6.69,8.9-10.36Z"/>
            <path class="cls-12" d="M293.88,153.08v.55a27.34,27.34,0,0,0,11.18,0,25.5,25.5,0,0,1,16,2.45.34.34,0,0,0,.22.07.43.43,0,0,0,.37-.22.44.44,0,0,0-.15-.61h0a26,26,0,0,0-16.62-2.56,26,26,0,0,1-11.31,0Z"/>
            <path class="cls-12" d="M308.47,131.24c5.37,0,16.38-7.61,16.85-7.94a.43.43,0,0,0,.1-.61.44.44,0,0,0-.61-.11c-.11.08-11.24,7.81-16.34,7.78-4.87,0-5.92-5.36-5.93-5.41a.44.44,0,1,0-.87.15h0C301.68,125.16,302.87,131.21,308.47,131.24Z"/>
          </g>
          <path class="cls-12" d="M291,164.82a.51.51,0,0,0,.6-.35c1.26-4,2.77-11.1,2.78-11.17a.49.49,0,0,0-.19-.52,15.12,15.12,0,0,1-5.28-8.59.52.52,0,0,0-.6-.42.55.55,0,0,0-.43.61,15.86,15.86,0,0,0,5.42,9c-.31,1.42-1.59,7.3-2.69,10.77a.52.52,0,0,0,.33.65H291Z"/>
          <g>
            <path class="cls-3" d="M309.43,62.34a10.19,10.19,0,0,0-8.74.86c-4.5,2.68-4.82,6.41-4.5,9.49s-2.14,1.92-2.61,6.77,3.22,3.31,2.52,7.64-2.24,9,1,11.31,1.43,6.17,2.15,10c.22,1.12,4.22-2.35,12.87-2.6,3.33-.09,2.15-3.29,0-7s-2.89-24.6-1.1-28.16S309.43,62.34,309.43,62.34Z"/>
            <path class="cls-19" d="M303.19,86.64s-2.91-2.41-3.76.68,1.21,8.63,4.71,7Z"/>
            <g>
              <path class="cls-16" d="M311.35,100.23l1,7.78s5.74,7.83,16.59-2.55c-2.11-3.08-3.82-8.9-3.42-12.07A15.61,15.61,0,0,0,323.39,95a7.94,7.94,0,0,1-.91.6C319.65,97.45,315.3,99.83,311.35,100.23Z"/>
              <path class="cls-3" d="M311.35,100.23l.51,3.69c3.21-1.35,8.91-4.25,11.56-8.91l-.91.6C319.65,97.45,315.3,99.83,311.35,100.23Z"/>
            </g>
            <path class="cls-16" d="M304.16,98.49c6.92,6.66,21-4.73,21.42-5.07h0V91.54a48.52,48.52,0,0,0-2.06-14.31,10.94,10.94,0,0,0-8.9-9.46c-4.88-.86-8.64,1.89-11,3.08-3.53,1.82-5,7.06-3.82,14C301.33,93.24,302.21,96.66,304.16,98.49Z"/>
            <path class="cls-3" d="M306.31,69.41s-2.84,10.59-9.88,10C296.43,79.46,296.19,68.65,306.31,69.41Z"/>
            <path class="cls-3" d="M304.76,66.29s-.88,7.19,5.68,7.94,8.68,2.15,9,5.7,4,2.46,6,2.65-1.33,4.81-.4,9.32c.87,4.11-2.05,6.58-1.63,10.28s11.21,3.73,16.91,6-4.25-9.62-2-13.51c3.32-5.75-6-7.6-3.7-12.56,2.58-5.45.07-8.89-3.24-11.37s-2.77-6.34-7.06-9.34c-2.89-2-6-1.93-11.79-1.35C306.31,60.68,305,65.25,304.76,66.29Z"/>
            <path class="cls-7" d="M313,125.28a4.66,4.66,0,0,1-4-1.92c-3.44-4.79.66-17.14.83-17.65a.66.66,0,0,1,1.24.41c0,.12-4.06,12.23-1,16.44a3.31,3.31,0,0,0,2.93,1.38c11,0,17.4-18.06,17.47-18.23a.65.65,0,0,1,.82-.41h0a.65.65,0,0,1,.4.83C331.39,106.94,324.85,125.28,313,125.28Z"/>
            <path class="cls-3" d="M316.67,67.31S309.3,56.92,319,52.85c9.25-3.89,15.58,4.57,14.59,10S325.52,71,325.52,71Z"/>
            <path class="cls-19" d="M309.55,95.13A3.42,3.42,0,0,1,308,95a.26.26,0,0,1-.1-.36.28.28,0,0,1,.29-.13h0a2.83,2.83,0,0,0,2.37-.3.28.28,0,0,1,.37.06.27.27,0,0,1-.07.37A2.88,2.88,0,0,1,309.55,95.13Z"/>
            <path class="cls-7" d="M304.45,90.69s4-.5,8.52-1.43a4.63,4.63,0,0,1-3.67,4.32C305.72,94.29,304.45,90.69,304.45,90.69Z"/>
            <path d="M307.82,88.44a.31.31,0,0,0,.15-.2.32.32,0,0,0-.21-.4h0l-2.18-.61,1.22-1.34a.4.4,0,0,0,.08-.28l-.57-3.53a.32.32,0,0,0-.37-.27.31.31,0,0,0-.27.37h0l.54,3.37-1.47,1.63a.35.35,0,0,0-.06.31.33.33,0,0,0,.23.23l2.68.74A.37.37,0,0,0,307.82,88.44Z"/>
            <path class="cls-3" d="M309.3,76.67s-1.34.38-.64,1.54,3.2-.7,5.57,1.25C314.2,79.46,314.5,76.32,309.3,76.67Z"/>
            <path class="cls-3" d="M303.13,77.77s1.39-.11,1.13,1.23-3.25.44-4.79,3.08C299.43,82.09,298.06,79.25,303.13,77.77Z"/>
            <path class="cls-19" d="M311.44,86.38c.12.64,1.53.92,3.14.63s2.84-1,2.72-1.68-1.51-.91-3.13-.62S311.35,85.71,311.44,86.38Z"/>
            <g class="cls-20">
              <path class="cls-19" d="M299.71,89.59a4.18,4.18,0,0,0,.71-.09c1.62-.29,2.84-1,2.73-1.68s-1.52-.91-3.14-.63q-.31.06-.63.15Z"/>
            </g>
            <path class="cls-3" d="M322.08,90.38c.06.09,1.69,2.55,3.48,3.08h0V91.58A6.8,6.8,0,0,1,322.08,90.38Z"/>
            <path class="cls-16" d="M322.66,84s2.65-5.33,5.88-2.06c2.65,2.66.07,11.31-4.6,9.33Z"/>
            <path class="cls-3" d="M324.12,89.76a.35.35,0,0,0,.3-.38,6.14,6.14,0,0,1,2.63-5.47.37.37,0,0,0,.05-.52.35.35,0,0,0-.43-.1,6.82,6.82,0,0,0-3,6.16.37.37,0,0,0,.39.34Z"/>
            <path class="cls-3" d="M327.09,87a.38.38,0,0,0,.26-.19.37.37,0,0,0-.15-.49,3.45,3.45,0,0,0-2.66-.41.37.37,0,1,0,.2.71l.1,0c.59-.28,1.65.18,2.05.38A.45.45,0,0,0,327.09,87Z"/>
            <g>
              <path class="cls-3" d="M310.32,83.12c.16.88.68,1.51,1.17,1.43s.76-.86.6-1.74-.68-1.52-1.17-1.42S310.13,82.27,310.32,83.12Z"/>
              <path class="cls-3" d="M301.64,84.48c.15.87.68,1.51,1.16,1.43s.76-.88.61-1.75-.68-1.51-1.18-1.43S301.47,83.61,301.64,84.48Z"/>
            </g>
          </g>
          <g>
            <path class="cls-7" d="M310.32,87.1a2.79,2.79,0,0,1-2.75-2.38l-.33-1.94a1.38,1.38,0,0,1,1.21-1.54l7.85-1.13a1.39,1.39,0,0,1,1.57,1.13l.28,1.93a2.81,2.81,0,0,1-.53,2.06,2.76,2.76,0,0,1-1.83,1.15l-5.08.73A2.54,2.54,0,0,1,310.32,87.1Zm6.17-6.36h-.1l-7.83,1.13a.71.71,0,0,0-.61.81l.28,1.93a2.06,2.06,0,0,0,2.29,1.79l.1,0,5.07-.73a2.06,2.06,0,0,0,1.39-.82,2.1,2.1,0,0,0,.44-1.53l-.28-1.92A.72.72,0,0,0,316.49,80.74Z"/>
            <path class="cls-7" d="M300.12,88.57a2.78,2.78,0,0,1-2.75-2.38l-.28-1.94a1.39,1.39,0,0,1,1.18-1.57l5.28-.76a1.39,1.39,0,0,1,1.57,1.18h0L305.4,85a2.78,2.78,0,0,1-2.34,3.16h0l-2.52.37Zm3.64-6h-.11l-5.29.76a.71.71,0,0,0-.6.8h0l.28,1.93a2.09,2.09,0,0,0,2.38,1.79h0L303,87.5a2.07,2.07,0,0,0,1.8-2.29s0-.06,0-.09l-.28-1.94A.7.7,0,0,0,303.76,82.58Z"/>
            <path class="cls-7" d="M304.8,83l-.35-.58a3.49,3.49,0,0,1,3.24-.32l-.24.62A2.84,2.84,0,0,0,304.8,83Z"/>
          </g>
          <path class="cls-7" d="M317.52,81.64a.32.32,0,0,1-.32-.22.35.35,0,0,1,.21-.44c.17-.06,4.19-1.39,7.4-.18a.34.34,0,0,1-.14.66l-.1,0c-3-1.12-6.91.18-6.95.19Z"/>
        </g>
        <g>
          <path class="cls-16" d="M280.87,173.18s-10.09-4.56-14.75-2.22l1.82,7.72,5.83,2.72c1.77.83,2,4.21,8.71,4.24Z"/>
          <path class="cls-10" d="M350.41,129.55a70.52,70.52,0,0,0-.44-7.25c-.13-1.22-.29-2.43-.47-3.65q-.15-.93-.33-1.86c-.05-.31-.11-.63-.19-1l-.11-.51-.05-.27-.09-.36-17.48,4.36.11.45.12.63c.08.44.15.89.22,1.34.16.92.29,1.85.4,2.8q.33,2.83.42,5.72A65,65,0,0,1,332,141.4c-.13.93-.29,1.87-.46,2.79s-.36,1.84-.58,2.76-.44,1.81-.7,2.7-.54,1.78-.85,2.65-.63,1.75-1,2.6-.71,1.7-1.11,2.53-.82,1.65-1.26,2.46c-.22.4-.45.79-.68,1.19h0a5,5,0,0,1-.65.45,18.39,18.39,0,0,1-2.05,1.1,51.55,51.55,0,0,1-5.2,2.06c-3.72,1.29-7.73,2.38-11.77,3.39s-8.23,1.91-12.34,2.75c-2.05.42-4.16.82-6.25,1.21l-3.08.56-1.56.27-1.53.27,1.66,14,1.7-.17,1.65-.15,3.31-.37c2.2-.26,4.39-.54,6.59-.83,4.39-.62,8.79-1.32,13.2-2.17s8.84-1.85,13.36-3.19a61.52,61.52,0,0,0,7-2.47l.77-.33c1-.46,2-1,3-1.52.66-.38,1.35-.8,2.06-1.3a18.55,18.55,0,0,0,2.26-1.89,14.27,14.27,0,0,0,1.22-1.36c.21-.27.41-.53.62-.85l.15-.23.08-.11.12-.2,1-1.59q.87-1.44,1.65-2.91l.19-.35q.87-1.66,1.65-3.36c.53-1.13,1-2.27,1.44-3.43a70.7,70.7,0,0,0,3.79-14.27A81.16,81.16,0,0,0,350.41,129.55Zm-25.07,31.52h0l.15-.14s0,0-.15.15Z"/>
          <path class="cls-12" d="M342.19,165.46c-.52,1-1,1.95-1.66,2.91-.31.53-.64,1-1,1.59l-.13.2-.07.11-.15.23c-.21.32-.41.58-.62.85a15.77,15.77,0,0,1-1.22,1.36,20.38,20.38,0,0,1-2.26,1.89c-.71.5-1.4.92-2.06,1.3a31,31,0,0,1-3,1.51C330.58,165.83,338.18,165,342.19,165.46Z"/>
          <g>
            <path class="cls-12" d="M330.43,165.91a.54.54,0,0,0,.46-.13.51.51,0,0,0,0-.74,52.38,52.38,0,0,0-6.17-5.14.52.52,0,0,0-.59.85,52.62,52.62,0,0,1,6,5A.59.59,0,0,0,330.43,165.91Z"/>
            <path class="cls-12" d="M329.46,162.24a.5.5,0,0,0,.59-.36.53.53,0,0,0-.34-.65c-.11,0-2.82-.84-4.95-1.24a.52.52,0,0,0-.61.42.54.54,0,0,0,.42.61c2.06.38,4.81,1.2,4.84,1.21Z"/>
          </g>
          <g>
            <path class="cls-12" d="M291.33,171.52a.28.28,0,0,0,.22,0c19.25-4.79,32.17-10.27,32.82-10.9a.57.57,0,0,0,.12-.18c.44-1.09,10.79-26.77,9.3-37.12a.51.51,0,0,0-.57-.44h0a.54.54,0,0,0-.45.59c1.4,9.68-8.32,34.32-9.18,36.44-1.34.78-13.9,6-32.27,10.61a.52.52,0,0,0-.39.62h0A.48.48,0,0,0,291.33,171.52Z"/>
            <path class="cls-12" d="M332.94,128.32a.51.51,0,0,0,.61-.39.52.52,0,0,0-.08-.4l-1.76-2.67a.52.52,0,0,0-.87.57l1.77,2.66A.49.49,0,0,0,332.94,128.32Z"/>
          </g>
          <g>
            <g>
              <path class="cls-12" d="M290.65,186.4h.17a.53.53,0,0,0,.45-.59l-1.8-13.56a.52.52,0,0,0-.58-.44.51.51,0,0,0-.45.58l1.8,13.56A.52.52,0,0,0,290.65,186.4Z"/>
              <path class="cls-12" d="M282.49,184.21h.17l7.49-1.12a.53.53,0,0,0,.35-.65.52.52,0,0,0-.51-.38l-7.48,1.12a.52.52,0,0,0-.41.62.51.51,0,0,0,.41.41Z"/>
            </g>
            <path class="cls-12" d="M284.63,178.89a1.19,1.19,0,1,0,1.54-.69A1.2,1.2,0,0,0,284.63,178.89Z"/>
          </g>
        </g>
      </g>
    </g>
    <g>
      <path class="cls-5" d="M145.75,149.14H58.27a13.19,13.19,0,0,1,0-26.38h87.48a13.19,13.19,0,1,1,0,26.38Zm-87.48-25a11.79,11.79,0,0,0,0,23.57h87.48a11.79,11.79,0,1,0,.7-23.57H58.27Z"/>
      <g>
        <polygon class="cls-5" points="63.99 141.19 58.88 143.87 59.86 138.19 55.73 134.16 61.43 133.34 63.99 128.16 66.54 133.34 72.25 134.16 68.11 138.19 69.09 143.87 63.99 141.19"/>
        <polygon class="cls-5" points="90.03 141.19 84.93 143.87 85.91 138.19 81.78 134.16 87.48 133.34 90.03 128.16 92.59 133.34 98.29 134.16 94.16 138.19 95.14 143.87 90.03 141.19"/>
        <polygon class="cls-5" points="116.08 141.19 110.98 143.87 111.94 138.19 107.82 134.16 113.53 133.34 116.08 128.16 118.64 133.34 124.34 134.16 120.21 138.19 121.19 143.87 116.08 141.19"/>
        <polygon class="cls-5" points="142.12 141.19 137.01 143.87 137.99 138.19 133.86 134.16 139.57 133.34 142.12 128.16 144.67 133.34 150.39 134.16 146.26 138.19 147.23 143.87 142.12 141.19"/>
      </g>
    </g>
    <path class="cls-6" d="M332.7,33.15h0L327.92,33a.43.43,0,0,1-.3-.13.46.46,0,0,1-.11-.3l.09-3.21a23.1,23.1,0,0,1-5.74-1.31,13.86,13.86,0,0,1-2.72-1.3.44.44,0,0,1-.15-.53l2.74-5.77a.51.51,0,0,1,.27-.23.45.45,0,0,1,.34.06,16.11,16.11,0,0,0,4.72,1.94,15.16,15.16,0,0,0,2.85.39,6,6,0,0,0,2.23-.24c.39-.17.45-.37.46-.56,0-.68-1.44-1.09-3.08-1.48l-.58-.15a20.94,20.94,0,0,1-5.71-1.94,6.62,6.62,0,0,1-3.5-6.24c.12-4.24,3.4-7.27,8.58-8L328.4.7a.42.42,0,0,1,.14-.28.37.37,0,0,1,.29-.14l4.79.14a.42.42,0,0,1,.4.43l0,3.3a23,23,0,0,1,2.31.45,16.06,16.06,0,0,1,4.31,1.72.41.41,0,0,1,.16.53l-2.57,5.74a.45.45,0,0,1-.25.22.4.4,0,0,1-.34,0l-.47-.24a13.86,13.86,0,0,0-5.9-1.66h-.4c-1,0-2.28.19-2.3,1,0,.12,0,.29.32.49a11.58,11.58,0,0,0,3.26,1c.91.21,2,.44,3,.76,1.89.59,4.53,1.66,5.7,4.11h0a7.06,7.06,0,0,1,.6,3.17c-.12,4.11-3.22,7.07-8.13,7.89l-.11,3.43a.38.38,0,0,1-.12.28A.48.48,0,0,1,332.7,33.15Zm-4.35-1,3.95.1.09-3.34a.43.43,0,0,1,.36-.4c4.75-.7,7.66-3.36,7.76-7.14a6.08,6.08,0,0,0-.51-2.79h0c-.78-1.68-2.44-2.85-5.2-3.71-1-.31-2.06-.55-2.93-.75A11.58,11.58,0,0,1,328.33,13a1.45,1.45,0,0,1-.69-1.2c0-.83.59-1.8,3.09-1.82h.43a14.82,14.82,0,0,1,6.27,1.73h.08l2.24-5A15.46,15.46,0,0,0,336,5.37a18.76,18.76,0,0,0-2.59-.48.44.44,0,0,1-.37-.43l.09-3.21-3.93-.11-.1,3.27a.42.42,0,0,1-.38.41c-5,.55-8.08,3.24-8.22,7.19a6.11,6.11,0,0,0,.63,3,6,6,0,0,0,2.54,2.47,21.11,21.11,0,0,0,5.48,1.86l.57.13c1.76.43,3.74.91,3.7,2.34a1.39,1.39,0,0,1-1,1.3,6.26,6.26,0,0,1-2.58.3,14.54,14.54,0,0,1-3-.41,16.81,16.81,0,0,1-4.57-1.8l-2.39,5a14,14,0,0,0,2.22,1A23.23,23.23,0,0,0,328,28.58a.41.41,0,0,1,.38.43Z"/>
    <path class="cls-6" d="M118.1,162.45H50a.44.44,0,0,1-.42-.42.42.42,0,0,1,.42-.43H118.1a.42.42,0,0,1,.42.43h0a.42.42,0,0,1-.42.42Z"/>
    <path class="cls-21" d="M207.83,0H149.34a.42.42,0,0,0-.42.42h0a.42.42,0,0,0,.42.42h58.49a.42.42,0,0,0,.42-.42h0a.42.42,0,0,0-.42-.42Z"/>
    <g>
      <path class="cls-6" d="M201.93,154.54,196.79,149a19.57,19.57,0,0,1-7.4,1.43c-9.19,0-16.67-6.17-16.67-13.74s7.48-13.75,16.67-13.75,16.7,6.17,16.7,13.75a12.68,12.68,0,0,1-5,9.81l1.58,7.7a.42.42,0,0,1-.23.46.37.37,0,0,1-.18.05A.41.41,0,0,1,201.93,154.54Zm-28.32-17.88c0,7.11,7.1,12.9,15.83,12.9a18.52,18.52,0,0,0,7.34-1.48.42.42,0,0,1,.47.1l4.32,4.68-1.33-6.47a.43.43,0,0,1,.1-.39,11.9,11.9,0,0,0,4.9-9.31c0-7.12-7.11-12.9-15.86-12.9S173.61,129.55,173.61,136.66Z"/>
      <g>
        <path class="cls-6" d="M193.72,136.44a2.71,2.71,0,1,1,2.71,2.72h0A2.71,2.71,0,0,1,193.72,136.44Zm.84,0a1.87,1.87,0,1,0,1.87-1.87A1.87,1.87,0,0,0,194.56,136.44Z"/>
        <path class="cls-6" d="M186.55,136.44a2.72,2.72,0,1,1,2.71,2.72h0A2.72,2.72,0,0,1,186.55,136.44Zm.84,0a1.88,1.88,0,1,0,1.87-1.87,1.87,1.87,0,0,0-1.87,1.87Z"/>
        <path class="cls-6" d="M179.39,136.44a2.71,2.71,0,1,1,2.71,2.72h0a2.71,2.71,0,0,1-2.7-2.71Zm.84,0a1.87,1.87,0,1,0,1.87-1.87h0A1.87,1.87,0,0,0,180.23,136.44Z"/>
      </g>
    </g>
    <g>
      <path class="cls-6" d="M360.21,86h-.12a12.28,12.28,0,0,1-12.27-12.3v-.14a12.34,12.34,0,0,1,12.34-12.26h.12a12.33,12.33,0,0,1,12.26,12.34v.09A12.28,12.28,0,0,1,360.24,86h0Zm0-.83h0a11.47,11.47,0,0,0,11.45-11.43v-.09a11.48,11.48,0,0,0-11.42-11.49h-.12a11.46,11.46,0,0,0-11.45,11.43v.1a11.44,11.44,0,0,0,11.41,11.47h.13Z"/>
      <path class="cls-6" d="M360.37,81.87h0a.38.38,0,0,1-.29-.12l-6-6a4.94,4.94,0,0,1,0-6.94,3.65,3.65,0,0,1,2.91-1.1,5.06,5.06,0,0,1,3.35,2.06,5,5,0,0,1,3.35-2.06,3.63,3.63,0,0,1,2.93,1.18,4.77,4.77,0,0,1,1.42,3.47,4.85,4.85,0,0,1-1.44,3.48l-5.95,5.89A.41.41,0,0,1,360.37,81.87ZM356.7,68.51a2.73,2.73,0,0,0-2,.87,4.12,4.12,0,0,0,0,5.75l5.65,5.68,5.69-5.65a4.1,4.1,0,0,0,1.19-2.88h0a4.13,4.13,0,0,0-1.18-2.88,2.68,2.68,0,0,0-2.23-.86,4.46,4.46,0,0,0-3.09,2.21.42.42,0,0,1-.35.18h0a.4.4,0,0,1-.33-.18A4.54,4.54,0,0,0,357,68.52Z"/>
    </g>
    <path class="cls-6" d="M200,182.65a4.45,4.45,0,1,0,4.41,4.49v0A4.46,4.46,0,0,0,200,182.65Zm0,8.06a3.61,3.61,0,1,1,3.61-3.61h0a3.61,3.61,0,0,1-3.61,3.61Z"/>
    <path class="cls-6" d="M46.49,184.22a4.45,4.45,0,1,0,4.44,4.46v0A4.45,4.45,0,0,0,46.49,184.22Zm0,8.05a3.61,3.61,0,1,1,3.6-3.61h0a3.6,3.6,0,0,1-3.6,3.6Z"/>
    <path class="cls-6" d="M152.31,181.47h-3.85a.85.85,0,0,1-.87-.84V176.5h-4.17a.87.87,0,0,1-.86-.86V171.7a.85.85,0,0,1,.86-.86h4.17v-4.17a.87.87,0,0,1,.86-.87h3.86a.86.86,0,0,1,.86.86h0v4.17h4.18a.86.86,0,0,1,.86.86v3.86a.88.88,0,0,1-.86.87h-4.18v4.11a.84.84,0,0,1-.76.93Zm-8.89-9.83a.09.09,0,0,0-.08.08v3.86a.1.1,0,0,0,.08.09h5v4.94s0,.08.06.08h3.88a.06.06,0,0,0,.08-.06v-5h5a.1.1,0,0,0,.08-.09V171.7a.09.09,0,0,0-.08-.08h-5v-5a.08.08,0,0,0-.07-.09h-3.86a.09.09,0,0,0-.09.08h0v5Z"/>
    <path class="cls-6" d="M366.6,42.18h-3.85a.87.87,0,0,1-.87-.86V37.21h-4.17a.88.88,0,0,1-.86-.87V32.46a.88.88,0,0,1,.86-.87h4.17V27.43a.86.86,0,0,1,.86-.87h3.86a.86.86,0,0,1,.87.86h0v4.16h4.17a.88.88,0,0,1,.86.87v3.86a.86.86,0,0,1-.86.86h-4.17V41.3a.87.87,0,0,1-.85.88Zm-8.89-9.84a.1.1,0,0,0-.08.09v3.89a.09.09,0,0,0,.08.08h5v5s0,.07.06.08h3.87a.06.06,0,0,0,.08-.06s0,0,0,0v-5h5a.09.09,0,0,0,.08-.08V32.46a.1.1,0,0,0-.08-.09h-5V27.43a.07.07,0,0,0-.07-.09h-3.86a.07.07,0,0,0-.08.08h0v4.94Z"/>
    <g>
      <g>
        <path class="cls-7" d="M80.13,220.25a.2.2,0,0,0-.06.14V221h1.85a.14.14,0,0,0,.12-.06.2.2,0,0,0,0-.15v-.55H80.26A.16.16,0,0,0,80.13,220.25Z"/>
        <path class="cls-7" d="M69.14,218.34l-2.29,5.14h18l2.58-5.14Zm2.68,4.11a.84.84,0,0,1-.61.29H68.83V222h2.28a.19.19,0,0,0,.16-.08.24.24,0,0,0,.07-.12v-.35H68.83v-1a1,1,0,0,1,.26-.69.84.84,0,0,1,.63-.28h2.36v.76H69.72a.17.17,0,0,0-.16.07.19.19,0,0,0-.07.14v.33h2.59v1a1,1,0,0,1-.24.7Zm3.76-2.27H74.31v2.56H73.6v-2.56H72.29v-.76h3.29Zm3.58,1.57a1,1,0,0,1-.25.69.92.92,0,0,1-.64.3H76.68a.86.86,0,0,1-.63-.3,1,1,0,0,1-.27-.69V220.4a1,1,0,0,1,.27-.69.82.82,0,0,1,.63-.29h2.48Zm3.63-1a.94.94,0,0,1-.25.68.81.81,0,0,1-.3.22l.51,1.11h-.7l-.51-1H80.07v1h-.7v-2.36a1,1,0,0,1,.27-.68.77.77,0,0,1,.62-.28h2.53Z"/>
        <path class="cls-7" d="M76.68,220.19a.16.16,0,0,0-.14.05.24.24,0,0,0,0,.12v1.45a.24.24,0,0,0,0,.12.17.17,0,0,0,.14,0h1.59a.11.11,0,0,0,.13,0,.14.14,0,0,0,.06-.12v-1.62Z"/>
      </g>
      <g class="cls-22">
        <text class="cls-23" transform="translate(68.68 224.58) scale(1.03 1)">CLICK SHOP REPE</text>
        <text class="cls-24" transform="translate(80.79 224.58) scale(1.03 1)">A</text>
        <text class="cls-25" transform="translate(81.72 224.58) scale(1.03 1)">T</text>
      </g>
      <polygon class="cls-5" points="90.17 219.47 88.75 222.31 87.52 219.83 84.68 225.5 81.85 225.5 87.52 214.15 90.17 219.47"/>
      <polygon class="cls-7" points="93.19 219.83 96.03 225.5 93.19 225.5 91.78 222.66 90.36 225.5 87.52 225.5 88.93 222.67 90.36 219.83 93.19 214.15 96.03 214.15 93.19 219.83"/>
      <g>
        <path class="cls-7" d="M76.14,215.67v1.58a.92.92,0,0,1-.11.43,3.72,3.72,0,0,1-.76.41,1.42,1.42,0,0,0-.08-.18l-.1-.15c.14-.07.68-.35.68-.51V215.9Z"/>
        <path class="cls-7" d="M78,216.67a.58.58,0,0,0,.06.26l.06.11h-.18a.91.91,0,0,1-.33.62,1.08,1.08,0,0,1-.62.24.83.83,0,0,0-.13-.36h0a.66.66,0,0,0,.41-.12.67.67,0,0,0,.26-.38H77.1a.75.75,0,0,1-.58-.24.72.72,0,0,1-.19-.52.72.72,0,0,1,.19-.53.81.81,0,0,1,1.15,0,.68.68,0,0,1,.2.52Zm-.37-.3a.35.35,0,0,0-.1-.26.4.4,0,0,0-.57,0l0,0a.32.32,0,0,0-.1.26.4.4,0,0,0,.1.28.39.39,0,0,0,.3.12h.4Z"/>
        <path class="cls-7" d="M79.2,215.61v1.53h-1a.2.2,0,0,1-.14-.06A.17.17,0,0,1,78,217v-.19h.89v-1a.17.17,0,0,1,.16-.19h.16Zm-.57-.41-.29-.28.29-.29.25.24.23-.24.3.29-.3.28-.23-.24Z"/>
        <path class="cls-7" d="M82.65,215.61a.81.81,0,0,1,.1.21.61.61,0,0,1,0,.27v.28a.75.75,0,0,1-.14.48.77.77,0,0,1-.37.25,1.13,1.13,0,0,1-.26,0h-.22a.17.17,0,0,1-.18-.16v.16h-1a.19.19,0,0,1-.13,0,.13.13,0,0,1,0-.13v.18h-1a.22.22,0,0,1-.19-.18v-.19h.92v-.62l.37-.19v.81h.8v-.83l.37-.19v1.1H82a.37.37,0,0,0,.28-.1.36.36,0,0,0,.12-.3v-.28a.34.34,0,0,0,0-.2Z"/>
        <g>
          <path class="cls-7" d="M72.69,216h1.84a.41.41,0,0,1,.3.14.35.35,0,0,1,.1.26v.4H70.49v.37h4.94a.81.81,0,0,1-.13-.48v-.29a.71.71,0,0,0-.2-.53.71.71,0,0,0-.57-.24H72.87a.45.45,0,0,1,.1-.38.38.38,0,0,1,.29-.12H75a1,1,0,0,1,.12-.37H73.27a.81.81,0,0,0-.52.19.73.73,0,0,0-.25.58v.29a.2.2,0,0,0,.06.13A.21.21,0,0,0,72.69,216Z"/>
          <path class="cls-7" d="M72.32,216.77H70.53a.78.78,0,0,1-.47-.13v.29a.13.13,0,0,0,0,.12.16.16,0,0,0,.13.06h2.06Z"/>
        </g>
      </g>
    </g>
    <g>
      <g>
        <path class="cls-7" d="M116.05,255.77a.21.21,0,0,0-.07.15v.55h1.85a.16.16,0,0,0,.13-.06.33.33,0,0,0,0-.14v-.56h-1.8A.17.17,0,0,0,116.05,255.77Z"/>
        <path class="cls-7" d="M105,253.86l-2.3,5.14h18l2.58-5.14Zm2.68,4.11a.83.83,0,0,1-.62.29h-2.36v-.76H107a.17.17,0,0,0,.15-.07.35.35,0,0,0,.08-.13V257h-2.51v-1a.93.93,0,0,1,.26-.69.81.81,0,0,1,.62-.29H108v.76h-2.37a.18.18,0,0,0-.15.08.15.15,0,0,0-.07.14v.33H108v1a1,1,0,0,1-.27.63Zm3.75-2.27h-1.26v2.56h-.71V255.7h-1.32V255h3.29Zm3.55,1.58a1,1,0,0,1-.26.69.83.83,0,0,1-.64.3h-1.55a.83.83,0,0,1-.63-.3,1,1,0,0,1-.26-.69V256a1,1,0,0,1,.26-.69.86.86,0,0,1,.63-.3H115Zm3.63-1a1,1,0,0,1-.26.67.65.65,0,0,1-.3.22l.52,1.11h-.7l-.52-1H116v1h-.7v-2.35a1.06,1.06,0,0,1,.27-.68.85.85,0,0,1,.63-.29h2.53Z"/>
        <path class="cls-7" d="M112.57,255.71a.15.15,0,0,0-.13,0,.29.29,0,0,0,0,.13v1.45a.24.24,0,0,0,0,.12.15.15,0,0,0,.13,0h1.59a.17.17,0,0,0,.14,0,.2.2,0,0,0,.06-.12v-1.63Z"/>
      </g>
      <g class="cls-22">
        <text class="cls-23" transform="translate(104.57 260.1) scale(1.03 1)">CLICK SHOP REPE</text>
        <text class="cls-24" transform="translate(116.69 260.1) scale(1.03 1)">A</text>
        <text class="cls-25" transform="translate(117.62 260.1) scale(1.03 1)">T</text>
      </g>
      <polygon class="cls-5" points="126.07 254.99 124.65 257.84 123.42 255.35 120.58 261.03 117.74 261.03 123.42 249.68 126.07 254.99"/>
      <polygon class="cls-7" points="129.09 255.35 131.93 261.03 129.09 261.03 127.67 258.19 126.25 261.03 123.42 261.03 124.82 258.2 126.25 255.35 129.09 249.68 131.93 249.68 129.09 255.35"/>
      <g>
        <path class="cls-7" d="M112,251.2v1.57a.82.82,0,0,1-.12.43,3.1,3.1,0,0,1-.76.41.89.89,0,0,0-.08-.17l-.09-.15c.13-.08.68-.35.68-.52v-1.39Z"/>
        <path class="cls-7" d="M113.85,252.2a.58.58,0,0,0,.06.26.34.34,0,0,0,.06.12h-.19a.9.9,0,0,1-.32.61,1.12,1.12,0,0,1-.62.25.8.8,0,0,0-.14-.36h0a.79.79,0,0,0,.42-.12.61.61,0,0,0,.25-.38H113a.73.73,0,0,1-.57-.24.77.77,0,0,1-.2-.52.73.73,0,0,1,.2-.54.83.83,0,0,1,1.15,0,.72.72,0,0,1,.19.53Zm-.37-.32a.39.39,0,0,0-.11-.27.4.4,0,0,0-.56,0l0,0a.39.39,0,0,0,0,.54.36.36,0,0,0,.29.13h.41Z"/>
        <path class="cls-7" d="M115.1,251.14v1.53H114a.16.16,0,0,1-.13-.06.15.15,0,0,1,0-.13v-.18h.88v-1a.17.17,0,0,1,.16-.18h.2Zm-.58-.41-.28-.28.28-.3.25.25.24-.25.3.3-.3.28-.24-.24Z"/>
        <path class="cls-7" d="M118.54,251.14a.78.78,0,0,1,.11.2,1.22,1.22,0,0,1,0,.27v.27a.8.8,0,0,1-.15.47.76.76,0,0,1-.37.26h-.47a.19.19,0,0,1-.19-.17v.17h-1a.24.24,0,0,1-.14-.05.33.33,0,0,1,0-.14v.19h-1a.22.22,0,0,1-.18-.19v-.18H116v-.63l.37-.18v.81h.81v-.92l.37-.18v1.1h.4a.39.39,0,0,0,.27-.11.36.36,0,0,0,.13-.29v-.29a.67.67,0,0,0,0-.2Z"/>
        <g>
          <path class="cls-7" d="M108.58,251.5h1.84a.39.39,0,0,1,.4.4v.4h-4.44v.37h5a.82.82,0,0,1-.14-.48v-.31a.76.76,0,0,0-.19-.54.74.74,0,0,0-.58-.23h-1.64a.43.43,0,0,1,.09-.38.43.43,0,0,1,.3-.13h1.74a.85.85,0,0,1,.12-.37h-1.86a.81.81,0,0,0-.53.2.71.71,0,0,0-.24.57v.29a.2.2,0,0,0,.06.14A.24.24,0,0,0,108.58,251.5Z"/>
          <path class="cls-7" d="M108.21,252.3h-1.79a.88.88,0,0,1-.47-.13v.31a.15.15,0,0,0,0,.13.18.18,0,0,0,.14.06h2Z"/>
        </g>
      </g>
    </g>
  </g>
</svg>
