<svg id="Isolation_Mode" data-name="Isolation Mode" xmlns="http://www.w3.org/2000/svg" xmlns:xlink="http://www.w3.org/1999/xlink" width="417.79" height="283.46" viewBox="0 0 417.79 283.46">
  <defs>
    <style>
      .cls-1 {
        fill: #163342;
      }

      .cls-2 {
        fill: #1c4154;
      }

      .cls-3 {
        fill: #609a3e;
      }

      .cls-4 {
        fill: url(#linear-gradient);
      }

      .cls-5 {
        fill: url(#linear-gradient-2);
      }

      .cls-6 {
        fill: #13548d;
      }

      .cls-7 {
        fill: url(#linear-gradient-3);
      }

      .cls-8 {
        fill: url(#linear-gradient-4);
      }

      .cls-9 {
        fill: url(#linear-gradient-5);
      }

      .cls-10 {
        fill: #fff;
      }

      .cls-11 {
        fill: #fd8f1f;
      }

      .cls-12 {
        fill: #78c2ff;
      }

      .cls-13 {
        fill: #a1a1a1;
      }

      .cls-14 {
        fill: url(#linear-gradient-6);
      }

      .cls-15 {
        fill: url(#linear-gradient-7);
      }

      .cls-16 {
        fill: url(#linear-gradient-8);
      }

      .cls-17 {
        fill: url(#linear-gradient-9);
      }

      .cls-18 {
        fill: url(#linear-gradient-10);
      }

      .cls-19 {
        fill: url(#linear-gradient-11);
      }

      .cls-20 {
        fill: url(#linear-gradient-12);
      }

      .cls-21 {
        fill: url(#linear-gradient-13);
      }

      .cls-22 {
        fill: url(#linear-gradient-14);
      }

      .cls-23 {
        fill: url(#linear-gradient-15);
      }

      .cls-24 {
        fill: #eea987;
      }

      .cls-25 {
        fill: #202338;
      }

      .cls-26 {
        fill: #1c4054;
      }

      .cls-27 {
        fill: #f8bb66;
      }

      .cls-28 {
        fill: #f89829;
      }

      .cls-29 {
        fill: #f8c681;
      }

      .cls-30 {
        fill: #d44040;
      }

      .cls-31 {
        fill: #eea886;
      }

      .cls-32 {
        fill: #942d2d;
      }

      .cls-33 {
        fill: #252e3b;
      }

      .cls-34 {
        fill: #a77860;
      }

      .cls-35 {
        opacity: 0.73;
        isolation: isolate;
        fill: url(#linear-gradient-16);
      }

      .cls-36 {
        fill: #e8734d;
      }

      .cls-37 {
        fill: #285173;
      }

      .cls-38 {
        fill: #193247;
      }

      .cls-39 {
        fill: #2a617d;
      }

      .cls-40 {
        fill: #326ea0;
      }

      .cls-41 {
        fill: #d4d8e8;
      }

      .cls-42 {
        fill: #a9adba;
      }

      .cls-43 {
        fill: #215b8a;
      }

      .cls-44 {
        fill: #e6d3cc;
      }

      .cls-45 {
        fill: #23344a;
      }

      .cls-46 {
        fill: #eb4747;
      }

      .cls-47 {
        fill: #ad3434;
      }

      .cls-48 {
        fill: #faa146;
      }

      .cls-49 {
        fill: #b06e2a;
      }

      .cls-50 {
        fill: #db9c7c;
      }

      .cls-51 {
        fill: #bdaea8;
      }

      .cls-52 {
        fill: #995d31;
      }

      .cls-53 {
        fill: #2f4563;
      }

      .cls-54 {
        fill: #32658f;
      }

      .cls-55 {
        fill: #3f74a0;
      }
    </style>
    <linearGradient id="linear-gradient" x1="-1312.56" y1="2344.5" x2="-1312.56" y2="2286.53" gradientTransform="translate(944.9 -2421.69) rotate(-10.45)" gradientUnits="userSpaceOnUse">
      <stop offset="0.01" stop-color="#3c6127"/>
      <stop offset="1" stop-color="#639c38"/>
    </linearGradient>
    <linearGradient id="linear-gradient-2" x1="-7275" y1="4986.65" x2="-7275" y2="4940.91" gradientTransform="matrix(0.7, -0.71, 0.71, 0.7, 1666.45, -8556.45)" xlink:href="#linear-gradient"/>
    <linearGradient id="linear-gradient-3" x1="3090.14" y1="-4225.44" x2="3116.74" y2="-4225.44" gradientTransform="translate(-4560.72 2198.36) rotate(30.67)" xlink:href="#linear-gradient"/>
    <linearGradient id="linear-gradient-4" x1="3080.68" y1="-4213.08" x2="3080.68" y2="-4247.08" gradientTransform="translate(-4560.72 2198.36) rotate(30.67)" xlink:href="#linear-gradient"/>
    <linearGradient id="linear-gradient-5" x1="35.58" y1="915.31" x2="81.54" y2="915.31" gradientTransform="translate(0 -786)" gradientUnits="userSpaceOnUse">
      <stop offset="0" stop-color="#c2c2c2"/>
      <stop offset="1" stop-color="#dedede"/>
    </linearGradient>
    <linearGradient id="linear-gradient-6" x1="259.95" y1="1015.25" x2="317.51" y2="1015.25" gradientTransform="translate(0 -786)" gradientUnits="userSpaceOnUse">
      <stop offset="0" stop-color="#ff9340"/>
      <stop offset="1" stop-color="#ffce45"/>
    </linearGradient>
    <linearGradient id="linear-gradient-7" x1="262.07" y1="1008.17" x2="319.63" y2="1008.17" gradientTransform="translate(0 -786)" gradientUnits="userSpaceOnUse">
      <stop offset="0" stop-color="#f58631"/>
      <stop offset="1" stop-color="#f2c23f"/>
    </linearGradient>
    <linearGradient id="linear-gradient-8" x1="260.91" y1="1001.19" x2="318.48" y2="1001.19" xlink:href="#linear-gradient-6"/>
    <linearGradient id="linear-gradient-9" x1="262.07" y1="994.12" x2="319.63" y2="994.12" xlink:href="#linear-gradient-7"/>
    <linearGradient id="linear-gradient-10" x1="263.03" y1="987.14" x2="320.6" y2="987.14" xlink:href="#linear-gradient-6"/>
    <linearGradient id="linear-gradient-11" x1="261.2" y1="980.06" x2="318.77" y2="980.06" xlink:href="#linear-gradient-7"/>
    <linearGradient id="linear-gradient-12" x1="259.95" y1="973.08" x2="317.51" y2="973.08" xlink:href="#linear-gradient-6"/>
    <linearGradient id="linear-gradient-13" x1="262.26" y1="966.01" x2="319.83" y2="966.01" xlink:href="#linear-gradient-7"/>
    <linearGradient id="linear-gradient-14" x1="264.58" y1="1021.94" x2="322.14" y2="1021.94" xlink:href="#linear-gradient-7"/>
    <linearGradient id="linear-gradient-15" x1="1130.06" y1="-1102.85" x2="1187.97" y2="-1102.85" gradientTransform="translate(-1077.1 993.57) rotate(12.73)" xlink:href="#linear-gradient-6"/>
    <linearGradient id="linear-gradient-16" x1="132.87" y1="986.65" x2="251.18" y2="986.65" gradientTransform="translate(0 -786)" gradientUnits="userSpaceOnUse">
      <stop offset="0" stop-color="#d7e3f5"/>
      <stop offset="1" stop-color="#f2fffe"/>
    </linearGradient>
  </defs>
  <title>Vectors</title>
  <path class="cls-1" d="M114.55,256.73s-1.64,4.85-1.54,5.92,6.07,1.06,6.07,1.06l2-2.81Z"/>
  <path class="cls-2" d="M112.72,261.48a9.51,9.51,0,0,0-1.55,2.72c-.09,1-1.83,5.52-1.15,6.59s5.78,1.26,8.29.87,8.1.49,8.68-.68.86-2.71-.78-3.29-5.49-2.23-6.17-4S112.72,261.48,112.72,261.48Z"/>
  <g>
    <path class="cls-3" d="M82.83,78.36c-7.24,9.5-.1,38.59,1,42.85l.19.49a15.35,15.35,0,0,1-1.54-1c-6.27-4-29.79-20.46-24.59-39.26C63.93,59.75,51.49,64,42.71,43.66s11.19-33,11.19-33C77.14,28.54,90.73,68.09,82.83,78.36Z"/>
    <path class="cls-4" d="M84,121.7a15.35,15.35,0,0,1-1.54-1c-.29-.39-.48-.78-.77-1.17C76.85,111.9,71,101.44,70.39,95.23a85.79,85.79,0,0,1,0-12.21c.38-8.73.77-17.74-3.57-22.78-6.56-7.66-6.75-20.56-6.75-21.14h1c0,.1.2,13.09,6.56,20.46C72.12,64.89,71.74,74.1,71.35,83a84.39,84.39,0,0,0,0,12.11c.58,6.11,6.75,17.07,12.44,26Z"/>
  </g>
  <g>
    <path class="cls-3" d="M84.46,102.11c-2.6,10.38,2.9,16.58,4.73,18.33.19.19.38.29.58.48a9,9,0,0,1-1.64-.1c-7.81-1.06-28-10.37-30.28-23.55C55.25,83,43.68,90.87,34,79,21,62.85,37.7,49.77,37.7,49.77,34.13,56.55,45,73.32,58.82,76.72S87.55,89.9,84.46,102.11Z"/>
    <path class="cls-5" d="M70.87,101.24c1.64,5,3.08,9.79,7.23,11.83a70.49,70.49,0,0,1,11.09,7.37c.19.19.38.29.58.48a9,9,0,0,1-1.64-.1,64,64,0,0,0-10.51-6.88c-4.53-2.23-6.08-7.17-7.71-12.41-1.93-5.91-3.86-12-10.32-14.73A57.3,57.3,0,0,1,40.88,74.39l.77-.68c.1.1,6.27,7.08,18.32,12.21C66.92,88.83,68.94,95.13,70.87,101.24Z"/>
  </g>
  <path class="cls-6" d="M31.05,117.62H0V86.51H31.05ZM1,116.65H30V87.48H1Z"/>
  <g>
    <rect class="cls-6" x="15.04" y="94.55" width="0.96" height="15.03"/>
    <rect class="cls-6" x="8" y="101.63" width="14.95" height="0.97"/>
  </g>
  <rect class="cls-6" x="223.02" y="64.11" width="96.23" height="5.43"/>
  <rect class="cls-6" x="223.02" y="43.85" width="96.23" height="5.43"/>
  <g>
    <path class="cls-3" d="M284.25,151.36c-19.67,3.88-38.86,16.38-42.14,18.51l-.48.3a9.18,9.18,0,0,0-.58-.78c-1.93-2.52-7.71-11.44-6.17-25.4,1.83-16.57,11.09-23,42.33-26.46,22.66-2.52,23-27.34,23-27.73C317.51,123.44,301.12,148,284.25,151.36Z"/>
    <path class="cls-7" d="M250.11,146c-9.54,8.24-8.19,21.81-7.9,23.75l-.48.29s-.2-.29-.58-.78c-.29-3.29-.87-16.09,8.29-24.13,5.5-4.85,14.56-7.86,22.56-10.47,7.33-2.43,14.18-4.66,16.78-7.86l.77.68c-2.7,3.39-9.45,5.62-17.16,8.14S255.51,141.37,250.11,146Z"/>
  </g>
  <g>
    <path class="cls-3" d="M255.71,133.13c-5.5,5.14-11.09,8.73-14.56,7.47l-.58-.29c-2-1.26-3.18-4.56-2.7-10.86,1.06-16.87,11-20.94,20-27.14s3.86-16.09,3.66-16.29C277.69,107.54,265.06,124.51,255.71,133.13Z"/>
    <path class="cls-8" d="M241.15,140.6l-.58-.29c.77-3.39,2.6-9.89,5.78-13.77a69,69,0,0,1,5.21-5.33c3.66-3.39,7.33-6.88,9.55-11.63l.58.29c-2.32,4.85-6.08,8.43-9.74,11.83a50.36,50.36,0,0,0-5.11,5.23C243.65,130.71,241.82,137.3,241.15,140.6Z"/>
  </g>
  <path class="cls-9" d="M235.84,238.9H83.69a10,10,0,0,1-9.93-10V29.7a10,10,0,0,1,9.93-10H235.94a9.94,9.94,0,0,1,9.93,10V228.91A10.09,10.09,0,0,1,235.84,238.9Z"/>
  <rect class="cls-10" x="83.69" y="6.14" width="152.25" height="211.33"/>
  <path class="cls-11" d="M83.69,0V20.59s4,5.81,9,0h9s4.05,5.81,9,0h9s4,5.81,9,0h9s4.05,5.81,9,0h9s4,5.81,9,0h9s4,5.81,9,0h9s4,5.81,9,0h9s4.05,5.81,9,0h9s4.05,5.81,9,0V0Z"/>
  <g>
    <path class="cls-6" d="M92.56,20.59s4,5.81,9,0V0h-9Z"/>
    <path class="cls-6" d="M110.5,20.59s4,5.81,9,0V0h-9Z"/>
    <path class="cls-6" d="M128.43,20.59s4,5.81,9,0V0h-9Z"/>
    <path class="cls-6" d="M146.37,20.59s4,5.81,9,0V0h-9Z"/>
    <path class="cls-6" d="M164.2,20.59s4.05,5.81,9,0V0h-9Z"/>
    <path class="cls-6" d="M182.14,20.59s4.05,5.81,9,0V0h-9Z"/>
    <path class="cls-6" d="M200.07,20.59s4.05,5.81,9,0V0h-9Z"/>
    <path class="cls-6" d="M218,0V20.59s4.05,5.81,9,0V0Z"/>
  </g>
  <polygon class="cls-12" points="394.46 87.57 393.59 97.65 365.34 95.23 366.4 81.95 391.47 84.18 391.66 84.28 394.26 87.48 394.46 87.57"/>
  <polygon class="cls-6" points="394.46 87.57 391.27 87.38 391.56 84.18 391.56 84.18 391.76 84.37 394.26 87.38 394.46 87.57"/>
  <path class="cls-6" d="M382.79,90.09A3,3,0,1,1,380,86.8a3,3,0,0,1,2.8,3.29Z"/>
  <path class="cls-6" d="M389.06,90.58a1.26,1.26,0,1,1-1.16-1.36h0A1.37,1.37,0,0,1,389.06,90.58Z"/>
  <path class="cls-6" d="M370.54,89a1.29,1.29,0,0,1,1.35-1.17h0A1.26,1.26,0,1,1,370.54,89Z"/>
  <polygon class="cls-12" points="412.87 51.22 417.79 60.53 391.76 74.58 385.2 62.37 408.34 49.86 408.53 49.96 412.68 51.22 412.87 51.22"/>
  <polygon class="cls-6" points="412.87 51.22 409.98 52.87 408.34 49.86 408.44 49.96 408.63 49.96 412.58 51.12 412.87 51.22"/>
  <path class="cls-6" d="M404.1,60a3.16,3.16,0,0,1-1.35,4.36,3.11,3.11,0,0,1-4.34-1.35,3.22,3.22,0,0,1,1.25-4.37A3.34,3.34,0,0,1,404.1,60Z"/>
  <path class="cls-6" d="M409.88,56.94a1.33,1.33,0,0,1-.58,1.84h0a1.32,1.32,0,0,1-1.83-.58,1.34,1.34,0,0,1,.58-1.84,1.4,1.4,0,0,1,1.83.58Z"/>
  <path class="cls-6" d="M392.72,66.15a1.33,1.33,0,0,1,2.22-1.46c0,.1.09.1.09.2a1.32,1.32,0,1,1-2.21,1.45C392.82,66.25,392.82,66.25,392.72,66.15Z"/>
  <polygon class="cls-12" points="382.11 46.57 375.75 54.9 352.13 37.07 360.42 26.02 381.44 41.82 381.44 42.01 382.02 46.37 382.11 46.57"/>
  <polygon class="cls-6" points="382.11 46.57 379.41 44.53 381.44 41.91 381.44 42.01 381.44 42.2 382.02 46.28 382.11 46.57"/>
  <path class="cls-6" d="M370.45,42.2a3.11,3.11,0,0,1-4.44.59,3.15,3.15,0,0,1-.58-4.46,3.17,3.17,0,1,1,5,3.87Z"/>
  <path class="cls-6" d="M375.65,46.18a1.36,1.36,0,0,1-1.92.19,1.39,1.39,0,0,1-.2-1.94,1.37,1.37,0,0,1,1.83-.29,1.43,1.43,0,0,1,.29,2Z"/>
  <path class="cls-6" d="M360.23,34.45a1.37,1.37,0,0,1,1.93-.19,1.39,1.39,0,0,1,.19,1.93,1.36,1.36,0,0,1-1.83.3,1.42,1.42,0,0,1-.29-2Z"/>
  <polygon class="cls-12" points="348.94 7.99 354.63 16.81 329.76 32.99 322.33 21.36 344.32 7.01 344.51 7.01 348.75 7.99 348.94 7.99"/>
  <polygon class="cls-6" points="348.94 7.99 346.15 9.83 344.32 7.01 344.41 7.01 344.61 7.11 348.56 7.89 348.94 7.99"/>
  <path class="cls-6" d="M340.94,17.48a3.28,3.28,0,0,1-1,4.46,3.24,3.24,0,0,1-4.44-1,3.22,3.22,0,0,1,5.4-3.49Z"/>
  <path class="cls-6" d="M346.44,13.9a1.39,1.39,0,0,1-.39,1.84,1.37,1.37,0,0,1-1.83-.39,1.39,1.39,0,0,1,.39-1.84h0A1.38,1.38,0,0,1,346.44,13.9Z"/>
  <path class="cls-6" d="M330.14,24.56a1.39,1.39,0,0,1,.39-1.84,1.36,1.36,0,0,1,1.83.39A1.39,1.39,0,0,1,332,25h0a1.38,1.38,0,0,1-1.84-.39Z"/>
  <path class="cls-11" d="M262.75,38.52h77.13a9.53,9.53,0,0,1,9.55,9.6V65.57a9.53,9.53,0,0,1-9.55,9.59H262.75a9.53,9.53,0,0,1-9.55-9.59V48.12A9.53,9.53,0,0,1,262.75,38.52Z"/>
  <g>
    <path class="cls-10" d="M277.5,64.5a6.93,6.93,0,0,1-3.38-.77,10.44,10.44,0,0,1-2.6-1.94,9.63,9.63,0,0,1-2.31-6,7.8,7.8,0,0,1,.67-3.3,7.26,7.26,0,0,1,1.74-2.71,9,9,0,0,1,2.7-1.94,7.84,7.84,0,0,1,3.27-.68,8.26,8.26,0,0,1,3.38.77,10.44,10.44,0,0,1,2.6,1.94,9.17,9.17,0,0,1,1.74,9.31A8.58,8.58,0,0,1,283.57,62a10.2,10.2,0,0,1-2.6,1.94A10.8,10.8,0,0,1,277.5,64.5Zm-4.92-8.63A5.26,5.26,0,0,0,273,58a6.6,6.6,0,0,0,1,1.84,5,5,0,0,0,1.54,1.26,5.26,5.26,0,0,0,2.12.48,4.81,4.81,0,0,0,2-.48,4.87,4.87,0,0,0,1.54-1.26,6.91,6.91,0,0,0,1-1.84,7.74,7.74,0,0,0,.29-2.14,5.53,5.53,0,0,0-.39-2.13,6.73,6.73,0,0,0-1-1.84,4.89,4.89,0,0,0-1.55-1.26,5.16,5.16,0,0,0-2-.49,5.23,5.23,0,0,0-2.12.49,4.89,4.89,0,0,0-1.55,1.26,6.73,6.73,0,0,0-1,1.84,7.72,7.72,0,0,0-.29,2.13Z"/>
    <path class="cls-10" d="M288.39,64.4V47.34h7.24a6.08,6.08,0,0,1,2.21.49,5.56,5.56,0,0,1,1.74,1.26,7.41,7.41,0,0,1,1.16,1.84,5.25,5.25,0,0,1,.38,2,5.76,5.76,0,0,1-.38,2.14,5.07,5.07,0,0,1-1.07,1.84A5,5,0,0,1,298,58.2a5.67,5.67,0,0,1-2.13.48h-4.05V64.4Zm3.28-8.62h3.86a2,2,0,0,0,1.54-.78,3,3,0,0,0,.58-2,5.3,5.3,0,0,0-.19-1.16,3.83,3.83,0,0,0-.49-.87,5.14,5.14,0,0,0-.77-.58,2.69,2.69,0,0,0-.86-.2h-3.67Z"/>
    <path class="cls-10" d="M315.1,61.5v2.9H303.34V47.34h11.57v2.91h-8.29v4.07h7.13V57h-7.13V61.5Z"/>
    <path class="cls-10" d="M321,53.45v11h-3.27V47.34h2.6l8.87,11.25V47.34h3.28V64.4h-2.7Z"/>
  </g>
  <path class="cls-13" d="M165.36,227.55a5.59,5.59,0,1,1-5.59-5.62,5.61,5.61,0,0,1,5.59,5.62Z"/>
  <path class="cls-6" d="M92.76,186.55v.58h8l1.25,5.72,2.22,10.47v.39H116l-.29,1.06H105.29v.59h.58a1.58,1.58,0,0,0-.87,1.84,1.43,1.43,0,1,0,2.7-1,1.49,1.49,0,0,0-.87-.87h7.81a1.44,1.44,0,0,0,1,2.71,1.59,1.59,0,0,0,.87-1.84,1.55,1.55,0,0,0-.87-.87h.58l.38-1.65h1.55v-.39l2.7-12.8v-.77h-19l-.77-3.3Zm22.37,19.29a.78.78,0,1,1-.78.78h0c0-.39.39-.68.78-.78Zm-8.68,0a.78.78,0,1,1-.77.78c-.1-.39.29-.78.77-.78Zm6.94-7.27H109l-.29-3.68h5Zm1-3.59h4.92l-.77,3.69h-4.43Zm-5.88-4.36h5.6l-.29,3.59h-5.11Zm-.38,3.59H103l-.77-3.59h5.59Zm5.3,5.13-.29,3.59h-3.86l-.28-3.59ZM108.67,203h-3.86l-.77-3.59h4.34Zm-4.73-4.46-.77-3.59h4.92l.29,3.69-4.44-.1Zm16.39-7.95-.77,3.59h-5.11l.29-3.59ZM117.63,203h-3.85l.29-3.59h4.33Z"/>
  <rect class="cls-6" x="96.42" y="132.94" width="84.66" height="3.39"/>
  <rect class="cls-6" x="96.42" y="141.96" width="74.53" height="3.39"/>
  <path class="cls-11" d="M125.25,189.75a4.44,4.44,0,1,1-4.43-4.46h0a4.49,4.49,0,0,1,4.43,4.46Z"/>
  <path class="cls-6" d="M124.67,70.51h-25a5,5,0,0,1-5-5h0V40.27a5,5,0,0,1,5-5.05h25a5,5,0,0,1,5,5.05v25.1A5.15,5.15,0,0,1,124.67,70.51Zm-25-33.83a3.57,3.57,0,0,0-3.57,3.59v25.1A3.57,3.57,0,0,0,99.7,69h25a3.64,3.64,0,0,0,3.57-3.59V40.27a3.57,3.57,0,0,0-3.57-3.59Z"/>
  <path class="cls-6" d="M95.36,60.14h33.55v4.94a4.63,4.63,0,0,1-4.53,4.66H100a4.65,4.65,0,0,1-4.63-4.66V60.14Z"/>
  <rect class="cls-6" x="134.12" y="43.66" width="45.41" height="2.23"/>
  <rect class="cls-6" x="134.12" y="53.74" width="58.91" height="2.23"/>
  <rect class="cls-6" x="134.12" y="48.7" width="23.24" height="2.23"/>
  <path class="cls-6" d="M124.67,117h-25a5,5,0,0,1-5-5h0V86.89a5,5,0,0,1,5-5h25a5,5,0,0,1,5,5V112A5.05,5.05,0,0,1,124.67,117Zm-25-33.83a3.57,3.57,0,0,0-3.57,3.59v25.1a3.57,3.57,0,0,0,3.57,3.59h25a3.57,3.57,0,0,0,3.57-3.59h0v-25a3.57,3.57,0,0,0-3.57-3.58Z"/>
  <rect class="cls-6" x="134.12" y="90.29" width="54.77" height="2.23"/>
  <rect class="cls-6" x="134.12" y="100.27" width="34.42" height="2.23"/>
  <rect class="cls-6" x="134.12" y="95.23" width="21.02" height="2.23"/>
  <path class="cls-6" d="M95.36,106.67h33.55v4.94a4.64,4.64,0,0,1-4.62,4.66H99.89a4.65,4.65,0,0,1-4.63-4.66v-4.94Z"/>
  <path class="cls-11" d="M143.28,61.5a3,3,0,0,0-3.18.77,3,3,0,0,0-3.18-.77,2,2,0,0,0-1.55,2.23c.2,2.9,4.83,6.1,4.83,6.1s4.53-3.1,4.82-6.1C144.82,63.73,145.21,62.17,143.28,61.5Z"/>
  <path class="cls-11" d="M156.68,61.5a3,3,0,0,0-3.18.77,2.79,2.79,0,0,0-3.18-.77,1.93,1.93,0,0,0-1.54,2.23c.19,2.9,4.82,6.1,4.82,6.1s4.53-3.1,4.82-6.1A2.37,2.37,0,0,0,156.68,61.5Z"/>
  <path class="cls-11" d="M169.89,61.5a3,3,0,0,0-3.18.77,2.79,2.79,0,0,0-3.18-.77A1.93,1.93,0,0,0,162,63.73c.19,2.9,4.82,6.1,4.82,6.1s4.53-3.1,4.82-6.1C171.44,63.73,171.82,62.17,169.89,61.5Z"/>
  <path class="cls-11" d="M183,61.5a3,3,0,0,0-3.19.77,2.79,2.79,0,0,0-3.18-.77,1.93,1.93,0,0,0-1.54,2.23c.19,2.9,4.82,6.1,4.82,6.1s4.53-3.1,4.82-6.1A2.35,2.35,0,0,0,183,61.5Z"/>
  <path class="cls-11" d="M196.31,61.5a3,3,0,0,0-3.18.77A2.79,2.79,0,0,0,190,61.5a1.93,1.93,0,0,0-1.54,2.23c.19,2.9,4.82,6.1,4.82,6.1s4.53-3.1,4.82-6.1C197.85,63.73,198.24,62.17,196.31,61.5Z"/>
  <path class="cls-11" d="M143.28,108.71a3,3,0,0,0-3.18.77,2.79,2.79,0,0,0-3.18-.77,2,2,0,0,0-1.55,2.23c.2,2.9,4.83,6.1,4.83,6.1s4.53-3.1,4.82-6.1C144.82,110.84,145.21,109.38,143.28,108.71Z"/>
  <path class="cls-11" d="M156.68,108.71a3,3,0,0,0-3.18.77,2.79,2.79,0,0,0-3.18-.77,1.93,1.93,0,0,0-1.54,2.23c.19,2.9,4.82,6.1,4.82,6.1s4.53-3.1,4.82-6.1A2.3,2.3,0,0,0,156.68,108.71Z"/>
  <path class="cls-11" d="M169.89,108.71a3,3,0,0,0-3.18.77,2.79,2.79,0,0,0-3.18-.77,1.93,1.93,0,0,0-1.54,2.23c.19,2.9,4.82,6.1,4.82,6.1s4.53-3.1,4.82-6.1C171.44,110.84,171.82,109.38,169.89,108.71Z"/>
  <polygon class="cls-6" points="218.2 99.88 205.66 99.88 205.66 98.92 217.24 98.92 217.24 51.41 205.66 51.41 205.66 50.44 218.2 50.44 218.2 99.88"/>
  <g>
    <rect class="cls-14" x="259.95" y="225.71" width="57.56" height="7.08"/>
    <rect class="cls-15" x="262.07" y="218.64" width="57.56" height="7.08"/>
    <rect class="cls-16" x="260.91" y="211.66" width="57.56" height="7.08"/>
    <rect class="cls-17" x="262.07" y="204.58" width="57.56" height="7.08"/>
    <rect class="cls-18" x="263.03" y="197.6" width="57.56" height="7.08"/>
    <rect class="cls-19" x="261.2" y="190.52" width="57.56" height="7.08"/>
    <rect class="cls-20" x="259.95" y="183.54" width="57.56" height="7.08"/>
    <rect class="cls-21" x="262.26" y="176.47" width="57.56" height="7.08"/>
    <rect class="cls-22" x="264.58" y="232.4" width="57.56" height="7.08"/>
    <polygon class="cls-23" points="267.66 169 325.23 170.46 325.13 177.44 267.47 176.08 267.66 169"/>
  </g>
  <g>
    <path class="cls-24" d="M312.5,149s-1.35-1.55-.77-2.61a4.48,4.48,0,0,0,.09-2.53c0-.58.68-1.93-.09-1.93s-1.26,2.52-1.45,3.1-1.73-1.84-2.31-2-4.53,2.52-3.28,4.07,3.28,2.52,3.47,2.82.87,1.26.87,1.26Z"/>
    <path class="cls-25" d="M307.48,263.13s-3.27,3.3-6.07,3.59-6,1.45-6.36,3.49,8.19,4.36,11.66,2.71c5.11-2.42,6.56-1.45,7.33-3s.58-6.69.77-7.27S307.48,263.13,307.48,263.13Z"/>
    <path class="cls-25" d="M364.66,253.92s-1,4.46-3,6.21-4.14,4.26-3.37,6.3,8.1,1.74,10.8-3.59c1.64-3.39,3.56-4,3.47-5.62s-2.7-5.33-2.89-5.82S364.66,253.92,364.66,253.92Z"/>
    <path class="cls-26" d="M329.28,189.84s-11.19,23.27-13.7,29.18a82.24,82.24,0,0,0-5,19.1c-.39,4.85-5,24.43-5.3,25.88s9.74.59,9.74.59,8.67-33.45,11-38.2c1.54-3.2,13.11-24.23,14.17-22.88s7.23,17.06,8,20.85,15.05,31.79,15.05,31.79,6.65-.48,8-3c0,0-10.61-28.41-11.86-33.64-.58-2.62-2.8-19.2-5.59-32C352.42,180.93,329.28,189.84,329.28,189.84Z"/>
    <g>
      <path class="cls-27" d="M277.88,125a29.57,29.57,0,1,1,34.23,24.14A29.69,29.69,0,0,1,277.88,125Z"/>
      <path class="cls-27" d="M313.85,148.74,303.63,90.29a29.74,29.74,0,0,1,10.22,58.45Z"/>
      <path class="cls-27" d="M277.88,125A29.8,29.8,0,0,1,295,92.71l9.93,56.81A29.79,29.79,0,0,1,277.88,125Z"/>
      <path class="cls-28" d="M284.54,119.27a22.47,22.47,0,1,1,21.88,23.17A22.55,22.55,0,0,1,284.54,119.27Z"/>
      <path class="cls-29" d="M315.29,116.85a3.36,3.36,0,0,0-.67-1,5.65,5.65,0,0,0-1.06-1.07,14.81,14.81,0,0,0-1.45-1.06c-.58-.29-1.06-.59-1.73-.88l-1.93,6.6.58.29a26.9,26.9,0,0,1,2.79,1.84,9.1,9.1,0,0,1,1.93,1.94,5.15,5.15,0,0,1,1,2.23,6.62,6.62,0,0,1-.29,2.71A7.39,7.39,0,0,1,313,131.2a5,5,0,0,1-2.22,1.45A6.85,6.85,0,0,1,308,133a10.91,10.91,0,0,1-3.09-.49l-1,3.3-1.64-.49,1-3.39a16.71,16.71,0,0,1-4.05-2.23,13.8,13.8,0,0,1-3.08-3.2l2.5-2.52a8.81,8.81,0,0,0,.78,1.17,15.38,15.38,0,0,0,1.25,1.35c.58.49,1.16,1,1.73,1.36a19.85,19.85,0,0,0,2,1.07l1.93-6.6a.54.54,0,0,0-.39-.19l-.38-.19a26,26,0,0,1-2.61-1.85,6.24,6.24,0,0,1-1.73-1.84,4.58,4.58,0,0,1-.77-2,5.23,5.23,0,0,1,.29-2.43,8.1,8.1,0,0,1,1.35-2.61,6.91,6.91,0,0,1,2.12-1.65,8.44,8.44,0,0,1,2.7-.68,8.29,8.29,0,0,1,3.08.29l1-3.2,1.63.49-1,3.19a13,13,0,0,1,3.57,1.94,13.21,13.21,0,0,1,2.51,2.62Zm-10.6-2.33a2.28,2.28,0,0,0,.29,2.23,10.32,10.32,0,0,0,2.5,2l1.84-6.21a4.33,4.33,0,0,0-3.09,0,2.86,2.86,0,0,0-1.54,1.94Zm6,13.28a2.45,2.45,0,0,0-.49-2.42,11.71,11.71,0,0,0-2.7-2.23l-1.83,6.3a5.35,5.35,0,0,0,3.28.19,2.56,2.56,0,0,0,1.74-1.84Z"/>
    </g>
    <path class="cls-30" d="M357.62,154.46s-3.85,11.63-3.76,14.35S351.74,155.33,357.62,154.46Z"/>
    <path class="cls-30" d="M330.34,158.73c-.39,1.16-.87,2.42-1.35,3.49h0c-.39.77-.77,1.45-1.16,2.23-.1.09-.19.29-.29.38a16,16,0,0,1-1,1.36,6.6,6.6,0,0,1-4.15,2.62c-3.28.29-15-17.84-15-17.84l5.59-2.52s7.43,10.86,8.58,10.28,2.41-4.95,2.41-4.95c1.35-.77,3.47,1.36,4.82,3.1l.29.3A10,10,0,0,1,330.34,158.73Z"/>
    <path class="cls-30" d="M354.44,189.36c-6.36,5.72-26.71,3.88-26.71,3.88.29-.68,2.32-22.1,1.64-26.85s-.29-8.92-1-9.12-5-1.74-5-1.74,2.32-7.47,3.28-9.11,8-4,8-4a27.29,27.29,0,0,1,11.18-1.26c9.64,1.16,10.8,4,10.8,4-2.7,17.06-2.22,13.37-2.32,16.77-.19,4.65-.48,14.44-.57,16.86A100.33,100.33,0,0,0,354.44,189.36Z"/>
    <path class="cls-24" d="M347.4,141.37a12.87,12.87,0,0,1-1.25,1.94c-3,3.88-6.46,3.78-6.46,3.78a4.55,4.55,0,0,1-3.86-2.81,8.16,8.16,0,0,1-.58-2l1.26-.49a6.1,6.1,0,0,0,.19-1.26v-1.94a19.22,19.22,0,0,0-.1-1.94s9.07-4.94,8.39-1.45a9.82,9.82,0,0,0-.09,3.78,3.06,3.06,0,0,0,1.15,1.94C346.92,141.18,347.4,141.37,347.4,141.37Z"/>
    <path class="cls-31" d="M321.27,148.45a2,2,0,0,1-.58-1c-.09-1,.87-2.13-.19-3s-4.92,1.74-5.3,2.52.67,2.32,3.08,3.87S321.27,148.45,321.27,148.45Z"/>
    <path class="cls-31" d="M320.79,144.77c-.67-1.26-1.35-2.52-2.12-3.69-1.06-1.64-2.6-3.39-3.09-3.1s.78,1.65,1.74,3.3.48,1.35.48,1.35.1,0-1.16-1.45-3.18-3.39-3.56-3c-.29.19-.29.19.09.87-.29-.39-.48-.29-.67-.2-.87.68.87,3.4,1.54,4.46-.48-.87-1-1.35-1.25-.68s2.31,4.56,3.08,6S320.79,144.77,320.79,144.77Z"/>
    <path class="cls-30" d="M357.43,156.11c4.15-5-1.16-11.44-1.16-11.44-3-2.62-9.45,8.43-10.31,9.5s-7.14,6.69-8.87,8.63c-.87,1-4.73-3.2-6.37-4.85-1.06-1-9.16-10.57-9.16-10.57l-5.11,3.69c.48-.39,16.59,20.84,19.58,20.94C335.93,172.1,347.4,168.32,357.43,156.11Z"/>
    <path class="cls-32" d="M327.83,164.45c-.1.09-.19.29-.29.38a16,16,0,0,1-1,1.36c-.78-1-3.67-7.56-3.76-7.66Z"/>
    <path class="cls-32" d="M352.9,161.05a73.06,73.06,0,0,1-8,6.4c-2.8,1.75-7.52,4.07-8,4.27C336.89,171.72,349.23,169.29,352.9,161.05Z"/>
    <path class="cls-31" d="M331.78,123.73s-1.93,3.69-1,4.27c.77.48-1,4.07-1.16,4.65s1.45,1.07,1.83,1.36,1.45,5,2.8,5.23,7.71-2,9.45-3.88,3.08-9.88,1.93-13.28S335.25,117.33,331.78,123.73Z"/>
    <path class="cls-33" d="M331.3,124.6a5.55,5.55,0,0,1,1.64-6.88c3.66-2.91,10.41,2.23,11.18,2.42s5.11.49,2.9,8.15c-1.83,6.59-2.12,6.78-2.12,6.78s-1.45-3.78-2.22-4.36c-1.26-.87-4-.68-4-.68s1.26-3.49-.77-4S333.42,123.83,331.3,124.6Z"/>
    <path class="cls-31" d="M340.94,128c.2-.49.77-2.52,2.51-1.36s-1.06,5-1.35,5S339.5,132,340.94,128Z"/>
    <path class="cls-34" d="M343.45,135.65s-1.45,2.91-6.75,4.85v-1.65A21.38,21.38,0,0,0,343.45,135.65Z"/>
  </g>
  <path class="cls-35" d="M139.23,154.46H244.81a6.45,6.45,0,0,1,6.37,6.4v79.59a6.45,6.45,0,0,1-6.37,6.4H139.23a6.44,6.44,0,0,1-6.36-6.4V160.86A6.37,6.37,0,0,1,139.23,154.46Z"/>
  <g>
    <rect class="cls-6" x="188.31" y="167.06" width="51.87" height="23.75"/>
    <g>
      <path class="cls-11" d="M208,180.93a3.08,3.08,0,0,1-.29,1.26,2.35,2.35,0,0,1-.77.87,6.28,6.28,0,0,1-1.16.58,7.16,7.16,0,0,1-1.35.19H199V172.69h5.88A1.88,1.88,0,0,1,206,173a2.54,2.54,0,0,1,.78.68,4.19,4.19,0,0,1,.48.87,3.71,3.71,0,0,1,.19,1.06,2.88,2.88,0,0,1-.39,1.56,2.4,2.4,0,0,1-1.15,1.06,2.86,2.86,0,0,1,1.54,1.07A1.78,1.78,0,0,1,208,180.93Zm-6.75-6.4v2.81h2.89a1.25,1.25,0,0,0,1-.39,1.68,1.68,0,0,0,0-2.13,1.42,1.42,0,0,0-.87-.39Zm4.63,6a1.17,1.17,0,0,0-.1-.58c-.1-.2-.19-.29-.29-.49s-.29-.29-.38-.29a.87.87,0,0,0-.49-.1h-3.37V182h3.18a1.31,1.31,0,0,0,.58-.09c.19-.1.29-.2.48-.3a2,2,0,0,0,.29-.48c0-.19.1-.39.1-.58Z"/>
      <path class="cls-11" d="M214.34,182a2.63,2.63,0,0,0,1.26-.29,6,6,0,0,0,.86-.77,5.83,5.83,0,0,0,.49-1.17,6.81,6.81,0,0,0,.09-1.35v-5.72h2.12v5.72a7.86,7.86,0,0,1-.29,2.13,4.89,4.89,0,0,1-.86,1.74,3.7,3.7,0,0,1-1.55,1.17,4.25,4.25,0,0,1-2.21.38,4.33,4.33,0,0,1-2.22-.48,4.63,4.63,0,0,1-1.54-1.26,5.74,5.74,0,0,1-.87-1.75,7.43,7.43,0,0,1-.29-2v-5.72h2.12v5.72a6.28,6.28,0,0,0,.1,1.36,2.93,2.93,0,0,0,.48,1.16,2.2,2.2,0,0,0,.87.77A3.09,3.09,0,0,0,214.34,182Z"/>
      <path class="cls-11" d="M222.63,172.69l2.7,5.42,2.8-5.42h2.31l-4,7.27v3.87h-2.13v-4l-4.05-7.27Z"/>
    </g>
  </g>
  <rect class="cls-6" x="141.16" y="167.06" width="39.92" height="3.39"/>
  <rect class="cls-6" x="141.16" y="174.92" width="29.79" height="3.39"/>
  <rect class="cls-6" x="141.16" y="182.86" width="33.84" height="3.39"/>
  <path class="cls-6" d="M241.15,240.54h-101V197.7H241.05v42.84Zm-99-1.93h97v-39h-97Z"/>
  <path class="cls-31" d="M189.85,145.64s6.75,1.26,6.85,7-5.21,14.06-8.58,13.47-7.24-3.68-7.14-7.17,1.06-8,2.7-10.57A6.53,6.53,0,0,1,189.85,145.64Z"/>
  <path class="cls-36" d="M181.17,156.3s0,1.17,2.32,2.14,6.55-.39,7.62-.2,1.35-.29,1.35-.29l.09,1.16.87.59s.67-3,2.51-3.3,3.47-9-4.73-10.66c0,0-6.07-1.65-7.62,1.45S180.88,154.07,181.17,156.3Z"/>
  <path class="cls-31" d="M202.48,190.72a2.16,2.16,0,0,0,1.06-.49c.68-.68.78-2.13,2-2.23s2.6,4,2.31,4.85-2,1.55-4.82,1.36S202.48,190.72,202.48,190.72Z"/>
  <path class="cls-31" d="M205.09,188.1a29.08,29.08,0,0,1,3.95-1.75c1.83-.67,4.15-1.26,4.43-.87.58.68-1.63,1.26-3.47,2l-1.35.58s-.09,0,1.84-.49c2.12-.48,4.33-.87,4.62-.48.1.19.39.87-.48.87.48-.09.39-.19.39,0,.19,1-2.8,2.23-4,2.72.87-.39,1.64-.58,1.35.19s-4.62,2.33-6.07,3.1S205.09,188.1,205.09,188.1Z"/>
  <path class="cls-37" d="M173.17,162.6a45.92,45.92,0,0,0-7.23,0c-3,.3-7.14,2.72-9.55,3.49s-8.48,4.75-8.29,5.34a41.56,41.56,0,0,0,6.85,12.5C158.52,188.49,173.17,162.6,173.17,162.6Z"/>
  <path class="cls-38" d="M164,165.22s-4.53,3.39-6.17,6.5a24,24,0,0,0-2.12,6.78Z"/>
  <path class="cls-2" d="M167.48,266a8.7,8.7,0,0,0,2,1.74c.77.39,9.74,1.94,10.31,2.62s.58,3.59-1.73,3.59H166.81c-1.26,0-6.75,1.16-7.33,0s-.48-6.5.48-7.76S167.48,266,167.48,266Z"/>
  <path class="cls-39" d="M167.19,264.39l.29,1.65s-2.41,1.07-7.52.29v-1.65Z"/>
  <path class="cls-31" d="M181,159.41s-4,3.49-5.21,3.19,4,7.37,4,7.37,4.92-4.85,6.08-5S181,159.41,181,159.41Z"/>
  <path class="cls-37" d="M181.27,173.17c-1.35.87-1.64,1.07-1.45,5.14s1.84,7.17,1.93,8.34,2.32,12,3,12.6,7.91-.78,9.35-1.26c2.22-.68,11.57-3.88,11.57-3.88l-2-4.27s-11.76,2.62-12.15,1.75-1.35-8.73-1.64-10.37.19-4.37-1.73-8.34C186.19,169.29,181.27,173.17,181.27,173.17Z"/>
  <path class="cls-40" d="M167.48,203.32s2.51,2.71,3.18,3.49a135.72,135.72,0,0,1,12.06,18.71c.77,1.94-4.05,15.41-6,20.07-1.06,2.42-7.91,19.48-7.71,19.87s-7.33.58-10.61-1.07c0,0,4.82-14.35,5.88-17.16,1.54-4.26,6.85-16,7-17.16s-8.58-10.56-11.57-12.4-10-8.15-10.9-9-5.4-3-5-7.17a14.19,14.19,0,0,1,3.47-7.37Z"/>
  <path class="cls-40" d="M154.37,213.5l-1.06,2.91c-1.35,3.68-3.57,9.5-3.95,10.47-.58,1.35-3.28,7.27-4.54,8.33s-22.66,27-22.75,27.15-10.22-1.46-10.7-3c0,0,13.78-17.74,15.62-20s5.49-5.52,6.75-10.86,10.12-25.59,10.22-26.36c0,0,1.44-6.21,3.47-8.15s9.64.29,10.89,4.27S154.37,213.5,154.37,213.5Z"/>
  <path class="cls-41" d="M175.39,162.6l1.73-.67a13,13,0,0,1,6.85,4.46l-.19,1.06C183.78,167.55,177.12,166.09,175.39,162.6Z"/>
  <path class="cls-42" d="M182,188.2a4.23,4.23,0,0,1-.87,1l-.48.38h0L180.5,183l1,2.91A18.92,18.92,0,0,1,182,188.2Z"/>
  <path class="cls-43" d="M154.37,213.5l-1.06,2.91c-1.45-1.65-4.73-8-4.73-8,.2.19.87.78,1.06,1S154.37,213.5,154.37,213.5Z"/>
  <path class="cls-31" d="M191.49,157.66c.19-.48-.19-2.42-1.45-1.36s-1.25,3.49-.48,3.69S191.11,158.92,191.49,157.66Z"/>
  <path class="cls-36" d="M187,147s-5.88-4.17-5.88,10.08Z"/>
  <path class="cls-37" d="M182,188.2a4.23,4.23,0,0,1-.87,1l-.48.38h0a68.72,68.72,0,0,1-7,4.85c-1.92,1.07-5.49,9.79-5.49,9.79s-17-1.16-20.83-10a81.19,81.19,0,0,1,5.3-9.89c2.51-3.68,8-16.87,11-18.81s5.4-3.1,11.18-2.91a12.06,12.06,0,0,1,9,4.75s4.43,4.75,4.82,7.27C189,176.76,184.16,185.09,182,188.2Z"/>
  <path class="cls-10" d="M120.62,187.32h0l-1.15.59-.2-.68,1.45-.78h.77V193h-.87Z"/>
  <path class="cls-44" d="M59.2,182.19l.2.29h0l1.06,1.35c2.7,3.2,8.67,10.18,10.89,11.44,1.64.88,1.83-1.84.29-3.58-1.45-1.55-7-11.64-9.26-13.77-1.06-1.07-2.5-10.95-2.5-10.95s-1.35,8.24-1.16,9.21S58.24,180.93,59.2,182.19Z"/>
  <path class="cls-31" d="M66,273.31,65,270H61.23v3.59C61.23,273.5,66.92,275.73,66,273.31Z"/>
  <path class="cls-31" d="M71.64,191.49s1,1.26,1.45,1.36,1.06,1,1.44,1.26,1.74.39,2,.78c.29.58.58,1.16.87,1.64.29.29,1,.78.77,1.07s-1,0-1,0a.44.44,0,0,1,.1.58c-.29.58-.68.58-.68.58s.1.49-.09.68a.87.87,0,0,1-.77.39c-.1.19-.2.48-.39.58a1,1,0,0,1-.87.1s-.48.48-.77.39a5.15,5.15,0,0,1-.77-.59A12.64,12.64,0,0,1,70.68,196a9.34,9.34,0,0,0-1.55-3.29Z"/>
  <g>
    <path class="cls-45" d="M71,205.84c-.1-.1-1.55-3.39-.49-6a4.48,4.48,0,0,1,2.7-2.42,5.69,5.69,0,0,1,5,.29,7.91,7.91,0,0,1,3.08,3.78,9.77,9.77,0,0,1,.77,2.42l.1.29L71,206Zm7-7.66a5.35,5.35,0,0,0-4.53-.29A3.77,3.77,0,0,0,71.06,200c-.87,1.94.1,4.66.39,5.33l10.22-1.64C81.38,202.74,80.42,199.64,78,198.18Z"/>
    <polygon class="cls-46" points="100.57 235.6 64.7 240.25 58.62 207.29 96.13 200.8 100.57 235.6"/>
    <polygon class="cls-47" points="109.05 233.18 96.13 200.8 100.57 235.6 104.33 233.37 109.05 233.18"/>
  </g>
  <g>
    <path class="cls-45" d="M69.33,205.45c-.1-.19-1.06-3.88.58-6.3a4.58,4.58,0,0,1,3.27-2,6.31,6.31,0,0,1,5.21,1.16,8,8,0,0,1,2.6,4.46,11.77,11.77,0,0,1,.39,2.61v.3h-12ZM78,198.76a5.55,5.55,0,0,0-4.72-1.06,4,4,0,0,0-2.89,1.74c-1.26,1.94-.68,4.85-.58,5.62H80.7c0-1-.48-4.46-2.7-6.3Z"/>
    <polygon class="cls-48" points="95.07 241.61 56.89 240.35 56.21 204.87 96.42 204.68 95.07 241.61"/>
    <polygon class="cls-49" points="104.23 240.54 96.42 204.68 95.07 241.61 99.31 239.96 104.23 240.54"/>
  </g>
  <path class="cls-50" d="M77,197.41s-1.35-1.85-2.22-1.94-.29.68-.29.68-.48-.68-1.06-.39,0,1.06,0,1.06a.73.73,0,0,0-1,0h0c-.48.49.19,1.07.19,1.07s-1.06-.29-.87.58a3.37,3.37,0,0,0,1.74,2.23s.38.2.77-.39a1,1,0,0,0,1.25-.48c0-.1,0-.1.1-.19s1.16-.1.87-1.07a.8.8,0,0,0,.67-1Z"/>
  <path class="cls-44" d="M72.51,192.56s-2,.68-2.6,1.84a17.51,17.51,0,0,0-1.74-2L71.26,191Z"/>
  <path class="cls-51" d="M59.4,182.38h0L61,184.32S60,175.3,60,174.14A60.06,60.06,0,0,0,59.4,182.38Z"/>
  <path class="cls-52" d="M40.88,130.23a4.39,4.39,0,0,0-4.82,2c-1.54,2.91,4.73,11.83,2,15.51-2.32,3.2-4.44,1.55-4.44,1.55s4.44,4.85,8.29-.87c2.32-3.39,1.26-7.17,1.16-10.27S40.88,130.23,40.88,130.23Z"/>
  <path class="cls-53" d="M66,273.31s.87,2.33,2.12,2.91,4,3.1,5,3.29,3.76.39,3.85,1.75-.19,2.71-5.4,1.94A38.67,38.67,0,0,1,61.23,280s-1.06-5.43.67-8.05S66,273.31,66,273.31Z"/>
  <path class="cls-53" d="M32.78,267a11.89,11.89,0,0,0,1,3.1c.58.78,1.44,4.17,2.6,5.33s4.15,3.59,3.28,4.85-7.23-.39-9.45-4.17-3-4.26-2.7-5.33,2.41-5,2.41-5.53S32.78,267,32.78,267Z"/>
  <path class="cls-31" d="M33.65,265.26a5.19,5.19,0,0,0-1,1.75c-.2.58-1.55.87-2.7-.49a2.08,2.08,0,0,1-.29-1.35,9.64,9.64,0,0,1,1-2.81Z"/>
  <path class="cls-54" d="M49.37,210.59c.19,1,1.44,4.94,2.89,9.4h0c1.25,4.07,2.7,8.53,3.57,11.34.29,1.07.58,1.94.67,2.43.77,3.39-.09,8.63-.38,13s4.43,26.08,4.43,26.08c1.16.48,6.08-.88,6.08-.88-.77-1.55-1.93-28.5-1.45-30.15a24,24,0,0,0,.29-8.33,7.3,7.3,0,0,1-.19-1.46c0-2.32.48-6.2.77-10.47.38-5.33-1.74-18.71-2-19.87a4.71,4.71,0,0,1-.09-.48c-.58-1.85-2.32-7.18-2.32-7.18a17.9,17.9,0,0,0-8.29-.87,6.25,6.25,0,0,0-4.82,4.17C46.67,202.06,49.08,209.33,49.37,210.59Z"/>
  <path class="cls-55" d="M29.12,264.68l4.82,2c.68-3,14.27-23.75,15.14-26.08a35.71,35.71,0,0,0,1.83-8.43,9.38,9.38,0,0,1,.1-1.46c.19-2.52.58-7.17,1.25-10.85.1-.68.29-1.36.39-1.94.67-3.1.86-13.87.86-20.26V193l-.19-.1c-1.35-1.07-10-7.27-13-1.45a17.18,17.18,0,0,0-1.63,4.94,58,58,0,0,0-.2,17.35c.68,4.66,2.89,10.67,3.28,15.61.19,2.71.1,4.85-.48,5.91-1.74,3-3.38,5.53-6.85,16C33.27,254.79,29.12,264.68,29.12,264.68Z"/>
  <path class="cls-31" d="M48.6,129s6.75.19,7,10-1.83,11.83-7.81,9.79-7.9-12.21-8-13.86S39.34,127.71,48.6,129Z"/>
  <path class="cls-44" d="M36.45,162c0,3.4,3.85,11.44,4.43,13.87s1.55,3.29.77,6.49-3.27,14-3.18,14.83,22.08,4.46,25.36,3.78c0,0-4-15.22-4.34-16.86s.39-8.24.48-10.09,2-5.81,1.93-7.65-1-3.49-2.22-5.53A20,20,0,0,0,58.43,159a30.18,30.18,0,0,0-3.37-4.46,7.39,7.39,0,0,0-1.35-1.07h0a5.08,5.08,0,0,0-1.45-.77l-5.88-1s-3.67,1.35-5.79,1.84C40.59,153.69,36.54,154.27,36.45,162Z"/>
  <path class="cls-44" d="M53.71,153.49l3.37,5.43,3.18,4.94a15,15,0,0,1-.58-3c-.09-.39-.09-.87-.19-1.36,0-.19-.09-.29-.09-.48h0c-1.35-3.1-5.6-5.43-5.69-5.53Z"/>
  <path class="cls-31" d="M43.87,144.38c.58,1.16,1.26,8.14,1.26,8.14s8.38,3.2,7.52,1.36a5.63,5.63,0,0,1-.49-2.81,10.34,10.34,0,0,1,.1-1.75V149S43.29,143.22,43.87,144.38Z"/>
  <path class="cls-34" d="M47.44,148.64c1.25,1.94,4.63,2.43,4.63,2.43h0a11.47,11.47,0,0,1,.09-1.75A8.86,8.86,0,0,1,47.44,148.64Z"/>
  <path class="cls-44" d="M59.3,159h0a6.36,6.36,0,0,1,.29,1.94L58.33,159s-2.21-3.2-3-4c-.58-.58-1.16-1.06-1.74-1.55C53.71,153.49,58.05,155.62,59.3,159Z"/>
  <path class="cls-31" d="M52.26,152.72s4,6.1,2.6,6.59-8.58-.68-11.66-6.5C43.29,152.91,47.82,150.49,52.26,152.72Z"/>
  <polygon class="cls-46" points="52.16 194.59 28.16 187.32 33.65 164.64 59.2 171.33 52.16 194.59"/>
  <polygon class="cls-47" points="58.14 195.47 59.2 171.33 52.16 194.59 55.15 194.3 58.14 195.47"/>
  <path class="cls-31" d="M41.08,178.7c1.54.48,3.08,1,4.62,1.35,2.22.49-.09,3.2-.09,3.2l-5.79-.58C39.24,182.57,41.08,178.7,41.08,178.7Z"/>
  <path class="cls-44" d="M42.91,163.38a51,51,0,0,0-6.56-1.94s.77-8.82,6-7.95S42.91,163.38,42.91,163.38Z"/>
  <path class="cls-45" d="M42.71,167l7.62,1.94v.19a11.42,11.42,0,0,1-.67,1.65,4.93,4.93,0,0,1-2.41,2.42,3.91,3.91,0,0,1-3.47-.1A2.76,2.76,0,0,1,42,171.23a5.7,5.7,0,0,1,.67-4.07Zm7.14,2.32-6.94-1.74a6.11,6.11,0,0,0-.58,3.68,2.44,2.44,0,0,0,1.54,1.55,4,4,0,0,0,3.18.1A6.58,6.58,0,0,0,49.85,169.29Z"/>
  <path class="cls-44" d="M52.16,151.84s-.67.88-7.23-1.06l-.09,1.55a17.33,17.33,0,0,0-3.19,1.07s11.77,11.14,13.6,6.59-2.7-7.18-2.7-7.18Z"/>
  <path class="cls-52" d="M50.43,135.07s-1.26,4.75-9,6.21c0,0-6.07-10.38,2.41-12.51s11.19,4.36,11.48,7.66A10,10,0,0,0,50.43,135.07Z"/>
  <path class="cls-52" d="M55.06,135.17s-3.38-12.31-13.89-5.43c0,0-5.3,3.49.39,12.12C41.65,141.86,49.56,139.73,55.06,135.17Z"/>
  <path class="cls-45" d="M46.76,180.15a3.9,3.9,0,0,0-.48,3.1s.2.29.87.1c0,0,0-2.23.67-3A2.27,2.27,0,0,0,46.76,180.15Z"/>
  <path class="cls-31" d="M46.57,140.41c-.48-1-1.16-1.85-2.31-1.27s-.39,3.11,1.06,3.49S47,141.28,46.57,140.41Z"/>
  <path class="cls-52" d="M43.87,141.08a5.12,5.12,0,0,0-1,3.3s-1.74-1.84-1.64-3.1S43.87,141.08,43.87,141.08Z"/>
  <path class="cls-44" d="M37,158.92s1-6.3,5.49-5.23.29,9.3,0,10.27-3.57,9-3.85,10c-.87,3.29-.1,3.39,1.25,4.16,3.95,2.33,11.95,2.72,12.92,3.3s1.06,2-.48,2.13c-2,.1-13.89-1.06-15.53-1.16s-4.72-.29-3.95-6C33.46,172.59,37,158.92,37,158.92Z"/>
  <path class="cls-31" d="M45.8,180.05s2.41.39,2.7.39,1.16-1.65,2.31-1.94a16.37,16.37,0,0,0,2.9-.77c.38-.2.48.87-.68,1.35s-1.35,1.07.68,1.46c1.15.19,5.3-.29,4.91.48-.19.39-4.24.68-4.24.68s4.34,0,4.53.29c.29.49-4,.68-4.24.68,0,0,3.76.19,3.76.58s-3.76.29-3.66.29,3,.2,2.89.49-2.7.39-3.18.29-5.59-.68-6.46-.78l-2.32-.29Z"/>
  <g>
    <polygon class="cls-6" points="79.93 225.42 65.51 225.14 67.42 221.08 82.07 221.36 79.93 225.42"/>
    <polygon class="cls-10" points="84.23 222.31 83.05 224.56 82.1 222.55 79.74 227.05 77.47 227.01 82.18 218.01 84.23 222.31"/>
    <polygon class="cls-6" points="86.64 222.64 88.82 227.22 86.55 227.18 85.46 224.89 84.28 227.13 82.01 227.09 83.19 224.85 84.37 222.6 86.72 218.1 88.99 218.14 86.64 222.64"/>
    <g>
      <path class="cls-10" d="M67.68,222.15l1.8,0a.37.37,0,0,1,.29.19.5.5,0,0,1,.07.27h0l-2,0v.4l1.54,0a.39.39,0,0,1,.39.35l0,.12v.39a.49.49,0,0,1-.2.39.58.58,0,0,1-.17.06h0l-1.8,0-.1,0a.43.43,0,0,1-.22-.2.54.54,0,0,1,0-.22h0l2,0v-.39l-1.54,0a.41.41,0,0,1-.4-.35l0-.12v-.45a.49.49,0,0,1,.21-.4A.35.35,0,0,1,67.68,222.15Z"/>
      <path class="cls-10" d="M70.08,222.19l2.54,0v.48h0l-1,0,0,1.72H71v0l0-1.71-1,0h0v-.46Z"/>
      <path class="cls-10" d="M73.27,222.26l1.72,0a.4.4,0,0,1,.39.32.68.68,0,0,1,0,.15l0,1.28a.49.49,0,0,1-.21.4.38.38,0,0,1-.21.05l-1.71,0a.39.39,0,0,1-.4-.35V224l0-1.29a.48.48,0,0,1,.21-.39A.5.5,0,0,1,73.27,222.26Zm.16.49,0,1.27,1.38,0,0-1.27Z"/>
      <path class="cls-10" d="M75.64,222.29l2.14,0a.41.41,0,0,1,.39.34.53.53,0,0,1,0,.13v.43a.48.48,0,0,1-.2.38.41.41,0,0,1-.22.07h-.31l.78.87h-.78l-1.2-1.32h0l1.34,0v-.42l-1.39,0h0l0,1.71h-.59l0-2.18Z"/>
    </g>
    <g>
      <path class="cls-10" d="M70.81,218.58l0,0,0,0,0,0a.33.33,0,0,0-.49.05l-.3.29,1.13,0a.72.72,0,0,1,.53.23.77.77,0,0,1,.18.5v.6l-3.11-.06a.71.71,0,0,1-.52-.22.61.61,0,0,1-.19-.48.67.67,0,0,1,.2-.48.75.75,0,0,1,.53-.19.65.65,0,0,1,.43.11c.08.07.08.15.08.36h-.06c0-.24-.17-.31-.39-.32s-.44.2-.44.53a.75.75,0,0,0,.09.41.39.39,0,0,0,.33.17l2.7,0v-.48c0-.33-.14-.57-.43-.58l-1.44,0,.56-.52a.75.75,0,0,1,.37-.2C70.61,218.33,70.73,218.47,70.81,218.58Z"/>
      <path class="cls-10" d="M72.58,219c-.13,0-.16.08-.16.2l0,1.09a.56.56,0,0,1-.25.47,1.42,1.42,0,0,1-.36.14h-.05l0,0a.55.55,0,0,0,.25-.29.94.94,0,0,0,0-.3l0-1.34h.54v0Z"/>
      <path class="cls-10" d="M74.44,219c-.13,0-.15.07-.16.2l0,1h.41v.11h-.41v.07a.53.53,0,0,1-.24.47,1.05,1.05,0,0,1-.35.13h0s0,0,0,0a.59.59,0,0,0,.25-.29,1.09,1.09,0,0,0,.06-.36h-.25a1.14,1.14,0,0,1-.65-.2.61.61,0,0,1-.25-.49c0-.41.39-.67,1-.66l.72,0V219Zm-1.32.6a.54.54,0,0,0,.5.58h.3l0-1.09a.78.78,0,0,0-.22,0A.52.52,0,0,0,73.12,219.61Z"/>
      <path class="cls-10" d="M75.41,219.05c-.13,0-.15.08-.16.2v1h.61v.11l-1.36,0v-.11h.41l0-1.21h.55v.05Zm-.36-.49a.17.17,0,0,1-.18.17.16.16,0,0,1-.16-.17.17.17,0,1,1,.34,0Zm.43,0a.17.17,0,0,1-.18.17.18.18,0,0,1-.17-.17.18.18,0,0,1,.18-.17A.18.18,0,0,1,75.48,218.57Z"/>
      <path class="cls-10" d="M78.34,219.09c-.14,0-.16.08-.16.2v.51a.55.55,0,0,1-.18.4.6.6,0,0,1-.67.1.33.33,0,0,1-.18-.17.43.43,0,0,1-.4.21.5.5,0,0,1-.43-.19.56.56,0,0,1-.41.18h-.24v-.11h.07a.4.4,0,0,0,.28-.1.52.52,0,0,0,.14-.35l0-.67h.53v0h0c-.14,0-.17.07-.17.2V220a.25.25,0,0,0,.25.26A.25.25,0,0,0,77,220l0-.94h.54v.06h0c-.14,0-.16,0-.16.16l0,.75a.27.27,0,0,0,.25.23.26.26,0,0,0,.26-.24h0v-1h.54v.05Z"/>
    </g>
  </g>
  <g>
    <polygon class="cls-6" points="44.63 184.89 31.68 181.56 34.27 178.3 47.43 181.68 44.63 184.89"/>
    <polygon class="cls-10" points="49.18 183 47.64 184.78 47.2 182.76 44.12 186.32 42.08 185.8 48.25 178.69 49.18 183"/>
    <polygon class="cls-6" points="51.28 183.81 52.27 188.41 50.23 187.89 49.74 185.59 48.2 187.37 46.16 186.84 47.7 185.07 49.24 183.29 52.33 179.73 54.37 180.26 51.28 183.81"/>
    <g>
      <path class="cls-10" d="M34.27,179.32l1.62.42a.33.33,0,0,1,.23.23.57.57,0,0,1,0,.26v0h0l-1.76-.46-.09.36,1.38.36a.36.36,0,0,1,.29.4l0,.11-.09.36a.44.44,0,0,1-.27.31.43.43,0,0,1-.16,0h0l-1.62-.41-.09-.05a.33.33,0,0,1-.14-.22.55.55,0,0,1,0-.22h0l1.77.46.09-.35L34,180.56a.37.37,0,0,1-.28-.4v-.11l.1-.4a.45.45,0,0,1,.28-.32A.43.43,0,0,1,34.27,179.32Z"/>
      <path class="cls-10" d="M36.44,179.87l2.28.58v0l-.11.42h0l-.88-.22-.4,1.54h0l-.5-.13h0l.39-1.54-.87-.22v0l.11-.41Z"/>
      <path class="cls-10" d="M39.3,180.62l1.54.39a.38.38,0,0,1,.29.37.78.78,0,0,1,0,.14l-.29,1.15a.47.47,0,0,1-.28.32.34.34,0,0,1-.2,0l-1.54-.4a.36.36,0,0,1-.28-.4v-.11l.3-1.15a.42.42,0,0,1,.27-.31A.34.34,0,0,1,39.3,180.62Zm0,.47-.29,1.14,1.24.32.29-1.14Z"/>
      <path class="cls-10" d="M41.43,181.15l1.93.5a.35.35,0,0,1,.27.38.49.49,0,0,1,0,.12l-.1.39a.43.43,0,0,1-.26.3.3.3,0,0,1-.21,0l-.28-.07.52.95h0l-.71-.18-.79-1.44h0l1.2.31.09-.38-1.24-.32h0l-.39,1.54h0l-.53-.13h0l.5-2Z"/>
    </g>
    <g>
      <path class="cls-10" d="M37.87,176.77l0,0,0,0,0,0a.3.3,0,0,0-.44-.06l-.34.2,1,.26a.65.65,0,0,1,.42.32.7.7,0,0,1,.06.49l-.14.53-2.79-.71a.68.68,0,0,1-.43-.31.59.59,0,0,1-.06-.47.65.65,0,0,1,.28-.39.68.68,0,0,1,.52-.06.66.66,0,0,1,.37.19c0,.08,0,.15,0,.34h0c0-.22-.08-.32-.28-.37s-.44.09-.51.38a.65.65,0,0,0,0,.39.36.36,0,0,0,.26.22l2.43.62.11-.43c.07-.29,0-.54-.27-.61l-1.29-.33.61-.35a.65.65,0,0,1,.38-.11C37.74,176.5,37.81,176.65,37.87,176.77Z"/>
      <path class="cls-10" d="M39.38,177.51c-.12,0-.16,0-.19.15l-.25,1a.51.51,0,0,1-.33.37.83.83,0,0,1-.35.05h0s0,0,0,0a.47.47,0,0,0,.29-.2.66.66,0,0,0,.11-.26l.31-1.21.49.13v0Z"/>
      <path class="cls-10" d="M41.05,177.93c-.12,0-.16,0-.18.15l-.23.88.36.09,0,.11-.37-.1v.06a.5.5,0,0,1-.32.37,1.27,1.27,0,0,1-.34,0l0,0s0,0,0,0a.51.51,0,0,0,.29-.21,1.07,1.07,0,0,0,.13-.31l-.23-.06a.92.92,0,0,1-.54-.32.51.51,0,0,1-.11-.49c.09-.37.49-.52,1-.38l.64.16v0Zm-1.32.26a.5.5,0,0,0,.33.63h0l.27.06.25-1a.7.7,0,0,0-.2-.08A.49.49,0,0,0,39.73,178.19Z"/>
      <path class="cls-10" d="M41.92,178.17c-.12,0-.16,0-.19.15l-.22.86.55.15,0,.1-1.22-.32,0-.1.36.1.28-1.09.49.12v0Zm-.23-.51a.14.14,0,0,1-.19.11.15.15,0,0,1-.11-.19.15.15,0,0,1,.19-.11A.15.15,0,0,1,41.69,177.66Zm.39.1a.15.15,0,0,1-.19.11.15.15,0,0,1-.12-.19.15.15,0,0,1,.19-.11A.15.15,0,0,1,42.08,177.76Z"/>
      <path class="cls-10" d="M44.55,178.84c-.12,0-.16,0-.18.14l-.12.47a.52.52,0,0,1-.25.31.49.49,0,0,1-.41.06.51.51,0,0,1-.21-.1.3.3,0,0,1-.13-.2.44.44,0,0,1-.41.11.47.47,0,0,1-.34-.27.54.54,0,0,1-.41.08l-.22-.06,0-.1.07,0a.42.42,0,0,0,.27,0,.5.5,0,0,0,.2-.29l.16-.6.48.13v0h0c-.12,0-.17,0-.2.14l-.14.57a.23.23,0,1,0,.45.12l.22-.84.49.12,0,0h0c-.12,0-.14,0-.17.1l-.18.68a.22.22,0,0,0,.18.25.22.22,0,0,0,.28-.15h0l.23-.88.48.13v0Z"/>
    </g>
  </g>
</svg>
