<svg id="Isolation_Mode" data-name="Isolation Mode" xmlns="http://www.w3.org/2000/svg" xmlns:xlink="http://www.w3.org/1999/xlink" width="417.79" height="283.46" viewBox="0 0 417.79 283.46">
  <defs>
    <style>
      .cls-1, .cls-13, .cls-15, .cls-16, .cls-2, .cls-21, .cls-6, .cls-9 {
        fill: none;
      }

      .cls-2 {
        stroke: #f1efa5;
        stroke-width: 0.96px;
      }

      .cls-15, .cls-2, .cls-6 {
        stroke-miterlimit: 10;
      }

      .cls-3 {
        fill: #fdfff8;
      }

      .cls-4 {
        fill: #13548d;
      }

      .cls-5 {
        fill: #fd8f1f;
      }

      .cls-6 {
        stroke: #fff;
        stroke-width: 0.76px;
      }

      .cls-7 {
        fill: #fff;
      }

      .cls-8 {
        fill: #f9f9f9;
      }

      .cls-13, .cls-16, .cls-9 {
        stroke: #000;
      }

      .cls-13, .cls-16, .cls-21, .cls-9 {
        stroke-linecap: round;
        stroke-linejoin: round;
      }

      .cls-9 {
        stroke-width: 0.68px;
      }

      .cls-10 {
        fill: #fbfbf1;
      }

      .cls-11 {
        fill: #b96b4a;
      }

      .cls-12 {
        fill: #060606;
      }

      .cls-13 {
        stroke-width: 0.77px;
      }

      .cls-14 {
        fill: #a95739;
      }

      .cls-15, .cls-21 {
        stroke: #f8f0bb;
      }

      .cls-15 {
        stroke-width: 0.81px;
      }

      .cls-16 {
        stroke-width: 0.8px;
      }

      .cls-17 {
        clip-path: url(#clip-path);
      }

      .cls-18 {
        clip-path: url(#clip-path-2);
      }

      .cls-19 {
        fill: #c10006;
      }

      .cls-20 {
        fill: #af0d16;
      }

      .cls-21 {
        stroke-width: 0.83px;
      }

      .cls-22 {
        fill: #3d3734;
      }
    </style>
    <clipPath id="clip-path">
      <path class="cls-1" d="M206.09,108s-7.13-.37-7.54,2.8,8,2.91,8,2.91,7.32.48,7.57-2.49S206.09,108,206.09,108Z"/>
    </clipPath>
    <clipPath id="clip-path-2">
      <path class="cls-1" d="M183.09,109.57s5.09-.49,5.51,2.3-5.6,2.9-5.6,2.9-5.26.44-5.56-2.18S183.09,109.57,183.09,109.57Z"/>
    </clipPath>
  </defs>
  <title>Vectors</title>
  <g>
    <g>
      <line class="cls-2" x1="350.51" y1="84.7" x2="52.11" y2="84.7"/>
      <rect class="cls-2" x="52.1" y="65.15" width="298.4" height="184.62" rx="3.9"/>
      <g>
        <path class="cls-3" d="M330.84,75.12a2.73,2.73,0,1,0,2.73-2.73,2.73,2.73,0,0,0-2.73,2.73Z"/>
        <path class="cls-3" d="M320.23,75.12a2.71,2.71,0,1,0,0-.05Z"/>
        <path class="cls-3" d="M309.62,75.12a2.73,2.73,0,1,0,2.73-2.73,2.73,2.73,0,0,0-2.73,2.73Z"/>
      </g>
    </g>
    <path class="cls-4" d="M2.12,141.79H39a2.18,2.18,0,0,0,0-4.36H2.12C-.7,137.39-.71,141.83,2.12,141.79Z"/>
    <path class="cls-5" d="M359.87,210.23h55.74a2.18,2.18,0,1,0,0-4.36H359.87C357.05,205.83,357,210.27,359.87,210.23Z"/>
    <path class="cls-4" d="M370.3,84.89h19.92a2.18,2.18,0,0,0,0-4.36H370.3C367.48,80.49,367.46,84.93,370.3,84.89Z"/>
    <path class="cls-4" d="M19.36,181.45c1.45-.18,5.36.8,5.3-1.71-.16-1.44.74-5.14-1.71-5.08-1.45.19-5.37-.8-5.3,1.71C17.81,177.81,16.91,181.51,19.36,181.45Z"/>
    <path class="cls-5" d="M328.87,42.54c1.46-.19,5.37.8,5.31-1.71-.16-1.44.74-5.14-1.71-5.08-1.46.18-5.37-.8-5.31,1.7C327.32,38.9,326.42,42.6,328.87,42.54Z"/>
    <path class="cls-5" d="M386.45,240.22c1.46-.19,5.37.79,5.31-1.71-.16-1.44.74-5.14-1.71-5.09-1.46.19-5.37-.79-5.31,1.71C384.91,236.58,384,240.28,386.45,240.22Z"/>
    <rect class="cls-4" x="104.93" y="25.22" width="58.71" height="19.53" rx="1.93"/>
    <g>
      <line class="cls-6" x1="154.38" y1="32.18" x2="114.98" y2="32.18"/>
      <line class="cls-6" x1="154.38" y1="36.87" x2="136.81" y2="36.87"/>
    </g>
    <polygon class="cls-4" points="156.23 42.55 156.23 50.16 146.66 42.55 156.23 42.55"/>
    <circle class="cls-5" cx="52.22" cy="74.63" r="25.71"/>
    <path class="cls-7" d="M54.83,73.85l-4.24-1.62a1.92,1.92,0,0,1-1.24-1.79,1.88,1.88,0,0,1,.54-1.33,1.81,1.81,0,0,1,1.37-.54h1.66a1.88,1.88,0,0,1,1.83,1.37,1.69,1.69,0,0,0,2.09,1.16h0A1.67,1.67,0,0,0,58,69h0a5.27,5.27,0,0,0-4.24-3.78V63.79a1.71,1.71,0,0,0-3.41,0v1.46a5.27,5.27,0,0,0-1,10.13L53.62,77a1.91,1.91,0,0,1-.66,3.7H51.3a1.9,1.9,0,0,1-1.83-1.37,1.71,1.71,0,0,0-3.28.95A5.28,5.28,0,0,0,50.38,84v1.41a1.71,1.71,0,0,0,3.41.26,1.13,1.13,0,0,0,0-.26V84a5.32,5.32,0,0,0,1-10.21Z"/>
    <path class="cls-4" d="M242.79,46.85h37.78a6.65,6.65,0,0,0,6.65-6.65V5a5,5,0,0,0-5-5H242.79a5,5,0,0,0-5,5V41.81a5,5,0,0,0,5,5Z"/>
    <g>
      <path class="cls-8" d="M258.9,32c3.69.07,7.42.12,10.81-.12,1.07-.07,2-1.78.69-2.32a2.49,2.49,0,0,0,1.35-1.16,1.15,1.15,0,0,0-.63-1.52h0c1.28.32,1.79-1.71.79-2.36A3,3,0,0,0,273,22.76a1.74,1.74,0,0,0-.78-1.79,2.66,2.66,0,0,0-1.33-.23h-4.6c.42-2.4.54-5-.68-7.12-.36-.64-1.35-1.4-2.13-.91S263,14.31,263,15a8.11,8.11,0,0,1-4.18,7.39S258.94,28.74,258.9,32Z"/>
      <rect class="cls-8" x="251.99" y="22.39" width="5.57" height="9.59"/>
    </g>
    <rect class="cls-5" x="289.72" y="113.87" width="86.11" height="69.22" rx="4.29"/>
    <g>
      <path class="cls-3" d="M319.52,130.5h8.16a5.65,5.65,0,0,0,11.29,0h8.16l11,14.74L346.19,152v16.48H320.46V152l-11.92-6.75Z"/>
      <line class="cls-9" x1="346.19" y1="151.99" x2="346.19" y2="145.25"/>
      <line class="cls-9" x1="320.49" y1="151.99" x2="320.49" y2="145.25"/>
    </g>
    <polygon class="cls-10" points="331.56 197.06 324.13 217.47 320.75 212.31 313.46 220.21 308.39 215.44 316.32 207.69 311 203.88 331.56 197.06"/>
    <g>
      <g>
        <g>
          <g>
            <g>
              <path class="cls-11" d="M160.32,187.66s-25.84,9.78-47.63,21.16c-7.07,3.7-8.67,13.22-4.17,19.81h0a14,14,0,0,0,17,5l49.69-21.06Z"/>
              <path class="cls-3" d="M186.93,184.3s-3.87-19.76-47.84,6.73l15.33,37.67S198,210.25,186.93,184.3Z"/>
            </g>
            <g>
              <path class="cls-11" d="M108,227.72l-29.68-58,13.35-8.29s19.13,28.39,35.76,47.06Z"/>
              <g>
                <g>
                  <path class="cls-12" d="M90.82,157.13,102.75,121a2.13,2.13,0,0,0-1.37-2.68L82.07,112a2.12,2.12,0,0,0-2.68,1.36L67.46,149.53a2.14,2.14,0,0,0,1.37,2.68l19.3,6.28a2.14,2.14,0,0,0,2.69-1.36Z"/>
                  <g>
                    <polygon class="cls-3" points="76.61 140.41 84.56 116.55 83.42 116.17 75.47 140.04 76.61 140.41"/>
                    <g>
                      <polygon class="cls-3" points="90.49 128.34 93.67 119.17 92.53 118.8 89.36 127.97 90.49 128.34"/>
                      <rect class="cls-3" x="84.46" y="132.44" width="7.74" height="1.2" transform="translate(-65.51 175.87) rotate(-71.98)"/>
                      <rect class="cls-3" x="75.8" y="145.31" width="16.69" height="1.2" transform="translate(-80.64 180.79) rotate(-71.98)"/>
                      <polygon class="cls-3" points="91.83 135.1 96.86 120.2 95.72 119.83 90.69 134.74 91.83 135.1"/>
                      <rect class="cls-3" x="88.11" y="137.45" width="4.24" height="1.2" transform="translate(-68.96 181.15) rotate(-71.98)"/>
                    </g>
                  </g>
                </g>
                <path class="cls-11" d="M94.75,165.94l6.37-14.63a12.71,12.71,0,0,0,.35-5.65L99.53,134a2,2,0,0,0-2.34-1.6,2,2,0,0,0-.66.26c-1.69,1.12-3.33,3.85-2.07,10.48L90.76,151l-6.93-2.68.73-2.7a3.32,3.32,0,0,0-2.13-4L71.78,138l2.48-7.06a4.78,4.78,0,0,0-.93-4.74l-.41-.46a1.9,1.9,0,0,0-3.27.71l-4.86,16a14.2,14.2,0,0,0,2.12,12.47L79.1,171.63Z"/>
                <path class="cls-13" d="M83.78,148.3l-1.92,4.91a3.15,3.15,0,0,1-3.64,1.91l-5.34-1.27"/>
                <path class="cls-13" d="M71.73,137.92a9.35,9.35,0,0,0-4-.33"/>
              </g>
            </g>
          </g>
          <g>
            <path class="cls-3" d="M210.54,161.72l45.2,18.81c3.45,1.4,4.43,8.43,3.38,12l-17.39,88.89H176.84l-15.4-92.25c-1-3.67-.35-8.82,3.24-10.09Z"/>
            <path class="cls-11" d="M232.32,170.73s-13.6,7.36-35.43,21.13l-9.24-21.48,23.56-8.94Z"/>
            <path class="cls-9" d="M168.68,194.25c-5,8.48-1.59,28.78-1.59,28.78"/>
          </g>
          <g>
            <g>
              <path class="cls-11" d="M275.92,209.39s11.89,35.43,13.88,59.94c.65,7.95-6.56,14.38-14.53,14.09h0A14,14,0,0,1,262,271.67L246.89,210Z"/>
              <g>
                <path class="cls-3" d="M250.16,179.52s26.52.34,35.86,45.94l-42.14,5.68S223.18,187.73,250.16,179.52Z"/>
                <path class="cls-9" d="M251.5,230.32l-6.26.49s-3.39-7.35-6.46-15.72"/>
              </g>
            </g>
            <g>
              <path class="cls-11" d="M198.83,268.69l-22.16-10.53a7.82,7.82,0,0,0-7.12.73l-24.47,15.85a2.23,2.23,0,0,0-1,1.88h0a2.24,2.24,0,0,0,2.24,2.24h21.44a16.11,16.11,0,0,0,6.42-1.36l7.5,1s4.65,6.91,23.18,3.8Z"/>
              <g>
                <path class="cls-11" d="M275.27,283.42l-73.31-.7-5.84-14.14s46.93-5.26,71.2-11.29Z"/>
                <line class="cls-9" x1="258.91" y1="259.2" x2="268.76" y2="257.29"/>
              </g>
            </g>
          </g>
          <g>
            <path class="cls-12" d="M162.28,94.33c-1.73-14.11,6.71-22.22,14.49-23.44s8.2-12.15,16-12.09a6.12,6.12,0,0,1,4.46,1.71,11.09,11.09,0,0,1,6.4-1.63c11.08.08,12.1,5.93,23.19,7.28s24,12.22,22.38,26.47c-2.07,18.37,28.55,20,17.29,40.82-7,13-22.3,1-30.06,8.28a27,27,0,0,1-28.07,5.63L206.08,149s-19.88,4.59-28.85-7.75c-5.33-7.34-16,3.64-23.5-6.73C143.63,120.68,164,108.44,162.28,94.33Z"/>
            <g>
              <path class="cls-14" d="M191.75,119.66c0,5.55-4.5,9.18-10.06,9.17s-10-5.74-10-11.3,4.48-8,10-8a10,10,0,0,1,10.06,10Z"/>
              <path class="cls-15" d="M175.86,137.13c-.06,7.86,4.53,13.32,10.24,13.36s10.37-5.34,10.43-13.2S192,123,186.3,123,175.92,129.27,175.86,137.13Z"/>
            </g>
            <path class="cls-12" d="M244.93,93.78c.68,17.46-20.4,37-37,35.13C190.55,127,175.74,116,175.05,98.52A34.59,34.59,0,0,1,193.26,67a29,29,0,0,1,12.22-3.26C223,63,244.16,73.92,244.93,93.78Z"/>
            <polygon class="cls-11" points="213.02 125.44 221.92 171.12 198.06 178.13 197.49 133 213.02 125.44"/>
            <path class="cls-14" d="M197.73,155s13.52-5,21.51-23.84l-21.68,7.55Z"/>
            <path class="cls-11" d="M194.61,72.31s-22,1.56-19.26,29.89,6.47,35.76,18.3,41.27c10.63,5,23.78-.34,30.88-12.71a42.49,42.49,0,0,0,5-17.64l1.43-7.49S238.59,68.39,194.61,72.31Z"/>
            <g>
              <polyline class="cls-16" points="191.22 118.02 189.61 122.56 192.42 123.97"/>
              <g>
                <path class="cls-7" d="M206.09,108s-7.13-.37-7.54,2.8,8,2.91,8,2.91,7.32.48,7.57-2.49S206.09,108,206.09,108Z"/>
                <g class="cls-17">
                  <path class="cls-12" d="M209.54,111c-.12,1.93-2.18,3.41-4.59,3.31s-4.29-1.76-4.17-3.69,2.17-3.41,4.59-3.3S209.65,109.12,209.54,111Z"/>
                </g>
              </g>
              <g>
                <path class="cls-7" d="M183.09,109.57s5.09-.49,5.51,2.3-5.6,2.9-5.6,2.9-5.26.44-5.56-2.18S183.09,109.57,183.09,109.57Z"/>
                <g class="cls-18">
                  <path class="cls-12" d="M179.69,112.34a3.26,3.26,0,0,0,3.62,2.79,3.18,3.18,0,0,0,3-3.35h0a3.26,3.26,0,0,0-3.62-2.8A3.19,3.19,0,0,0,179.69,112.34Z"/>
                </g>
              </g>
              <path class="cls-12" d="M212.25,101.31l-11-1a2.48,2.48,0,0,1-2.47-2.47v-.07h0a2.67,2.67,0,0,1,3-2.07l11,1a2.46,2.46,0,0,1,2.47,2.48v.07h0A2.7,2.7,0,0,1,212.25,101.31Z"/>
              <path class="cls-12" d="M178.07,102.14l7.34-1a2.38,2.38,0,0,0,2.24-2.5c0-.06,0-.13,0-.19h0a2.78,2.78,0,0,0-3.22-1.87l-7.33,1a2.38,2.38,0,0,0-2.24,2.51,1.37,1.37,0,0,0,0,.19h0A2.77,2.77,0,0,0,178.07,102.14Z"/>
              <g>
                <path class="cls-19" d="M186.55,127.9s1.22,4.57,7.1,4.55c7.52,0,8.1-4.64,8.1-4.64A41.75,41.75,0,0,1,186.55,127.9Z"/>
                <path class="cls-20" d="M192.86,127.78s1.25-1.62,4.22-.65a19.88,19.88,0,0,0,4.67.68s-3,1.38-8.81,1.54c-5.33.15-6.39-1.45-6.39-1.45.84-.17,1.68-.38,2.5-.63A3.41,3.41,0,0,1,192.86,127.78Z"/>
              </g>
            </g>
            <path class="cls-12" d="M191.12,72.38c41.81-10.29,48.4,18.52,46,27.17s-10.46,20-10.46,20-3.89-12.41-3-22.79c-3.77-3.5-9.15-7.71-15.07-9.25-8.73-2.28-13.25-5.34-15.49-8.3A14.21,14.21,0,0,1,185.46,85c-10.58,4-10.4,13.45-10.4,13.45S172.21,74,191.12,72.38Z"/>
            <g>
              <path class="cls-11" d="M223.87,121.4c1.4,5.38,4.11,7.34,11.18,5.62,5.4-1.32,8.31-8.08,6.86-13.44-1.26-4.62-5.9-6.48-11.47-4.47C226.57,110.5,222.47,116,223.87,121.4Z"/>
              <path class="cls-21" d="M218.9,138.4c.25,7.51,4.94,12.56,10.73,12.6,6,0,10.88-5.34,10.94-13.2s-4.75-14.27-10.73-14.31"/>
              <path class="cls-16" d="M235.59,114.8s-4.44.29-6.77,6.2"/>
            </g>
          </g>
        </g>
        <g>
          <g>
            <path class="cls-12" d="M174.16,282.75,149,205a9.38,9.38,0,0,0-8.79-6h-104a4.24,4.24,0,0,0-4.28,4.2,4.34,4.34,0,0,0,.28,1.55L55.5,277.58a8.17,8.17,0,0,0,7.61,5.24Z"/>
            <path class="cls-12" d="M221,275.47H168.21v7.28h60A7.27,7.27,0,0,0,221,275.47Z"/>
          </g>
          <path class="cls-22" d="M100.25,238.92c2,4.46.9,9.36-2.54,10.93s-7.89-.77-9.93-5.23-.9-9.36,2.55-10.93S98.22,234.46,100.25,238.92Z"/>
        </g>
      </g>
      <line class="cls-13" x1="391.25" y1="283.12" x2="15.14" y2="283.12"/>
    </g>
  </g>
  <g>
    <polygon class="cls-4" points="207.31 223.66 177.25 220.26 182.04 212.15 212.57 215.6 207.31 223.66"/>
    <polygon class="cls-5" points="216.9 218.01 214 222.49 212.4 218.11 206.6 227.03 201.87 226.5 213.47 208.65 216.9 218.01"/>
    <polygon class="cls-4" points="221.86 219.18 225.52 229.17 220.79 228.64 218.96 223.64 216.06 228.1 211.33 227.57 214.23 223.11 217.13 218.64 222.93 209.72 227.66 210.25 221.86 219.18"/>
    <g>
      <path class="cls-7" d="M182.37,214.44l3.76.43a.75.75,0,0,1,.57.45,1.15,1.15,0,0,1,.09.58v0l-4.1-.46-.09.83,3.21.37a.83.83,0,0,1,.76.8v.26l-.1.82a1,1,0,0,1-.49.78.84.84,0,0,1-.37.09h0l-3.75-.42a.9.9,0,0,0-.21-.08.79.79,0,0,1-.4-.46,1.25,1.25,0,0,1-.07-.47h0l4.09.46.09-.81-3.21-.37a.83.83,0,0,1-.75-.81l0-.24.1-.94a1,1,0,0,1,.52-.79A.77.77,0,0,1,182.37,214.44Z"/>
      <path class="cls-7" d="M187.39,215l5.29.6,0,0-.11,1,0,0-2-.23-.41,3.57,0,0-1.17-.14,0,0,.4-3.57-2-.23,0,0,.11-1Z"/>
      <path class="cls-7" d="M194,215.76l3.57.41a.83.83,0,0,1,.75.73,1.13,1.13,0,0,1,0,.32l-.3,2.67a1,1,0,0,1-.52.79.78.78,0,0,1-.45.07l-3.57-.4a.84.84,0,0,1-.76-.81v-.25l.31-2.68a1,1,0,0,1,.5-.78A.89.89,0,0,1,194,215.76Zm.24,1.05-.3,2.65,2.88.32.3-2.65Z"/>
      <path class="cls-7" d="M199,216.29l4.47.51a1,1,0,0,1,.74,1l-.1.9a1,1,0,0,1-.48.76.74.74,0,0,1-.46.09l-.65-.07,1.44,2h0l-1.62-.19-2.24-3h0l2.78.31.1-.88-2.88-.32h0l-.4,3.57h0l-1.22-.14v0l.51-4.55Z"/>
    </g>
    <g>
      <path class="cls-5" d="M189.62,207.6l-.1.08-.05-.06s0-.06-.05-.06a.68.68,0,0,0-1,0l-.69.56,2.35.26a1.51,1.51,0,0,1,1.05.58,1.49,1.49,0,0,1,.28,1.08l-.14,1.24-6.48-.73a1.5,1.5,0,0,1-1.05-.55,1.34,1.34,0,0,1-.28-1,1.39,1.39,0,0,1,.51-1,1.52,1.52,0,0,1,1.14-.3,1.39,1.39,0,0,1,.88.31c.15.16.13.34.08.78l-.13,0c0-.5-.28-.69-.73-.74-.64-.07-1,.33-1,1a1.44,1.44,0,0,0,.12.87.81.81,0,0,0,.65.42l5.64.64.11-1c.08-.67-.17-1.21-.79-1.28l-3-.34,1.28-1a1.47,1.47,0,0,1,.8-.36C189.25,207,189.46,207.35,189.62,207.6Z"/>
      <path class="cls-5" d="M193.23,208.79c-.28,0-.34.12-.37.38l-.26,2.26a1.13,1.13,0,0,1-.61.93,2.07,2.07,0,0,1-.77.22h-.11s0,0,0,0a1.17,1.17,0,0,0,.58-.56,1.85,1.85,0,0,0,.17-.61l.31-2.79,1.13.12v.11Z"/>
      <path class="cls-5" d="M197.12,209.21c-.28,0-.35.12-.38.37l-.23,2.06.84.09,0,.24-.85-.1,0,.13a1.1,1.1,0,0,1-.6.93,2.17,2.17,0,0,1-.75.22l-.09,0s0,0,0,0a1,1,0,0,0,.58-.55,2.09,2.09,0,0,0,.2-.73l-.53-.06a2.29,2.29,0,0,1-1.31-.55,1.22,1.22,0,0,1-.41-1.06c.09-.86.94-1.32,2.17-1.18l1.49.17v.1Zm-2.88,1a1.14,1.14,0,0,0,.92,1.31h0l.62.07.25-2.26a1.21,1.21,0,0,0-.46-.12A1.1,1.1,0,0,0,194.24,210.2Z"/>
      <path class="cls-5" d="M199.14,209.48c-.28,0-.35.13-.38.38l-.22,2,1.27.14,0,.24-2.84-.33,0-.23.84.09.29-2.52,1.13.13v.1Zm-.67-1.08a.36.36,0,0,1-.4.31.35.35,0,0,1-.31-.4.36.36,0,0,1,.39-.31A.36.36,0,0,1,198.47,208.4Zm.89.1a.36.36,0,0,1-.4.31.36.36,0,0,1-.31-.39.36.36,0,1,1,.71.08Z"/>
      <path class="cls-5" d="M205.24,210.14c-.3,0-.34.13-.37.39l-.12,1.07a1.16,1.16,0,0,1-.46.79,1.19,1.19,0,0,1-.91.26,1.43,1.43,0,0,1-.5-.18.6.6,0,0,1-.34-.4,1,1,0,0,1-.89.37,1.07,1.07,0,0,1-.85-.49,1.22,1.22,0,0,1-.89.31l-.52-.06,0-.23h.15a.84.84,0,0,0,.6-.15,1.17,1.17,0,0,0,.37-.7l.16-1.4,1.12.13V210h-.09c-.29,0-.37.12-.4.38l-.15,1.32a.53.53,0,1,0,1.05.12l.22-2,1.14.13,0,.11h-.09c-.28,0-.33,0-.36.28l-.18,1.58a.53.53,0,0,0,1,.07v0l.23-2,1.12.13v.1Z"/>
    </g>
  </g>
</svg>
