<svg xmlns="http://www.w3.org/2000/svg" width="417.79" height="283.46" viewBox="0 0 417.79 283.46">
  <defs>
    <style>
      .cls-1 {
        isolation: isolate;
      }

      .cls-12, .cls-2 {
        fill: #fff;
      }

      .cls-3, .cls-4 {
        fill: #13548d;
      }

      .cls-4 {
        opacity: 0.5;
      }

      .cls-13, .cls-17, .cls-23, .cls-5, .cls-6 {
        fill: none;
        stroke-miterlimit: 10;
      }

      .cls-5, .cls-6 {
        stroke: #fff;
      }

      .cls-6 {
        stroke-linecap: round;
      }

      .cls-7 {
        fill: #fd8f1f;
      }

      .cls-8 {
        fill: #232a54;
      }

      .cls-9 {
        fill: #ca9b7a;
      }

      .cls-10 {
        fill: #f7caaa;
      }

      .cls-11 {
        fill: #e3b492;
      }

      .cls-12 {
        font-size: 5.53px;
        font-family: Montserrat-SemiBold, Montserrat;
        font-weight: 600;
      }

      .cls-13 {
        stroke: #d5e7ff;
      }

      .cls-14 {
        fill: #f97d0d;
      }

      .cls-15 {
        fill: #d5e7ff;
      }

      .cls-16 {
        fill: #59be80;
      }

      .cls-17 {
        stroke: #59be80;
      }

      .cls-18 {
        fill: #00a88b;
      }

      .cls-19 {
        fill: #90c5fc;
      }

      .cls-20 {
        fill: #ffc2ab;
      }

      .cls-21 {
        fill: #e3e3e3;
        mix-blend-mode: multiply;
      }

      .cls-22 {
        fill: #252840;
      }

      .cls-23 {
        stroke: #252840;
        stroke-width: 0.5px;
      }

      .cls-24 {
        fill: #eee7e7;
      }

      .cls-25 {
        fill: snow;
      }

      .cls-26 {
        fill: #ffa85a;
      }
    </style>
  </defs>
  <title>Vectors</title>
  <g class="cls-1">
    <g id="Isolation_Mode" data-name="Isolation Mode">
      <rect class="cls-2" x="88.37" y="2.2" width="215.09" height="157.42" rx="8.48"/>
      <path class="cls-3" d="M295.52,1.18h-200A7.53,7.53,0,0,0,88,8.71v7.93H303.05V8.71A7.53,7.53,0,0,0,295.52,1.18Z"/>
      <g>
        <path class="cls-2" d="M283.14,8.59a1.35,1.35,0,1,1-1.35-1.35A1.34,1.34,0,0,1,283.14,8.59Z"/>
        <path class="cls-2" d="M289.59,8.59a1.35,1.35,0,1,1-1.35-1.35A1.34,1.34,0,0,1,289.59,8.59Z"/>
        <path class="cls-2" d="M296,8.59a1.35,1.35,0,1,1-1.35-1.35A1.35,1.35,0,0,1,296,8.59Z"/>
      </g>
      <circle class="cls-4" cx="280.62" cy="137.89" r="14.07" transform="translate(-15.31 238.82) rotate(-45)"/>
      <g>
        <path class="cls-5" d="M279.52,144.59a1.16,1.16,0,1,1-1.16-1.17A1.16,1.16,0,0,1,279.52,144.59Z"/>
        <path class="cls-5" d="M284.43,144.59a1.17,1.17,0,1,1-1.17-1.17A1.16,1.16,0,0,1,284.43,144.59Z"/>
        <path class="cls-6" d="M278.1,133.64h8.83a.85.85,0,0,1,.77,1.1l-3.3,6a.41.41,0,0,1-.39.31h-6.94a.55.55,0,0,1-.52-.49l-1.13-9.14h-1.91"/>
        <line class="cls-6" x1="283.27" y1="141.07" x2="285.82" y2="141.07"/>
        <path class="cls-6" d="M283.35,143.42h-6.56c-.67,0-1.62.1-1.62-1.16s.95-1.19,1.62-1.19H282"/>
      </g>
      <path class="cls-7" d="M304.93,24.25,301.47,30l1.06,3.93,20.53,12.39,6.77-11.36L309.3,22.53Zm2.35,5.24a1,1,0,1,1-.35-1.43A1,1,0,0,1,307.28,29.49Z"/>
      <path class="cls-8" d="M256.85,1a29.51,29.51,0,0,1,7.77-1,16.66,16.66,0,0,1,7.6,1.83,13.54,13.54,0,0,1,5.52,5.5c1.32,2.28,2.2,4.76,3.39,7.07a24.21,24.21,0,0,0,4.48,6.31A23.85,23.85,0,0,0,292,25.05,41.32,41.32,0,0,0,307,28.66l0,.49a41.47,41.47,0,0,1-15.21-3.72,23.91,23.91,0,0,1-6.43-4.53,24.21,24.21,0,0,1-4.52-6.42c-1.19-2.34-2.06-4.82-3.35-7.07A13.25,13.25,0,0,0,272.09,2,16.43,16.43,0,0,0,264.61.16a29.55,29.55,0,0,0-7.71,1Z"/>
      <g>
        <polygon class="cls-9" points="134.91 85.03 113.4 81.61 113.4 50.87 134.91 54.28 134.91 85.03"/>
        <polygon class="cls-10" points="134.91 54.28 113.4 50.87 131.74 47.46 153.26 50.87 134.91 54.28"/>
        <polygon class="cls-11" points="134.91 85.03 153.26 81.61 153.26 50.87 134.91 54.28 134.91 85.03"/>
      </g>
      <circle class="cls-7" cx="153.26" cy="61.14" r="5.39"/>
      <text class="cls-12" transform="translate(151.5 63.09)">$</text>
      <rect class="cls-13" x="99.68" y="25.63" width="72.19" height="108.52" rx="5.38"/>
      <g>
        <line class="cls-13" x1="109.07" y1="103.21" x2="139.09" y2="103.21"/>
        <line class="cls-13" x1="109.07" y1="109.22" x2="139.09" y2="109.22"/>
        <line class="cls-13" x1="109.07" y1="115.22" x2="139.09" y2="115.22"/>
      </g>
      <polygon class="cls-7" points="125.97 50.7 119.67 51.87 124.74 52.67 131.04 51.5 125.97 50.7"/>
      <polygon class="cls-14" points="124.74 58.06 124.74 52.67 119.67 51.87 119.67 57.05 124.74 58.06"/>
      <rect class="cls-13" x="178.22" y="25.63" width="72.19" height="108.52" rx="5.38"/>
      <g>
        <g>
          <g>
            <line class="cls-13" x1="278.49" y1="72.42" x2="292.21" y2="72.42"/>
            <line class="cls-13" x1="278.49" y1="77.29" x2="292.21" y2="77.29"/>
            <line class="cls-13" x1="278.49" y1="82.16" x2="292.21" y2="82.16"/>
          </g>
          <rect class="cls-15" x="262.19" y="71.29" width="12" height="12"/>
          <rect class="cls-15" x="262.19" y="50.09" width="30.01" height="12"/>
        </g>
        <g>
          <g>
            <line class="cls-13" x1="278.49" y1="92.41" x2="292.21" y2="92.41"/>
            <line class="cls-13" x1="278.49" y1="97.27" x2="292.21" y2="97.27"/>
            <line class="cls-13" x1="278.49" y1="102.14" x2="292.21" y2="102.14"/>
          </g>
          <rect class="cls-15" x="262.19" y="91.27" width="12" height="12"/>
        </g>
      </g>
      <g>
        <g>
          <path class="cls-16" d="M121.58,245.7s12.6-22.9,10.1-32.11C131.68,213.59,121.82,230.66,121.58,245.7Z"/>
          <path class="cls-17" d="M124.46,238.19s-5.89,11.54-7.5,21.32"/>
          <path class="cls-17" d="M114.22,234.64s6.61,12,6.07,24.82"/>
          <line class="cls-17" x1="120.17" y1="231.48" x2="119.1" y2="259.8"/>
          <path class="cls-16" d="M120.17,234.69s1.79-35.77-7.5-46.86C112.67,187.83,110.71,214.69,120.17,234.69Z"/>
          <path class="cls-18" d="M120.3,240s10.55-34.75,4.18-47.14C124.48,192.82,116,218.81,120.3,240Z"/>
          <path class="cls-18" d="M117.81,245s-6-35.45-17.61-45C100.2,200,104.13,226.66,117.81,245Z"/>
        </g>
        <polygon class="cls-19" points="111.9 249.79 126.65 249.79 124.93 266.73 113.61 266.73 111.9 249.79"/>
      </g>
      <g>
        <path class="cls-20" d="M175.2,100.62s-28,5.74-28.71,6.94,10.57,6.59,10.57,6.59,17-2.3,22.47-6.11S175.2,100.62,175.2,100.62Z"/>
        <path class="cls-20" d="M171.93,102.53c2.29-5.48,8.37-19.85,8.37-19.85l4.28.39s-.75,20-3.52,23.73S170.23,106.63,171.93,102.53Z"/>
      </g>
      <path class="cls-21" d="M124.75,272.34c0,2.55,14.61,4.62,32.63,4.62S190,274.89,190,272.34s-14.61-4.63-32.64-4.63S124.75,269.78,124.75,272.34Z"/>
      <polygon class="cls-20" points="157.94 140.47 145.94 211.07 125.85 259.13 132.62 262.24 160.68 215.39 180.08 148.59 157.94 140.47"/>
      <path class="cls-3" d="M126.78,257.11s4.42,4.09,7.59,2.29c0,0,.87,1.37,2.64,4.33,0,0,6.63,4.7,7.61,8.61a80.87,80.87,0,0,1-22.88-5.9S123.75,259.92,126.78,257.11Z"/>
      <path class="cls-20" d="M179.33,147l-19.08,5,.67,3.89c1.39,8.12-5.79,5.42-2.8,13.11L184,212.46l-1.5,46-.85,10,8.19,2.79L200.47,211Z"/>
      <path class="cls-3" d="M181.79,266.73s2.53,3.92,8.82,0c0,0,.2.75,4.26,4.19,0,0,9.15,1.56,11.75,5.13,0,0-13.82,2.91-27.05,1.48C179.57,277.55,179.88,270.83,181.79,266.73Z"/>
      <path class="cls-20" d="M156.1,106.72s1-9,.58-9.8-6.68-7.46-6.44-13,6.21-10.82,13.55-9.4,9,5.36,9.32,9.26c.09,1.1-.82,2.53-.22,5.54,1,4.87-.58,6.75-2.58,11.47a1.15,1.15,0,0,1-1,.53c-1.23.15-3.54,0-4.81-1.24l1.16,4.83S160.44,108.06,156.1,106.72Z"/>
      <path class="cls-3" d="M171.2,80a26.32,26.32,0,0,1-7.62,9.59s-2.16-2.49-3.77-.17c-1.87,2.72,3.29,4.86,3.29,4.86l-6.28,3s-6.79-5.8-7.11-11.47A12,12,0,0,1,159.87,72.9c8-1.37,15.38,5.07,13.1,9.76C173,82.66,172.93,81.46,171.2,80Z"/>
      <path class="cls-20" d="M172,86.89s1.89,3,2.7,4.2c.63,1-1.62,2.14-2.34,2S172,86.89,172,86.89Z"/>
      <path class="cls-7" d="M146.82,107.39c2.43-1.88,5.78-1.08,9.53-3.9l9.2-.06a16.07,16.07,0,0,0,8.75,2.47c4.12,0,6,7.79,6,7.79-1.37-.51-5.5,15-5.5,15l3.34,9.44-10.23,8.49c-11.52-1.23-12.46-6.78-12.46-6.78L147,119.65C145.37,116.49,143.94,109.61,146.82,107.39Z"/>
      <g>
        <polygon class="cls-9" points="205.55 106.19 183.2 102.28 183.2 67.01 205.55 70.92 205.55 106.19"/>
        <polygon class="cls-10" points="205.55 70.93 183.2 67.01 202.25 63.09 224.6 67.01 205.55 70.93"/>
        <polygon class="cls-11" points="205.55 106.19 224.6 102.28 224.6 67.01 205.55 70.92 205.55 106.19"/>
      </g>
      <path class="cls-20" d="M198.45,109.19s-21.11-2.8-22.4-2.2-2.23,10.11-2.23,10.11,16.24.79,22.88.57S198.45,109.19,198.45,109.19Z"/>
      <g>
        <path class="cls-20" d="M217.49,97.49s1.35-3.72,2.78-3.84c3.09-.27,4.38-2,4.33-1.17-.1,1.77-1.52,2.61-3.64,2.79Z"/>
        <path class="cls-20" d="M219.5,95.25s5.42-.62,6.28-.5c1.28.19,1.09,1.67.61,2.2s.79,1-.11,2.36c-.56.85.11.89-.19,1.74-.23.67-1.25.82-1.23,1.54,0,1.31-1.1,1.23-1.86,1.6a7.37,7.37,0,0,1-6.29-1.41C213.46,100.26,219.5,95.25,219.5,95.25Z"/>
      </g>
      <path class="cls-20" d="M195.66,108.94c5.46-2.34,20.59-9.13,20.59-9.13l2.8,3.26s-16.35,13.63-21,14.41S191.57,110.68,195.66,108.94Z"/>
      <path class="cls-7" d="M166.13,104.68a135.55,135.55,0,0,1,20,3s.21,9.42-.27,11.48C185.86,119.14,155.39,118.27,166.13,104.68Z"/>
      <path class="cls-20" d="M180.4,82.36s1.27-3.56,1.85-5,5.21-2.27,6.76-3.15.07,2.77-3.2,3.57c0,0-1.16,7.1-5.81,6"/>
      <ellipse class="cls-22" cx="170.83" cy="88.23" rx="0.34" ry="0.67"/>
      <path class="cls-23" d="M170.17,94a3.06,3.06,0,0,0,2.37.7"/>
      <path class="cls-23" d="M160.64,90.27s.79-1.3,2.07-.08c0,0-1.76,1.39.33,1.92"/>
      <path class="cls-3" d="M153.56,76.37s-7.1,4-7.1,21.62c0,17.18-4.3,19-4.67,29.67s19.75,14,23.47,1c4.66-16.31-2.22-23-2.16-34.42l-5.72-1.15-1.18-18"/>
      <path class="cls-3" d="M155.45,139.82s5.65,3.57,22.69-1.71L195.37,186s-17.23,23.1-50.2,8.38C145.17,194.41,140.51,163.94,155.45,139.82Z"/>
      <path class="cls-7" d="M175.24,114.75s7.77,8.06.8,14.2C170.23,134.05,175.24,114.75,175.24,114.75Z"/>
      <path class="cls-7" d="M230,77.5a5.39,5.39,0,1,1-5.39-5.4A5.39,5.39,0,0,1,230,77.5Z"/>
      <text class="cls-12" transform="translate(222.85 79.45)">$</text>
      <polygon class="cls-7" points="197.07 67.23 190.95 68.37 195.81 69.22 202.14 68.03 197.07 67.23"/>
      <polygon class="cls-14" points="195.81 74.72 195.81 69.22 190.95 68.37 190.89 73.62 195.81 74.72"/>
      <g>
        <path class="cls-3" d="M228.12,213.79v54.78H303V213.79Zm46.07,51.62H257V238.57h17.23Z"/>
        <rect class="cls-14" x="222.5" y="209" width="17.23" height="7.52"/>
        <rect class="cls-24" x="239.73" y="209" width="17.23" height="7.52"/>
        <rect class="cls-14" x="256.96" y="209" width="17.23" height="7.52"/>
        <rect class="cls-24" x="274.19" y="209" width="17.23" height="7.52"/>
        <rect class="cls-14" x="291.42" y="209" width="17.23" height="7.52"/>
        <polygon class="cls-7" points="232.31 201.02 245.62 201.02 239.73 209 222.5 209 232.31 201.02"/>
        <polygon class="cls-25" points="245.62 201.02 258.92 201.02 256.96 209 239.73 209 245.62 201.02"/>
        <polygon class="cls-7" points="258.92 201.02 272.23 201.02 274.19 209 256.96 209 258.92 201.02"/>
        <polygon class="cls-25" points="272.23 201.02 285.53 201.02 291.42 209 274.19 209 272.23 201.02"/>
        <polygon class="cls-7" points="285.53 201.02 298.84 201.02 308.65 209 291.42 209 285.53 201.02"/>
        <path class="cls-14" d="M239.73,216.25c0,5.15-3.85,9.32-8.61,9.32s-8.62-4.17-8.62-9.32"/>
        <path class="cls-24" d="M257,216.25c0,5.15-3.86,9.32-8.61,9.32s-8.62-4.17-8.62-9.32"/>
        <path class="cls-14" d="M274.19,216.25c0,5.15-3.86,9.32-8.61,9.32S257,221.4,257,216.25"/>
        <path class="cls-24" d="M291.42,216.25c0,5.15-3.86,9.32-8.62,9.32s-8.61-4.17-8.61-9.32"/>
        <path class="cls-14" d="M308.65,216.25c0,5.15-3.86,9.32-8.62,9.32s-8.61-4.17-8.61-9.32"/>
        <path class="cls-14" d="M267.23,162.67a12.34,12.34,0,0,0-12.18,11.64c0,6.32,11.46,17.49,11.46,17.49l.72-.18s11.45-11.17,11.45-17.49A11.46,11.46,0,0,0,267.23,162.67Zm.92,16.52a4.58,4.58,0,0,1-.83.08,4.91,4.91,0,0,1-1.56-9.56,4.6,4.6,0,0,1,.84-.08,4.91,4.91,0,0,1,1.55,9.56Z"/>
        <g>
          <path class="cls-7" d="M267.3,162.6a11.45,11.45,0,0,0-11.45,11.45c0,6.33,11.45,17.49,11.45,17.49s11.45-11.16,11.45-17.49A11.45,11.45,0,0,0,267.3,162.6Zm.09,16.59a4.91,4.91,0,1,1,4.91-4.91A4.91,4.91,0,0,1,267.39,179.19Z"/>
          <g>
            <path class="cls-26" d="M267,169.4l-.39,0a4.91,4.91,0,0,0,0,9.81l.39,0a4.9,4.9,0,0,1,0-9.77Z"/>
            <path class="cls-26" d="M267.3,162.6h-.38A11.45,11.45,0,0,1,278,174.05c0,5.64-9.1,15.12-11.07,17.11l.38.38s11.45-11.16,11.45-17.49A11.45,11.45,0,0,0,267.3,162.6Z"/>
          </g>
        </g>
        <g>
          <g>
            <polygon class="cls-9" points="296.09 278.97 281.31 276.63 281.31 255.5 296.09 257.85 296.09 278.97"/>
            <polygon class="cls-10" points="296.09 257.85 281.31 255.5 293.91 253.16 308.7 255.5 296.09 257.85"/>
            <polygon class="cls-11" points="296.09 278.97 308.7 276.63 308.7 255.5 296.09 257.85 296.09 278.97"/>
          </g>
          <g>
            <polygon class="cls-9" points="299.19 258.49 287.12 256.58 287.12 239.34 299.19 241.26 299.19 258.49"/>
            <polygon class="cls-10" points="299.19 241.26 287.12 239.34 297.41 237.43 309.47 239.34 299.19 241.26"/>
            <polygon class="cls-11" points="299.19 258.49 309.47 256.58 309.47 239.34 299.19 241.26 299.19 258.49"/>
          </g>
          <g>
            <polygon class="cls-9" points="314.46 283.42 302.39 281.51 302.39 264.27 314.46 266.19 314.46 283.42"/>
            <polygon class="cls-10" points="314.46 266.19 302.39 264.28 312.68 262.36 324.74 264.27 314.46 266.19"/>
            <polygon class="cls-11" points="314.46 283.42 324.74 281.51 324.74 264.27 314.46 266.19 314.46 283.42"/>
          </g>
        </g>
      </g>
      <g>
        <polygon class="cls-3" points="218.17 42.35 197.96 42.35 200.53 36.6 221.05 36.6 218.17 42.35"/>
        <polygon class="cls-7" points="224.11 37.88 222.52 41.07 221.13 38.28 217.95 44.64 214.77 44.64 221.13 31.92 224.11 37.88"/>
        <polygon class="cls-3" points="227.49 38.28 230.67 44.64 227.49 44.64 225.9 41.46 224.31 44.64 221.13 44.64 222.72 41.47 224.31 38.28 227.49 31.92 230.67 31.92 227.49 38.28"/>
        <g>
          <path class="cls-2" d="M200.92,38.1h2.52a.52.52,0,0,1,.42.26.8.8,0,0,1,.1.38v0h-2.75v.56h2.16a.57.57,0,0,1,.56.48l0,.17v.56a.65.65,0,0,1-.27.55.85.85,0,0,1-.24.09h-2.52l-.14,0a.57.57,0,0,1-.3-.27.85.85,0,0,1-.09-.31h2.76V40H201a.55.55,0,0,1-.56-.48l0-.16v-.63a.67.67,0,0,1,.29-.56A.49.49,0,0,1,200.92,38.1Z"/>
          <path class="cls-2" d="M204.29,38.09h3.57v.67h-1.37v2.4h-.82v-2.4h-1.37l0,0V38.1Z"/>
          <path class="cls-2" d="M208.76,38.1h2.4a.54.54,0,0,1,.55.43.78.78,0,0,1,0,.21v1.8a.66.66,0,0,1-.28.56.47.47,0,0,1-.3.08h-2.4a.55.55,0,0,1-.56-.48l0-.16v-1.8a.65.65,0,0,1,.27-.56A.64.64,0,0,1,208.76,38.1Zm.24.68v1.78h1.93V38.78Z"/>
          <path class="cls-2" d="M212.08,38.09h3a.53.53,0,0,1,.54.46.51.51,0,0,1,0,.17v.61a.65.65,0,0,1-.26.54.54.54,0,0,1-.3.1h-.44l1.11,1.2h-1.09L213,39.36h1.87v-.59h-1.94v2.4h-.81V38.1Z"/>
        </g>
        <g>
          <path class="cls-7" d="M205.22,33l-.06.06,0,0,0,0a.45.45,0,0,0-.67.08l-.42.42h1.58a1,1,0,0,1,.74.31,1,1,0,0,1,.27.69v.84h-4.35a1,1,0,0,1-.74-.29.87.87,0,0,1-.27-.67.94.94,0,0,1,.27-.67,1.06,1.06,0,0,1,.74-.29,1,1,0,0,1,.6.14c.11.1.11.22.11.51h-.08c0-.33-.24-.43-.54-.43s-.62.29-.62.74a1,1,0,0,0,.15.57.53.53,0,0,0,.46.23h3.79V34.5c0-.45-.21-.79-.62-.79h-2l.77-.74a1,1,0,0,1,.51-.3C204.93,32.67,205.09,32.87,205.22,33Z"/>
          <path class="cls-7" d="M207.7,33.53c-.18,0-.22.11-.22.28v1.53a.78.78,0,0,1-.33.66,1.35,1.35,0,0,1-.5.2h-.07s0,0,0,0a.83.83,0,0,0,.35-.41,1.52,1.52,0,0,0,.06-.42V33.46h.76v.07Z"/>
          <path class="cls-7" d="M210.31,33.52c-.18,0-.22.11-.22.28v1.38h.57v.16h-.58v.09a.74.74,0,0,1-.33.66,1.57,1.57,0,0,1-.48.2h-.06s0,0,0,0a.73.73,0,0,0,.35-.4,1.79,1.79,0,0,0,.07-.51h-.35a1.5,1.5,0,0,1-.92-.26.83.83,0,0,1-.35-.68c0-.57.53-.94,1.35-.94h1v.07Zm-1.83.88a.77.77,0,0,0,.71.8h.43V33.68a.85.85,0,0,0-.32,0A.73.73,0,0,0,208.48,34.4Z"/>
          <path class="cls-7" d="M211.67,33.55c-.18,0-.21.11-.21.28v1.35h.85v.16H210.4v-.16H211v-1.7h.76v.07Zm-.52-.67a.24.24,0,1,1-.24-.24A.24.24,0,0,1,211.15,32.88Zm.6,0a.24.24,0,1,1-.24-.24A.24.24,0,0,1,211.75,32.88Z"/>
          <path class="cls-7" d="M215.78,33.53c-.2,0-.22.11-.22.28v.72a.76.76,0,0,1-.24.56.78.78,0,0,1-.59.24.84.84,0,0,1-.35-.07.42.42,0,0,1-.25-.24.68.68,0,0,1-.56.31.75.75,0,0,1-.61-.27.79.79,0,0,1-.57.28h-.34v-.16h.1a.56.56,0,0,0,.39-.15.73.73,0,0,0,.19-.49V33.6h.75v.06h0c-.2,0-.24.12-.24.29v.89a.36.36,0,0,0,.36.36.38.38,0,0,0,.35-.36V33.53h.76v.07h-.07c-.18,0-.21,0-.21.22v1.06a.35.35,0,0,0,.7,0h0V33.46h.76v.07Z"/>
        </g>
      </g>
      <g>
        <polygon class="cls-3" points="317.78 38.41 306.91 32.07 310.1 29.78 321.14 36.23 317.78 38.41"/>
        <polygon class="cls-2" points="322.38 37.87 320.53 39.09 320.65 37.15 316.95 39.58 315.24 38.58 322.65 33.73 322.38 37.87"/>
        <polygon class="cls-3" points="324.07 39.15 323.79 43.57 322.08 42.57 322.22 40.36 320.37 41.57 318.66 40.57 320.51 39.36 322.36 38.15 326.07 35.73 327.78 36.73 324.07 39.15"/>
        <g>
          <path class="cls-2" d="M309.84,30.71l1.36.8a.3.3,0,0,1,.14.26.48.48,0,0,1-.06.24h0l-1.48-.86-.17.3,1.16.68a.34.34,0,0,1,.15.43l0,.1-.17.29a.45.45,0,0,1-.32.22.41.41,0,0,1-.16,0h0l-1.36-.79-.06-.07a.33.33,0,0,1-.08-.24.67.67,0,0,1,0-.19h0l1.48.86.18-.29-1.17-.68a.35.35,0,0,1-.15-.43l0-.1.2-.34a.4.4,0,0,1,.32-.21A.29.29,0,0,1,309.84,30.71Z"/>
          <path class="cls-2" d="M311.66,31.76l1.91,1.12h0l-.2.35h0l-.74-.43-.75,1.29h0l-.42-.25h0l.75-1.29-.74-.43h0l.2-.36Z"/>
          <path class="cls-2" d="M314.06,33.17l1.29.76a.34.34,0,0,1,.16.4.5.5,0,0,1-.05.13l-.56,1a.37.37,0,0,1-.52.16l-1.29-.76a.34.34,0,0,1-.15-.43l0-.1.57-1a.43.43,0,0,1,.32-.21A.41.41,0,0,1,314.06,33.17Zm-.09.44-.56,1,1,.61.56-1Z"/>
          <path class="cls-2" d="M315.85,34.21l1.61.94a.34.34,0,0,1,.15.42.3.3,0,0,1,0,.1l-.19.33a.45.45,0,0,1-.31.21.3.3,0,0,1-.19-.05l-.24-.13.22,1h0l-.59-.34-.35-1.51h0l1,.59.18-.32-1-.61h0l-.75,1.29h0l-.44-.26h0l.95-1.64Z"/>
        </g>
        <g>
          <path class="cls-2" d="M313.74,29.33h0v-.06a.28.28,0,0,0-.39-.17l-.35.09.85.5a.61.61,0,0,1,.3.4.63.63,0,0,1-.08.46l-.26.44-2.34-1.36a.67.67,0,0,1-.31-.39.53.53,0,0,1,.07-.44.54.54,0,0,1,.36-.28.63.63,0,0,1,.48.08.55.55,0,0,1,.28.26c0,.09,0,.15-.1.31l0,0c.09-.18,0-.31-.16-.4s-.42,0-.56.21a.53.53,0,0,0-.1.35.35.35,0,0,0,.17.27l2,1.19.21-.37c.14-.24.14-.49-.08-.62l-1.09-.63.65-.16a.59.59,0,0,1,.37,0C313.7,29.05,313.73,29.21,313.74,29.33Z"/>
          <path class="cls-2" d="M314.92,30.38c-.1-.05-.15,0-.2.09l-.48.82a.5.5,0,0,1-.39.25.91.91,0,0,1-.33-.05l0,0h0a.45.45,0,0,0,.31-.12.55.55,0,0,0,.17-.2l.59-1,.41.24,0,0Z"/>
          <path class="cls-2" d="M316.33,31.2c-.1-.06-.15,0-.21.08l-.43.74.3.18-.05.08-.3-.18,0,0a.46.46,0,0,1-.39.25.88.88,0,0,1-.32,0l0,0s0,0,0,0a.42.42,0,0,0,.32-.11.88.88,0,0,0,.19-.24l-.18-.11a1,1,0,0,1-.41-.43.51.51,0,0,1,0-.48c.18-.31.58-.34,1-.08l.54.31,0,0Zm-1.26-.11a.47.47,0,0,0,.13.66h0l.23.13.48-.82a1,1,0,0,0-.16-.12A.46.46,0,0,0,315.07,31.09Z"/>
          <path class="cls-2" d="M317.05,31.64c-.1-.06-.15,0-.2.08l-.43.73.46.27-.05.08-1-.6.05-.08.3.18.54-.92.4.24,0,0Zm-.07-.53a.14.14,0,0,1-.2.06.15.15,0,1,1,.15-.26A.15.15,0,0,1,317,31.11Zm.32.19a.15.15,0,1,1-.25-.15.15.15,0,0,1,.2,0A.14.14,0,0,1,317.3,31.3Z"/>
          <path class="cls-2" d="M319.27,32.92c-.11-.07-.16,0-.21.08l-.23.39a.46.46,0,0,1-.3.22.48.48,0,0,1-.39,0,.61.61,0,0,1-.17-.15.27.27,0,0,1-.06-.21.43.43,0,0,1-.4,0,.45.45,0,0,1-.24-.33.53.53,0,0,1-.39,0l-.19-.11.05-.09.06,0a.37.37,0,0,0,.25,0,.49.49,0,0,0,.26-.21l.29-.5.41.23,0,0,0,0c-.11-.06-.17,0-.22.08l-.28.48a.23.23,0,0,0,.08.3.22.22,0,0,0,.3-.08l.41-.7.41.23,0,0,0,0c-.1-.06-.13,0-.19.05l-.33.57a.21.21,0,0,0,.09.27.21.21,0,0,0,.3-.07h0l.43-.74.41.24,0,0Z"/>
        </g>
      </g>
    </g>
  </g>
</svg>
