<?xml version="1.0" encoding="utf-8"?>
<!-- Generator: Adobe Illustrator 24.0.1, SVG Export Plug-In . SVG Version: 6.00 Build 0)  -->
<svg version="1.1" id="_x3C_Layer_x3E_" xmlns="http://www.w3.org/2000/svg" xmlns:xlink="http://www.w3.org/1999/xlink" x="0px"
	 y="0px" viewBox="0 0 1497.7 1305.5" style="enable-background:new 0 0 1497.7 1305.5;" xml:space="preserve">
<style type="text/css">
	.st0{fill:#44474F;}
	.st1{fill:#FFA757;}
	.st2{fill:#FC8E1F;}
	.st3{fill:#F4925D;}
	.st4{fill:#33353B;}
	.st5{fill:#13548C;}
	.st6{fill:#FFFFFF;}
	.st7{fill:#FFF2E2;}
	.st8{fill:#C97E67;}
	.st9{fill:#B2604D;}
	.st10{fill:#E9633E;}
	.st11{opacity:0.3;}
	.st12{fill:#764678;}
	.st13{fill:#606060;}
	.st14{opacity:0.5;}
	.st15{fill:#0093ED;}
	.st16{fill:#FF929F;}
</style>
<g>
	<g>
		<path class="st0" d="M870.1,227.1l-6.4-1.9c12.9-43.2-9.2-67.4-9.5-67.6l4.8-4.5C860.1,154.1,884,180.3,870.1,227.1z"/>
	</g>
	<g>
		<path class="st0" d="M724,423.9c-21.2-5.6-35.3-13-45.7-24c-11.4-12.1-18.2-28.5-21.2-51.7c-5.4-41.1-65.5-43.1-66.1-43.1l0.2-8.5
			c0.7,0,16.9,0.5,34.2,6.7c23.6,8.5,37.5,23.6,40.1,43.8c2.8,21.3,8.8,36.2,19,46.9c9.3,9.8,22.1,16.4,41.7,21.6L724,423.9z"/>
	</g>
	<g>
		<g>
			<path class="st0" d="M700.8,749.8l-56.5,0.6c0.2-0.4,22.4-37.7,33-83.5c17.6-76.1,8.3-119.9-2.5-143.2
				c-15.1-32.4-40.2-55.1-64.4-77.1c-38.4-34.9-74.8-67.8-71.2-134.5c3-56.7,35.7-100.2,62.6-126.6c29.1-28.6,57.9-44.1,58.2-44.3
				l2.7,5c-0.3,0.2-28.5,15.4-57,43.4c-26.2,25.8-57.9,68-60.8,122.8c-3.4,64,37.9,84.3,75.3,118.2c24.7,22.4,55.5,43.8,71,77.2
				c16.4,35.1,35.8,84.9,21.3,147.3C701.6,701.4,701,749.5,700.8,749.8z"/>
		</g>
	</g>
	<g>
		
			<rect x="334.4" y="258.1" transform="matrix(-0.4189 -0.908 0.908 -0.4189 438.688 940.8826)" class="st1" width="372" height="143.9"/>
	</g>
	<g>
		<path class="st2" d="M518.9,540L367.9,201c-2.3-5.1,0-11.1,5-13.4l128.5-59.3c5-2.3,10.9-0.2,13.4,4.7l158.1,315.6
			c6.2,12.3,1.1,27.4-11.3,33.4L532.7,545C527.5,547.5,521.3,545.3,518.9,540z M657.1,454.9L509.7,146.8c-2.4-5-8.4-7.2-13.4-4.8
			l-103.1,47.6c-5.1,2.3-7.3,8.3-5,13.4l140.1,312.7c2.3,5.2,8.5,7.5,13.6,5l110.5-52.2C657.4,466.1,659.5,460,657.1,454.9z"/>
	</g>
	<g>
		<path class="st2" d="M555.2,366.2c21.1-21,33.6-53.4,1.4-85.8c-21-21.1-57-21.3-80.1-2.5c-28.1,22.8-28.2,53.7-1,87.4
			C494.2,388.4,528.8,392.4,555.2,366.2z"/>
	</g>
	<g>
		<path class="st3" d="M572.3,427.4c8-7.9,12.7-20.1,0.5-32.3c-7.9-8-21.5-8-30.2-0.9c-10.6,8.6-10.6,20.2-0.4,32.9
			C549.3,435.7,562.4,437.3,572.3,427.4z"/>
	</g>
	<g>
		<path class="st2" d="M487.4,250.5c8-7.9,12.7-20.1,0.5-32.3c-7.9-8-21.5-8-30.2-0.9c-10.6,8.6-10.6,20.2-0.4,32.9
			C464.5,258.9,477.5,260.4,487.4,250.5z"/>
	</g>
	<g>
		<g>
			<path class="st1" d="M471.6,349l-0.1-0.1c-1-1.8-0.3-4.1,1.5-5.1l5.5-3c1.5-0.8,2.4-2.6,1.8-4.2c-5.3-14.6-1.4-24.7,9.5-29.4
				c10.3-4.5,20.6-1.1,31.3,7.4c9.1,7.1,12.8,12.6,18.6,9.5c4.4-2.4,7.8-8.3,3.2-16.6c-2.5-4.5-5.4-7.3-7.8-9.2
				c-1.7-1.3-2-3.8-0.6-5.5l0.8-0.9c1.3-1.5,3.5-1.8,5.1-0.6c2.2,1.7,4.5,3.9,6.8,7.1c1.1,1.6,3.2,2,4.9,1.1l4.3-2.4
				c1.8-1,4.1-0.3,5.1,1.5l0,0c1,1.8,0.3,4.1-1.5,5.1l-5.1,2.8c-1.5,0.8-2.6,2.7-1.8,4.2c6.5,12.8,0.9,22.6-7.4,27.2
				c-9.6,5.3-20.6-2.7-31-11.3c-7.7-6.1-12.2-6.9-18.3-3.5c-6.3,3.5-9.5,9.7-5.3,17.3c2.5,4.5,5.9,8.1,9.5,10.6
				c1.9,1.3,2.2,3.9,0.6,5.6l-0.9,1c-1.3,1.4-3.4,1.7-4.9,0.6c-3.2-2.2-6.5-5.4-9.1-9.2c-1.1-1.6-3.2-2.1-5-1.2l-4.7,2.6
				C474.9,351.5,472.6,350.9,471.6,349z"/>
		</g>
	</g>
	<g>
		
			<rect x="249.9" y="435" transform="matrix(-0.7815 -0.6239 0.6239 -0.7815 460.379 1175.2065)" class="st1" width="372" height="143.9"/>
	</g>
	<g>
		<path class="st2" d="M528.8,695.3L241.7,460c-4.3-3.5-5-9.9-1.5-14.2l88.3-110.6c3.4-4.3,9.6-5.1,14-1.8l282.9,211.2
			c11.1,8.3,13.3,24,4.9,34.9l-87,114.1C539.8,698.2,533.2,699,528.8,695.3z M614.1,557.3L344.2,348c-4.4-3.4-10.7-2.7-14.2,1.7
			l-70.9,88.8c-3.5,4.4-2.8,10.7,1.5,14.2l265.4,216.7c4.4,3.6,10.9,2.9,14.4-1.6l75.4-96.2C619.4,567.2,618.6,560.8,614.1,557.3z"
			/>
	</g>
	<g>
		<path class="st2" d="M483.2,523.7c9.5-28.2,6.1-62.8-37.3-77.3c-28.2-9.5-60.5,6.5-72.7,33.7c-14.9,33-1.1,60.6,38.3,78.5
			C438.7,570.9,471.4,559,483.2,523.7z"/>
	</g>
	<g>
		<path class="st2" d="M526,570.7c3.6-10.6,2.3-23.7-14-29.1c-10.6-3.6-22.8,2.5-27.4,12.7c-5.6,12.4-0.4,22.8,14.4,29.6
			C509.2,588.5,521.5,584,526,570.7z"/>
	</g>
	<g>
		<path class="st2" d="M370.8,450.7c3.6-10.6,2.3-23.7-14-29.1c-10.6-3.6-22.8,2.5-27.4,12.7c-5.6,12.4-0.4,22.8,14.4,29.6
			C354,468.4,366.4,464,370.8,450.7z"/>
	</g>
	<g>
		<g>
			<path class="st1" d="M400.8,545.8l-0.1-0.1c-1.7-1.2-2.2-3.5-1-5.3l3.5-5.1c1-1.4,1-3.4-0.3-4.6c-11.3-10.6-12.3-21.4-4.7-30.6
				c7.2-8.6,18-10.2,31.3-7.4c11.3,2.3,17.1,5.5,20.8,0.1c2.9-4.1,3.2-10.9-4.5-16.3c-4.2-2.9-8.1-4.1-11.1-4.7
				c-2.1-0.4-3.5-2.5-3-4.6l0.3-1.2c0.5-1.9,2.4-3.2,4.3-2.8c2.7,0.5,5.8,1.5,9.2,3.3c1.7,0.9,3.8,0.4,4.9-1.2l2.8-4
				c1.2-1.7,3.5-2.2,5.3-1l0,0c1.7,1.2,2.2,3.5,1,5.3l-3.3,4.8c-1,1.4-1.1,3.6,0.2,4.6c11.6,8.5,11,19.8,5.6,27.7
				c-6.2,9-19.7,6.8-32.8,3.9c-9.6-2-14-0.7-17.9,5c-4.1,5.9-4.1,13,3,17.9c4.2,2.9,8.9,4.5,13.3,5.2c2.2,0.3,3.7,2.6,3.1,4.8
				l-0.3,1.3c-0.5,1.8-2.3,3-4.1,2.8c-3.8-0.5-8.3-1.9-12.3-4.1c-1.7-0.9-3.9-0.4-5,1.2l-3,4.4C404.9,546.6,402.6,547,400.8,545.8z"
				/>
		</g>
	</g>
	<g>
		
			<rect x="748.5" y="429.5" transform="matrix(0.8807 -0.4736 0.4736 0.8807 -126.0179 502.4192)" class="st1" width="372" height="143.9"/>
	</g>
	<g>
		<path class="st2" d="M795.5,665.8L730.3,538c-6.3-12.3-1.3-27.3,11.1-33.5l316.1-157.1c4.9-2.4,10.9-0.5,13.5,4.3l67,124.6
			c2.6,4.9,0.8,11-4,13.7L809.5,670C804.4,672.8,798.1,670.9,795.5,665.8z M745.9,532.8l56.9,108.2c2.7,5,8.9,6.9,13.9,4.2
			l300-165.6c4.9-2.7,6.7-8.8,4-13.7l-53.8-100c-2.6-4.9-8.7-6.8-13.7-4.2L750.2,519C745.2,521.6,743.3,527.8,745.9,532.8z"/>
	</g>
	<g>
		<path class="st2" d="M885,509.4c-4.2-29.5,5.3-62.9,50.5-69.4c29.5-4.2,58.3,17.3,65.5,46.2c8.7,35.1-9.8,59.9-51.8,70.4
			C920.4,563.8,890.3,546.2,885,509.4z"/>
	</g>
	<g>
		<path class="st2" d="M834.6,548c-1.6-11.1,2-23.7,19-26.1c11.1-1.6,22,6.5,24.7,17.4c3.3,13.2-3.7,22.5-19.5,26.5
			C847.9,568.5,836.6,561.8,834.6,548z"/>
	</g>
	<g>
		<path class="st2" d="M1008.7,457.7c-1.6-11.1,2-23.7,19-26.1c11.1-1.6,22,6.5,24.7,17.4c3.3,13.2-3.7,22.5-19.5,26.5
			C1022,478.2,1010.7,471.6,1008.7,457.7z"/>
	</g>
	<g>
		<g>
			<path class="st1" d="M957.1,544l-2.2-4.9c-0.8-1.8-2.8-2.6-4.7-2c-4.4,1.4-9,2-12.8,1.8c-1.9-0.1-3.4-1.6-3.6-3.5l-0.1-1.3
				c-0.2-2.3,1.6-4.2,3.9-4.1c4.4,0.1,9.3-0.6,14-2.7c7.9-3.6,9.1-10.5,6.2-17c-2.8-6.3-6.9-8.4-16.7-8.1
				c-13.4,0.5-27.1,0.3-31.6-9.7c-3.9-8.7-2.5-19.9,10.4-26.2c1.5-0.8,1.8-2.9,1.1-4.5l-2.4-5.4c-0.9-1.9,0-4.2,1.9-5l0,0
				c1.9-0.9,4.2,0,5,1.9l2,4.5c0.8,1.7,2.8,2.6,4.6,2.1c3.7-1.2,6.9-1.6,9.6-1.6c2,0,3.6,1.5,3.8,3.5l0.1,1.3c0.2,2.2-1.6,4-3.8,4
				c-3.1,0-7.1,0.6-11.7,2.7c-8.6,3.9-9.4,10.6-7.4,15.2c2.7,6,9,3.8,20.5,3.6c13.7-0.4,24,3.2,29.5,12.9
				c5.9,10.4,2.9,20.8-10.1,29.3c-1.4,0.9-1.8,2.9-1.1,4.5l2.6,5.7c0.9,1.9,0,4.2-1.9,5l-0.1,0.1C960.2,546.8,958,545.9,957.1,544z"
				/>
		</g>
	</g>
	<g>
		<path class="st0" d="M926.2,137.7c11-18.4,22.7-18.9,33.1-12.7c10.4,6.2,15.6,16.7,4.7,35.1c-20,33.5-48.5,38.5-48.5,38.5
			S905.9,171.8,926.2,137.7z"/>
	</g>
	<g>
		<path class="st0" d="M971.2,190.9c14.4-1.1,19.2,5.2,19.9,13.3c0.6,8.2-3.1,15.1-17.6,16.2c-26.3,2-40.1-11.8-40.1-11.8
			S944.5,192.9,971.2,190.9z"/>
	</g>
	<g>
		<path class="st0" d="M239,578.4c-20,7.7-29.5,0.8-33.8-10.6c-4.3-11.3-1.9-22.8,18.1-30.4c36.4-14,61.9-0.2,61.9-0.2
			S276,564.3,239,578.4z"/>
	</g>
	<g>
		<path class="st0" d="M300.5,278.3c-17.2-12.8-16.4-24.5-9.2-34.2c7.2-9.7,18.2-13.8,35.4-1c31.3,23.3,33.3,52.2,33.3,52.2
			S332.3,301.9,300.5,278.3z"/>
	</g>
	<g>
		<path class="st0" d="M677,53.4c-4.4-21,4-29.2,15.8-31.7c11.9-2.5,22.8,1.8,27.2,22.7c8,38.2-9.7,61.1-9.7,61.1
			S685.1,92.1,677,53.4z"/>
	</g>
	<g>
		<g>
			<g>
				<path class="st4" d="M928.7,650.3c6,8.4,10.4,9,13.7,6.7c3.3-2.3,4.2-6.7-1.8-15.2c-10.9-15.4-22.1-18.5-22.1-18.5
					S917.7,634.7,928.7,650.3z"/>
			</g>
			<g>
				<path class="st4" d="M901.6,711.5c2.9,9.9,6.9,11.9,10.8,10.8c3.9-1.1,6.2-5,3.2-14.9c-5.3-18-14.9-24.7-14.9-24.7
					S896.2,693.2,901.6,711.5z"/>
			</g>
			<g>
				<g>
					<g>
						<path class="st4" d="M833.8,872l1.8,0.6c0.1-0.3,10.3-28.9,37.8-65c25.3-33.4,71-80.3,144.6-114.1l-0.8-1.8
							c-74,34-119.9,81.2-145.4,114.8C844.2,842.9,833.9,871.7,833.8,872z"/>
					</g>
				</g>
				<g>
					<g>
						<path class="st4" d="M937.7,740.4l1.9-0.3c-10.3-70.2,40.5-126.9,41.1-127.5l-1.4-1.3C978.8,611.9,927.3,669.3,937.7,740.4z"
							/>
					</g>
				</g>
				<g>
					<g>
						<path class="st4" d="M977.6,723.6c18.1,8.2,35.9,5.3,36.1,5.2l-0.3-1.9c-0.2,0-23,3.7-42.8-9.4l-1.1,1.6
							C972.2,720.9,974.9,722.4,977.6,723.6z"/>
					</g>
				</g>
				<g>
					<g>
						<path class="st4" d="M1023.7,684.1c-13.3,4.3-16.2,8.6-15,12.5c1.2,3.9,6.2,5.7,19.4,1.5c24.2-7.7,33.6-18.5,33.6-18.5
							S1048.2,676.2,1023.7,684.1z"/>
					</g>
				</g>
				<g>
					<g>
						<path class="st4" d="M1011.5,720.9c-13.9,0.1-18.1,3.4-18,7.4c0,4,4.2,7.3,18.1,7.3c25.4-0.1,37.6-7.5,37.6-7.5
							S1037.2,720.8,1011.5,720.9z"/>
					</g>
				</g>
				<g>
					<g>
						<path class="st4" d="M972.2,687c-6.3,8.2-5.5,12.6-2.3,15.1c3.2,2.5,7.7,2,14-6.2c11.4-14.9,11.2-26.6,11.2-26.6
							S983.8,671.9,972.2,687z"/>
					</g>
				</g>
				<g>
					<g>
						<path class="st4" d="M978.8,602.4c-8.5,11-8.5,16.3-5.3,18.8c3.2,2.5,8.3,1.2,16.9-9.8c15.5-20.1,17.2-34.2,17.2-34.2
							S994.5,582.1,978.8,602.4z"/>
					</g>
				</g>
			</g>
		</g>
	</g>
	<g>
		<g>
			<path class="st5" d="M340.5,686.3c45.5,27.9,11.3,99.6,72.3,105.3c61,5.7,57.6,0.5,76.1,34.3c0,0,2.3,27.2,23.3,38.9
				c82.7,46.2,248.6-42.1,181.8-145.9c-4.8-7.5-13.8-12.9-23.9-18.3c-54.9-29.3-82.2-9-104.1-93.3c-21.9-84.3-118.1-7.9-155.8-25
				c-37.7-17-67.9-40.7-112.6-10C252.8,603.1,295,658.5,340.5,686.3z"/>
		</g>
	</g>
	<g>
		<g>
			<g>
				<path class="st6" d="M632.8,803.9l2.8-2.1c-0.9-1.2-95.7-125.1-349.2-220.2l-1.2,3.3C537.7,679.7,631.9,802.7,632.8,803.9z"/>
			</g>
		</g>
		<g>
			<g>
				<path class="st6" d="M508.2,649.8c44.3-18.6,58.6-40.6,59.2-41.5l-3-1.9c-0.1,0.2-14.4,22.1-57.6,40.2L508.2,649.8z"/>
			</g>
		</g>
		<g>
			<g>
				<path class="st6" d="M489.9,683.6c15.3-13.4,22.8-37.7,21.7-70.4c-0.8-24.5-6.2-45.3-6.3-45.6l-3.4,0.9
					c0.2,0.8,20.8,81.7-14.3,112.5L489.9,683.6z"/>
			</g>
		</g>
		<g>
			<g>
				<path class="st6" d="M424.7,654.3c5.2-2,8.1-3.4,8.2-3.4l-1.6-3.1c-0.6,0.3-62.3,30.3-129.1,4.7l-1.3,3.3
					C354.8,676.3,405.4,661.6,424.7,654.3z"/>
			</g>
		</g>
		<g>
			<g>
				<path class="st6" d="M364.8,719.4c21.4-11.8,31.8-27.4,36.7-38.5c5.4-12,5.7-21.1,5.7-21.5l-3.5-0.1c0,0.4-1.4,35.4-40.6,57
					L364.8,719.4z"/>
			</g>
		</g>
	</g>
	<g>
		<g>
			<path class="st5" d="M850.1,725.4c-17.6,18.5,7.1,47.5-20.4,57.7c-27.5,10.2-26.6,7.4-30.9,25.3c0,0,2.3,12.9-5.9,20.9
				c-32.5,31.6-120.2,11.3-102.2-45c1.3-4.1,4.8-7.7,8.8-11.4c21.8-20.3,36.9-14.3,36.6-56.1c-0.3-41.7,53.7-18.3,69-30.9
				c15.3-12.5,26.4-27.2,50.9-18.6C880.4,676.1,867.8,706.9,850.1,725.4z"/>
		</g>
	</g>
	<g>
		<g>
			<g>
				<path class="st6" d="M729.5,816l-1.6-0.6c0.3-0.7,28.8-69.7,134.3-145.1l1,1.4C758.1,746.8,729.8,815.4,729.5,816z"/>
			</g>
		</g>
		<g>
			<g>
				<path class="st6" d="M768,729.3c-22.8-3.1-32.1-11.5-32.5-11.9l1.1-1.2c0.1,0.1,9.4,8.4,31.6,11.4L768,729.3z"/>
			</g>
		</g>
		<g>
			<g>
				<path class="st6" d="M780.7,742.7c-8.7-4.3-15.2-14.6-18.7-29.9c-2.6-11.4-2.7-21.7-2.7-21.9l1.7,0c0,0.4,0.5,40.4,20.5,50.3
					L780.7,742.7z"/>
			</g>
		</g>
		<g>
			<g>
				<path class="st6" d="M807.3,721.1c-2.6-0.3-4.2-0.6-4.2-0.6l0.3-1.6c0.3,0.1,32.6,6.3,60.3-13.8l1,1.4
					C842.3,722.6,817.1,722,807.3,721.1z"/>
			</g>
		</g>
		<g>
			<g>
				<path class="st6" d="M843,743.8c-11.4-2.8-18.1-8.8-21.7-13.2c-4-4.9-5.2-9.1-5.3-9.3l1.6-0.5c0,0.2,5,16.2,25.8,21.3L843,743.8
					z"/>
			</g>
		</g>
	</g>
	<g>
		<path class="st2" d="M413.6,807l84.5,381.3c5,22.7,26.5,39,51.4,39h294.5c25.5,0,47.4-17.1,51.8-40.6l76.9-413.9L413.6,807z"/>
	</g>
	<g>
		<path class="st1" d="M385.4,788.6l-4.8,31.1c-1.6,10.4,7.4,19.6,18.7,19l581.6-31.3c9.5-0.5,16.8-7.8,16.8-16.6v-27.3
			c0-9.3-8.1-16.8-18.1-16.7L429,752.9C407,753.2,388.5,768.3,385.4,788.6z"/>
	</g>
	<g>
		<path class="st4" d="M420.3,838.4c-0.5,0-0.9-0.4-0.9-0.9c0-0.5,0.4-1,0.9-1l544.9-29.4c0.5,0,1,0.4,1,0.9c0,0.5-0.4,1-0.9,1
			L420.3,838.4C420.4,838.4,420.3,838.4,420.3,838.4z"/>
	</g>
	<g>
		<path class="st5" d="M496.6,453.8c0-42,20-86.7,84.5-86.7c42,0,77.9,35.8,82.2,77.6c5.1,50.8-25.7,81.6-86.4,87.9
			C535.1,536.9,496.6,506.3,496.6,453.8z"/>
	</g>
	<g>
		<path class="st6" d="M570.6,522.9c-15.6,0-30.3-5.5-41.8-15.9c-14.2-12.8-22-31.9-22-53.7c0-14.5,2.7-35.2,15.8-51.7
			c12.8-16.2,32.4-24.4,58.3-24.4c36,0,68.4,30.5,72.1,68c4.5,44.3-22.3,71.7-75.5,77.2C575.3,522.7,572.9,522.9,570.6,522.9z
			 M581,381.8c-20.9,0-69.5,7-69.5,71.5c0,20.5,7.3,38.4,20.5,50.3c12.2,11,28.3,16.1,45.2,14.4c25.2-2.6,44.2-10.2,56.3-22.5
			c12.1-12.3,17.2-29,15.1-49.7C645,410.5,614.7,381.8,581,381.8z"/>
	</g>
	<g>
		<g>
			<path class="st6" d="M580.6,497.2l-0.8-5.2c-0.3-1.9-2-3.2-3.9-3.2c-4.5,0.2-9-0.4-12.7-1.6c-1.8-0.6-2.8-2.4-2.5-4.2l0.2-1.3
				c0.4-2.2,2.6-3.5,4.8-2.9c4.1,1.3,9,1.8,14,1.1c8.5-1.3,11.4-7.6,10.4-14.5c-1-6.7-4.4-9.8-13.7-12.1c-12.9-3-25.8-6.8-27.4-17.5
				c-1.4-9.3,2.9-19.5,16.8-22.1c1.7-0.3,2.5-2.3,2.2-4l-0.9-5.7c-0.3-2,1.1-3.9,3.1-4.3l0,0c2-0.3,3.9,1.1,4.3,3.1l0.7,4.8
				c0.3,1.9,1.9,3.2,3.8,3.2c3.8-0.1,6.9,0.3,9.6,1c1.9,0.5,3,2.4,2.6,4.3l-0.2,1.2c-0.4,2.1-2.6,3.4-4.6,2.8
				c-2.9-0.8-6.9-1.3-11.8-0.6c-9.2,1.4-11.8,7.6-11,12.5c1,6.4,7.5,6,18.5,8.8c13.1,3.3,21.9,9.3,24.6,20
				c2.9,11.4-2.7,20.5-17.3,25.1c-1.6,0.5-2.5,2.3-2.2,4l0.9,6.1c0.3,2-1.1,3.9-3.1,4.3l-0.1,0C582.8,500.7,580.9,499.3,580.6,497.2
				z"/>
		</g>
	</g>
	<g>
		<path class="st5" d="M748.4,104.8c-9.1-41,0.6-89,63.6-103c41-9.1,83.9,18,97.1,57.9c16.1,48.5-7.3,85.2-65.2,104.6
			C804,177.5,759.8,156,748.4,104.8z"/>
	</g>
	<g>
		<path class="st6" d="M821.6,157.6c-10.6,0-20.9-2.7-30.3-8c-16.6-9.4-28.4-26.3-33.2-47.6l0,0c-3.1-14.1-5-35,4.2-53.9
			c9-18.6,26.4-30.8,51.6-36.4c35.1-7.8,73.4,14.9,85.2,50.7c14,42.3-6.2,74.9-56.9,91.8C835.5,156.5,828.5,157.6,821.6,157.6z
			 M762.7,101c4.5,20,15.5,35.9,30.9,44.7c14.3,8.1,31.1,9.6,47.3,4.2c24-8,40.9-19.5,50.1-34.2c9.2-14.6,10.5-32,3.9-51.8
			c-11.1-33.6-47-55-79.9-47.7C794.6,20.7,748.6,38.1,762.7,101L762.7,101z"/>
	</g>
	<g>
		<g>
			<path class="st6" d="M839.8,128.9l-1.9-4.9c-0.7-1.8-2.6-2.7-4.5-2.2c-4.4,1.2-8.9,1.6-12.7,1.2c-1.8-0.2-3.3-1.7-3.3-3.6l0-1.3
				c-0.1-2.2,1.8-4,4-3.9c4.3,0.4,9.2-0.2,13.9-2c8-3.1,9.5-9.9,7-16.5c-2.5-6.3-6.4-8.6-16-8.9c-13.2-0.2-26.6-1.1-30.6-11.1
				c-3.4-8.8-1.5-19.7,11.6-25.3c1.6-0.7,1.9-2.8,1.3-4.4l-2.1-5.4c-0.7-1.9,0.2-4.1,2.1-4.8l0,0c1.9-0.7,4.1,0.2,4.8,2.1l1.8,4.5
				c0.7,1.8,2.6,2.7,4.4,2.3c3.7-1,6.8-1.2,9.6-1.1c2,0.1,3.5,1.7,3.5,3.7l0,1.2c0,2.2-1.8,3.9-3.9,3.8c-3-0.1-7,0.2-11.7,2
				c-8.6,3.4-9.8,9.9-8,14.6c2.3,6,8.6,4.2,20,4.6c13.4,0.3,23.4,4.3,28.3,14.2c5.3,10.5,1.8,20.6-11.4,28.3
				c-1.5,0.8-1.9,2.8-1.3,4.4l2.2,5.7c0.7,1.9-0.2,4.1-2.1,4.8l-0.1,0C842.7,131.8,840.5,130.8,839.8,128.9z"/>
		</g>
	</g>
	<g>
		<path class="st5" d="M565.5,122c10.4-26.5,34-49.8,74.7-33.9c26.5,10.4,40.3,41.8,32.7,69.3c-9.3,33.3-36.3,45.1-76.2,34.1
			C569.3,183.9,552.6,155.1,565.5,122z"/>
	</g>
	<g>
		<path class="st6" d="M622.8,188.8c-7,0-14.8-1.1-23.1-3.5c-12-3.3-21.5-11.1-26.9-21.8c-5.8-11.6-6-25.5-0.6-39.3l0,0
			c3.6-9.1,10.4-21.5,22.8-28.7c12.1-7,26.5-7.4,42.8-1c22.7,8.9,35.6,36.1,28.7,60.8C660.2,177.3,645.1,188.8,622.8,188.8z
			 M573.6,124.7l1.4,0.6c-5.1,13-4.9,26,0.5,36.8c5,10,13.9,17.2,25,20.2c16.6,4.6,30.4,4.5,41.1-0.3c10.7-4.7,18-14.1,21.8-27.7
			c6.5-23.1-5.6-48.7-26.9-57c-13.2-5.2-45.6-12.8-61.5,27.9L573.6,124.7z"/>
	</g>
	<g>
		<g>
			<path class="st6" d="M607.8,170.1l0.8-3.5c0.3-1.3-0.4-2.5-1.7-3c-2.9-1-5.6-2.5-7.6-4.2c-1-0.8-1.2-2.2-0.5-3.3l0.5-0.7
				c0.8-1.3,2.5-1.6,3.7-0.6c2.3,1.8,5.2,3.4,8.6,4.1c5.7,1.3,9.1-2,10.1-6.6c1-4.5-0.3-7.3-5.7-11c-7.4-5.1-14.6-10.7-13-17.8
				c1.4-6.2,6.6-11.6,16.1-9.8c1.1,0.2,2.1-0.9,2.4-2l0.9-3.8c0.3-1.4,1.7-2.2,3-1.9l0,0c1.4,0.3,2.2,1.7,1.9,3l-0.7,3.2
				c-0.3,1.2,0.4,2.5,1.6,2.9c2.4,0.8,4.3,1.9,5.8,3c1.1,0.8,1.3,2.3,0.6,3.4l-0.5,0.7c-0.8,1.2-2.4,1.5-3.6,0.6
				c-1.7-1.2-4-2.5-7.3-3.3c-6.1-1.4-9.3,1.9-10,5.2c-1,4.3,3.2,5.6,9.5,10.1c7.4,5.3,11.5,11.3,10.6,18.7
				c-1,7.9-6.8,12.3-17.1,11.6c-1.1-0.1-2.1,0.9-2.4,2l-0.9,4.1c-0.3,1.4-1.7,2.2-3,1.9l-0.1,0C608.4,172.8,607.5,171.5,607.8,170.1
				z"/>
		</g>
	</g>
	<g>
		
			<rect x="628.5" y="330.7" transform="matrix(0.4189 -0.908 0.908 0.4189 107.6996 973.6129)" class="st1" width="372" height="143.9"/>
	</g>
	<g>
		<path class="st2" d="M802.2,617.6l-128.9-62.9c-12.4-6.1-17.5-21.1-11.3-33.4l158.1-315.6c2.5-4.9,8.4-7,13.4-4.7L962,260.2
			c5.1,2.3,7.3,8.3,5,13.4L816,612.6C813.7,617.9,807.4,620.1,802.2,617.6z M682.7,541.1l110.5,52.2c5.2,2.4,11.3,0.2,13.6-5
			l140.1-312.7c2.3-5.1,0-11.1-5-13.4l-103.1-47.6c-5.1-2.3-11-0.2-13.4,4.8L677.8,527.5C675.4,532.6,677.6,538.7,682.7,541.1z"/>
	</g>
	<g>
		<path class="st2" d="M779.8,438.8c-21.1-21-33.6-53.4-1.4-85.8c21-21.1,57-21.3,80.1-2.5c28.1,22.8,28.2,53.7,1,87.4
			C840.8,461,806.1,465,779.8,438.8z"/>
	</g>
	<g>
		<path class="st2" d="M762.6,500c-8-7.9-12.7-20.1-0.5-32.3c7.9-8,21.5-8,30.2-0.9c10.6,8.6,10.6,20.2,0.4,32.9
			C785.6,508.3,772.6,509.9,762.6,500z"/>
	</g>
	<g>
		<path class="st2" d="M847.5,323.1c-8-7.9-12.7-20.1-0.5-32.3c7.9-8,21.5-8,30.2-0.9c10.6,8.6,10.6,20.2,0.4,32.9
			C870.5,331.5,857.4,333,847.5,323.1z"/>
	</g>
	<g>
		<g>
			<path class="st1" d="M858.2,423.1l-4.7-2.6c-1.7-0.9-3.8-0.4-5,1.2c-2.6,3.8-5.9,7-9.1,9.2c-1.6,1.1-3.7,0.8-4.9-0.6l-0.9-1
				c-1.5-1.7-1.2-4.3,0.6-5.6c3.6-2.5,7.1-6.1,9.5-10.6c4.2-7.6,1-13.9-5.3-17.3c-6.1-3.3-10.6-2.6-18.3,3.5
				c-10.4,8.5-21.4,16.5-31,11.3c-8.4-4.6-14-14.4-7.4-27.2c0.8-1.5-0.3-3.4-1.8-4.2l-5.1-2.8c-1.8-1-2.5-3.3-1.5-5.1l0,0
				c1-1.8,3.3-2.5,5.1-1.5l4.3,2.4c1.7,0.9,3.8,0.5,4.9-1.1c2.2-3.1,4.5-5.4,6.8-7.1c1.6-1.2,3.8-0.9,5.1,0.6l0.8,0.9
				c1.4,1.7,1.1,4.1-0.6,5.5c-2.4,1.9-5.3,4.7-7.8,9.2c-4.5,8.3-1.2,14.1,3.2,16.6c5.7,3.2,9.5-2.3,18.6-9.5
				c10.7-8.5,21.1-11.9,31.3-7.4c11,4.8,14.9,14.9,9.5,29.4c-0.6,1.6,0.3,3.4,1.8,4.2l5.5,3c1.8,1,2.5,3.3,1.5,5.1l-0.1,0.1
				C862.3,423.5,860,424.1,858.2,423.1z"/>
		</g>
	</g>
	<g>
		<g>
			<path class="st7" d="M717.4,749.9c0,0-60.3-222.5-130.6-206c-70.4,16.5,79.2,141.3,94.3,206.6L717.4,749.9z"/>
		</g>
		<g>
			<g>
				<path class="st0" d="M697.1,750.4c-9.6-45.3-35.6-90.7-55.6-120.9c-21.8-32.7-41.5-55-41.7-55.2l1.4-1.2
					c0.2,0.2,20,22.6,41.8,55.4c20.2,30.3,46.2,76,55.9,121.6L697.1,750.4z"/>
			</g>
		</g>
	</g>
	<g>
		<path class="st5" d="M977.9,316c12.6-33.7,42.1-63.6,93.9-44.3c33.7,12.6,51.8,52.2,42.7,87c-11.1,42.3-45.1,57.8-95.8,44.6
			C983.9,394.2,962.2,358.1,977.9,316z"/>
	</g>
	<g>
		<path class="st6" d="M1050.4,399.4c-8.6,0-18-1.3-28.1-4c-15.2-4-27.5-13.6-34.5-27.1c-7.5-14.5-8.1-32.2-1.5-49.7l0,0
			c4.4-11.6,12.8-27.4,28.3-36.7c15.2-9.1,33.4-9.8,54.1-2c28.9,10.8,45.7,45.1,37.5,76.3C1098.7,384.6,1079.3,399.4,1050.4,399.4z
			 M1041.8,278.4c-9.2,0-17.6,2.3-25.2,6.8c-14.5,8.7-22.5,23.7-26.6,34.8l0,0c-6.2,16.5-5.7,33,1.3,46.6
			c6.5,12.5,17.9,21.5,32,25.1c21,5.5,38.5,5.1,52-1.1c13.4-6.2,22.5-18.1,27.1-35.4c7.7-29.4-8-61.5-35.1-71.7
			C1058.2,280.1,1049.7,278.4,1041.8,278.4z"/>
	</g>
	<g>
		<g>
			<path class="st6" d="M1032.3,376.1l0.9-4.4c0.3-1.6-0.6-3.2-2.2-3.7c-3.7-1.2-7.1-3.1-9.7-5.1c-1.2-1-1.5-2.8-0.7-4.1l0.6-0.9
				c1-1.6,3.2-2.1,4.7-0.9c2.9,2.3,6.7,4.2,10.9,5.1c7.2,1.5,11.5-2.6,12.7-8.6c1.2-5.7-0.5-9.2-7.4-13.9
				c-9.4-6.3-18.6-13.2-16.8-22.3c1.6-7.9,8.2-14.8,20.2-12.7c1.4,0.3,2.7-1.1,3-2.5l1-4.9c0.4-1.7,2.1-2.8,3.8-2.5l0,0
				c1.7,0.4,2.8,2.1,2.5,3.8l-0.8,4c-0.3,1.6,0.6,3.2,2.1,3.7c3.1,1,5.5,2.3,7.4,3.7c1.4,1,1.7,2.9,0.8,4.3l-0.6,0.9
				c-1,1.6-3.1,2-4.6,0.9c-2.1-1.5-5.1-3.1-9.3-4c-7.8-1.6-11.7,2.5-12.6,6.7c-1.1,5.4,4.2,7.1,12.2,12.6
				c9.5,6.5,14.8,14.1,13.7,23.5c-1.1,10-8.3,15.7-21.4,15c-1.5-0.1-2.7,1.1-3,2.5l-1.1,5.2c-0.4,1.7-2.1,2.8-3.8,2.5l-0.1,0
				C1033.1,379.5,1032,377.8,1032.3,376.1z"/>
		</g>
	</g>
	<g>
		<path class="st5" d="M699.4,577.1c10.4-26.5,34-49.8,74.7-33.9c26.5,10.4,40.3,41.8,32.7,69.3c-9.3,33.3-36.3,45.1-76.2,34.1
			C703.2,639,686.4,610.2,699.4,577.1z"/>
	</g>
	<g>
		<path class="st6" d="M756.7,643.9c-7,0-14.8-1.1-23.1-3.5c-12-3.3-21.5-11.1-26.9-21.8c-5.8-11.6-6-25.5-0.6-39.3
			c3.6-9.1,10.4-21.5,22.8-28.7c12.1-7,26.5-7.4,42.8-1c22.7,8.9,35.6,36.1,28.7,60.8C794.1,632.4,778.9,643.9,756.7,643.9z
			 M749.6,548.1c-7,0-13.5,1.7-19.3,5.1c-11.6,6.7-18,18.5-21.4,27.2l0,0c-5.1,13-4.9,26,0.5,36.8c5,10,13.9,17.2,25,20.2
			c16.6,4.6,30.4,4.5,41.1-0.3c10.7-4.7,18-14.1,21.8-27.7c6.5-23.1-5.6-48.7-26.9-57C763,549.6,756.1,548.1,749.6,548.1z"/>
	</g>
	<g>
		<g>
			<path class="st6" d="M741.7,625.2l0.8-3.5c0.3-1.3-0.4-2.5-1.7-3c-2.9-1-5.6-2.5-7.6-4.2c-1-0.8-1.2-2.2-0.5-3.3l0.5-0.7
				c0.8-1.3,2.5-1.6,3.7-0.6c2.3,1.8,5.2,3.4,8.6,4.1c5.7,1.3,9.1-2,10.1-6.6c1-4.5-0.3-7.3-5.7-11c-7.4-5.1-14.6-10.7-13-17.8
				c1.4-6.2,6.6-11.6,16.1-9.8c1.1,0.2,2.1-0.9,2.4-2l0.9-3.8c0.3-1.4,1.7-2.2,3-1.9l0,0c1.4,0.3,2.2,1.7,1.9,3l-0.7,3.2
				c-0.3,1.2,0.4,2.5,1.6,2.9c2.4,0.8,4.3,1.9,5.8,3c1.1,0.8,1.3,2.3,0.6,3.4l-0.5,0.7c-0.8,1.2-2.4,1.5-3.6,0.6
				c-1.7-1.2-4-2.5-7.3-3.3c-6.1-1.4-9.3,1.9-10,5.2c-1,4.3,3.2,5.6,9.5,10.1c7.4,5.3,11.5,11.3,10.6,18.7
				c-1,7.9-6.8,12.3-17.1,11.6c-1.1-0.1-2.1,0.9-2.4,2l-0.9,4.1c-0.3,1.4-1.7,2.2-3,1.9l-0.1,0C742.2,627.9,741.3,626.6,741.7,625.2
				z"/>
		</g>
	</g>
	<g>
		<path class="st0" d="M664.9,362.9l-3.5-7.8c40-17.8,43.7-97.1,43.8-97.9l8.5,0.4c0,0.9-0.9,21.4-7.2,44.6
			C697.9,334,683.9,354.4,664.9,362.9z"/>
	</g>
	<g>
		<path class="st5" d="M658.7,253.5c0-38.9,18.5-80.2,78.1-80.2c38.9,0,72.1,33.1,76,71.8c4.8,47-23.8,75.5-79.9,81.3
			C694.3,330.3,658.7,302,658.7,253.5z"/>
	</g>
	<g>
		<path class="st6" d="M727.2,317.3c-14.5,0-28-5.1-38.6-14.7c-13.1-11.8-20.4-29.5-20.4-49.7c0-13.4,2.5-32.6,14.7-47.8
			c11.9-14.9,30-22.5,53.9-22.5c33.3,0,63.2,28.2,66.8,63c4.1,41-20.7,66.4-69.8,71.5C731.5,317.2,729.3,317.3,727.2,317.3z
			 M736.8,186.8c-19.3,0-64.3,6.4-64.3,66.1c0,19,6.7,35.5,19,46.6c11.3,10.2,26.2,14.9,41.8,13.3c23.3-2.4,40.9-9.4,52.1-20.8
			c11.2-11.3,15.9-26.8,14-46C796,213.4,768,186.8,736.8,186.8z"/>
	</g>
	<g>
		<g>
			<path class="st6" d="M736.4,293.6l-0.7-4.8c-0.3-1.8-1.8-3-3.6-2.9c-4.2,0.2-8.4-0.4-11.7-1.5c-1.6-0.5-2.6-2.2-2.3-3.9l0.2-1.2
				c0.4-2,2.4-3.3,4.4-2.7c3.8,1.2,8.4,1.7,12.9,1c7.8-1.2,10.6-7,9.6-13.5c-1-6.2-4-9.1-12.7-11.2c-11.9-2.8-23.8-6.3-25.4-16.2
				c-1.3-8.6,2.6-18.1,15.6-20.5c1.5-0.3,2.3-2.1,2-3.7l-0.8-5.3c-0.3-1.9,1-3.6,2.9-3.9l0,0c1.9-0.3,3.6,1,3.9,2.9l0.7,4.4
				c0.3,1.7,1.8,3,3.5,2.9c3.5-0.1,6.4,0.3,8.9,1c1.7,0.5,2.8,2.2,2.4,4l-0.2,1.1c-0.4,2-2.4,3.1-4.3,2.6c-2.7-0.7-6.4-1.2-11-0.5
				c-8.5,1.3-10.9,7-10.2,11.5c0.9,5.9,6.9,5.5,17.1,8.2c12.1,3,20.3,8.6,22.7,18.5c2.6,10.6-2.5,19-16,23.2c-1.5,0.5-2.3,2.1-2,3.7
				l0.9,5.6c0.3,1.9-1,3.6-2.9,3.9l-0.1,0C738.5,296.8,736.7,295.5,736.4,293.6z"/>
		</g>
	</g>
	<g>
		<g>
			<path class="st4" d="M1304.9,1247.4c-1.1-0.1-2-0.9-2.1-2.1l-49.1-453.8c-0.1-1.3,0.8-2.4,2.1-2.6c1.3-0.1,2.4,0.8,2.6,2.1
				l49.1,453.8c0.1,1.3-0.8,2.4-2.1,2.6C1305.2,1247.4,1305.1,1247.4,1304.9,1247.4z"/>
		</g>
		<g>
			<path class="st4" d="M1495.1,1224.2c-1.1-0.1-1.9-0.9-2.1-2l-64-416.1c-0.2-1.3,0.7-2.5,2-2.7c1.3-0.2,2.5,0.7,2.7,2l64,416.1
				c0.2,1.3-0.7,2.5-2,2.7C1495.5,1224.2,1495.3,1224.2,1495.1,1224.2z"/>
		</g>
		<g>
			
				<rect x="1356.3" y="815.7" transform="matrix(8.232920e-02 -0.9966 0.9966 8.232920e-02 344.2571 2185.7676)" class="st4" width="5.4" height="180.5"/>
		</g>
		<g>
			
				<rect x="1370" y="920.6" transform="matrix(0.1476 -0.9891 0.9891 0.1476 166.7753 2222.449)" class="st4" width="5.4" height="187.7"/>
		</g>
		<g>
			
				<rect x="1382.2" y="1020.6" transform="matrix(2.274445e-03 -1 1 2.274445e-03 267.2874 2496.8359)" class="st4" width="5.4" height="187.8"/>
		</g>
	</g>
	<g>
		<path class="st4" d="M1313.6,873.9c0,0-0.3,10.1-7.1,12.9c-6.8,2.8-26.5,5.4-19.1,11.9c4.2,3.7,24.1,1.3,29.8,1.3
			c5.6,0,10.9,2.5,15.1-1.3c4.6-4.1,0-24.7,0-24.7s-4.9,2.5-9.2,2.4C1316.7,876.1,1313.6,873.9,1313.6,873.9z"/>
	</g>
	<g>
		<path class="st4" d="M1391.7,873.9c0,0-0.3,10.1-7.1,12.9c-6.8,2.8-26.5,5.4-19.1,11.9c4.2,3.7,24.1,1.3,29.8,1.3
			c5.6,0,10.9,2.5,15.1-1.3c4.6-4.1,0-24.7,0-24.7s-4.9,2.5-9.2,2.4C1394.8,876.1,1391.7,873.9,1391.7,873.9z"/>
	</g>
	<g>
		<path class="st5" d="M1263,598.3c0,0-1.3,42.1,12.2,122.8c9.7,58.3,21.1,117,26.8,145.1c2,10.1,10.5,17.4,20.5,17.8l5.4,0.2
			c10.9,0.4,19.7-8.9,18.9-20l-13.6-190.5l-3.4-62.7L1263,598.3z"/>
	</g>
	<g>
		<path class="st4" d="M1385.9,635.3c-0.6,5.1-29.6,4.5-65,0c-35.5-4.5-63.1-12.2-62.4-17.3c0.6-5.1,29.2-5.7,64.7-1.3
			C1358.5,621.3,1386.5,630.2,1385.9,635.3z"/>
	</g>
	<g>
		<path class="st5" d="M1303.7,628.4l75.7,243.2c3.2,10.2,12.3,17.2,22.8,17.3l4.5,0.1c10.7,0.2,19-9.7,17-20.6l-41.4-228.5
			c-0.6-2.7-2.6-4.9-5.2-5.6C1362.9,630.2,1302.3,618.3,1303.7,628.4z"/>
	</g>
	<g>
		<g>
			<g>
				<path class="st8" d="M1390.7,618.2l-17.2-19.9c0.3-0.2,34-21.5,30.8-51.7c-1.7-15.8-11.1-28.5-28.1-37.7
					c-13.5-7.4-26.8-9.7-26.9-9.7l4-25.9c0.7,0.1,17.4,2.9,34.9,12.5c24.6,13.4,38.9,33.5,41.5,58c2.1,19.8-4.8,39.6-20.1,57.1
					C1398.8,613.2,1399.2,614,1390.7,618.2z"/>
			</g>
		</g>
	</g>
	<g>
		<g>
			<path class="st8" d="M1256.6,533.6c-13.8,0-28.4-5.3-43.5-15.6c-11.4-7.8-19-15.9-19.3-16.3l18.5-18.1l-9.3,9l9.2-9.1
				c6.5,7,27.5,24.8,45.9,23.8c8.4-0.4,15.6-4.8,22-13.3l20.2,16.1c-11,14.5-25.2,22.6-41,23.4
				C1258.5,533.6,1257.6,533.6,1256.6,533.6z"/>
		</g>
	</g>
	<g>
		<path class="st0" d="M1374,495.3c0,0-10.1-28.3-45.9-27c-35.9,1.3-63,48.4-69.7,149.8c0,0,58.7-12.9,127.6,17.2
			C1386,635.2,1389.8,536.6,1374,495.3z"/>
	</g>
	<g>
		<path class="st0" d="M1402.2,489.3l-28.4,20.6c0,0-65.3,6.5-82.7,3.4c-17.3-3.1-22.1-17.2-22.1-17.2s18.5-21.1,49.9-26.7
			c2.9-0.5,6-0.9,9.2-1.2c5.3-0.4,10.7-0.2,15.9,0.3C1375,472,1402.2,489.3,1402.2,489.3z"/>
	</g>
	<g>
		<path class="st4" d="M1402.2,489.3c1.5,2.2-3.6,8.6-11.4,14.3c-7.8,5.7-15.4,8.5-17,6.2c-1.5-2.2,3.6-8.6,11.4-14.3
			C1393.1,489.9,1400.7,487.1,1402.2,489.3z"/>
	</g>
	<g>
		<path class="st8" d="M1227.7,511c0,0-7.7-22-15.4-27.4c-7.7-5.4-12.2,1.3-12.2,1.3l-8-1.8c0,0-7.8,34,16.8,32.4
			C1210.8,515.5,1227.7,511,1227.7,511z"/>
	</g>
	<g>
		<path class="st9" d="M1421.5,553.4c-2.6,0-4.7-3-4.7-6.6c0-3.7,2.1-6.6,4.7-6.6c2.6,0,4.7,3,4.7,6.6
			C1426.3,550.4,1424.1,553.4,1421.5,553.4z M1421.5,541.4c-1.9,0-3.5,2.5-3.5,5.4c0,2.9,1.6,5.4,3.5,5.4s3.5-2.5,3.5-5.4
			C1425,543.9,1423.4,541.4,1421.5,541.4z"/>
	</g>
	<g>
		<path class="st8" d="M1343.9,468.6c-3.8-0.4-7.2-2.8-8.7-6.4l-4.8-11.1l-1.4-3.2l-8.2-19l1.4,19.6l0.9,11.8l0.2,3.4
			c0.2,2.7-1.7,5.2-4.4,5.7l0,0c-1.5,2.4-3.5,7.2,2.5,9.1C1328.5,480.8,1339.9,475.2,1343.9,468.6
			C1343.9,468.6,1343.9,468.6,1343.9,468.6z"/>
	</g>
	<g>
		<path class="st8" d="M1387.4,589.4c0,0-10.6-9.7-19-8.9c-8.4,0.9-18.5,8.3-13.1,8.9c5.3,0.6,12.3-0.6,12.3-0.6s-14.8,3.1-12.6,6.3
			c2.2,3.1,15.1,0.3,15.1,0.3s-17.3,5.2-14.3,7.4c3.1,2.3,16.2-1.7,16.2-1.7s-15.9,5.4-12.3,8c3.6,2.6,13.1-4.6,15.4-1.4
			s6.4,15.5,15.9,10.3L1387.4,589.4z"/>
	</g>
	<g>
		<path class="st4" d="M1337.6,737l-16.3-49.5c-3.7-11.1-11.2-20.4-21.2-26.2l0.6-1.1c10.3,5.9,18,15.4,21.8,26.9l16.3,49.5
			L1337.6,737z"/>
	</g>
	<g>
		<path class="st8" d="M1379.1,510.3c0,0-1.6-4.7,5.6-10c7.1-5.3,16.4-6.4,16.4-6.4l1.9,9l-10.1,4.4L1379.1,510.3z"/>
	</g>
	<g>
		<path class="st0" d="M1343.1,425.8c0,0-0.8,3.2,1.1,9.8c2.7,9.7-8.3,13.7-11.2,10.9c-0.3-0.3,0.1-16.8,0.1-16.8l3.5-2.1
			L1343.1,425.8z"/>
	</g>
	<g>
		<path class="st4" d="M1330.4,450.8c0,0.1,0,0.2,0,0.3c-0.5,6.3-7.2,9.3-7.2,9.3l0,0l-0.9-11.8c2.1-0.8,5-1.5,6.7-0.7
			C1329.9,448.4,1330.5,449.3,1330.4,450.8z"/>
	</g>
	<g>
		<ellipse class="st8" cx="1320" cy="432.1" rx="18.5" ry="22.8"/>
	</g>
	<g>
		<path class="st0" d="M1312.7,414.7c0.5,0.7-2.4,12.4,19.3,15.2s8.7-23.5-7.3-24.1c-23.1-0.9-26.5,14.7-24.3,20.3
			C1302.6,431.6,1312.7,414.7,1312.7,414.7z"/>
	</g>
	<g>
		<path class="st0" d="M1346.1,400.3c0,0-9.7,6.5-2.2,12.7c7.5,6.1,28.1,8.8,22.5,19.2c-5.6,10.4-10.5,25.7-0.4,27.6
			c10.1,1.9,16.5,1.2,20.6,9.2c4.1,8.1,22.5,3.1,21-6.5c-1.5-9.6,14.2-18,7.5-26.8c-6.7-8.8-23.2-16.5-27.4-28
			C1383.6,396,1354,395.3,1346.1,400.3z"/>
	</g>
	<g>
		<path class="st0" d="M1329.6,426.1c0,0,8.9,9.3,5.8,18.9c0,0,5.1-5.6,5.3-7.7s-1.3-9.7-1.3-9.7L1329.6,426.1z"/>
	</g>
	<g>
		<path class="st8" d="M1336,435.6c-2.1,2-5,2.2-6.5,0.5c-1.5-1.7-1-4.8,1-6.8c2.1-2,5-2.2,6.5-0.5
			C1338.5,430.5,1338.1,433.6,1336,435.6z"/>
	</g>
	<g>
		<path class="st6" d="M1403.1,472c-0.1,0-0.1,0-0.2,0c-2.6-1-4.2-2.3-4.7-3.9c-0.9-2.5,0.6-5.1,2.2-8c1.4-2.5,2.8-5.1,2.5-7.4
			c-0.4-2.7-4-3.4-7.8-4c-3.2-0.6-6.5-1.2-7.8-3.2c-0.6-1-0.7-2.2-0.4-3.7c0.4-1.6,0.9-3.1,1.4-4.5c2.1-6,3.8-10.8-5.6-21.6
			c-12.1-13.9-22.1-14.6-31.1-13.3c-1.1,0.2-3.7,1.5-3.7,2.8c0,0.6,0.9,2.2,8.7,3.2c0.2,0,11.1,2.6,16.4,14.4
			c2.8,6.3-1.2,13-4.4,18.5c-2.2,3.6-4,6.8-3.4,8.9c0.2,0.8,0.7,1.4,1.6,1.9c2.2,1.2,4.6,1.9,7,2.5c6.1,1.7,12.4,3.4,13.2,14.4
			c0,0.2-0.2,0.5-0.4,0.5c-0.2,0-0.5-0.2-0.5-0.4c-0.7-10.4-6.5-11.9-12.6-13.6c-2.4-0.7-4.9-1.3-7.2-2.6c-1.1-0.6-1.8-1.4-2.1-2.4
			c-0.7-2.5,1.3-5.8,3.5-9.6c3.3-5.5,7-11.8,4.3-17.7c-5.1-11.4-15.6-13.9-15.7-13.9c-6.3-0.8-9.4-2.1-9.4-4c0-1.9,3.3-3.5,4.5-3.6
			c9.3-1.4,19.5-0.7,31.9,13.6c9.8,11.3,8,16.2,5.8,22.5c-0.5,1.4-1,2.8-1.4,4.4c-0.3,1.2-0.2,2.2,0.3,3c1.1,1.7,4.2,2.3,7.2,2.8
			c3.9,0.7,8,1.4,8.5,4.8c0.4,2.6-1.1,5.3-2.6,7.9c-1.5,2.7-2.9,5.2-2.2,7.3c0.5,1.4,1.9,2.5,4.2,3.4c0.2,0.1,0.3,0.3,0.3,0.6
			C1403.4,471.9,1403.3,472,1403.1,472z"/>
	</g>
	<g>
		<path class="st6" d="M1332.1,423C1332.1,423,1332.1,423,1332.1,423c-8.4-0.2-12.5-6.7-12.7-7c-0.1-0.2-0.1-0.5,0.1-0.6
			c0.2-0.1,0.5-0.1,0.6,0.1c0,0.1,4.1,6.4,11.9,6.6c0.2,0,0.4,0.2,0.4,0.4C1332.6,422.8,1332.4,423,1332.1,423z"/>
	</g>
	<g>
		<path class="st9" d="M1367.6,589.1l-0.2-0.6c0.2-0.1,4.3-1.6,6.5,0l-0.4,0.5C1371.6,587.7,1367.7,589.1,1367.6,589.1z"/>
	</g>
	<g>
		<path class="st9" d="M1370.1,595.7l-0.2-0.6c0.2-0.1,4.1-1.6,7.7,0l-0.3,0.6C1374,594.2,1370.2,595.7,1370.1,595.7z"/>
	</g>
	<g>
		<path class="st9" d="M1372.1,601.5l-0.2-0.6c0.2-0.1,5-1.9,7.3,0.1l-0.4,0.5C1376.8,599.7,1372.1,601.4,1372.1,601.5z"/>
	</g>
	<g>
		<path class="st5" d="M1263.7,622.6c0,0,16.5-2.3,41.2-0.5c38.3,2.8,70.9,11.7,70.9,11.7l-12.2,2l-76.2,3l-15.3-12.6L1263.7,622.6z
			"/>
	</g>
	<g>
		<path class="st10" d="M1309.8,446.9c0,0,6.3,0.1,12.6-2.1c0,0,0.5,6.2-6.3,6.6C1312.1,451.7,1309.8,446.9,1309.8,446.9z"/>
	</g>
	<g>
		<path class="st6" d="M1309.8,446.9c0,0,1.5,1.3,5.1,1.3c3.6,0,7.5-3.3,7.5-3.3S1314.8,446.9,1309.8,446.9z"/>
	</g>
	<g>
		<g>
			<path class="st4" d="M1318.2,432.3c-0.1,0-0.2-0.1-0.3-0.2c-0.1-0.2,0-0.5,0.2-0.5c0.1-0.1,3-1.5,5.4,1.2c0.2,0.2,0.2,0.4,0,0.6
				c-0.2,0.2-0.4,0.1-0.6,0c-1.9-1.3-4.4-1.1-4.5-1C1318.4,432.4,1318.3,432.4,1318.2,432.3z"/>
		</g>
	</g>
	<g>
		<path class="st4" d="M1321.5,437c0,1-0.5,1.8-1.3,1.9c-0.7,0-1.3-0.8-1.4-1.8c0-1,0.5-1.8,1.3-1.9
			C1320.9,435.2,1321.5,436,1321.5,437z"/>
	</g>
	<g>
		<g>
			<path class="st4" d="M1303.2,434.5c-0.1,0-0.3,0-0.4-0.1c-0.2-0.2-0.2-0.4,0-0.6c0.1-0.1,2.2-2.5,5.5-0.9
				c0.2,0.1,0.3,0.3,0.2,0.6c-0.1,0.2-0.3,0.3-0.6,0.2c-2.3-0.5-4.5,0.7-4.6,0.8C1303.4,434.5,1303.3,434.5,1303.2,434.5z"/>
		</g>
	</g>
	<g>
		<path class="st4" d="M1308,437.5c0.4,0.9,0.2,1.9-0.5,2.2c-0.7,0.3-1.5-0.2-1.9-1.1c-0.4-0.9-0.2-1.9,0.5-2.2
			S1307.6,436.6,1308,437.5z"/>
	</g>
	<g>
		<g>
			<path class="st0" d="M1193.9,539.6l-4.6-4.1c6.1-6.8,13.9-24.9,12.9-38.7c-0.4-5.5-2.1-9.5-5.2-12.1c-10.1-8.5-32.3,2.8-40,7.9
				l-3.4-5.1c1.3-0.9,31.8-20.7,47.4-7.5c4.4,3.7,6.8,9.2,7.3,16.4C1209.5,512.4,1200.6,532.1,1193.9,539.6z"/>
		</g>
	</g>
	<g>
		<path class="st8" d="M1188.6,490.3c-0.9,0-1.8-0.3-2.5-1c-1.5-1.4-1.6-3.8-0.2-5.3l6.2-6.7c1.4-1.5,3.7-1.6,5.2-0.2
			c1.5,1.4,1.6,3.8,0.2,5.3l-6.2,6.7C1190.5,489.9,1189.5,490.3,1188.6,490.3z"/>
	</g>
	<g>
		<path class="st8" d="M1190.9,496.5c-0.9,0-1.8-0.3-2.5-1c-1.5-1.4-1.6-3.8-0.2-5.3l6.2-6.7c1.4-1.5,3.7-1.6,5.2-0.2
			c1.5,1.4,1.6,3.8,0.2,5.3l-6.2,6.7C1192.8,496.1,1191.9,496.5,1190.9,496.5z"/>
	</g>
	<g>
		<path class="st8" d="M1193.4,502.2c-0.9,0-1.8-0.3-2.5-1c-1.5-1.4-1.6-3.8-0.2-5.3l6.2-6.7c1.4-1.5,3.7-1.6,5.2-0.2
			c1.5,1.4,1.6,3.8,0.2,5.3l-6.2,6.7C1195.3,501.8,1194.3,502.2,1193.4,502.2z"/>
	</g>
	<g>
		<path class="st8" d="M1197.2,506c-0.6,0-1.1-0.2-1.6-0.6c-1-0.9-1.2-2.5-0.3-3.5l5.6-6.8c0.9-1.1,2.4-1.2,3.4-0.3
			c1,0.9,1.2,2.5,0.3,3.5l-5.6,6.8C1198.6,505.7,1197.9,506,1197.2,506z"/>
	</g>
	<g>
		<g>
			<path class="st0" d="M1059.4,487.4l34.1,110.3c3.5,11.2,16.4,17.1,29.4,13.4l73.4-21.1c12.1-3.5,18.6-16,13.4-25.6L1152,460.2
				L1059.4,487.4z"/>
		</g>
		<g>
			<path class="st0" d="M911.1,554.4c6.7,2.1,179.7,8.2,179.7,8.2l-14-47.9l-139.7,16.9L911.1,554.4z"/>
		</g>
		<g>
			
				<ellipse transform="matrix(0.9995 -3.201491e-02 3.201491e-02 0.9995 -17.1533 29.9932)" class="st0" cx="928" cy="550.7" rx="24" ry="38.6"/>
		</g>
		<g>
			
				<ellipse transform="matrix(0.9112 -0.4119 0.4119 0.9112 -97.9735 497.4227)" class="st0" cx="1105.2" cy="476" rx="46.4" ry="15.9"/>
		</g>
		<g>
			<path class="st0" d="M1108.2,456c1,2.1-0.3,4.7-2.7,5.8c-2.5,1.1-5.2,0.3-6.2-1.8s0.3-4.7,2.7-5.8
				C1104.5,453,1107.2,453.9,1108.2,456z"/>
		</g>
		<g>
			<path class="st0" d="M1152.4,461.5l-93.4,33c-2.1,0.7-4.2-0.2-4.8-2l0,0c-0.6-1.8,0.6-3.9,2.7-4.6l93.4-33c2.1-0.7,4.2,0.2,4.8,2
				v0C1155.7,458.7,1154.4,460.8,1152.4,461.5z"/>
		</g>
		<g>
			<path class="st4" d="M924.9,523.1c0.1,1-0.4,2-1,2.1c-0.6,0.1-1.2-0.6-1.3-1.7c-0.1-1,0.4-2,1-2.1
				C924.2,521.3,924.8,522.1,924.9,523.1z"/>
		</g>
		<g>
			<path class="st4" d="M931.7,580.1c0.1,1-0.4,2-1,2.1c-0.6,0.1-1.2-0.6-1.3-1.7c-0.1-1,0.4-2,1-2.1
				C931,578.3,931.6,579.1,931.7,580.1z"/>
		</g>
		<g>
			<path class="st4" d="M944.2,547.8c0.1,1-0.4,2-1,2.1c-0.6,0.1-1.2-0.6-1.3-1.7c-0.1-1,0.4-2,1-2.1
				C943.5,546,944.1,546.8,944.2,547.8z"/>
		</g>
		<g>
			<path class="st4" d="M911.3,552.1c0.1,1-0.4,2-1,2.1c-0.6,0.1-1.2-0.6-1.3-1.7c-0.1-1,0.4-2,1-2.1
				C910.7,550.3,911.2,551,911.3,552.1z"/>
		</g>
		<g>
			<path class="st4" d="M919,541.5c0.1,1-0.4,2-1,2.1c-0.6,0.1-1.2-0.6-1.3-1.7c-0.1-1,0.4-2,1-2.1
				C918.3,539.7,918.9,540.5,919,541.5z"/>
		</g>
		<g>
			<path class="st4" d="M934.4,539.1c0.1,1-0.4,2-1,2.1c-0.6,0.1-1.2-0.6-1.3-1.7c-0.1-1,0.4-2,1-2.1
				C933.7,537.3,934.3,538.1,934.4,539.1z"/>
		</g>
		<g>
			<path class="st4" d="M937.6,564.4c0.1,1-0.4,2-1,2.1c-0.6,0.1-1.2-0.6-1.3-1.7c-0.1-1,0.4-2,1-2.1
				C936.9,562.7,937.5,563.4,937.6,564.4z"/>
		</g>
		<g>
			<path class="st4" d="M918.1,570.1c0.1,1-0.4,2-1,2.1c-0.6,0.1-1.2-0.6-1.3-1.7c-0.1-1,0.4-2,1-2.1
				C917.4,568.3,918,569.1,918.1,570.1z"/>
		</g>
		<g>
			<path class="st4" d="M926.8,555.7c0.1,1-0.4,2-1,2.1c-0.6,0.1-1.2-0.6-1.3-1.7c-0.1-1,0.4-2,1-2.1
				C926.1,553.9,926.7,554.6,926.8,555.7z"/>
		</g>
		<g>
			<path class="st4" d="M952,554.8C952,554.8,951.9,554.8,952,554.8c-0.2,0-0.3-0.2-0.3-0.4c0-0.1,1.4-12.5-2.4-19.8
				c-0.1-0.2,0-0.4,0.1-0.4c0.2-0.1,0.4,0,0.4,0.1c3.9,7.4,2.6,19.6,2.5,20.2C952.3,554.7,952.1,554.8,952,554.8z"/>
		</g>
		<g>
			<path class="st4" d="M1088.2,563.2c-3.1,0-5.6-0.6-5.8-0.6c-0.2,0-0.3-0.2-0.2-0.4c0-0.2,0.2-0.3,0.4-0.2c0.1,0,8.1,1.9,12.6-1
				c1.5-1,2.5-2.4,2.9-4.2c1.8-8.6-24.5-37.4-24.8-37.7c-0.1-0.1-0.1-0.3,0-0.5c0.1-0.1,0.3-0.1,0.5,0c1.1,1.2,26.8,29.4,24.9,38.3
				c-0.4,2-1.5,3.6-3.2,4.7C1093.5,562.8,1090.7,563.2,1088.2,563.2z"/>
		</g>
		<g>
			<path class="st4" d="M1059,494.8c-0.2,0-0.3-0.1-0.3-0.3c0-0.2,0.1-0.3,0.3-0.4c0.3,0,34.5-4.8,77-23.2c0.2-0.1,0.4,0,0.4,0.2
				c0.1,0.2,0,0.4-0.2,0.4C1093.6,490,1059.4,494.7,1059,494.8C1059,494.8,1059,494.8,1059,494.8z"/>
		</g>
	</g>
	<g>
		
			<rect x="1275.4" y="501.9" transform="matrix(0.4716 -0.8818 0.8818 0.4716 235.6257 1397.991)" class="st4" width="17.9" height="0.9"/>
	</g>
	<g>
		
			<rect x="1126.1" y="1122.2" transform="matrix(0.3634 -0.9316 0.9316 0.3634 -259.5547 1869.9268)" class="st4" width="224.8" height="5.4"/>
	</g>
	<g>
		<g>
			<path class="st4" d="M1175,844.4c6.8-1.6,14-10.2,14.3-22.2c0.3-9.5-4.4-16.4-12.4-18.6c-18.9-5.1-22.8-13.2-22.8-13.3l-1.1,0.5
				c0.2,0.4,4,8.6,23.6,13.9c3.6,1,11.9,4.6,11.5,17.4c-0.3,8.8-5.5,19.4-13.6,21.1l0.2,1.1C1174.9,844.5,1174.9,844.5,1175,844.4z"
				/>
		</g>
	</g>
	<g>
		<path class="st1" d="M1118.8,759.8c0,0,9.7-8.2,18.2-7c8.5,1.2,13.5,7.6,13,12.1C1149.5,769.4,1118.8,759.8,1118.8,759.8z"/>
	</g>
	<g>
		<path class="st2" d="M1095.2,774.9c1.4-14.4,14.4-19,37.9-14.7c19.9,3.6,36.3,7.3,34.9,21.7c-1.4,14.4-18.8,24.5-38.9,22.6
			C1109,802.5,1093.8,789.3,1095.2,774.9z"/>
	</g>
	<g>
		<path class="st4" d="M1125.7,770c0,0-10.3-8.9-17.4,1.3c-10.7,15.4,7.1,27.5-0.2,33.8c-7.1,6.1-14.9,2-12.4,10.4
			c2.5,8.3-15.5,5-8.2,21.2c7.3,16.2,76.2,10.4,85.7,4.5c6.8-4.2,19.4-21.2-1-37.2c-7.7-6-17-13-21-18.1
			C1144.4,777.5,1143.7,772.1,1125.7,770z"/>
	</g>
	<g>
		<path class="st0" d="M1084.6,843.2c-1,0.6-42.8,37.2-42.9,66.4c0,13.4,11.1,20.7,22.6,26.4c17.8,8.9,41.2-28.3,41.2-28.3
			L1084.6,843.2z"/>
	</g>
	<g>
		<path class="st7" d="M1173.5,852.1c0,0-10.1-28.4-46-27.1c-35.9,1.3-47.2,47.3-66,147.9c0,0,76-2.9,117.3,7.4c0,0-4.2-30.1-2.2-50
			C1179.6,901.4,1182.8,876.5,1173.5,852.1z"/>
	</g>
	<g>
		<path class="st7" d="M1198.7,850.4l-25.5,16.3c0,0-65.5,6.5-82.8,3.4c-17.4-3.2-20.1-15.9-20.1-15.9s16.5-22.7,48-28.3
			c3-0.5,5.9-0.6,9.1-0.8c5.3-0.4,10.7-0.2,15.9,0.3C1174.4,828.7,1198.7,850.4,1198.7,850.4z"/>
	</g>
	<g>
		<path class="st4" d="M1199.1,850.9c0.9,2.6-5.8,7.4-14.9,10.7c-9.1,3.4-17.2,4-18.1,1.4c-0.9-2.6,5.8-7.4,14.9-10.7
			C1190.1,849,1198.2,848.4,1199.1,850.9z"/>
	</g>
	<g>
		<path class="st8" d="M1141.3,828.5c1.5-2.3-2-4.7-3-8l-3-10.5l-0.9-3l-5.1-17.9l-1.1,17.7l-0.6,10.7l-0.2,3c-0.1,1.9-0.7,3.2-2,4
			c-1.4,0.7-2.5,2-2.8,3.5c-0.5,1.9-0.3,4.3,2.4,5.6C1131.2,836.3,1138.9,832.2,1141.3,828.5z"/>
	</g>
	<g>
		<path class="st4" d="M1135.4,809.7c0,0.1,0,0.2-0.1,0.3c-1.2,5.6-7.6,7.5-7.6,7.5l0,0l0.6-10.7c1.9-0.4,4.7-0.8,6.1,0.2
			C1135.3,807.4,1135.7,808.3,1135.4,809.7z"/>
	</g>
	<g>
		<path class="st8" d="M1111.8,789.5c1.5-11.3,10.1-19.4,19.2-18.2c9.1,1.2,15.3,11.3,13.8,22.6c-1.5,11.3-10.1,19.4-19.2,18.2
			C1116.5,810.9,1110.3,800.8,1111.8,789.5z"/>
	</g>
	<g>
		<g>
			<path class="st4" d="M1126.7,791.7c-0.1,0-0.2-0.1-0.2-0.3c-0.1-0.2,0.1-0.4,0.3-0.5c0.1,0,2.8-1,4.7,1.7
				c0.1,0.2,0.1,0.4-0.1,0.5c-0.2,0.1-0.4,0.1-0.5-0.1c-1.6-1.4-3.8-1.5-3.9-1.4C1126.8,791.7,1126.7,791.7,1126.7,791.7z"/>
		</g>
	</g>
	<g>
		<path class="st4" d="M1129.1,796.2c-0.1,0.9-0.7,1.6-1.3,1.5c-0.7-0.1-1.1-0.8-1-1.7c0.1-0.9,0.7-1.6,1.3-1.5
			C1128.7,794.5,1129.2,795.3,1129.1,796.2z"/>
	</g>
	<g>
		<g>
			<path class="st4" d="M1113,791.9c-0.1,0-0.2-0.1-0.3-0.2c-0.1-0.2-0.1-0.4,0.1-0.5c0.1-0.1,2.2-2,5-0.2c0.2,0.1,0.2,0.3,0.1,0.5
				c-0.1,0.2-0.3,0.2-0.5,0.1c-2-0.7-4.1,0.1-4.2,0.2C1113.2,791.9,1113.1,791.9,1113,791.9z"/>
		</g>
	</g>
	<g>
		<path class="st4" d="M1117,795.1c0.3,0.9,0,1.7-0.7,1.9c-0.6,0.2-1.3-0.4-1.6-1.2c-0.3-0.9,0-1.7,0.7-1.9
			C1116,793.7,1116.7,794.3,1117,795.1z"/>
	</g>
	<g>
		<path class="st0" d="M1142.2,796.7c-2.1,1.5-4.7,1.4-5.9-0.4c-1.1-1.7-0.4-4.4,1.7-5.9c2.1-1.5,4.7-1.4,5.9,0.4
			C1145.1,792.5,1144.3,795.1,1142.2,796.7z"/>
	</g>
	<g>
		<g>
			<path class="st4" d="M1123.9,778.2c0,0-7.5-3.2-9.3,4.4c-1.5,6.4-3.1,8.8-5.1,7.8s4.4-17.2,4.4-17.2l11.7-3.2l3,0.5L1123.9,778.2
				z"/>
		</g>
	</g>
	<g>
		<g>
			<path class="st4" d="M1123.9,778.2c0,0,6.4-4.4,11.3,1.7c4.9,6.1,3.3,15.5,9.9,17c6.6,1.5,11.4-20.2,2.7-25
				c-8.7-4.8-14.1-6.1-16.8-3.8C1128.3,770.3,1123.9,778.2,1123.9,778.2z"/>
		</g>
	</g>
	<g>
		<path class="st6" d="M1152.3,797.3c-6.6-1.3-7.9-5.1-9.4-9.5c-1-3.1-2.1-6.3-5.2-9.1c-3-2.8-6.3-4-9.5-3.5c-2.4,0.4-4,1.7-4,1.7
			l-0.2-0.3c0.1-0.1,1.6-1.3,4.2-1.8c2.3-0.4,5.9-0.1,9.9,3.6c3.1,2.9,4.3,6.3,5.3,9.3c1.4,4.3,2.7,8,9.1,9.3L1152.3,797.3z"/>
	</g>
	<g>
		<g>
			<path class="st6" d="M1113.9,805c-0.8,0-1.6-0.2-2.3-0.5c-2.3-1.1-4.2-3.8-5-7.2c-1.4-5.7,0.5-11.8,4.3-13.6c1.5-0.7,3-0.7,4.5,0
				c2.3,1.1,4.2,3.8,5,7.2c1.4,5.7-0.5,11.8-4.3,13.6C1115.3,804.8,1114.6,805,1113.9,805z M1112.9,783.9c-0.6,0-1.3,0.1-1.9,0.4
				c-3.5,1.6-5.2,7.4-3.9,12.7c0.8,3.2,2.5,5.7,4.7,6.7c1.3,0.6,2.6,0.6,3.9,0c3.5-1.6,5.2-7.4,3.9-12.7c-0.8-3.2-2.5-5.7-4.7-6.7
				C1114.3,784.1,1113.6,783.9,1112.9,783.9z"/>
		</g>
		<g class="st11">
			
				<ellipse transform="matrix(8.904783e-02 -0.996 0.996 8.904783e-02 240.7284 1851.0016)" class="st6" cx="1132.3" cy="793.9" rx="10.3" ry="7.6"/>
		</g>
		<g class="st11">
			<path class="st6" d="M1120.4,791.4c0.8,5.5-1.5,11.3-5.2,12.8c-3.7,1.6-7.4-1.7-8.2-7.2s1.5-11.3,5.2-12.8
				C1115.9,782.7,1119.6,785.9,1120.4,791.4z"/>
		</g>
		<g>
			<path class="st6" d="M1131.5,804.3c-1.2,0-2.4-0.3-3.4-1c-2.3-1.4-3.9-4.1-4.4-7.3c-0.9-5.9,2-11.9,6.5-13.5
				c1.9-0.6,3.9-0.4,5.6,0.6c2.3,1.4,3.9,4.1,4.4,7.3l0,0c0.9,5.9-2,11.9-6.5,13.5C1132.9,804.2,1132.2,804.3,1131.5,804.3z
				 M1132.3,782.9c-0.6,0-1.3,0.1-2,0.3c-4.2,1.4-6.9,7.1-6.1,12.7c0.5,3.1,2,5.6,4.1,6.8c1.6,0.9,3.3,1.1,5,0.5
				c4.2-1.4,6.9-7.1,6.1-12.7l0,0c-0.5-3.1-2-5.6-4.1-6.8C1134.4,783.2,1133.4,782.9,1132.3,782.9z"/>
		</g>
		<g>
			<path class="st6" d="M1119.5,794.3c-0.2,0-0.4-0.1-0.6-0.3c-0.2-0.3-0.1-0.7,0.2-1c0.1-0.1,2.5-1.7,6.2-0.7
				c0.4,0.1,0.6,0.5,0.5,0.9c-0.1,0.4-0.5,0.6-0.9,0.5c-3.1-0.9-5,0.4-5,0.5C1119.8,794.2,1119.7,794.3,1119.5,794.3z"/>
		</g>
	</g>
	<g>
		<g>
			<path class="st4" d="M1124.3,807.5c-3.2,0-5.7-1.9-5.7-2c-0.1-0.1-0.1-0.2,0-0.4c0.1-0.1,0.2-0.1,0.4,0c0.2,0.2,4.9,3.8,9.6,0.5
				c0.1-0.1,0.3-0.1,0.3,0.1c0.1,0.1,0.1,0.3-0.1,0.3C1127.3,807.1,1125.7,807.5,1124.3,807.5z"/>
		</g>
		<g>
			<path class="st4" d="M1129,807C1129,807,1129,807,1129,807c-0.2,0-0.3-0.1-0.2-0.3c0-0.4-0.1-1-0.7-1.9l0-0.1
				c-0.1-0.1,0-0.3,0.1-0.3c0.1-0.1,0.3,0,0.3,0.1c0.6,0.9,0.9,1.6,0.8,2.3C1129.3,806.9,1129.2,807,1129,807z"/>
		</g>
	</g>
	<g>
		<path class="st4" d="M1178.8,980.2c1.9,9.2-26.9,13.9-59.3,11.9c-32.4-2-58.3-15.5-58-19.3c0.2-3.8,26.7-5.2,59.1-3.2
			C1153,971.7,1178,976.5,1178.8,980.2z"/>
	</g>
	<g>
		<path class="st4" d="M1112,1230c0,0-0.2,9.9-6.9,12.7c-6.7,2.8-26.1,5.3-18.8,11.7c4.2,3.6,23.8,1.3,29.3,1.3
			c5.5,0,10.7,2.4,14.8-1.3c4.5-4.1,0-24.4,0-24.4s-4.8,2.5-9.1,2.4C1115.1,1232.2,1112,1230,1112,1230z"/>
	</g>
	<g>
		<path class="st4" d="M1188.9,1230c0,0-0.2,9.9-6.9,12.7c-6.7,2.8-26.1,5.3-18.8,11.7c4.2,3.6,23.8,1.3,29.3,1.3
			c5.5,0,10.7,2.4,14.8-1.3c4.5-4.1,0-24.4,0-24.4s-4.8,2.5-9.1,2.4C1192,1232.2,1188.9,1230,1188.9,1230z"/>
	</g>
	<g>
		<path class="st2" d="M1069.1,974c-2,0.1-3.6,1.7-3.8,3.7c-0.8,9.4-1.5,38.8,9,101.9c9.5,57.4,20.8,115.1,26.3,142.9
			c2,9.9,10.3,17.2,20.2,17.6l5.3,0.2c10.7,0.4,19.4-8.7,18.6-19.7l-13.4-187.5c0,0,0.5-60.3-15.6-60.6
			C1105.9,972.3,1078.7,973.5,1069.1,974z"/>
	</g>
	<g>
		<path class="st2" d="M1099.9,977.5l76.9,250.2c3.1,10,12.1,16.9,22.4,17.1l4.5,0.1c10.6,0.2,18.7-9.6,16.7-20.2l-42.6-239.4
			c-0.6-2.7-12.6-5.5-15.1-6.3C1148.7,974.9,1098.5,967.6,1099.9,977.5z"/>
	</g>
	<g>
		<path class="st4" d="M1135.6,1095.3l-16-48.7c-3.6-11-11-20.1-20.9-25.7l0.6-1.1c10.1,5.8,17.7,15.2,21.4,26.4l16,48.7
			L1135.6,1095.3z"/>
	</g>
	<g>
		<g>
			<path class="st8" d="M1136.6,939.6l-0.3-18.6c0-2.5,1.9-4.7,4.5-4.9c12.9-0.9,21.9-4.9,26.9-11.9c6.9-9.7,6.1-24.8,4.2-35.3
				c-1-5.4,0.8-8.9,7.3-12.4c0,0,5.6-3.1,12.4-4.2c2.7-0.5,5.5,0.6,6.2,3.3c1.1,4.2,2.5,10.8,3.2,18.5c1.6,18.4-1.9,34.3-10.2,46.2
				c-10.2,14.5-26.7,22.6-49,24C1139,944.5,1136.7,942.4,1136.6,939.6z"/>
		</g>
	</g>
	<g>
		<path class="st9" d="M1184.1,915.2c-0.8,0-1.6-0.2-2.2-0.7c-0.9-0.8-1.4-2-1.3-3.5c0.1-1.4,0.8-2.9,1.8-4.2
			c2.2-2.7,5.5-3.7,7.4-2.2c1.9,1.5,1.7,5-0.5,7.7l0,0C1187.8,914.2,1185.8,915.2,1184.1,915.2z M1187.6,904.5c-1.5,0-3.4,1-4.7,2.7
			c-1,1.2-1.6,2.6-1.7,3.9c-0.1,1.3,0.3,2.3,1,2.9c1.6,1.3,4.6,0.4,6.5-2.1c2-2.5,2.3-5.5,0.6-6.8
			C1188.9,904.7,1188.3,904.5,1187.6,904.5z M1189.1,912.1L1189.1,912.1L1189.1,912.1z"/>
	</g>
	<g>
		<path class="st2" d="M1105.4,777.4c0,0,3.3-3.5,9.9-4.5c11.6-1.9,28.4-0.2,36.8,14.4l3.7-6.4l-8-11.6l-14.4-4.8l-13.8-3.2
			l-12.8,3.8L1105.4,777.4z"/>
	</g>
	<g>
		<path class="st5" d="M1026.4,885.4c10.4-26.5,34-49.8,74.7-33.9c26.5,10.4,40.3,41.8,32.7,69.3c-9.3,33.3-36.3,45.1-76.2,34.1
			C1030.1,947.3,1013.4,918.5,1026.4,885.4z"/>
	</g>
	<g>
		<path class="st6" d="M1083.7,952.1c-7,0-14.8-1.1-23.1-3.5c-12-3.3-21.5-11.1-26.9-21.8c-5.8-11.6-6-25.5-0.6-39.3l1.4,0.6
			l-1.4-0.6c3.6-9.1,10.4-21.5,22.8-28.7c12.1-7,26.5-7.4,42.8-1c22.7,8.9,35.6,36.1,28.7,60.8
			C1121.1,940.7,1105.9,952.1,1083.7,952.1z M1076.6,856.4c-7,0-13.5,1.7-19.3,5.1c-11.6,6.7-18,18.5-21.4,27.2
			c-5.1,13-4.9,26,0.5,36.8c5,10,13.9,17.2,25,20.2c16.6,4.6,30.4,4.5,41.1-0.3c10.7-4.7,18-14.1,21.8-27.7
			c6.5-23.1-5.6-48.7-26.9-57C1090,857.8,1083.1,856.4,1076.6,856.4z"/>
	</g>
	<g>
		<g>
			<path class="st6" d="M1068.6,933.5l0.8-3.5c0.3-1.3-0.4-2.5-1.7-3c-2.9-1-5.6-2.5-7.6-4.2c-1-0.8-1.2-2.2-0.5-3.3l0.5-0.7
				c0.8-1.3,2.5-1.6,3.7-0.6c2.3,1.8,5.2,3.4,8.6,4.1c5.7,1.3,9.1-2,10.1-6.6c1-4.5-0.3-7.3-5.7-11c-7.4-5.1-14.6-10.7-13-17.8
				c1.4-6.2,6.6-11.6,16.1-9.8c1.1,0.2,2.1-0.9,2.4-2l0.9-3.8c0.3-1.4,1.7-2.2,3-1.9l0,0c1.4,0.3,2.2,1.7,1.9,3l-0.7,3.2
				c-0.3,1.2,0.4,2.5,1.6,2.9c2.4,0.8,4.3,1.9,5.8,3c1.1,0.8,1.3,2.3,0.6,3.4l-0.5,0.7c-0.8,1.2-2.4,1.5-3.6,0.6
				c-1.7-1.2-4-2.5-7.3-3.3c-6.1-1.4-9.3,1.9-10,5.2c-1,4.3,3.2,5.6,9.5,10.1c7.4,5.3,11.5,11.3,10.6,18.7
				c-1,7.9-6.8,12.3-17.1,11.6c-1.1-0.1-2.1,0.9-2.4,2l-0.9,4.1c-0.3,1.4-1.7,2.2-3,1.9l-0.1,0
				C1069.2,936.2,1068.3,934.9,1068.6,933.5z"/>
		</g>
	</g>
	<g>
		<g>
			<g>
				<path class="st8" d="M1140.8,916.2c0,0-18-7.6-26.4-6.5c-8.4,1-18.3,8.7-13,9.2c5.3,0.5,12.3-0.8,12.3-0.8s-14.8,3.5-12.5,6.6
					c2.3,3.1,15.1,0,15.1,0s-17.3,5.5-14.1,7.8c3.1,2.2,16.2-2.1,16.2-2.1s-15.9,5.8-12.2,8.3c3.7,2.5,13.1-4.9,15.4-1.8
					c2.3,3.1,15.4,12.6,24.8,7.2L1140.8,916.2z"/>
			</g>
		</g>
		<g>
			<path class="st9" d="M1113.7,918.3c-0.1,0-0.2-0.1-0.3-0.2c-0.1-0.2,0-0.3,0.2-0.4c0.2-0.1,4.2-1.7,6.5-0.1
				c0.1,0.1,0.2,0.3,0.1,0.4c-0.1,0.1-0.3,0.2-0.4,0.1c-2-1.4-5.9,0.2-6,0.2C1113.8,918.3,1113.8,918.3,1113.7,918.3z"/>
		</g>
		<g>
			<path class="st9" d="M1116.4,924.8c-0.1,0-0.2-0.1-0.3-0.2c-0.1-0.2,0-0.3,0.2-0.4c0.2-0.1,4.1-1.7,7.7-0.2
				c0.2,0.1,0.2,0.2,0.2,0.4c-0.1,0.2-0.2,0.2-0.4,0.2c-3.4-1.4-7.2,0.1-7.2,0.2C1116.5,924.8,1116.4,924.8,1116.4,924.8z"/>
		</g>
		<g>
			<path class="st9" d="M1118.5,930.5c-0.1,0-0.2-0.1-0.3-0.2c-0.1-0.2,0-0.3,0.2-0.4c0.2-0.1,5-2,7.3-0.1c0.1,0.1,0.2,0.3,0,0.4
				c-0.1,0.1-0.3,0.2-0.4,0c-2-1.6-6.6,0.2-6.7,0.2C1118.6,930.5,1118.5,930.5,1118.5,930.5z"/>
		</g>
	</g>
	<g>
		<g>
			<path class="st8" d="M1021.7,932.3c0,0,1.5,7.9,8.1,6.5c8.5-1.7,17.3-12.7,11.9-11.7c-4.8,0.9-11.2,3.9-11.2,3.9
				s16.3-8,13.5-11.1c-2.8-3.1-16.7,4-16.7,4s15.1-9.4,11.7-11.4c-3.5-2.1-16.2,4.3-16.2,4.3s15.3-8.3,11.2-10.6
				c-4.1-2.3-10.5,2.6-14,4.4c-3.4,1.7-4,5.8-2.2,9.2c0,0,0,4.5,1.7,6.4c0.7,0.7,0.3,2,0.5,2.7
				C1020.5,930.1,1021.7,932.3,1021.7,932.3z"/>
		</g>
	</g>
	<g>
		<path class="st0" d="M133.2,852.3c1.1,0.4,20.3,2.5,27.5,35.1c6.3,28.1-19.1,5.8-19.1,5.8L133.2,852.3z"/>
	</g>
	<g>
		<path class="st4" d="M109.1,1235c0,0,0.2,9.9,7,12.7c6.7,2.8,26.2,5.3,18.9,11.7c-4.2,3.7-23.8,1.3-29.4,1.3
			c-5.6,0-10.8,2.4-14.9-1.3c-4.5-4.1,0-24.4,0-24.4s4.8,2.5,9.1,2.4C106,1237.2,109.1,1235,109.1,1235z"/>
	</g>
	<g>
		<path class="st4" d="M31.9,1235c0,0,0.2,9.9,7,12.7c6.7,2.8,26.2,5.3,18.9,11.7c-4.2,3.7-23.8,1.3-29.4,1.3
			c-5.6,0-10.8,2.4-14.9-1.3c-4.5-4.1,0-24.4,0-24.4s4.8,2.5,9.1,2.4C28.8,1237.2,31.9,1235,31.9,1235z"/>
	</g>
	<g>
		<path class="st2" d="M159.1,962.8c0,0,1.2,41.6-12,121.3c-9.6,57.6-20.9,115.6-26.4,143.4c-2,9.9-10.4,17.2-20.3,17.6l-5.3,0.2
			c-10.7,0.4-19.4-8.8-18.6-19.7l13.5-188.1l3.3-61.9L159.1,962.8z"/>
	</g>
	<g>
		<path class="st4" d="M37.7,999.4c0.6,5.1,29.2,4.4,64.2,0c35-4.4,62.3-12,61.7-17.1c-0.6-5.1-28.9-5.7-63.9-1.2
			C64.7,985.5,37.1,994.3,37.7,999.4z"/>
	</g>
	<g>
		<path class="st2" d="M118.8,992.5l-74.8,240.2c-3.1,10.1-12.2,16.9-22.5,17.1l-4.5,0.1c-10.6,0.2-18.7-9.6-16.8-20.3l40.9-225.7
			c0.6-2.7,2.6-4.8,5.2-5.6C60.4,994.3,120.2,982.5,118.8,992.5z"/>
	</g>
	<g>
		<path class="st7" d="M49.4,861.1c0,0,9.9-28,45.4-26.7s62.2,47.8,68.8,147.9c0,0-58-12.7-126,17C37.6,999.3,33.8,901.9,49.4,861.1
			z"/>
	</g>
	<g>
		<path class="st7" d="M23.2,863.6l26.4,11.9c0,0,69.4,15.6,86.5,12.5c17.1-3.1,26.1-19,26.1-19s-27.5-28.2-58.5-33.8
			c-2.9-0.5-5.9-0.6-9-0.8c-5.3-0.4-10.5-0.2-15.7,0.3C35.4,839.4,23.2,863.6,23.2,863.6z"/>
	</g>
	<g>
		<path class="st4" d="M85.4,1099.8l-1.2-0.4l16.1-48.9c3.7-11.3,11.4-20.7,21.5-26.5l0.6,1.1c-9.9,5.7-17.3,14.8-20.9,25.8
			L85.4,1099.8z"/>
	</g>
	<g>
		<path class="st0" d="M119.1,828.1l-0.1-0.4c0,0,4.6-1.1,5.8-4.2c0.7-1.6,0.3-3.5-0.9-5.6c-0.6-1-1.2-1.9-1.7-2.7
			c-3.5-5.6-4.8-7.7-3.9-12.3l0.4,0.1c-0.9,4.4,0.3,6.3,3.8,12c0.5,0.8,1.1,1.7,1.7,2.7c1.4,2.2,1.7,4.2,1,5.9
			C123.8,827,119.3,828.1,119.1,828.1z"/>
	</g>
	<g>
		<path class="st0" d="M118.5,803c0,0-1.6,7.1,3.1,14.5c4.7,7.4-0.4,12.9-6.8,10c-6.4-2.9-8.8,5.3-17,0.8
			C89.8,823.9,118.5,803,118.5,803z"/>
	</g>
	<g>
		<path class="st8" d="M80.9,834.5c3.5-0.4,6.6-2.6,8-5.8l4.4-10.2l1.3-3L102,798l-1.3,18l-0.8,10.8l-0.2,3.1
			c-0.2,2.5,1.6,4.7,4.1,5.2l0,0c1.3,2.2,3.2,6.6-2.3,8.3C95,845.6,84.6,840.5,80.9,834.5C80.8,834.5,80.8,834.5,80.9,834.5z"/>
	</g>
	<g>
		<path class="st4" d="M93.2,818.1c0,0.1,0,0.2,0,0.3c0.4,5.8,6.7,8.5,6.7,8.5l0,0l0.8-10.8c-1.9-0.7-4.6-1.4-6.2-0.6
			C93.7,815.9,93.2,816.7,93.2,818.1z"/>
	</g>
	<g>
		<ellipse class="st8" cx="102.8" cy="800.9" rx="16.9" ry="20.9"/>
	</g>
	<g>
		<path class="st8" d="M88.1,804.1c1.9,1.8,4.6,2,6,0.4c1.4-1.6,1-4.4-1-6.2c-1.9-1.8-4.6-2-6-0.4C85.8,799.5,86.2,802.2,88.1,804.1
			z"/>
	</g>
	<g>
		<path class="st10" d="M111.9,814.5c0,0-5.8,0.1-11.6-1.9c0,0-0.5,5.7,5.8,6.1C109.8,818.9,111.9,814.5,111.9,814.5z"/>
	</g>
	<g>
		<path class="st6" d="M111.9,814.5c0,0-1.4,1.2-4.7,1.1c-3.3,0-6.9-3-6.9-3S107.3,814.5,111.9,814.5z"/>
	</g>
	<g>
		<g>
			<path class="st4" d="M104.5,801.1c0.1,0,0.2-0.1,0.3-0.2c0.1-0.2,0-0.4-0.2-0.5c-0.1,0-2.7-1.4-5,1.1c-0.1,0.2-0.1,0.4,0,0.5
				c0.2,0.1,0.4,0.1,0.5,0c1.8-1.2,4-1,4.1-0.9C104.3,801.1,104.4,801.2,104.5,801.1z"/>
		</g>
	</g>
	<g>
		<path class="st4" d="M101.4,805.4c0,0.9,0.5,1.7,1.2,1.7c0.7,0,1.2-0.7,1.3-1.6c0-0.9-0.5-1.7-1.2-1.7
			C102,803.7,101.4,804.4,101.4,805.4z"/>
	</g>
	<g>
		<g>
			<path class="st4" d="M118.2,803.1c0.1,0,0.2,0,0.3-0.1c0.1-0.2,0.1-0.4,0-0.5c-0.1-0.1-2-2.3-5-0.9c-0.2,0.1-0.3,0.3-0.2,0.5
				c0.1,0.2,0.3,0.2,0.5,0.2c2.1-0.4,4.1,0.6,4.2,0.7C118.1,803.1,118.1,803.1,118.2,803.1z"/>
		</g>
	</g>
	<g>
		<path class="st4" d="M113.8,805.9c-0.4,0.8-0.2,1.7,0.4,2c0.6,0.3,1.4-0.2,1.8-1c0.4-0.8,0.2-1.7-0.4-2
			C115,804.6,114.2,805.1,113.8,805.9z"/>
	</g>
	<g>
		<path class="st0" d="M110,783.8c0,0-0.4,7.3-9.4,8.5c-9.1,1.2-15.3,5.1-14.1,11.6c1.2,6.5,15.8,20.1,5.1,25.3
			c-10.7,5.2-8.4-4.5-20.1-2.3c-11.6,2.3-13.7-13.3-5.7-22.3c8-9,4.8-32.9,34.8-31.8c30,1.1,19,25,19,25S110,791.8,110,783.8z"/>
	</g>
	<g>
		<path class="st6" d="M88.5,830.6l-0.1-0.2c2.2-0.9,3.5-2.2,4-3.9c1.3-4.7-4.3-12-9.3-18.5c-1.3-1.7-2.6-3.3-3.7-4.9
			c-3.1-4.3-3.3-9.4-0.7-13.4c2.9-4.4,8.5-6.2,14.5-4.8c11.2,2.6,15.8-4.1,15.9-4.2l0.2,0.1c0,0.1-4.8,6.9-16.1,4.3
			c-5.9-1.4-11.4,0.4-14.3,4.7c-2.6,3.9-2.4,8.8,0.7,13.1c1.1,1.5,2.3,3.2,3.7,4.9c5,6.5,10.7,13.8,9.4,18.7
			C92.1,828.3,90.8,829.6,88.5,830.6z"/>
	</g>
	<g>
		<g>
			<path class="st12" d="M117,816.8c-0.9,0-1.8-0.3-2.6-0.8c-3.6-2.3-5-9.1-3.1-15.3l0,0c1.2-3.8,3.4-6.6,6-7.5
				c1.5-0.6,3-0.4,4.4,0.4c3.6,2.3,5,9.1,3.1,15.2c-1.2,3.8-3.4,6.6-6,7.5C118.2,816.7,117.6,816.8,117,816.8z M112.1,801.1
				c-1.9,5.8-0.6,12.3,2.7,14.4c1.1,0.7,2.4,0.8,3.7,0.4c2.3-0.9,4.4-3.5,5.5-7c1.9-5.8,0.6-12.3-2.7-14.4c-1.1-0.7-2.4-0.8-3.7-0.4
				C115.3,794.9,113.2,797.5,112.1,801.1L112.1,801.1z"/>
		</g>
	</g>
	<g class="st11">
		<path class="st6" d="M91.8,796.8c-1.4,6,0.8,12.4,4.9,14.3c4,1.9,8.4-1.3,9.8-7.3c1.4-6-0.8-12.4-4.9-14.3
			C97.5,787.6,93.1,790.9,91.8,796.8z"/>
	</g>
	<g class="st11">
		<path class="st6" d="M111.2,801.3c-1.4,6,0.5,12.5,4.1,14.5c3.6,2,7.6-1.2,9-7.2c1.4-6-0.5-12.5-4.1-14.5
			C116.6,792.1,112.6,795.3,111.2,801.3z"/>
	</g>
	<g>
		<g>
			<path class="st12" d="M99.5,811.9c-0.9,0-1.8-0.2-2.7-0.6c-4.5-2.1-6.9-9-5.4-15.4l0,0c0.9-3.7,2.8-6.6,5.4-7.8
				c1.8-0.9,3.7-0.9,5.5,0c4.5,2.1,6.9,9,5.4,15.4c-0.9,3.7-2.9,6.6-5.5,7.8C101.4,811.7,100.4,811.9,99.5,811.9z M99.6,788.2
				c-0.8,0-1.7,0.2-2.5,0.6c-2.4,1.2-4.2,3.9-5,7.3l0,0c-1.4,6,0.8,12.6,5,14.5c1.6,0.7,3.3,0.7,4.8,0c2.4-1.1,4.3-3.9,5.1-7.3
				c1.4-6-0.8-12.6-5-14.5C101.2,788.4,100.4,788.2,99.6,788.2z"/>
		</g>
	</g>
	<g>
		<g>
			<path class="st12" d="M112,803.6c-0.2,0-0.3-0.1-0.4-0.2l0,0c-0.1-0.1-1.9-1.5-5.1-0.9c-0.4,0.1-0.8-0.2-0.8-0.6
				c-0.1-0.4,0.2-0.8,0.6-0.8c3.8-0.8,6.1,1.1,6.2,1.2c0.3,0.3,0.3,0.7,0.1,1C112.4,803.5,112.2,803.6,112,803.6z"/>
		</g>
	</g>
	<g>
		<path class="st4" d="M23.2,863.6c-0.4,2.6,8.4,6.4,19.7,8.4s20.8,1.4,21.2-1.2c0.4-2.6-8.4-6.4-19.7-8.4
			C33,860.4,23.6,860.9,23.2,863.6z"/>
	</g>
	<g>
		<path class="st2" d="M65.9,993.9c0,0,69.9-13.4,92.6-7.1l-10.9,16.1l-40.4,2.3L65.9,993.9z"/>
	</g>
	<g>
		<g>
			<path class="st4" d="M429.7,1259.2c-0.7-0.1-1.3-0.6-1.5-1.4L377.3,1092c-0.3-1,6.9-2.1,8-2.3c1-0.3,2.1,0.3,2.3,1.3l44.3,165.8
				c0.3,1-0.3,2.1-1.3,2.3C430.2,1259.2,429.9,1259.2,429.7,1259.2z"/>
		</g>
	</g>
	<g>
		<g>
			<path class="st4" d="M250.6,1280.1c-0.7-0.2-1.2-0.8-1.3-1.6l-29-171c-0.1-1,7.1-1.1,8.2-1.3c1-0.1,2,0.6,2.1,1.6l22.5,170.1
				c0.1,1-0.6,2-1.6,2.1C251.1,1280.2,250.9,1280.1,250.6,1280.1z"/>
		</g>
	</g>
	<g>
		<g>
			<path class="st4" d="M144.9,1245.7c1-0.3,1.8-1.1,1.9-2.1l48.1-224.1c0.2-1.4-10.1-1.2-11.6-1.3c-1.5-0.1-2.9,0.9-3.1,2.2
				l-38.8,222.7c-0.2,1.4,0.8,2.6,2.2,2.7C144.1,1245.9,144.5,1245.8,144.9,1245.7z"/>
		</g>
	</g>
	<g>
		<path class="st13" d="M156.1,868.5l197.2-11c5.8-0.3,11.1,3.3,12.9,8.7l77,227.2c2.3,6.8-1.4,14.2-8.2,16.4l-223.9,73.9
			c-7.5,2.5-15.4-2.3-16.8-10l-50.3-290.1C142.8,876,148.4,869,156.1,868.5z"/>
	</g>
	<g>
		<path class="st7" d="M169.5,874.9L350,864.7c5.3-0.3,10.1,3,11.8,8.1l70.5,210.7c2.1,6.3-1.3,13.1-7.5,15.2l-205,68.5
			c-6.9,2.3-14.1-2.1-15.3-9.3l-46.1-269.1C157.3,881.8,162.4,875.3,169.5,874.9z"/>
	</g>
	<g>
		<path class="st0" d="M398.6,1064.4l-9.7-35.5c-1.5-5.6-4.6-10.7-8.7-14.8c-2.9-2.8-6.7-4.8-10.9-5.7l-36.7-7.8l0.1-0.6l36.7,7.8
			c4.3,0.9,8.2,2.9,11.2,5.9c4.3,4.1,7.4,9.3,8.9,15l9.7,35.5L398.6,1064.4z"/>
	</g>
	<g>
		<path class="st5" d="M399.4,1066.9c1.2-0.3,1.7-1.9,1.6-3.2c-0.1-1.7-1.6-1.9-2.8-1.6c-1.2,0.3-2.3,1.7-1.9,2.9
			C396.7,1066.2,398.2,1067.2,399.4,1066.9z"/>
	</g>
	<g>
		<path class="st5" d="M333.2,1002.7c1.2-0.3,1.7-1.9,1.6-3.2c-0.1-1.7-1.6-1.9-2.8-1.6c-1.2,0.3-2.3,1.7-1.9,2.9
			C330.5,1002,332,1003,333.2,1002.7z"/>
	</g>
	<g>
		<path class="st0" d="M319.1,955.4l-9.7-35.5c-1.5-5.6-4.6-10.7-8.7-14.8c-3-2.8-6.7-4.8-10.9-5.7l-36.7-7.8l0.1-0.6l36.7,7.8
			c4.3,0.9,8.2,2.9,11.2,5.9c4.3,4.1,7.4,9.3,8.9,15l9.7,35.5L319.1,955.4z"/>
	</g>
	<g>
		<path class="st5" d="M319.9,957.9c1.2-0.3,1.7-1.9,1.6-3.2c-0.1-1.7-1.6-1.9-2.8-1.6c-1.2,0.3-2.3,1.7-1.9,2.9
			C317.2,957.2,318.7,958.2,319.9,957.9z"/>
	</g>
	<g>
		<path class="st5" d="M253.8,893.7c1.2-0.3,1.7-1.9,1.6-3.2c-0.1-1.7-1.6-1.9-2.8-1.6c-1.2,0.3-2.3,1.7-1.9,2.9
			C251,893,252.6,894,253.8,893.7z"/>
	</g>
	<g>
		<path class="st2" d="M382.2,1069.3l-33.4,7.8c-1.1,0.2-2.1-0.4-2.4-1.5l-4.5-19.2c-0.2-1.1,0.4-2.1,1.5-2.4l33.4-7.8
			c1.1-0.2,2.1,0.4,2.4,1.5l4.5,19.2C383.9,1068,383.2,1069.1,382.2,1069.3z"/>
	</g>
	<g>
		<g>
			<path class="st7" d="M374.1,1060.1l-23.1,5.4c-0.5,0.1-1.4-0.2-1.6-0.7c-0.4-1,0.5-1.5,1-1.7l23.3-4.9c0.5-0.1,1,0.2,1.1,0.7l0,0
				C374.9,1059.4,374.6,1059.9,374.1,1060.1z"/>
		</g>
		<g>
			<path class="st7" d="M367,1057.1l-17.5,4.1c-0.4,0.1-1.1-0.2-1.2-0.6c-0.3-0.8,0.4-1.2,0.8-1.3l17.6-3.7c0.4-0.1,0.8,0.2,0.9,0.6
				l0,0C367.7,1056.6,367.4,1057,367,1057.1z"/>
		</g>
		<g>
			<path class="st7" d="M369.1,1065.8l-17.5,4.1c-0.4,0.1-1.1-0.2-1.2-0.6c-0.3-0.8,0.4-1.2,0.8-1.3l17.6-3.7
				c0.4-0.1,0.8,0.2,0.9,0.6l0,0C369.7,1065.3,369.5,1065.8,369.1,1065.8z"/>
		</g>
	</g>
	<g>
		<path class="st2" d="M235.3,911l-35.9,3.8c-1.1,0.1-2.2-0.7-2.3-1.8l-2.2-20.6c-0.1-1.1,0.7-2.2,1.8-2.3l35.9-3.8
			c1.1-0.1,2.2,0.7,2.3,1.8l2.2,20.6C237.3,909.9,236.4,910.9,235.3,911z"/>
	</g>
	<g>
		<g>
			<path class="st7" d="M228.1,900.3l-24.8,2.6c-0.5,0.1-1.4-0.4-1.6-1c-0.3-1.1,0.8-1.5,1.3-1.6l24.9-2.1c0.5-0.1,1,0.3,1.1,0.9
				l0,0C229,899.7,228.6,900.2,228.1,900.3z"/>
		</g>
		<g>
			<path class="st7" d="M221.1,896.3l-18.8,2c-0.4,0-1.1-0.3-1.2-0.8c-0.2-0.9,0.6-1.2,1-1.3l18.8-1.5c0.4,0,0.8,0.3,0.8,0.7l0,0
				C221.8,895.9,221.5,896.3,221.1,896.3z"/>
		</g>
		<g>
			<path class="st7" d="M222.1,905.7l-18.8,2c-0.4,0-1.1-0.3-1.2-0.8c-0.2-0.9,0.6-1.2,1-1.3l18.8-1.5c0.4,0,0.8,0.3,0.8,0.7l0,0
				C222.8,905.2,222.5,905.6,222.1,905.7z"/>
		</g>
	</g>
	<g>
		<g>
			<g>
				<path class="st0" d="M287.1,1054.2c-12.5,0-24.4-4.6-34.1-13.1c-14.1-12.6-21.9-32.3-21.9-55.5c0-14.4,2.4-34.9,13.9-51.2
					c11.2-15.9,28.5-24,51.3-24c31.6,0,60.1,30.2,63.4,67.3c3.9,43.7-19.7,70.8-66.6,76.2C291.1,1054,289.1,1054.2,287.1,1054.2z
					 M296.3,911c-22.5,0-39.6,8-50.7,23.7c-11.4,16.1-13.8,36.5-13.8,50.8c0,23,7.7,42.5,21.7,55c11,9.8,25.1,14.3,39.5,12.6
					c23.1-2.7,40.6-10.6,51.9-23.4c11.3-12.9,16.1-30.4,14.1-52C355.7,940.9,327.6,911,296.3,911z"/>
			</g>
		</g>
		<g>
			<g>
				<path class="st0" d="M288.3,1045.4c-12.2,0-23.4-4.8-32.3-13.8c-11-11.1-17-27.7-17-46.6c0-12.5,2.1-30.5,12.2-44.8
					c9.9-14,25.1-21.2,45-21.2c27.8,0,52.8,26.5,55.7,59c3.5,38.5-17.2,62.3-58.3,67C291.9,1045.3,290.1,1045.4,288.3,1045.4z
					 M296.2,919.8c-19.7,0-34.6,7-44.4,20.9c-10,14.1-12.1,31.9-12.1,44.4c0,18.7,6,35.1,16.8,46.1c8.8,8.9,19.8,13.6,31.8,13.6
					c1.8,0,3.5-0.1,5.3-0.3c40.6-4.7,61-28.2,57.6-66.2C348.3,946,323.7,919.8,296.2,919.8z M288.3,1041.5c-11.2,0-21.7-4.4-30-12.8
					c-10.2-10.4-15.8-25.9-15.8-43.7c0-56,37.6-62,53.7-62c26.1,0,49.5,24.9,52.3,55.5c1.6,18-2.3,32.5-11.7,43.2
					c-9.4,10.7-24,17.3-43.5,19.5C291.7,1041.4,290,1041.5,288.3,1041.5z M296.2,923.7c-15.9,0-53,6-53,61.3
					c0,17.6,5.5,32.9,15.6,43.2c9.3,9.4,21.5,13.8,34.4,12.3c19.3-2.2,33.7-8.7,43-19.3c9.2-10.5,13.1-24.8,11.5-42.6
					C345,948.3,321.9,923.7,296.2,923.7z"/>
			</g>
		</g>
		<g>
			<g>
				<g>
					<path class="st0" d="M298.8,1026.1c-0.6,0-1.2-0.2-1.8-0.6c-0.8-0.6-1.3-1.5-1.4-2.5l-0.6-4.5c-0.2-1.4-1.3-2.5-2.6-2.4
						c-3.5,0.2-7-0.3-9.9-1.4c-1.5-0.6-2.4-2.3-2.1-4l0.2-1.1c0.2-1.1,0.8-2,1.7-2.5c0.8-0.5,1.7-0.6,2.5-0.3
						c2.4,0.8,6.2,1.7,10.5,0.9c5.7-1,8.6-5.5,7.7-12.1c-0.8-5.8-3.3-8.2-10.3-10.2c-10.1-2.7-20-6.1-21.3-15.4
						c-1-7.5,1.8-17.1,13.2-19.5c1.1-0.2,1.6-1.7,1.4-3l-0.7-4.9c-0.3-1.9,0.9-3.8,2.7-4.1c0.8-0.1,1.6,0.1,2.3,0.6
						c0.8,0.6,1.3,1.5,1.4,2.5l0.6,4.1c0.2,1.4,1.3,2.4,2.5,2.4c2.6-0.1,5.2,0.2,7.5,0.9c1.6,0.5,2.6,2.3,2.3,4.2l-0.2,1
						c-0.2,1-0.8,1.9-1.6,2.4c-0.7,0.5-1.6,0.6-2.4,0.3c-2.8-0.9-5.8-1-8.9-0.5c-6.9,1.2-8.7,6.3-8.1,10.3c0.5,4,3.5,4.7,8.8,6
						c1.5,0.4,3.2,0.8,5.1,1.3c10.9,3.1,17.2,8.8,19.1,17.5c2.3,10.4-2.5,18.2-13.5,22.1c-1,0.4-1.6,1.7-1.5,3l0.7,5.3
						c0.3,1.9-0.9,3.8-2.7,4.1l-0.1,0C299.1,1026,299,1026.1,298.8,1026.1z M292.5,1015.4c1.6,0,3,1.3,3.2,3l0.6,4.5l0,0
						c0.1,0.8,0.5,1.5,1.1,2c0.5,0.4,1.1,0.5,1.7,0.4l0.1,0c1.4-0.2,2.3-1.7,2.1-3.3l-0.7-5.3c-0.2-1.7,0.6-3.4,1.9-3.8
						c10.6-3.7,15.2-11.3,13-21.2c-1.9-8.4-8-14-18.6-17c-1.9-0.5-3.6-0.9-5.1-1.3c-5.5-1.3-8.8-2.1-9.4-6.6
						c-0.6-4.7,1.8-10,8.7-11.2c3.2-0.5,6.3-0.4,9.3,0.5c0.6,0.2,1.3,0.1,1.8-0.2c0.6-0.4,1.1-1.1,1.3-1.9l0.2-1
						c0.3-1.5-0.5-2.9-1.8-3.3c-2.2-0.7-4.7-1-7.2-0.9c-1.6,0.1-3-1.2-3.3-3l-0.6-4.1c-0.1-0.8-0.5-1.5-1.1-2
						c-0.5-0.4-1.1-0.5-1.7-0.4c-1.4,0.2-2.3,1.7-2.1,3.3l0.7,4.9c0.2,1.6-0.5,3.5-2,3.8c-10.9,2.3-13.6,11.5-12.6,18.7
						c1.2,8.9,10.9,12.2,20.8,14.8c7.3,2,10,4.7,10.8,10.8c0.9,7-2.2,11.9-8.3,13c-4.5,0.8-8.4-0.1-10.9-1c-0.6-0.2-1.3-0.2-1.9,0.2
						c-0.7,0.4-1.2,1.1-1.3,2l-0.2,1.1c-0.2,1.4,0.5,2.8,1.7,3.2c2.8,1.1,6.2,1.5,9.6,1.4C292.4,1015.4,292.4,1015.4,292.5,1015.4z"
						/>
				</g>
			</g>
		</g>
	</g>
	<g>
		<path class="st0" d="M211,1061.7l-0.6-0.2l10.1-36.1c1.2-4.2,3.4-8,6.5-10.8c4.4-4,9.7-6.8,15.6-8l36-7.4l0.1,0.6l-36,7.4
			c-5.7,1.2-11,3.9-15.3,7.8c-3,2.8-5.2,6.4-6.4,10.5L211,1061.7z"/>
	</g>
	<g>
		<path class="st5" d="M281.3,999.1c-0.3-1.2-1.8-1.9-3.1-1.8c-1.7,0-2,1.5-1.8,2.7c0.3,1.2,1.5,2.4,2.8,2.1
			C280.5,1001.8,281.6,1000.3,281.3,999.1z"/>
	</g>
	<g>
		<path class="st5" d="M213.1,1061.1c-0.3-1.2-1.8-1.9-3.1-1.8c-1.7,0-2,1.5-1.8,2.7c0.3,1.2,1.5,2.4,2.8,2.1
			C212.3,1063.8,213.4,1062.3,213.1,1061.1z"/>
	</g>
	<g>
		<path class="st5" d="M267.9,1082.9l-39.6,9.3c-1.2,0.3-2.5-0.5-2.8-1.7l-5.3-22.7c-0.3-1.2,0.5-2.5,1.7-2.8l39.6-9.3
			c1.2-0.3,2.5,0.5,2.8,1.7l5.3,22.7C269.9,1081.4,269.2,1082.6,267.9,1082.9z"/>
	</g>
	<g>
		<g>
			<path class="st7" d="M258.3,1072l-27.4,6.4c-0.6,0.1-1.7-0.3-1.9-0.8c-0.5-1.2,0.6-1.8,1.2-2l27.6-5.8c0.6-0.1,1.2,0.2,1.4,0.8
				l0,0C259.3,1071.2,258.9,1071.8,258.3,1072z"/>
		</g>
		<g>
			<path class="st7" d="M250,1068.5l-20.7,4.8c-0.5,0.1-1.3-0.2-1.4-0.7c-0.4-1,0.5-1.4,0.9-1.6l20.8-4.4c0.5-0.1,0.9,0.2,1,0.7l0,0
				C250.7,1067.9,250.5,1068.4,250,1068.5z"/>
		</g>
		<g>
			<path class="st7" d="M252.4,1078.8l-20.7,4.8c-0.5,0.1-1.3-0.2-1.4-0.7c-0.4-1,0.5-1.4,0.9-1.6l20.8-4.4c0.5-0.1,0.9,0.2,1,0.7
				l0,0C253.2,1078.2,252.9,1078.7,252.4,1078.8z"/>
		</g>
	</g>
	<g>
		<path class="st5" d="M351.3,901.1l-40.6,2.5c-1.3,0.1-2.4-0.9-2.5-2.2l-1.5-23.3c-0.1-1.3,0.9-2.4,2.2-2.5l40.6-2.5
			c1.3-0.1,2.4,0.9,2.5,2.2l1.5,23.3C353.5,899.9,352.6,901,351.3,901.1z"/>
	</g>
	<g>
		<g>
			<path class="st7" d="M343.7,888.7l-28.1,1.8c-0.6,0-1.6-0.5-1.7-1.2c-0.2-1.2,0.9-1.7,1.5-1.7l28.1-1.1c0.6,0,1.2,0.4,1.2,1.1
				l0,0C344.7,888.1,344.3,888.6,343.7,888.7z"/>
		</g>
		<g>
			<path class="st7" d="M336,883.9l-21.2,1.3c-0.5,0-1.2-0.4-1.3-0.9c-0.2-1,0.7-1.3,1.2-1.4l21.2-0.8c0.5,0,0.9,0.4,0.9,0.9l0,0
				C336.8,883.4,336.5,883.8,336,883.9z"/>
		</g>
		<g>
			<path class="st7" d="M336.7,894.5l-21.2,1.3c-0.5,0-1.2-0.4-1.3-0.9c-0.2-1,0.7-1.3,1.2-1.4l21.2-0.8c0.5,0,0.9,0.4,0.9,0.9l0,0
				C337.5,894,337.2,894.4,336.7,894.5z"/>
		</g>
	</g>
	<g>
		<path class="st2" d="M283,1133l-55.6,13c-1.8,0.4-3.5-0.7-3.9-2.4l-7.5-31.9c-0.4-1.8,0.7-3.5,2.4-3.9l55.6-13
			c1.8-0.4,3.5,0.7,3.9,2.4l7.5,31.9C285.8,1130.9,284.7,1132.6,283,1133z"/>
	</g>
	<g>
		<g>
			<path class="st7" d="M269.5,1117.6l-38.5,9c-0.8,0.2-2.4-0.4-2.7-1.2c-0.6-1.7,0.9-2.5,1.7-2.7l38.7-8.2c0.8-0.2,1.7,0.3,1.9,1.2
				l0,0C270.9,1116.6,270.3,1117.4,269.5,1117.6z"/>
		</g>
		<g>
			<path class="st7" d="M257.8,1112.7l-29.1,6.8c-0.6,0.2-1.8-0.3-2-1c-0.5-1.3,0.7-2,1.3-2.2l29.2-6.1c0.6-0.2,1.3,0.3,1.5,1l0,0
				C258.8,1111.9,258.4,1112.6,257.8,1112.7z"/>
		</g>
		<g>
			<path class="st7" d="M261.2,1127.3l-29.1,6.8c-0.6,0.2-1.8-0.3-2-1c-0.5-1.3,0.7-2,1.3-2.2l29.2-6.1c0.6-0.2,1.3,0.3,1.5,1l0,0
				C262.2,1126.5,261.8,1127.1,261.2,1127.3z"/>
		</g>
	</g>
	<g>
		<g>
			<path class="st8" d="M184.3,859.2c0,0-6.4-3.3-8.3,3.9c-2.4,9.1,0.9,23,5.1,18.8c0.9-1,2.2-7.9,2.2-7.9s-0.3,13.2,4.1,12
				c4.4-1.2,4.6-12.9,4.6-12.9s1.5,14,5.2,11.6c3.7-2.4,3.4-11.6,3.4-11.6s1,12.7,5.2,9.8c4.2-2.9,1.8-12.7,1.7-17
				c0-4.1-2.9-4.8-7.1-4.6c0,0-2.8-2.9-6.7-1.1c-1,0.5-2.6-1.5-3.3-1.6C187.1,858.3,184.3,859.2,184.3,859.2z"/>
		</g>
	</g>
	<g>
		<g>
			<g>
				<path class="st8" d="M143.9,917.3c0,0,7.9-13.5,16.9-15.3c9-1.8,21.8,2.7,16.5,5s-13,3.4-13,3.4s16.4-1.5,15.1,2.5
					c-1.3,4-15.6,5.2-15.6,5.2s19.7-0.2,17.2,3.1c-2.5,3.4-17.4,3.5-17.4,3.5s18.3,0.5,15.4,4.3c-2.9,3.8-15.1-0.5-16.4,3.5
					c-1.3,4-7.8,19.4-19.4,17.1L143.9,917.3z"/>
			</g>
		</g>
		<g>
			<path class="st9" d="M158.1,912.5l-0.5-0.4c1.8-2.4,6.6-2.2,6.8-2.1l0,0.7C164.3,910.7,159.8,910.4,158.1,912.5z"/>
		</g>
		<g>
			<path class="st9" d="M156.3,920.6l-0.4-0.5c3.2-2.8,7.8-2.5,8-2.5l-0.1,0.7C163.8,918.3,159.3,918,156.3,920.6z"/>
		</g>
		<g>
			<path class="st9" d="M156.7,927l-0.6-0.4c1.7-2.7,7.3-2.4,7.6-2.4l0,0.7C163.6,924.9,158.2,924.6,156.7,927z"/>
		</g>
	</g>
	<g>
		<g>
			<path class="st8" d="M117.8,950.3c-32.4,0-57.2-8.5-74-25.5c-25.2-25.5-17.9-59.7-17.7-61.1c0,0,1.1-2.8,18.2-0.2
				c17.1,2.7,16.9,6.6,16.9,6.6s-5.3,17.1,7.9,30.2c12.8,12.7,41.6,20.9,74.8,17l-0.2,32.4C134.7,950.7,125.9,950.3,117.8,950.3z"/>
		</g>
	</g>
	<g class="st14">
		<path class="st9" d="M66.7,934.2c-1.3,0-2.6-0.4-3.9-1l0,0c-1.5-0.8-2.7-2-3.4-3.3c-0.7-1.4-0.8-2.8-0.2-3.9
			c0.6-1.1,1.8-1.9,3.4-2c1.5-0.2,3.1,0.2,4.6,1c3.2,1.7,4.8,4.9,3.6,7.2c-0.6,1.1-1.8,1.9-3.4,2C67.2,934.2,67,934.2,66.7,934.2z
			 M63.4,932.1c1.3,0.7,2.7,1,3.9,0.9c1.1-0.1,2-0.6,2.4-1.4c0.9-1.6-0.5-4.2-3.1-5.5c-1.3-0.7-2.7-1-3.9-0.9
			c-1.1,0.1-2,0.6-2.4,1.4c-0.4,0.8-0.3,1.8,0.2,2.8C61.1,930.4,62.1,931.4,63.4,932.1L63.4,932.1z"/>
	</g>
	<g>
		<g>
			<path class="st8" d="M385.2,902.4c-4.9-4.8,12.2-26.8,12.2-26.8c1.9-1.3,32.8,28,68.2,16.8c12.6-4,30-26.1,31.3-29.3
				c0.2-0.4,27.9,9.6,27.9,9.6c-2.3,5.9-1.2,26.8-14.7,39.3C481.9,937.7,433,940.5,385.2,902.4z"/>
		</g>
	</g>
	<g>
		<path class="st4" d="M552.6,1254.6c0,0-0.2,9.6-6.7,12.3c-6.5,2.7-25.3,5.1-18.3,11.3c4,3.5,23,1.3,28.4,1.3
			c5.4,0,10.4,2.3,14.4-1.3c4.4-3.9,0-23.6,0-23.6s-4.6,2.4-8.8,2.3C555.6,1256.7,552.6,1254.6,552.6,1254.6z"/>
	</g>
	<g>
		<path class="st5" d="M496.6,965.4c0,0-1.3,43.2,12.5,126.2c10,59.9,21.7,120.3,27.5,149.2c2.1,10.4,10.8,17.9,21.1,18.3l5.5,0.2
			c11.2,0.4,20.2-9.1,19.4-20.5l-14-195.8l-3.5-64.4L496.6,965.4z"/>
	</g>
	<g>
		<path class="st4" d="M614,1254.6c0,0-0.2,9.6-6.7,12.3c-6.5,2.7-25.3,5.1-18.3,11.3c4,3.5,23,1.3,28.4,1.3
			c5.4,0,10.4,2.3,14.4-1.3c4.4-3.9,0-23.6,0-23.6s-4.6,2.4-8.8,2.3C617,1256.7,614,1254.6,614,1254.6z"/>
	</g>
	<g>
		<path class="st5" d="M558.1,965.4c0,0-1.3,43.2,12.5,126.2c10,59.9,21.7,120.3,27.5,149.2c2.1,10.4,10.8,17.9,21.1,18.3l5.5,0.2
			c11.2,0.4,20.2-9.1,19.4-20.5l-14-195.8l-3.5-64.4L558.1,965.4z"/>
	</g>
	<g>
		<path class="st4" d="M633.4,1012.8c-0.1,5.2-31.7,7.3-70.7,6.1c-39-1.2-70.2-6.6-70.1-11.8c0.1-5.2,31.5-8.3,70.6-7.1
			C602.2,1001.2,633.6,1007.6,633.4,1012.8z"/>
	</g>
	<g>
		<path class="st0" d="M623.9,860.5c0,0-6.9-27.4-57.8-27.6c-73.4-0.4-66.6,71.6-73.4,174.2c0,0,71.4-8.4,139.9,6.3
			C632.5,1013.3,639.8,902.3,623.9,860.5z"/>
	</g>
	<g>
		<path class="st0" d="M642.7,861.1l-33.3,18.4c0,0-72.8,6.6-92.1,3.4c-19.3-3.2-24.6-17.4-24.6-17.4s20.6-21.3,55.6-27
			c3.3-0.5,6.7-0.9,10.2-1.2c5.9-0.4,11.9-0.3,17.7,0.4C620.5,842.8,642.7,861.1,642.7,861.1z"/>
	</g>
	<g>
		<path class="st8" d="M573.1,831.2l-3.8-12.4l-1.1-3.6l-6.6-21.2l-0.9,21.1l-0.5,12.7l-0.2,4c-0.1,2.7-1.8,3.3-3.8,5.7
			c-0.8,1-6.1,6.8-0.1,9.4c7.4,3.3,21.3-1.7,26.5-8.2C582.5,838.6,574.3,835.2,573.1,831.2z"/>
	</g>
	<g>
		<path class="st5" d="M498.8,1011.2c0,0,42.3-12.4,129.9,4.6l0.7,12.6l-128.4,4.5L498.8,1011.2z"/>
	</g>
	<g>
		<path class="st4" d="M643.4,861.9c2.8,4-1.3,11.9-9.3,17.6c-7.9,5.7-16.7,7.1-19.5,3.2c-2.8-4,1.3-11.9,9.3-17.6
			C631.8,859.3,640.5,857.9,643.4,861.9z"/>
	</g>
	<g>
		<g>
			<path class="st8" d="M672.7,1031.9L672.7,1031.9c1.6,0.3,2.7,1.9,2.4,3.5l-4.7,25.5c-0.3,1.6-1.9,2.7-3.5,2.4l0,0
				c-1.6-0.3-2.7-1.9-2.4-3.5l4.7-25.5C669.4,1032.7,671,1031.6,672.7,1031.9z"/>
		</g>
		<g>
			<path class="st8" d="M665,1030.5L665,1030.5c1.6,0.3,2.7,1.9,2.4,3.5l-5.3,28.5c-0.3,1.6-1.9,2.7-3.5,2.4l0,0
				c-1.6-0.3-2.7-1.9-2.4-3.5l5.3-28.5C661.8,1031.3,663.4,1030.2,665,1030.5z"/>
		</g>
		<g>
			<path class="st8" d="M665.9,1015.5l0.3,0.3c1.4,1.7,1.3,4.2-0.4,5.6l-14.3,12.5c-1.7,1.4-4.2,1.3-5.6-0.4l-0.3-0.3
				c-1.4-1.7-1.3-4.2,0.4-5.6l14.3-12.5C661.9,1013.7,664.5,1013.9,665.9,1015.5z"/>
		</g>
		<g>
			<path class="st8" d="M657.4,1029.1L657.4,1029.1c1.6,0.3,2.7,1.9,2.4,3.5l-4.2,22.8c-0.3,1.6-1.9,2.7-3.5,2.4l0,0
				c-1.6-0.3-2.7-1.9-2.4-3.5l4.2-22.8C654.2,1029.9,655.7,1028.8,657.4,1029.1z"/>
		</g>
		<g>
			<path class="st8" d="M680.5,1018.3c0,0,5.9,16.3-0.6,26.8c-2.3,3.6-24.6-1.1-25.9-5.7c-1.3-4.6,3.1-19.7,3.1-19.7L680.5,1018.3z"
				/>
		</g>
		<g>
			<path class="st8" d="M680.2,1033.3L680.2,1033.3c1.6,0.3,2.7,1.9,2.4,3.5l-4.2,22.8c-0.3,1.6-1.9,2.7-3.5,2.4l0,0
				c-1.6-0.3-2.7-1.9-2.4-3.5l4.2-22.8C677,1034.1,678.6,1033,680.2,1033.3z"/>
		</g>
	</g>
	<g>
		<g>
			<path class="st8" d="M652.5,1021.8c-3.1-33.7-10.1-81.9-26.2-120c-3.7-8.8-5.3-12.2-8.2-17c-2.3-3.9,1.8-12.4,8.5-16.5
				c6.2-3.8,15.8-3.2,17.4-1.3c2.6,3.2,5.4,9.4,9.7,19.2c15,34,24,77.9,27.6,134.6L652.5,1021.8z"/>
		</g>
	</g>
	<g>
		<g>
			<path class="st0" d="M544.6,785.9c0,0-1.3,5.1,0,11.6c1.3,6.4,7.9-9.4,7.9-9.4L544.6,785.9z"/>
		</g>
		<g>
			
				<ellipse transform="matrix(0.1302 -0.9915 0.9915 0.1302 -305.7177 1255.1974)" class="st8" cx="562.5" cy="801.8" rx="22.8" ry="18.9"/>
		</g>
		<g>
			<path class="st4" d="M581.7,797.8l-9.1-0.9c-2-0.2-3.8-1.3-4.9-3c-1.9-2.9-4.1-4.4-12.6-4.1c-10.8,0.4-17.9-6-19.1-11.7
				c-1.2-5.8,4.3-9.7,9.8-6.9c5.4,2.7,3.1-4,8.3-4.7c9.7-1.3,11.6,6.2,19.5,5.9c10.5-0.3,29.2,7.6,20.3,26L581.7,797.8z"/>
		</g>
		<g>
			<g>
				<path class="st4" d="M561.5,800.9c-0.1-0.1-0.2-0.2-0.2-0.3c0-0.2,0.1-0.4,0.3-0.4c0.1,0,3-0.5,4.4,2.5c0.1,0.2,0,0.4-0.2,0.5
					c-0.2,0.1-0.4,0-0.5-0.2c-1.3-1.6-3.6-2.1-3.7-2.1C561.7,800.9,561.6,800.9,561.5,800.9z"/>
			</g>
		</g>
		<g>
			<path class="st4" d="M563.2,805.8c-0.2,0.9-1,1.5-1.6,1.3c-0.6-0.2-1-1-0.7-1.9c0.2-0.9,1-1.5,1.6-1.3
				C563.1,804.1,563.4,804.9,563.2,805.8z"/>
		</g>
		<g>
			<g>
				<path class="st4" d="M547.4,799.7c-0.1,0-0.2-0.1-0.2-0.2c-0.1-0.2,0-0.4,0.1-0.5c0.1-0.1,2.1-1.7,3.9,0.4
					c0.1,0.1,0.1,0.4,0,0.5c-0.1,0.2-0.3,0.2-0.4,0.1c-1.4-0.9-3.2-0.4-3.2-0.4C547.5,799.7,547.4,799.8,547.4,799.7z"/>
			</g>
		</g>
		<g>
			<path class="st4" d="M550.9,803.7c0.1,0.9-0.3,1.7-1,1.8c-0.7,0.1-1.3-0.6-1.4-1.5c-0.1-0.9,0.3-1.7,1-1.8
				C550.1,802.1,550.8,802.8,550.9,803.7z"/>
		</g>
		<g>
			<path class="st0" d="M593.8,798.4c0,0-6.3,13.6-15.3,14.6c0,0,7.2-10.4-8-16.7C570.5,796.3,584.5,794.1,593.8,798.4z"/>
		</g>
		<g>
			<path class="st8" d="M581.2,805.9c-1.9,1.2-4.3,0.8-5.4-0.9c-1.1-1.7-0.4-4.1,1.5-5.3c1.9-1.2,4.3-0.8,5.4,0.9
				C583.8,802.3,583.1,804.7,581.2,805.9z"/>
		</g>
		<g>
			<path class="st0" d="M570.5,796.3c0,0,1.2,11.4-1.1,13.6c-2.3,2.2-17.7,3.1-24.8,0.3l0,0c-0.1,7.3,5.1,13.8,12.3,15
				c2.4,0.4,4.9,0.4,7.3,0l0,0c5-0.9,9.9-3,12-7.6c0.6-1.4-1.2-10.1-1.2-10.1s-0.7-5.1,2.3-7.8C577.2,799.7,573.8,796.6,570.5,796.3
				z"/>
		</g>
		<g>
			<path class="st6" d="M548.4,814.3c0,0,5.9,1.6,12.3,1c0,0-0.9,6-7.4,4.8C549.5,819.4,548.4,814.3,548.4,814.3z"/>
		</g>
		<g>
			<path class="st4" d="M546.8,770.2c-0.1,0-0.1,0-0.2,0l0-0.5c0,0,0.1,0,0.1,0c2.4,0,2.6-1.9,2.6-2l0.5,0
				C549.9,767.8,549.7,770.2,546.8,770.2z"/>
		</g>
		<g>
			<path class="st6" d="M551.9,786.7c-0.5-0.1-11.8-3.5-12.3-9.6c-0.1-1.8,0.2-2.9,0.9-3.6c1.2-1.1,3.4-0.6,5.3-0.1
				c0.3,0.1,0.6,0.1,0.8,0.2l-0.1,0.3c-0.3-0.1-0.5-0.1-0.8-0.2c-1.8-0.4-3.9-0.9-5,0.1c-0.7,0.6-1,1.7-0.9,3.4
				c0.2,3.1,3.5,5.4,6.2,6.9c2.9,1.6,5.8,2.4,5.9,2.4L551.9,786.7z"/>
		</g>
		<g>
			<path class="st6" d="M574.5,774.7c-9,0-13.4-5.1-13.4-5.2l0.2-0.2c0.1,0.1,5.5,6.4,16.7,4.8l0,0.3
				C576.8,774.6,575.6,774.7,574.5,774.7z"/>
		</g>
	</g>
	<g>
		<path class="st9" d="M660.4,945.9c-2.4,0-4.7-2.5-5.2-5.9c-0.6-3.7,1-7,3.6-7.4c2.6-0.4,5.2,2.2,5.8,5.8l0,0c0.6,3.7-1,7-3.6,7.4
			C660.8,945.9,660.6,945.9,660.4,945.9z M659.4,933.8c-0.1,0-0.2,0-0.4,0c-1.9,0.3-3.1,3-2.6,6c0.5,2.9,2.5,5.1,4.4,4.8
			c1.9-0.3,3.1-3,2.6-6l0,0C662.9,935.9,661.1,933.8,659.4,933.8z"/>
	</g>
	<g>
		<path class="st4" d="M505.7,880.5l-0.8-0.2c2.1-7.8,9.3-17.4,9.4-17.5l0.7,0.5C514.9,863.3,507.8,872.9,505.7,880.5z"/>
	</g>
	<g>
		<path class="st4" d="M572.9,1108.5c-0.1-0.4-5.7-35.6-9.6-48.1c-3.9-12.4-20.5-22.9-20.6-23l0.4-0.7c0.2,0.1,17,10.7,21,23.5
			c3.9,12.6,9.6,47.9,9.7,48.2L572.9,1108.5z"/>
	</g>
	<g>
		<g>
			<path class="st8" d="M392.9,893.6L392.9,893.6c-0.3,1.5-1.8,2.5-3.3,2.3l-23.8-4.5c-1.5-0.3-2.5-1.8-2.3-3.3l0,0
				c0.3-1.5,1.8-2.5,3.3-2.3l23.8,4.5C392.2,890.6,393.2,892.1,392.9,893.6z"/>
		</g>
		<g>
			<path class="st8" d="M394.2,886.5L394.2,886.5c-0.3,1.5-1.8,2.5-3.3,2.3l-26.6-5.1c-1.5-0.3-2.5-1.8-2.3-3.3l0,0
				c0.3-1.5,1.8-2.5,3.3-2.3l26.6,5.1C393.5,883.5,394.5,885,394.2,886.5z"/>
		</g>
		<g>
			<path class="st8" d="M408.2,887.4l-0.3,0.3c-1.6,1.3-3.9,1.2-5.3-0.4L391,873.8c-1.3-1.6-1.2-3.9,0.4-5.3l0.3-0.3
				c1.6-1.3,3.9-1.2,5.3,0.4l11.6,13.5C409.9,883.7,409.8,886.1,408.2,887.4z"/>
		</g>
		<g>
			<path class="st8" d="M395.6,879.4L395.6,879.4c-0.3,1.5-1.8,2.5-3.3,2.3l-21.3-4.1c-1.5-0.3-2.5-1.8-2.3-3.3l0,0
				c0.3-1.5,1.8-2.5,3.3-2.3l21.3,4.1C394.9,876.3,395.9,877.8,395.6,879.4z"/>
		</g>
		<g>
			<path class="st8" d="M405.5,901.1c0,0-15.3,5.5-25-0.7c-3.4-2.1,1.2-23,5.5-24.2c4.3-1.2,18.4,3,18.4,3L405.5,901.1z"/>
		</g>
		<g>
			<path class="st8" d="M391.6,900.7L391.6,900.7c-0.3,1.5-1.8,2.5-3.3,2.3l-21.3-4c-1.5-0.3-2.5-1.8-2.3-3.3l0,0
				c0.3-1.5,1.8-2.5,3.3-2.3l21.3,4C390.8,897.7,391.8,899.2,391.6,900.7z"/>
		</g>
	</g>
	<g>
		<polygon class="st15" points="673.5,1286.8 673.5,1277.6 807.9,1276.7 807.7,1286.8 		"/>
	</g>
	<g>
		<path class="st15" d="M678.8,1277.3c12.2-10.2,40.1-19.1,88.1-13c31.3,4,47.6,16.1,38.6,26.6c-11,12.8-42.9,17.3-89.9,13.1
			C683.2,1301.1,663.5,1290,678.8,1277.3z"/>
	</g>
	<g>
		<path class="st5" d="M678.8,1268.5c12.2-10.2,40.1-19.1,88.1-13c31.3,4,47.6,16.1,38.6,26.6c-11,12.8-42.9,17.3-89.9,13.1
			C683.2,1292.2,663.5,1281.2,678.8,1268.5z"/>
	</g>
	<g>
		<path class="st6" d="M746.1,1294.5c-8.1,0-17-0.4-26.6-1.3c-20.3-1.8-34.2-7.3-36.4-14.3c-0.7-2.3-0.5-6,4.5-10.2l0,0
			c6.6-5.5,27.1-17.5,75.7-11.3c18.9,2.4,32.4,8.5,35.3,15.8c1.1,2.9,0.5,5.9-1.8,8.5C789.6,1290.2,771.9,1294.5,746.1,1294.5z
			 M688.3,1269.5l0.7,0.8c-3.4,2.8-4.7,5.5-3.9,8c1.9,6.1,15.5,11.2,34.6,12.9c39.7,3.6,66.5-0.3,75.5-10.8c1.8-2.1,2.3-4.3,1.4-6.4
			c-2.5-6.5-15.7-12.2-33.6-14.5c-12.4-1.6-54.5-5.5-74.1,10.8L688.3,1269.5z"/>
	</g>
	<g>
		<g>
			<path class="st6" d="M728.7,1287l0.9-1.3c0.3-0.5-0.5-1-2-1.1c-3.4-0.4-6.6-1-9-1.6c-1.1-0.3-1.4-0.8-0.6-1.3l0.5-0.3
				c0.9-0.5,3-0.6,4.4-0.2c2.7,0.7,6.2,1.3,10.1,1.6c6.7,0.5,10.7-0.7,11.9-2.5c1.2-1.7-0.4-2.8-6.7-4.2c-8.7-2-17.2-4.1-15.3-6.8
				c1.6-2.4,7.8-4.5,19-3.8c1.3,0.1,2.5-0.3,2.8-0.8l1-1.5c0.4-0.5,2-0.9,3.6-0.7l0,0c1.6,0.1,2.6,0.6,2.3,1.2l-0.8,1.2
				c-0.3,0.5,0.5,1,1.9,1.1c2.9,0.3,5.1,0.7,6.8,1.2c1.3,0.3,1.6,0.9,0.7,1.3l-0.5,0.3c-0.9,0.5-2.9,0.6-4.3,0.2
				c-1.9-0.5-4.7-1-8.6-1.3c-7.2-0.5-11,0.7-11.8,2c-1.1,1.6,3.8,2.2,11.2,3.9c8.8,2,13.6,4.3,12.5,7.2c-1.2,3-8,4.7-20.2,4.4
				c-1.4,0-2.5,0.3-2.8,0.8l-1.1,1.6c-0.4,0.5-2,0.9-3.6,0.7l-0.1,0C729.3,1288,728.3,1287.5,728.7,1287z"/>
		</g>
	</g>
	<g>
		<polygon class="st15" points="946.8,1210.1 946.8,1203.2 1048.6,1202.5 1048.4,1210.1 		"/>
	</g>
	<g>
		<path class="st15" d="M950.8,1203c9.3-7.7,30.4-14.5,66.7-9.9c23.7,3,36,12.2,29.2,20.1c-8.3,9.7-32.5,13.1-68.1,9.9
			C954.1,1221,939.2,1212.6,950.8,1203z"/>
	</g>
	<g>
		<path class="st5" d="M950.8,1196.3c9.3-7.7,30.4-14.5,66.7-9.9c23.7,3,36,12.2,29.2,20.1c-8.3,9.7-32.5,13.1-68.1,9.9
			C954.1,1214.3,939.2,1205.9,950.8,1196.3z"/>
	</g>
	<g>
		<path class="st6" d="M1001.7,1216c-6.1,0-12.9-0.3-20.1-1c-15.3-1.4-25.9-5.5-27.6-10.9c-0.5-1.8-0.4-4.5,3.4-7.7l0,0
			c5-4.1,20.5-13.2,57.4-8.6c14.3,1.8,24.6,6.4,26.7,11.9c0.8,2.2,0.4,4.4-1.4,6.5C1034.7,1212.7,1021.3,1216,1001.7,1216z
			 M958.5,1197.7c-2.5,2.1-3.5,4.1-2.9,6c1.4,4.6,11.7,8.5,26.2,9.8c30.1,2.7,50.4-0.2,57.2-8.2c1.4-1.6,1.7-3.2,1.1-4.9
			c-1.9-4.9-11.9-9.2-25.4-11C1005.2,1188.3,973.3,1185.3,958.5,1197.7L958.5,1197.7z"/>
	</g>
	<g>
		<g>
			<path class="st6" d="M988.5,1210.3l0.7-1c0.3-0.4-0.4-0.7-1.5-0.9c-2.6-0.3-5-0.7-6.8-1.2c-0.9-0.2-1.1-0.6-0.5-1l0.4-0.2
				c0.7-0.4,2.3-0.5,3.3-0.2c2,0.5,4.7,1,7.6,1.2c5.1,0.4,8.1-0.6,9.1-1.9c0.9-1.3-0.3-2.1-5.1-3.2c-6.6-1.5-13-3.1-11.6-5.2
				c1.2-1.8,5.9-3.4,14.4-2.9c1,0.1,1.9-0.2,2.1-0.6l0.8-1.1c0.3-0.4,1.5-0.6,2.7-0.6l0,0c1.2,0.1,2,0.5,1.7,0.9l-0.6,0.9
				c-0.2,0.4,0.4,0.7,1.4,0.9c2.2,0.2,3.8,0.6,5.2,0.9c0.9,0.2,1.2,0.7,0.5,1l-0.4,0.2c-0.7,0.4-2.2,0.4-3.2,0.2
				c-1.5-0.4-3.6-0.7-6.6-1c-5.5-0.4-8.3,0.5-9,1.5c-0.9,1.2,2.9,1.6,8.5,2.9c6.6,1.5,10.3,3.3,9.4,5.4c-0.9,2.3-6.1,3.6-15.3,3.4
				c-1,0-1.9,0.2-2.1,0.6l-0.8,1.2c-0.3,0.4-1.5,0.6-2.7,0.6l-0.1,0C989,1211,988.3,1210.6,988.5,1210.3z"/>
		</g>
	</g>
	<g>
		<polygon class="st16" points="688.6,1217 688.6,1206.4 842.8,1204.6 842.7,1216.1 		"/>
	</g>
	<g>
		<path class="st15" d="M694.6,1206.1c14-11.8,45.9-22.2,101.1-15.5c35.9,4.4,54.7,18.1,44.4,30.3c-12.5,14.8-49.1,20.2-103.1,15.6
			C699.8,1233.3,677.1,1220.8,694.6,1206.1z"/>
	</g>
	<g>
		<path class="st5" d="M694.5,1195.9c14-11.8,45.9-22.2,101.1-15.5c35.9,4.4,54.7,18.1,44.4,30.3c-12.5,14.8-49.1,20.2-103.1,15.6
			C699.8,1223.2,677.1,1210.6,694.5,1195.9z"/>
	</g>
	<g>
		<path class="st0" d="M770.5,1225.4c-8.9,0-18.6-0.4-29.1-1.3c-23.3-2-39.3-8.2-41.9-16.2c-0.8-2.7-0.6-6.9,5.1-11.7l0,0
			c7.5-6.3,31-20.3,86.9-13.4c21.7,2.6,37.3,9.5,40.6,17.9c1.3,3.3,0.6,6.7-2,9.8C821.7,1220.3,800.9,1225.4,770.5,1225.4z
			 M706.2,1198c-3.8,3.2-5.3,6.3-4.4,9.2c2.2,7,17.8,12.7,39.8,14.6c45.6,3.9,76.4-0.7,86.7-12.9c2.1-2.4,2.6-4.9,1.6-7.4
			c-2.9-7.5-18.1-13.9-38.6-16.4C776.9,1183.3,728.6,1179.1,706.2,1198L706.2,1198z"/>
	</g>
	<g>
		<polygon class="st16" points="688.5,1205.3 688.5,1194.8 842.8,1193 842.6,1204.5 		"/>
	</g>
	<g>
		<path class="st15" d="M694.5,1194.5c14-11.8,45.9-22.2,101.1-15.5c35.9,4.4,54.7,18.1,44.4,30.3c-12.5,14.8-49.1,20.2-103.1,15.6
			C699.8,1221.7,677.1,1209.2,694.5,1194.5z"/>
	</g>
	<g>
		<path class="st5" d="M694.5,1184.3c14-11.8,45.9-22.2,101.1-15.5c35.9,4.4,54.7,18.1,44.4,30.3c-12.5,14.8-49.1,20.2-103.1,15.6
			C699.7,1211.6,677,1199,694.5,1184.3z"/>
	</g>
	<g>
		<path class="st7" d="M770.4,1213.8c-8.9,0-18.6-0.4-29.1-1.3c-23.3-2-39.3-8.2-41.9-16.2c-0.8-2.7-0.6-6.9,5.1-11.7l0.8,0.9
			l-0.8-0.9c7.5-6.3,31-20.3,86.9-13.4c21.7,2.6,37.3,9.5,40.6,17.9c1.3,3.3,0.6,6.7-2,9.8C821.6,1208.7,800.9,1213.8,770.4,1213.8z
			 M763.9,1171.8c-19.6,0-43.7,2.8-57.7,14.6c-3.8,3.2-5.3,6.3-4.4,9.2c2.2,7,17.8,12.7,39.8,14.6c45.6,3.9,76.4-0.7,86.7-12.9
			c2.1-2.4,2.6-4.9,1.6-7.4c-2.9-7.5-18.1-13.9-38.6-16.4C785.8,1172.8,775.6,1171.8,763.9,1171.8z"/>
	</g>
	<g>
		<polygon class="st16" points="688.5,1189.2 688.4,1178.7 842.7,1176.9 842.5,1188.4 		"/>
	</g>
	<g>
		<path class="st15" d="M694.4,1178.4c14-11.8,45.9-22.2,101.1-15.5c35.9,4.4,54.7,18.1,44.4,30.3c-12.5,14.8-49.1,20.2-103.1,15.6
			C699.7,1205.6,677,1193.1,694.4,1178.4z"/>
	</g>
	<g>
		<path class="st5" d="M694.4,1168.2c14-11.8,45.9-22.2,101.1-15.5c35.9,4.4,54.7,18.1,44.4,30.3c-12.5,14.8-49.1,20.2-103.1,15.6
			C699.6,1195.5,676.9,1182.9,694.4,1168.2z"/>
	</g>
	<g>
		<path class="st7" d="M770.3,1197.7c-8.9,0-18.6-0.4-29.1-1.3c-23.3-2-39.3-8.2-41.9-16.2c-0.8-2.7-0.6-6.9,5.1-11.7l0.8,0.9
			l-0.8-0.9c7.5-6.3,31-20.3,86.9-13.4c21.7,2.6,37.3,9.5,40.6,17.9c1.3,3.3,0.6,6.7-2,9.8C821.6,1192.6,800.8,1197.7,770.3,1197.7z
			 M763.8,1155.7c-19.6,0-43.7,2.8-57.7,14.6c-3.8,3.2-5.3,6.3-4.4,9.2c2.2,7,17.8,12.7,39.8,14.6c45.6,3.9,76.4-0.7,86.7-12.9
			c2.1-2.4,2.6-4.9,1.6-7.4c-2.9-7.5-18.1-13.9-38.6-16.4C785.7,1156.7,775.6,1155.7,763.8,1155.7z"/>
	</g>
	<g>
		<polygon class="st16" points="690.2,1169.5 690.1,1159 844.4,1157.2 844.2,1168.7 		"/>
	</g>
	<g>
		<path class="st15" d="M696.2,1158.6c14-11.8,45.9-22.2,101.1-15.5c35.9,4.4,54.7,18.1,44.4,30.3c-12.5,14.8-49.1,20.2-103.1,15.6
			C701.4,1185.9,678.7,1173.3,696.2,1158.6z"/>
	</g>
	<g>
		<path class="st5" d="M696.1,1148.5c14-11.8,45.9-22.2,101.1-15.5c35.9,4.4,54.7,18.1,44.4,30.3c-12.5,14.8-49.1,20.2-103.1,15.6
			C701.4,1175.7,678.6,1163.2,696.1,1148.5z"/>
	</g>
	<g>
		<path class="st7" d="M772,1178c-8.9,0-18.6-0.4-29.1-1.3c-23.3-2-39.3-8.2-41.9-16.2c-0.8-2.7-0.6-6.9,5.1-11.7l0,0
			c7.5-6.3,31-20.3,86.9-13.4c21.7,2.6,37.3,9.5,40.6,17.9c1.3,3.3,0.6,6.7-2,9.8C823.3,1172.8,802.5,1178,772,1178z M707.8,1150.5
			c-3.8,3.2-5.3,6.3-4.4,9.2c2.2,7,17.8,12.7,39.8,14.6c45.6,3.9,76.4-0.7,86.7-12.9c2.1-2.4,2.6-4.9,1.6-7.4
			c-2.9-7.5-18.1-13.9-38.6-16.4C778.5,1135.9,730.2,1131.7,707.8,1150.5L707.8,1150.5z"/>
	</g>
	<g>
		<g>
			<path class="st0" d="M753.5,1169.4l1.1-1.5c0.4-0.6-0.6-1.1-2.3-1.3c-3.9-0.4-7.6-1.1-10.3-1.8c-1.3-0.3-1.6-1-0.7-1.4l0.6-0.3
				c1.1-0.6,3.4-0.7,5.1-0.3c3.1,0.8,7.1,1.5,11.6,1.8c7.7,0.5,12.3-0.9,13.7-3c1.4-2-0.5-3.2-7.7-4.8c-10-2.2-19.8-4.6-17.6-7.8
				c1.9-2.7,8.9-5.2,21.7-4.4c1.5,0.1,2.9-0.4,3.2-0.9l1.2-1.7c0.4-0.6,2.2-1,4.1-0.9l0,0c1.8,0.1,3,0.7,2.6,1.3l-1,1.4
				c-0.4,0.6,0.6,1.1,2.2,1.3c3.3,0.4,5.8,0.8,7.8,1.3c1.4,0.3,1.8,1,0.8,1.5l-0.6,0.3c-1.1,0.5-3.3,0.7-4.9,0.3
				c-2.2-0.5-5.4-1.1-9.9-1.4c-8.3-0.6-12.6,0.9-13.6,2.3c-1.3,1.9,4.4,2.5,12.9,4.4c10.1,2.3,15.6,4.9,14.4,8.2
				c-1.4,3.5-9.2,5.5-23.1,5.2c-1.6,0-2.9,0.4-3.2,0.9l-1.2,1.8c-0.4,0.6-2.2,1-4.1,0.9l-0.1,0
				C754.2,1170.6,753.1,1170,753.5,1169.4z"/>
		</g>
	</g>
	<g>
		<polygon class="st16" points="691.8,1151.2 691.7,1140.7 846,1138.9 845.8,1150.4 		"/>
	</g>
	<g>
		<path class="st15" d="M697.7,1140.3c14-11.8,45.9-22.2,101.1-15.5c35.9,4.4,54.7,18.1,44.4,30.3c-12.5,14.8-49.1,20.2-103.1,15.6
			C703,1167.6,680.3,1155,697.7,1140.3z"/>
	</g>
	<g>
		<path class="st5" d="M697.7,1130.2c14-11.8,45.9-22.2,101.1-15.5c35.9,4.4,54.7,18.1,44.4,30.3c-12.5,14.8-49.1,20.2-103.1,15.6
			C702.9,1157.4,680.2,1144.9,697.7,1130.2z"/>
	</g>
	<g>
		<path class="st7" d="M773.6,1159.7c-8.9,0-18.6-0.4-29.1-1.3c-23.3-2-39.3-8.2-41.9-16.2c-0.8-2.7-0.6-6.9,5.1-11.7l0,0
			c7.5-6.3,31-20.3,86.9-13.4c21.7,2.6,37.3,9.5,40.6,17.9c1.3,3.3,0.6,6.7-2,9.8C824.9,1154.6,804.1,1159.7,773.6,1159.7z
			 M709.3,1132.2c-3.8,3.2-5.3,6.3-4.4,9.2c2.2,7,17.8,12.7,39.8,14.6c45.6,3.9,76.4-0.7,86.7-12.9c2.1-2.4,2.6-4.9,1.6-7.4
			c-2.9-7.5-18.1-13.9-38.6-16.4C780.1,1117.6,731.7,1113.4,709.3,1132.2L709.3,1132.2z"/>
	</g>
	<g>
		<g>
			<path class="st7" d="M755,1151.1l1.1-1.5c0.4-0.6-0.6-1.1-2.3-1.3c-3.9-0.4-7.6-1.1-10.3-1.8c-1.3-0.3-1.6-1-0.7-1.4l0.6-0.3
				c1.1-0.6,3.4-0.7,5.1-0.3c3.1,0.8,7.1,1.5,11.6,1.8c7.7,0.5,12.3-0.9,13.7-3c1.4-2-0.5-3.2-7.7-4.8c-10-2.2-19.8-4.6-17.6-7.8
				c1.9-2.7,8.9-5.2,21.7-4.4c1.5,0.1,2.9-0.4,3.2-0.9l1.2-1.7c0.4-0.6,2.2-1,4.1-0.9l0,0c1.8,0.1,3,0.7,2.6,1.3l-1,1.4
				c-0.4,0.6,0.6,1.1,2.2,1.3c3.3,0.4,5.8,0.8,7.8,1.3c1.4,0.3,1.8,1,0.8,1.5l-0.6,0.3c-1.1,0.5-3.3,0.7-4.9,0.3
				c-2.2-0.5-5.4-1.1-9.9-1.4c-8.3-0.6-12.6,0.9-13.6,2.3c-1.3,1.9,4.4,2.5,12.9,4.4c10.1,2.3,15.6,4.9,14.4,8.2
				c-1.4,3.5-9.2,5.5-23.1,5.2c-1.6,0-2.9,0.4-3.2,0.9l-1.2,1.8c-0.4,0.6-2.2,1-4.1,0.9l-0.1,0
				C755.8,1152.3,754.6,1151.7,755,1151.1z"/>
		</g>
	</g>
	<g>
		<polygon class="st16" points="676.8,1128.3 676.8,1117.8 831,1116 830.9,1127.5 		"/>
	</g>
	<g>
		<path class="st15" d="M682.8,1117.5c14-11.8,45.9-22.2,101.1-15.5c35.9,4.4,54.7,18.1,44.4,30.3c-12.5,14.8-49.1,20.2-103.1,15.6
			C688.1,1144.7,665.4,1132.2,682.8,1117.5z"/>
	</g>
	<g>
		<path class="st5" d="M682.8,1107.3c14-11.8,45.9-22.2,101.1-15.5c35.9,4.4,54.7,18.1,44.4,30.3c-12.5,14.8-49.1,20.2-103.1,15.6
			C688,1134.6,665.3,1122,682.8,1107.3z"/>
	</g>
	<g>
		<path class="st7" d="M758.7,1136.8c-8.9,0-18.6-0.4-29.1-1.3c-23.3-2-39.3-8.2-41.9-16.2c-0.8-2.7-0.6-6.9,5.1-11.7l0,0
			c7.5-6.3,31-20.3,86.9-13.4c21.7,2.6,37.3,9.5,40.6,17.9c1.3,3.3,0.6,6.7-2,9.8C809.9,1131.7,789.2,1136.8,758.7,1136.8z
			 M752.2,1094.8c-19.6,0-43.7,2.8-57.7,14.6c-3.8,3.2-5.3,6.3-4.4,9.2c2.2,7,17.8,12.7,39.8,14.6c45.6,3.9,76.4-0.7,86.7-12.9
			c2.1-2.4,2.6-4.9,1.6-7.4c-2.9-7.5-18.1-13.9-38.6-16.4C774.1,1095.8,763.9,1094.8,752.2,1094.8z"/>
	</g>
	<g>
		<polygon class="st15" points="703.3,1113.1 703.3,1102.5 857.5,1100.7 857.4,1112.2 		"/>
	</g>
	<g>
		<path class="st15" d="M709.3,1102.2c14-11.8,45.9-22.2,101.1-15.5c35.9,4.4,54.7,18.1,44.4,30.3c-12.5,14.8-49.1,20.2-103.1,15.6
			C714.6,1129.4,691.8,1116.9,709.3,1102.2z"/>
	</g>
	<g>
		<path class="st5" d="M709.3,1092c14-11.8,45.9-22.2,101.1-15.5c35.9,4.4,54.7,18.1,44.4,30.3c-12.5,14.8-49.1,20.2-103.1,15.6
			C714.5,1119.3,691.8,1106.7,709.3,1092z"/>
	</g>
	<g>
		<path class="st7" d="M785.2,1121.5c-8.9,0-18.6-0.4-29.1-1.3c-23.3-2-39.3-8.2-41.9-16.2c-0.8-2.7-0.6-6.9,5.1-11.7
			c7.5-6.3,31-20.3,86.9-13.4c21.7,2.6,37.3,9.5,40.6,17.9c1.3,3.3,0.6,6.7-2,9.8C836.4,1116.4,815.7,1121.5,785.2,1121.5z
			 M778.6,1079.5c-19.6,0-43.7,2.8-57.7,14.6l0,0c-3.8,3.2-5.3,6.3-4.4,9.2c2.2,7,17.8,12.7,39.8,14.6c45.6,3.9,76.4-0.7,86.7-12.9
			c2.1-2.4,2.6-4.9,1.6-7.4c-2.9-7.5-18.1-13.9-38.6-16.4C800.6,1080.5,790.4,1079.5,778.6,1079.5z"/>
	</g>
	<g>
		<g>
			<path class="st7" d="M766.6,1112.9l1.1-1.5c0.4-0.6-0.6-1.1-2.3-1.3c-3.9-0.4-7.6-1.1-10.3-1.8c-1.3-0.3-1.6-1-0.7-1.4l0.6-0.3
				c1.1-0.6,3.4-0.7,5.1-0.3c3.1,0.8,7.1,1.5,11.6,1.8c7.7,0.5,12.3-0.9,13.7-3c1.4-2-0.5-3.2-7.7-4.8c-10-2.2-19.8-4.6-17.6-7.8
				c1.9-2.7,8.9-5.2,21.7-4.4c1.5,0.1,2.9-0.4,3.2-0.9l1.2-1.7c0.4-0.6,2.2-1,4.1-0.9l0,0c1.8,0.1,3,0.7,2.6,1.3l-1,1.4
				c-0.4,0.6,0.6,1.1,2.2,1.3c3.3,0.4,5.8,0.8,7.8,1.3c1.4,0.3,1.8,1,0.8,1.5l-0.6,0.3c-1.1,0.5-3.3,0.7-4.9,0.3
				c-2.2-0.5-5.4-1.1-9.9-1.4c-8.3-0.6-12.6,0.9-13.6,2.3c-1.3,1.9,4.4,2.5,12.9,4.4c10.1,2.3,15.6,4.9,14.4,8.2
				c-1.4,3.5-9.2,5.5-23.1,5.2c-1.6,0-2.9,0.4-3.2,0.9l-1.2,1.8c-0.4,0.6-2.2,1-4.1,0.9l-0.1,0
				C767.4,1114.1,766.2,1113.5,766.6,1112.9z"/>
		</g>
	</g>
	<g>
		<g>
			<path class="st7" d="M873.6,1108.7c-25,30.3-79.4,111.8-59.7,139.8c19.7,28,138.7,21.7,158.2,11.3c19.5-10.4-29.4-140-45.3-156.3
				C910.9,1087.2,891,1087.5,873.6,1108.7z"/>
		</g>
		<g>
			<g>
				<path class="st4" d="M859.6,1218.3l1-4.5c0.4-1.6-0.6-3.3-2.1-3.8c-3.7-1.3-7.2-3.3-9.8-5.4c-1.2-1-1.5-2.8-0.6-4.2l0.6-0.9
					c1-1.7,3.3-2,4.8-0.8c2.9,2.4,6.7,4.4,11,5.4c7.3,1.7,11.7-2.5,13.1-8.5c1.3-5.8-0.4-9.4-7.2-14.3c-9.5-6.6-18.7-13.9-16.6-23
					c1.8-8,8.6-15,20.8-12.6c1.5,0.3,2.7-1.1,3.1-2.5l1.1-4.9c0.4-1.8,2.2-2.9,3.9-2.5l0,0c1.8,0.4,2.9,2.2,2.5,3.9l-0.9,4.1
					c-0.4,1.6,0.5,3.2,2.1,3.8c3.1,1.1,5.5,2.5,7.4,3.9c1.4,1,1.7,2.9,0.7,4.4l-0.6,0.9c-1,1.6-3.2,1.9-4.7,0.8
					c-2.1-1.6-5.2-3.3-9.4-4.3c-7.9-1.8-12,2.4-13,6.6c-1.3,5.5,4.1,7.3,12.2,13.1c9.5,6.9,14.8,14.6,13.5,24.2
					c-1.4,10.2-8.8,15.8-22.1,14.8c-1.5-0.1-2.7,1.1-3.1,2.5l-1.2,5.2c-0.4,1.8-2.2,2.9-3.9,2.5l-0.1,0
					C860.3,1221.9,859.2,1220.1,859.6,1218.3z"/>
			</g>
		</g>
		<g>
			<path class="st7" d="M932.4,1063.2c0,0-25.2,3.4-27.6,18.4c-2.4,15,22.1,3,38.4,7c16.3,4,7.1-7.8,3.4-15.7
				C942.9,1065.1,943.2,1062.2,932.4,1063.2z"/>
		</g>
	</g>
</g>
</svg>
