<?xml version="1.0" encoding="utf-8"?>
<!-- Generator: Adobe Illustrator 24.0.1, SVG Export Plug-In . SVG Version: 6.00 Build 0)  -->
<svg version="1.1" id="Isolation_Mode" xmlns="http://www.w3.org/2000/svg" xmlns:xlink="http://www.w3.org/1999/xlink" x="0px"
	 y="0px" viewBox="0 0 1665.5 1220.5" style="enable-background:new 0 0 1665.5 1220.5;" xml:space="preserve">
<style type="text/css">
	.st0{opacity:0.5;fill:#FFC392;}
	.st1{fill:#44474F;}
	.st2{fill:#C97E67;}
	.st3{fill:#33353B;}
	.st4{fill:#FC8E1F;}
	.st5{fill:#FFF2E2;}
	.st6{fill:#FFFFFF;}
	.st7{opacity:0.3;}
	.st8{opacity:0.5;}
	.st9{fill:#13548C;}
	.st10{fill:#B2604D;}
	.st11{fill:#020202;}
	.st12{fill:#FFA757;}
	.st13{fill:#DEEBE9;}
</style>
<g>
	<polygon class="st0" points="1457.5,420.8 1453.7,804.8 1147.5,757.5 1154.8,242 1087.7,247.6 1087.7,207 1050.1,207 1053.6,64 
		989.6,70.4 989.6,207 943.9,207 949,259.1 949,259.1 894.8,263.7 924.2,922.8 877.4,922.8 877.4,696.2 835.6,693.6 837.6,378.2 
		837.6,376.6 711,420.8 708.4,685.8 566.9,677 571.6,804.8 402.4,804.8 408.4,242 341.3,247.6 341.3,207 303.6,207 307.1,64 
		243.1,70.4 243.1,207 197.4,207 202.5,259.1 202.5,259.1 148.3,263.7 177.7,922.8 130.9,922.8 130.9,696.2 49.3,691.2 48,922.8 
		46.9,1127.7 94.9,1128.4 130.9,1128.9 186.9,1129.8 302.7,1131.5 327,1131.9 399,1132.9 460.3,1133.8 498.9,1134.4 583.8,1135.7 
		670.9,1137 696.4,1137.4 779.6,1138.6 877.4,1140.1 933.9,1140.9 1049.2,1142.6 1073.5,1143 1145.3,1144.1 1206.7,1145 
		1363,1147.3 1450.3,1147.3 1497.4,1147.3 1579.1,1147.3 1584.1,378.2 1584.1,376.6 	"/>
	<g>
		<g>
			<path class="st1" d="M834.6,863.1c0.4-41.4-111-166-168.9-181.6C600,664,515.8,632,491.1,689.7c-24.7,57.7,58.1,235.6,58.1,235.6
				s4.6,15.8,21.4,17.6c16.8,1.8,215.8,0,223.8,0C868.6,942.9,863.8,871.6,834.6,863.1z"/>
		</g>
	</g>
	<g>
		<path class="st2" d="M749.8,500.5c0,0,26.2,91.9,107.3,137.1c25.6,14.3-14,126.9-119,0.4c-7-8.4-19-121.2-19-121.2L749.8,500.5z"
			/>
	</g>
	<g>
		<path class="st3" d="M840.5,1101.2c0,0-0.6,19.7,12.5,26c13,6.3,51.4,13.4,36.3,25.3c-8.7,6.8-47.5,0-58.5-0.6
			c-11-0.6-21.6,3.6-29.4-4.2c-8.6-8.6,2.6-48.5,2.6-48.5s9.2,5.5,17.8,5.7C834.1,1105.3,840.5,1101.2,840.5,1101.2z"/>
	</g>
	<g>
		<path class="st3" d="M949.8,1091.6c0,0-0.6,19.7,12.5,26c13,6.3,51.4,13.4,36.3,25.3c-8.7,6.8-47.5,0-58.5-0.6
			c-11-0.6-21.6,3.6-29.4-4.2c-8.6-8.6,2.7-48.5,2.7-48.5s9.2,5.5,17.8,5.7C943.4,1095.6,949.8,1091.6,949.8,1091.6z"/>
	</g>
	<g>
		<g>
			<path class="st4" d="M974.9,1068.5c-9.8-129.4-12.1-216.6-53-272.7C877.1,734.4,757,691,710.7,688.3
				c-75.5-4.4-111.1,6.8-111.1,6.8c-56.7,117.9,32.1,133.5,97.8,136.7c2.2,0.1,4.3,0.2,6.5,0.4c39.8,2.5,110.5,12.6,137.2,52.1
				c21.2,31.3,35.9,75.2,42.1,188.5c1.2,21.7,19.4,38.6,41.2,38C924.5,1110.9,978.4,1115,974.9,1068.5z"/>
		</g>
	</g>
	<g>
		<g>
			<path class="st4" d="M867.7,1075.1c1.3-129.7,5.3-195.9-33.6-253.4c-25-36.9-62.6-64.8-111.8-82.9
				c-35.1-12.9-76.4-20.8-122.7-23.5c-75.5-4.4-109.5-13.5-109.5-13.5C429.1,852.7,652.6,820.7,710.8,885
				c25.4,28,56.8,81.3,63,194.6c1.2,21.7,19.4,38.6,41.2,38C815,1117.6,867.3,1122.6,867.7,1075.1z"/>
		</g>
	</g>
	<g>
		<path class="st1" d="M867.4,947.7c0-0.8-3.9-77.7-16.8-104.6c-16.3-34-63.7-69.5-112.6-84.4l0.3-0.8c49.1,15,96.7,50.7,113.1,84.9
			c13,27,16.8,104.2,16.8,104.9L867.4,947.7z"/>
	</g>
	<g>
		<path class="st5" d="M543.8,462.3c0,0,32.1-54.9,106.2-38.1C724,441,754.2,516.7,759.5,698.4c0,0-68.6-2.5-248.7,57.2
			c-21.3,7.1-52.6,1.5-41.7-34.9C489.5,653.1,509.2,518.3,543.8,462.3z"/>
	</g>
	<g>
		<path class="st5" d="M459.7,496.7l78.8-4c0,0,133.2,39.4,170.5,39.7c37.3,0.3,52.7-27,52.7-27s-30.1-51.1-93.1-75.1
			c-5.9-2.3-12.1-4.3-18.6-6c-10.9-2.9-22-5.5-33.1-5.5C473.8,418.6,459.7,496.7,459.7,496.7z"/>
	</g>
	<g>
		<path class="st3" d="M459.7,496.7c0.1,6.2,18.3,11.2,40.6,11.2c22.3,0,40.2-5.1,40.1-11.3c-0.1-6.2-18.3-11.2-40.6-11.2
			C477.5,485.3,459.5,490.4,459.7,496.7z"/>
	</g>
	<g>
		<g>
			<path class="st3" d="M654.8,398.4l-0.3-0.8c0.1,0,8.6-3.3,10.4-9.7c0.9-3.3-0.2-6.9-3.2-10.6c-1.4-1.8-2.7-3.4-3.9-4.8
				c-8.3-10.1-11.4-13.9-10.6-23.1l0.8,0.1c-0.7,8.9,2.1,12.3,10.5,22.5c1.2,1.5,2.5,3.1,3.9,4.8c3.2,4,4.3,7.8,3.4,11.4
				C663.8,395,655.2,398.3,654.8,398.4z"/>
		</g>
		<g>
			<path class="st3" d="M647.5,349.5c0,0-1.3,14.3,9.8,27.7c11.1,13.4,2.4,25.3-10.8,21.3c-13.2-4-15.9,12.5-33,5.8
				C596.4,397.5,647.5,349.5,647.5,349.5z"/>
		</g>
		<g>
			<path class="st2" d="M582.7,420.1c6.8-1.6,11.2-6.5,13.1-13.2l6-20.9l1.8-6.1l10.3-35.9l2,35.6l1.2,21.4l0.3,6
				c0.3,5,4.7,12.2,9.6,12.5c0,0,7.5,8.8-2.8,13.6c-12.1,5.6-35-1.6-43.9-12.4L582.7,420.1z"/>
		</g>
		<g>
			<path class="st3" d="M601.7,385.3c0,0.2,0.1,0.4,0.1,0.6c2.3,11.3,15.1,15,15.1,15l0.1-0.1l-1.2-21.4c-3.9-0.9-9.4-1.6-12.3,0.3
				C602.1,380.8,601.2,382.5,601.7,385.3z"/>
		</g>
		<g>
			<path class="st2" d="M649.3,345.1c-2.9-22.6-20.1-39-38.4-36.6c-18.3,2.3-30.8,22.5-27.9,45.1c2.9,22.6,20.1,39,38.4,36.6
				C639.7,387.9,652.2,367.7,649.3,345.1z"/>
		</g>
		<g>
			<path class="st2" d="M588.3,359.2c4.2,3.1,9.5,2.8,11.8-0.7c2.3-3.5,0.8-8.8-3.4-11.9c-4.2-3.1-9.5-2.8-11.8,0.7
				C582.5,350.7,584.1,356.1,588.3,359.2z"/>
		</g>
		<g>
			<g>
				<path class="st3" d="M619.5,349.3c0.2-0.1,0.4-0.3,0.4-0.5c0.1-0.4-0.1-0.8-0.5-0.9c-0.2-0.1-5.6-2-9.5,3.4
					c-0.2,0.3-0.2,0.8,0.2,1.1c0.3,0.2,0.7,0.1,1.1-0.2c3.2-2.8,7.7-2.9,7.9-2.8C619.1,349.4,619.3,349.4,619.5,349.3z"/>
			</g>
		</g>
		<g>
			<path class="st3" d="M614.5,358.4c0.2,1.8,1.4,3.2,2.7,3c1.3-0.1,2.2-1.7,2.1-3.5c-0.2-1.8-1.4-3.2-2.7-3
				C615.3,355,614.4,356.6,614.5,358.4z"/>
		</g>
		<g>
			<g>
				<path class="st3" d="M646.9,349.8c0.2,0,0.5-0.1,0.6-0.3c0.3-0.3,0.2-0.8-0.2-1.1c-0.2-0.1-4.4-4-10.1-0.4
					c-0.4,0.2-0.5,0.7-0.3,1c0.2,0.4,0.6,0.4,1,0.3c4-1.4,8.2,0.2,8.4,0.4C646.5,349.8,646.7,349.8,646.9,349.8z"/>
			</g>
		</g>
		<g>
			<path class="st3" d="M638.9,356.3c-0.5,1.7,0.1,3.5,1.3,3.8c1.3,0.4,2.7-0.7,3.2-2.4c0.5-1.7-0.1-3.5-1.3-3.8
				C640.9,353.5,639.4,354.6,638.9,356.3z"/>
		</g>
		<g>
			<path class="st3" d="M626,314.1c0,0,1.1,14.3-16.3,19c-17.4,4.7-28.7,13.7-24.7,26.2c4,12.5,35.9,35.3,16.3,48.2
				c-19.7,12.9-17.7-6.8-39.8,0.6c-22.2,7.3-30.2-22.5-16.8-42.1c13.4-19.6,1.1-65.5,60.1-70.9c59-5.4,43.5,44.2,43.5,44.2
				S628,329.8,626,314.1z"/>
		</g>
		<g>
			<path class="st6" d="M595.6,410.8l-0.2-0.4c4.1-2.3,6.3-5.1,6.8-8.6c1.3-9.6-11.5-22.5-22.8-33.8c-3-3-5.8-5.9-8.4-8.6
				c-7.1-7.6-8.9-17.6-4.7-25.9c4.6-9.3,15-14.3,27.2-13.1c22.5,2.3,29.9-12,30-12.2l0.4,0.2c-0.1,0.1-7.7,14.7-30.5,12.4
				c-11.9-1.2-22.2,3.7-26.7,12.8c-4.1,8.3-2.4,17.8,4.6,25.4c2.5,2.7,5.4,5.6,8.4,8.6c11.4,11.4,24.3,24.4,23,34.2
				C602.2,405.5,599.8,408.5,595.6,410.8z"/>
		</g>
		<g>
			<g>
				<path class="st5" d="M634.4,362.7c0.2-0.2,0.3-0.3,0.5-0.5c-0.8-3.2-1.2-6.7-1-10.3c-0.2-0.1-0.6-0.3-1.3-0.6
					C632.5,355.4,633.2,359.2,634.4,362.7z M632.8,359.7c0.2,1.3,0.5,2.6,0.9,3.8c1.7,5.9,4.9,10.6,9.1,12.6c0,0,0.1,0,0.1,0
					c1.7,0.8,3.5,1,5.2,0.8c1.2-0.2,2.3-0.5,3.5-1.1c1.1-0.6,2.1-1.3,3.1-2.3c0.8-0.8,1.6-1.7,2.3-2.7c2.1-3,3.6-6.8,4.4-11.2
					c2.3-12.5-2.1-25.5-9.8-29c-0.5-0.2-1-0.4-1.5-0.6c-1.7-0.5-3.4-0.5-5,0c-0.7,0.2-1.5,0.5-2.2,0.8c-0.8,0.4-1.6,0.9-2.3,1.6
					c-0.4,0.3-0.8,0.7-1.2,1.1c-3,3.1-5.3,7.9-6.3,13.5c-0.1,0.5-0.2,0.9-0.2,1.4c0,0,0,0.1,0,0.1c0,0,0,0,0,0
					c-0.1,0.9-0.2,1.9-0.3,2.8C632.2,354.2,632.4,357,632.8,359.7z M660.2,356.2c-0.1,1-0.2,2.1-0.4,3.1c-0.7,4-2.1,7.6-3.9,10.3
					c-0.7,1-1.4,1.9-2.1,2.6c-0.9,0.9-1.9,1.7-3,2.2c-2.4,1.2-4.8,1.3-7.2,0.3c-0.1,0-0.2-0.1-0.2-0.1c-4-1.8-7.1-6.6-8.5-12.5
					c-0.8-3.2-1.2-6.7-1-10.3c0.1-1,0.1-2,0.3-2.9c0.1-0.6,0.2-1.1,0.3-1.7c1-5.5,3.2-10,6-12.9c0.9-0.9,1.9-1.7,3-2.3
					c0.7-0.4,1.4-0.6,2.1-0.8c0.4-0.1,0.8-0.2,1.2-0.2c0,0,0,0,0,0c1-0.1,2,0,3.1,0.3c0.3,0.1,0.7,0.2,1,0.4
					C657.3,334.9,661.2,345.3,660.2,356.2C660.2,356.2,660.2,356.2,660.2,356.2z"/>
			</g>
		</g>
		<g class="st7">
			<path class="st6" d="M593.6,344.1c-1.2,12,4.7,24,13.1,26.8c8.4,2.8,16.1-4.7,17.3-16.7c1.2-12-4.7-24-13.1-26.8
				C602.5,324.6,594.8,332.1,593.6,344.1z"/>
		</g>
		<g class="st7">
			<path class="st6" d="M632.7,348c-1.2,12.1,4,24.3,11.6,27.4c7.5,3.1,14.6-4.2,15.8-16.3c1.2-12.1-4-24.3-11.6-27.4
				C641,328.7,633.9,336,632.7,348z"/>
		</g>
		<g>
			<g>
				<path class="st5" d="M592.9,351.2c0.6,3.6,1.7,7,3.3,9.9c2.4,4.5,5.9,8.1,10,9.6c0.3,0.1,0.5,0.2,0.8,0.3
					c1.8,0.6,3.7,0.8,5.4,0.6c1-0.1,2-0.4,2.9-0.8c0.8-0.3,1.6-0.7,2.3-1.2c4.8-3.1,7.9-9.2,8.7-16.7c0.1-0.7,0.1-1.4,0.1-2.1
					c0-1,0-1.9,0-2.8c-0.3-7.6-3.3-14.8-7.7-19.3c-2-2.1-4.3-3.6-6.8-4.4c-3.7-1.2-7.4-0.7-10.8,1.5c-4.3,2.8-7.3,8.1-8.4,14.5
					c-0.1,0.7-0.2,1.4-0.3,2.1c-0.1,0.8-0.1,1.5-0.1,2.3C592.4,346.9,592.6,349.1,592.9,351.2z M620.5,364.9
					c-1.1,1.4-2.3,2.6-3.6,3.5c-0.5,0.3-1.1,0.6-1.6,0.8c-2.5,1.1-5.2,1.3-7.9,0.4c-0.3-0.1-0.6-0.2-0.9-0.3c-3.6-1.5-6.8-4.6-9-8.7
					c-2.4-4.4-3.8-9.9-3.7-15.6c0-0.8,0.1-1.7,0.1-2.5c0.1-1.2,0.3-2.3,0.6-3.4c0.2-0.8,0.4-1.5,0.6-2.3c0,0,0,0,0,0
					c0.4-1.3,0.9-2.5,1.5-3.6c1.4-2.7,3.2-4.9,5.4-6.3c1.5-1,3.1-1.6,4.7-1.8c1.6-0.2,3.2,0,4.8,0.5c2.2,0.7,4.3,2.1,6,3.9
					c4.3,4.3,7.1,11.3,7.4,18.7c0,1,0,1.9,0,2.9c0,0.5-0.1,1.1-0.1,1.6c-0.5,4.7-2,8.9-4.3,12C620.6,364.8,620.6,364.9,620.5,364.9z
					"/>
			</g>
		</g>
		<g>
			<g>
				<path class="st5" d="M634.8,352.2c-0.3,0-0.6,0-0.9-0.2l0,0c-0.2-0.1-4.1-2.4-10.1-0.5c-0.7,0.2-1.5-0.2-1.8-0.9
					c-0.2-0.7,0.2-1.5,0.9-1.7c7.2-2.5,12.2,0.6,12.5,0.7c0.6,0.4,0.8,1.3,0.4,1.9C635.6,351.9,635.2,352.2,634.8,352.2z"/>
			</g>
		</g>
		<g>
			<path class="st3" d="M625,379c-4.4,0-8.1-1.9-8.4-2.1c-0.5-0.3-0.7-0.9-0.5-1.5c0.3-0.5,0.9-0.7,1.5-0.5c0.1,0,7.8,4,13.1,0
				c0.5-0.4,1.2-0.3,1.5,0.2c0.4,0.5,0.3,1.2-0.2,1.5C629.9,378.5,627.4,379,625,379z"/>
		</g>
	</g>
	<g class="st8">
		<g>
			<path class="st9" d="M845.4,79.3c-2-43-40.6-79.3-83.6-79.3c-61,0-80.9,46.7-83.3,89.7c-2.5,44.6,36.8,75.2,79.9,75.2
				C801.3,164.8,847.9,132.7,845.4,79.3z"/>
		</g>
		<g>
			<path class="st5" d="M830.3,83.8c0-34.2-34.2-70.7-68.4-71.8c-50.6-1.6-71.1,49.7-71.1,83.9c0,34.2,35.3,54.6,69.6,54.6
				C794.6,150.6,830.3,118,830.3,83.8z"/>
		</g>
		<g>
			<path class="st9" d="M769.3,82.7c-0.5-4.7-5.4-7.8-10.1-7.8c-4.7,0-9.7,5.7-9.7,10.4s5,8.5,9.7,8.5
				C763.8,93.8,770.1,91.3,769.3,82.7z"/>
		</g>
		<g>
			<g>
				<path class="st9" d="M759.1,86.9h-1.7c-0.9,0-1.7-0.8-1.7-1.7c0-0.9-2.1-4.1-1.2-4.1l0.9-2l2-46.2l-2.1,1.3
					c-0.5,0.8-1.6,1-2.3,0.4c-0.8-0.5-1-1.6-0.4-2.3l5.2-7.5c0.4-0.6,1.2-0.9,1.9-0.7c0.7,0.2,1.2,0.9,1.2,1.6l2.8,59.4
					C763.7,86.1,760.1,86.9,759.1,86.9z"/>
			</g>
			<g>
				<path class="st9" d="M765,34.5c-0.5,0-1-0.2-1.3-0.6l-6.4-4.6c-0.6-0.7,0.2-4.2,0.9-4.8c0.7-0.6,1.8-0.5,2.4,0.2l5.7,7
					c0.6,0.7,0.5,1.8-0.2,2.4C765.7,34.4,765.3,34.5,765,34.5z"/>
			</g>
		</g>
		<g>
			<g>
				<path class="st9" d="M728.6,92.4c-0.4,0-0.9-0.2-1.2-0.5l-5-5.2c-0.5-0.5-0.6-1.2-0.3-1.8c0.3-0.6,0.9-1,1.6-1h0l39.8-2.1
					c0.9,0,1.5,2.9,1.5,3.9v1.7c0,0.9-0.8,1.7-1.7,1.7c-0.9,0-3,0.8-3-0.1l1.3-1.6l-33.9-0.1l2.2,2.3c0.6,0.7,0.6,1.7,0,2.4
					C729.4,92.2,729,92.4,728.6,92.4z"/>
			</g>
			<g>
				<path class="st9" d="M723.6,87.2c-0.4,0-0.8-0.1-1.1-0.4c-0.7-0.6-0.8-1.7-0.2-2.4l4.7-5.7c0.6-0.7,1.7-0.8,2.4-0.2
					c0.7,0.6,0.8,1.7,0.2,2.4l-1.8,4.3C727.4,85.6,724,87.2,723.6,87.2z"/>
			</g>
		</g>
	</g>
	<g>
		<g>
			<path class="st2" d="M825.6,405.4c-9.5-9.4,18.8-44.4,18.8-44.4c3.6-2.6,64.3,54.9,133.7,32.9c24.7-7.8,58.9-51.1,61.4-57.6
				c0.3-0.9,54.8,18.8,54.8,18.8c-4.5,11.6-9.6,48.5-36.3,73C1002.9,478.8,876.5,473.9,825.6,405.4z"/>
		</g>
	</g>
	<g>
		<path class="st3" d="M1148.9,1104.4c0,0-0.5,18.8-13.2,24.1c-12.7,5.3-49.6,10.1-35.8,22.2c7.9,6.9,45.1,2.5,55.7,2.5
			c10.5,0,20.4,4.6,28.2-2.5c8.6-7.7,0-46.3,0-46.3s-9.1,4.7-17.2,4.5C1154.7,1108.7,1148.9,1104.4,1148.9,1104.4z"/>
	</g>
	<g>
		<path class="st5" d="M1039.1,537.2c0,0-2.5,84.8,24.5,247.6c19.5,117.5,42.6,235.9,53.9,292.6c4,20.3,21.1,35.1,41.4,36l10.9,0.4
			c21.9,0.9,39.6-17.9,38-40.3l-27.5-384l-6.8-126.4L1039.1,537.2z"/>
	</g>
	<g>
		<path class="st3" d="M1269.3,1104.4c0,0-0.5,18.8-13.2,24.1c-12.7,5.3-49.6,10.1-35.8,22.2c7.9,6.9,45.1,2.5,55.7,2.5
			c10.5,0,20.4,4.6,28.2-2.5c8.6-7.7,0-46.3,0-46.3s-9.1,4.7-17.2,4.5C1275.2,1108.7,1269.3,1104.4,1269.3,1104.4z"/>
	</g>
	<g>
		<path class="st5" d="M1159.6,537.2c0,0-2.5,84.8,24.5,247.6c19.5,117.5,42.6,235.9,53.9,292.6c4,20.3,21.1,35.1,41.4,36l10.9,0.4
			c21.9,0.9,39.6-17.9,38-40.3l-27.5-384l-6.8-126.4L1159.6,537.2z"/>
	</g>
	<g>
		<path class="st3" d="M1307.4,630.2c-0.3,10.2-62.1,14.3-138.7,11.9c-76.5-2.4-137.7-13-137.4-23.2c0.3-10.2,61.9-16.2,138.4-13.9
			C1246.2,607.4,1307.7,619.9,1307.4,630.2z"/>
	</g>
	<g>
		<path class="st9" d="M1288.7,340.4c0,0-13.5-53.6-113.4-54.2c-144-0.8-130.7,131.5-144,332.6c0,0,141.9-20.1,276.2,8.8
			C1307.5,627.6,1319.9,422.4,1288.7,340.4z"/>
	</g>
	<g>
		<path class="st9" d="M1325.5,332.7l-65.2,36.1c0,0-142.8,13-180.7,6.7c-37.9-6.2-48.3-34.1-48.3-34.1s40.4-41.8,109-52.9
			c6.4-1.1,13.1-1.8,20.1-2.3c11.6-0.8,23.3-0.6,34.7,0.7C1282,296.7,1325.5,332.7,1325.5,332.7z"/>
	</g>
	<g>
		<path class="st2" d="M1189,274l-7.5-24.3l-2.2-7.1l-12.9-41.6l-1.7,41.4l-1,24.9l-0.3,7.9c-0.2,5.3-1.2,10.7-5.2,15.3
			c-1.6,1.9-7.8,13,3.9,18c9.4,4.1,35.3-7.1,45.6-19.8C1207.6,288.6,1191.4,281.8,1189,274z"/>
	</g>
	<g>
		<path class="st5" d="M1043.3,627.1c0,0,82.9-24.4,254.7,9.1l1.3,24.7l-251.8,8.9L1043.3,627.1z"/>
	</g>
	<g>
		<path class="st3" d="M1326.9,334.2c5.5,7.8-2.6,23.3-18.2,34.5c-15.6,11.2-32.7,14-38.2,6.2c-5.5-7.8,2.6-23.3,18.2-34.5
			C1304.2,329.2,1321.3,326.4,1326.9,334.2z"/>
	</g>
	<g>
		<g>
			<path class="st2" d="M813.9,382.4L813.9,382.4c-1.7,2.8-5.4,3.7-8.2,2l-43.6-26.1c-2.8-1.7-3.7-5.4-2-8.2l0,0
				c1.7-2.8,5.4-3.7,8.2-2l43.6,26.1C814.6,375.9,815.5,379.6,813.9,382.4z"/>
		</g>
		<g>
			<path class="st2" d="M821.7,369.3L821.7,369.3c-1.7,2.8-5.4,3.7-8.2,2l-48.7-29.2c-2.8-1.7-3.7-5.4-2-8.2l0,0
				c1.7-2.8,5.4-3.7,8.2-2l48.7,29.2C822.5,362.9,823.4,366.5,821.7,369.3z"/>
		</g>
		<g>
			<path class="st2" d="M849.2,381.1l-2,0.7c-3.7,1.4-7.9-0.5-9.3-4.2l-13.5-36.1c-1.4-3.7,0.5-7.9,4.2-9.3l2-0.7
				c3.7-1.4,7.9,0.5,9.3,4.2l13.5,36.1C854.8,375.5,852.9,379.7,849.2,381.1z"/>
		</g>
		<g>
			<path class="st2" d="M829.5,356.3L829.5,356.3c-1.7,2.8-5.4,3.7-8.2,2l-39-23.4c-2.8-1.7-3.7-5.4-2-8.2l0,0
				c1.7-2.8,5.4-3.7,8.2-2l39,23.4C830.3,349.8,831.2,353.5,829.5,356.3z"/>
		</g>
		<g>
			<path class="st2" d="M833.3,406.2c0,0-34-0.3-48.7-19.5c-5.1-6.6,19-44.4,28.4-43.6c9.3,0.8,34.2,19.2,34.2,19.2L833.3,406.2z"/>
		</g>
		<g>
			<path class="st2" d="M806.1,395.4L806.1,395.4c-1.7,2.8-5.3,3.7-8.1,2L759,374c-2.8-1.7-3.7-5.3-2-8.1l0,0c1.7-2.8,5.3-3.7,8.1-2
				l39,23.4C806.9,388.9,807.8,392.6,806.1,395.4z"/>
		</g>
	</g>
	<g>
		<path class="st3" d="M1057,370.7l-1.6-0.4c4.2-15.2,18.3-34.2,18.4-34.4l1.3,1C1075,337,1061.1,355.7,1057,370.7z"/>
	</g>
	<g class="st8">
		<path class="st6" d="M1171.5,357.7c-3.7-5.7-11.5-9.2-12-16c-0.2-2.5,0.6-5.3-0.7-7.4c-1.4-2.4-4.7-2.7-7.5-2.5
			c-3,0.3-6.2,1.2-8.1,3.6c-2.4,3-1.8,7.3-2.6,11.1c-1.8,9.1-10.7,14.7-18.9,19c-4.2,2.3-8.7,4.7-11.3,8.7c-4.4,6.9-2,15.8-2.3,23.9
			c-0.3,6.4-2.5,12.8-6.2,18c-2.2,3.1-4.5,6.1-7,9c-4.4,5.1-2.5,11.9,3.8,12.8c3.6,0.5,7.1-0.8,8.5-3.2c4.5-7.3,17.8-8,22.7-8.7
			c4.9-0.7,10.1-3.2,12-7.8c1.8-4.4,0.1-9.3,0.8-14c1-6.4,6.2-11.3,11.1-15.5c4.2-3.7,8.4-7.3,12.7-11c2-1.7,3.9-3.4,5.3-5.6
			C1174.5,368,1174.3,362,1171.5,357.7z M1158.9,372.8c-4.5,5-11.6,5.4-17.5,7.8c-4.6,1.9-8.5,4.1-13.6,3.9
			c-3.3-0.2-7.4-1.2-7.5-5.1c-0.2-6.9,9.1-8.1,14-8.3c3-0.2,6.1-0.4,8.8-1.7c2-1,3.7-2.6,4.8-4.5c0.8-1.3,1.3-2.8,2.4-3.9
			c0.7-0.7,1.6-1.2,2.6-1.5c2.8-0.8,6.1,0.5,7.6,3.1C1162.5,365.7,1161.4,370.1,1158.9,372.8z"/>
	</g>
	<g>
		<path class="st3" d="M1052.7,450c0,0,12.6,88.6,21.8,89.4c9.2,0.8,43.8,2.7,54.3,0c10.5-2.7,16.4-90.7,13.4-92.8
			C1139.4,444.5,1048.9,439.9,1052.7,450z"/>
	</g>
	<g>
		<g>
			<path class="st3" d="M1139.6,503.7l-4.1-8.1c11.3-5.8,28-17,29.5-24c0.2-1,0.1-1.6-0.5-2.3c-7.4-9.3-24.3,0.9-24.5,1l-4.7-7.7
				c0.2-0.1,5.8-3.5,12.7-5.3c12.8-3.2,19.9,1.7,23.6,6.3c2.3,2.9,3.1,6.3,2.3,9.9C1170.9,487.1,1144.8,501,1139.6,503.7z"/>
		</g>
	</g>
	<g>
		<g>
			<g>
				<path class="st2" d="M1144.5,479.2c0,0-19.7-24-37.8-24.7c-18.1-0.7-41.9,12-30.7,14.9c11.2,2.9,26.4,2.6,26.4,2.6
					s-32.6,2.2-28.8,9.6c3.8,7.4,32.1,5.2,32.1,5.2s-38.5,5.7-32.7,11.5c5.9,5.8,35.1,1.3,35.1,1.3s-35.7,6.7-28.7,13.3
					c7,6.6,29.4-5.7,33.2,1.7c3.8,7.4,21.4,35.5,43.3,27.4L1144.5,479.2z"/>
			</g>
		</g>
		<g>
			<path class="st10" d="M1115.1,474.3c-3.8-3.6-12.6-1.8-12.7-1.7l-0.3-1.3c0.4-0.1,9.6-2,13.9,2.1L1115.1,474.3z"/>
		</g>
		<g>
			<path class="st10" d="M1121.2,489.5c-6.7-4.2-15.3-2.2-15.4-2.2l-0.3-1.3c0.4-0.1,9.2-2.1,16.4,2.4L1121.2,489.5z"/>
		</g>
		<g>
			<path class="st10" d="M1122.5,502.1c-3.7-4.2-14.2-2-14.3-1.9l-0.3-1.3c0.5-0.1,11.3-2.4,15.5,2.4L1122.5,502.1z"/>
		</g>
	</g>
	<g>
		<g>
			<path class="st2" d="M1149.8,543.2c-12.4,0-9-64.7-9-64.7c72.6,7.7,103.9-10,117.3-26.2c27.1-32.7,12.4-82,12.3-82.5
				c0,0-2.2-9.2,20.3-21.8c10.8-6.1,19.7-8,25.9-8.4c5.2-0.4,9.9,3,11.2,8.1c5.9,23.2,19.6,94.6-21.2,144.2
				C1278.5,525.7,1210.2,543.2,1149.8,543.2z"/>
		</g>
	</g>
	<g>
		<path class="st10" d="M1271.1,503.1c-1.2,0-2.4-0.1-3.6-0.4c-2.8-0.7-4.9-2.2-6.2-4.4c-3.4-5.9,0.5-14.6,9-19.9
			c5.1-3.1,10.8-4.3,15.3-3.2c2.8,0.7,4.9,2.2,6.2,4.4c3.4,5.9-0.5,14.6-9,19.9l0,0C1279,501.8,1274.8,503.1,1271.1,503.1z
			 M1282,478.1c-3.1,0-6.7,1.1-9.9,3.1c-6.7,4.2-10.4,11.2-7.9,15.4c1,1.8,2.8,2.5,4.1,2.8c3.7,0.9,8.4-0.1,12.7-2.8l0,0
			c6.7-4.2,10.4-11.2,7.9-15.4c-1-1.8-2.8-2.5-4.1-2.8C1284,478.2,1283,478.1,1282,478.1z"/>
	</g>
	<g>
		<path class="st3" d="M1163.6,267.2c0,0,14.3-2.7,19.8-11l-21,4.5L1163.6,267.2z"/>
	</g>
	<g>
		<path class="st3" d="M1133.2,185.3c0,0-2.6,10.1,0,22.7c2.6,12.6,15.5-18.4,15.5-18.4L1133.2,185.3z"/>
	</g>
	<g>
		<path class="st2" d="M1131.6,211.6c3.2-24.4,22.2-42.1,42.5-39.4c20.3,2.7,34.1,24.6,30.9,49.1c-3.2,24.4-22.2,42.1-42.5,39.4
			C1142.3,258,1128.4,236.1,1131.6,211.6z"/>
	</g>
	<g>
		<path class="st3" d="M1205.9,208.5l-17.9-1.9c-3.9-0.4-7.5-2.5-9.7-5.9c-3.7-5.7-8.1-8.7-24.8-8.1c-21.2,0.8-35.1-11.8-37.4-22.9
			c-2.3-11.3,8.5-19,19.1-13.6c10.6,5.4,6.1-7.8,16.3-9.2c19.1-2.6,22.7,12.1,38.3,11.6c20.5-0.6,57.2,15,39.8,51L1205.9,208.5z"/>
	</g>
	<g>
		<path class="st3" d="M1166.4,214.6c-0.2-0.1-0.3-0.3-0.3-0.6c0-0.4,0.3-0.8,0.7-0.8c0.2,0,5.8-1,8.6,4.9c0.2,0.4,0,0.8-0.3,1
			c-0.4,0.2-0.7,0-1-0.3c-2.6-3.2-7-4.1-7.2-4.1C1166.7,214.7,1166.5,214.7,1166.4,214.6z"/>
	</g>
	<g>
		<path class="st3" d="M1169.6,224.2c-0.5,1.7-1.9,2.8-3.1,2.5c-1.3-0.3-1.9-2-1.4-3.7c0.5-1.7,1.9-2.9,3.1-2.5
			C1169.5,220.8,1170.1,222.5,1169.6,224.2z"/>
	</g>
	<g>
		<path class="st3" d="M1138.6,212.3c-0.2,0-0.3-0.2-0.4-0.4c-0.1-0.4,0-0.8,0.3-1c0.2-0.1,4-3.3,7.6,0.9c0.2,0.3,0.2,0.7,0,1
			c-0.2,0.3-0.6,0.3-0.8,0.1c-2.8-1.8-6.2-0.8-6.4-0.7C1138.9,212.3,1138.7,212.4,1138.6,212.3z"/>
	</g>
	<g>
		<path class="st3" d="M1145.5,220c0.2,1.8-0.6,3.3-1.9,3.5c-1.3,0.2-2.5-1.1-2.7-2.9c-0.2-1.8,0.6-3.3,1.9-3.5
			C1144,216.9,1145.2,218.3,1145.5,220z"/>
	</g>
	<g>
		<path class="st3" d="M1229.7,209.7c0,0-12.4,26.7-29.9,28.7c0,0,9.8-23.4-15.7-32.7C1184,205.6,1211.5,201.3,1229.7,209.7z"/>
	</g>
	<g>
		<path class="st2" d="M1204.4,225.3c-2.9,4.5-7.9,6.4-11.3,4.2c-3.3-2.2-3.7-7.5-0.8-12c2.9-4.5,7.9-6.4,11.3-4.2
			C1206.9,215.4,1207.2,220.8,1204.4,225.3z"/>
	</g>
	<g>
		<path class="st6" d="M1142.3,237.1c0,0,11.5,3.1,24.1,1.9c0,0-1.8,11.7-14.6,9.3C1144.4,246.9,1142.3,237.1,1142.3,237.1z"/>
	</g>
	<g>
		<path class="st3" d="M1137.5,154.5c-0.1,0-0.2,0-0.3,0l0-1c4.9,0.2,5.3-3.8,5.3-3.9l1,0.1C1143.6,149.7,1143.1,154.5,1137.5,154.5
			z"/>
	</g>
	<g>
		<path class="st6" d="M1147.6,186.8c-0.1,0-5.8-1.7-11.6-4.8c-7.7-4.2-12-9-12.4-13.9c-0.3-3.4,0.3-5.8,1.8-7.1
			c2.4-2.1,6.6-1.1,10.3-0.2c0.5,0.1,1.1,0.3,1.6,0.4l-0.1,0.5c-0.5-0.1-1.1-0.2-1.6-0.4c-3.6-0.8-7.6-1.8-9.9,0.1
			c-1.4,1.2-1.9,3.4-1.7,6.7c0.5,6,6.9,10.7,12.1,13.5c5.8,3.1,11.5,4.8,11.5,4.8L1147.6,186.8z"/>
	</g>
	<g>
		<path class="st6" d="M1191.9,163.3c-8.2,0-14.3-2.1-18.2-4.2c-5.4-2.8-8-5.9-8.1-6l0.4-0.3c0.1,0.1,10.7,12.5,32.7,9.5l0.1,0.5
			C1196.3,163.1,1194,163.3,1191.9,163.3z"/>
	</g>
	<g>
		<g>
			<path class="st1" d="M348.1,863.1c0.4-41.4-111-166-168.9-181.6C113.5,664,29.3,632,4.6,689.7c-24.7,57.7,58.1,235.6,58.1,235.6
				s4.6,15.8,21.4,17.6c16.8,1.8,215.8,0,223.8,0C382.1,942.9,377.3,871.6,348.1,863.1z"/>
		</g>
		<g>
			<path class="st3" d="M34,1167.8c0,0,49.1-212.2,56.7-218.4c7.6-6.2,19.4-0.7,15.2,11.1c-4.1,11.8-61.2,203-63.6,207.3
				C40,1171.9,32.6,1173.7,34,1167.8z"/>
		</g>
	</g>
	<g>
		<path class="st2" d="M319,510.1c0,0,56.6,169.8,89.8,181.5c33.2,11.8-68.4,34.9-68.4,34.9l-49.9-180.5L319,510.1z"/>
	</g>
	<g>
		<path class="st3" d="M465,1124.7c0,0,1,21.1,15.3,26.7c14.4,5.6,55.8,10.2,40.7,24c-8.7,8-50.6,3.8-62.3,4
			c-11.8,0.2-22.7,5.6-31.7-2.1c-9.8-8.5-1.1-51.9-1.1-51.9s10.3,5.1,19.4,4.7C458.6,1129.5,465,1124.7,465,1124.7z"/>
	</g>
	<g>
		<path class="st3" d="M590.8,1112.6c0,0,1.2,21.1,15.6,26.5c14.4,5.5,55.9,9.6,40.9,23.6c-8.6,8.1-50.5,4.3-62.3,4.7
			c-11.8,0.4-22.7,5.9-31.7-1.8c-9.9-8.4-1.6-51.9-1.6-51.9s10.3,5,19.5,4.5C584.3,1117.5,590.8,1112.6,590.8,1112.6z"/>
	</g>
	<g>
		<g>
			<path class="st9" d="M581.1,1130c24.3-2.8,42.2-24.2,40.5-48.7c-9.5-138.1-22.4-207.7-69-265.3c-30-37-73.8-72.1-126.3-91.3
				c-45.3-16.5-83.4-23.5-132.9-22.2c-80.7,2.2-117.5,17.4-117.5,17.4c-49.5,130.6,46.4,139.1,116.5,136.5c2.3-0.1,4.6-0.2,7-0.2
				c42.5-1,118.6,3.3,150.7,42.8c25.4,31.3,45.1,76.7,62.1,196.6c3.3,23,24.2,39.3,47.3,36.6L581.1,1130z"/>
		</g>
	</g>
	<g>
		<g>
			<path class="st9" d="M465.4,1147.2c24.3-2.8,42.2-24.2,40.5-48.7c-9.5-138.1-22.4-207.7-69-265.3c-30-37-72.5-63.2-126.5-77.9
				c-38.5-10.5-83.1-15.1-132.6-13.7c-80.7,2.2-117.6-4.4-117.6-4.4C9,903.4,243.8,848.8,311.6,911.9
				c29.5,27.5,67.8,81.2,84.8,201.2c3.3,23,24.2,39.3,47.3,36.6L465.4,1147.2z"/>
		</g>
	</g>
	<g>
		<path class="st1" d="M81.4,503.3c0,0,24.8-65.6,109.6-61.1S346.2,470,358.5,706.6c0,0,0.1,15.4-71.2,34.9
			c-46.3,12.6-96.4-0.6-189,60.4c-21.8,14.4-59-2.4-60.5-28.5C34.9,721.3,45.5,622.1,81.4,503.3z"/>
	</g>
	<g>
		<path class="st1" d="M6.9,513.6l74.5,23.6c0,0,154.2,18.1,195.3,11.5c41.1-6.6,52.9-39.1,52.9-39.1s-42.9-49.9-117-64.3
			c-7-1.4-14.2-2.4-21.7-3.1c-12.6-1.1-24.7-2.3-37-1C33.4,453.8,6.9,513.6,6.9,513.6z"/>
	</g>
	<g>
		<path class="st3" d="M6.9,513.6c-4,8.9,13.5,17.2,34.9,25.1c21.4,7.9,40.5,9.5,42.6,3.6c2.1-6-13.5-17.2-34.9-25.1
			C28.1,509.3,9.5,507.9,6.9,513.6z"/>
	</g>
	<g>
		<path class="st2" d="M175.7,430.7l12.8-22.5l3.7-6.6l21.8-38.5l-7.3,41.5l-4.4,24.9l-1.4,7.9c-0.9,5.4,2,7.2,5,12.6
			c1.2,2.2,8.9,15.8-3.8,18.4c-15.8,3.2-40.7-12.3-48.2-27.2C154,441.2,171.6,438,175.7,430.7z"/>
	</g>
	<g>
		<g>
			<path class="st3" d="M250.4,354.8c0,0,0.4,10.6-4.9,22.6c-5.4,12-11.4-21.7-11.4-21.7L250.4,354.8z"/>
		</g>
		<g>
			<path class="st2" d="M246.2,381.3c2.1-25-12.9-46.6-33.6-48.4c-20.7-1.8-39.2,17-41.3,42c-2.1,25,12.9,46.6,33.6,48.4
				C225.5,425.1,244,406.3,246.2,381.3z"/>
		</g>
		<g>
			<path class="st3" d="M173.1,362.1l18.2,2c4,0.4,8-0.9,10.9-3.7c4.9-4.9,9.9-6.9,26.4-2.6c20.8,5.4,37.4-4.1,42.1-14.6
				c4.8-10.7-4.3-20.7-16-17.6c-11.7,3-4.3-9.1-14.2-12.7c-18.4-6.7-25.1,7.1-40.6,3.2c-20.2-5.1-60.1,2.4-50.6,42L173.1,362.1z"/>
		</g>
		<g>
			<g>
				<path class="st3" d="M211,376.7c0.2-0.1,0.4-0.3,0.5-0.5c0.1-0.4-0.1-0.8-0.5-1c-0.2-0.1-5.6-2.3-9.7,3
					c-0.3,0.3-0.2,0.8,0.1,1.1c0.3,0.3,0.7,0.1,1.1-0.1c3.3-2.6,7.8-2.6,8-2.5C210.7,376.8,210.9,376.8,211,376.7z"/>
			</g>
		</g>
		<g>
			<path class="st3" d="M205.7,385.6c0.1,1.8,1.2,3.2,2.6,3.2c1.3-0.1,2.3-1.6,2.2-3.4c-0.1-1.8-1.2-3.2-2.6-3.2
				C206.6,382.2,205.6,383.7,205.7,385.6z"/>
		</g>
		<g>
			<g>
				<path class="st3" d="M239.1,380.5c0.2,0,0.4-0.1,0.5-0.3c0.2-0.3,0.2-0.8-0.1-1.1c-0.1-0.2-3.3-4.2-7.8-0.8
					c-0.3,0.2-0.4,0.7-0.2,1c0.2,0.4,0.5,0.4,0.8,0.3c3.1-1.2,6.3,0.5,6.5,0.7C238.8,380.5,238.9,380.5,239.1,380.5z"/>
			</g>
		</g>
		<g>
			<path class="st3" d="M230.6,386.7c-0.6,1.7-0.1,3.5,1.2,3.9c1.2,0.4,2.7-0.6,3.4-2.3c0.6-1.7,0.1-3.5-1.2-3.9
				C232.7,383.9,231.2,385,230.6,386.7z"/>
		</g>
		<g>
			<path class="st3" d="M149.3,358.1c0,0,6.5,29.2,23.5,34.9c0,0-9.7-23.3,22.7-29.1C195.4,363.9,169.1,353.7,149.3,358.1z"/>
		</g>
		<g>
			<path class="st2" d="M170.6,378.1c3.2,3.2,8.1,3.4,11,0.6c2.8-2.9,2.6-7.8-0.7-11c-3.2-3.2-8.1-3.4-11-0.6
				C167.1,370,167.4,374.9,170.6,378.1z"/>
		</g>
		<g>
			<path class="st3" d="M195.4,363.9c0,0-7.2,21.7-3.6,26.9c3.6,5.2,33.1,13.5,48.2,11.2l0,0c-2.9,14.3-15.7,24.7-30.3,24
				c-4.8-0.2-9.7-1.3-14.3-3.2l0,0c-9.4-3.8-18-10-20-19.9c-0.6-3,6.6-19.2,6.6-19.2s3.5-9.7-1.1-16.1
				C180.9,367.7,188.9,363.2,195.4,363.9z"/>
		</g>
		<g>
			<path class="st6" d="M230.9,408.5c0,0-12.1,0.6-24.4-3.4c0,0-0.7,12,12.5,12.4C226.7,417.8,230.9,408.5,230.9,408.5z"/>
		</g>
		<g>
			<path class="st3" d="M253,323.4c-5.8-1.1-5.3-6.1-5.3-6.2l1,0.1c0,0.2-0.4,4.1,4.4,5L253,323.4z"/>
		</g>
		<g>
			<path class="st6" d="M235.7,353.2l0-0.5c0.1,0,6.1-0.4,12.5-2.3c5.9-1.7,13.2-4.9,15-10.8c1-3.2,0.9-5.5-0.2-7
				c-1.8-2.4-6-2.3-9.8-2.3c-0.6,0-1.1,0-1.7,0l0-0.5c0.5,0,1.1,0,1.7,0c3.9-0.1,8.2-0.1,10.2,2.5c1.2,1.6,1.3,4.1,0.3,7.4
				c-1.5,4.8-6.8,8.7-15.4,11.1C241.9,352.8,235.8,353.2,235.7,353.2z"/>
		</g>
		<g>
			<path class="st6" d="M206.1,321.3c-4.6,0-9.9-0.8-15.9-3l0.2-0.5c11.1,4,19.9,3.2,25.3,1.8c5.9-1.5,9.2-4.1,9.2-4.1l0.3,0.4
				C225.1,316,218.1,321.3,206.1,321.3z"/>
		</g>
	</g>
	<g>
		<path class="st11" d="M499.8,1020.9l-0.9,0c0-0.5-0.1-53.1-19.6-109.6c-11.5-33.1-27.3-61.1-47.1-83.2
			c-24.7-27.5-55.6-45.8-91.9-54.4l0.2-0.9c36.5,8.6,67.6,27,92.4,54.6c19.8,22.1,35.7,50.2,47.2,83.5
			C499.7,967.6,499.8,1020.3,499.8,1020.9z"/>
	</g>
	<g>
		<g>
			<path class="st3" d="M1421.2,1220.5l2.4-0.2c1.8-0.2,3.2-3.2,3.1-6.8l-18.3-450.1l-34.7-17.2l42.1,465.2
				C1416,1216.8,1418.4,1220.8,1421.2,1220.5z"/>
		</g>
	</g>
	<g>
		<g>
			<path class="st3" d="M382.1,1220.5l-2.4-0.2c-1.8-0.2-3.2-3.2-3.1-6.8l18.3-450.1l34.7-17.2l-42.1,465.2
				C387.3,1216.8,384.8,1220.8,382.1,1220.5z"/>
		</g>
	</g>
	<g>
		<ellipse class="st12" cx="909" cy="768.2" rx="756.5" ry="57.4"/>
	</g>
	<g>
		<rect x="152.5" y="741.7" class="st12" width="1465.9" height="26.5"/>
	</g>
	<g>
		<path class="st4" d="M1665.5,741.7c0,31.7-338.7,57.4-756.5,57.4c-417.8,0-756.5-25.7-756.5-57.4c0-31.7,338.7-57.4,756.5-57.4
			C1326.8,684.3,1665.5,710,1665.5,741.7z"/>
	</g>
	<g>
		<path class="st3" d="M360.7,783.8c-0.1,0-0.1,0-0.2,0c-61.6-4.9-110.8-10.6-146.3-16.9c-1.1-0.2-1.8-1.2-1.6-2.3
			c0.2-1.1,1.2-1.8,2.3-1.6c35.4,6.3,84.5,12,145.9,16.9c1.1,0.1,1.9,1.1,1.8,2.2C362.6,783,361.7,783.8,360.7,783.8z"/>
	</g>
	<g>
		<path class="st3" d="M1352.4,788.6c-1-0.1-1.8-0.9-1.8-1.9c0-1.1,0.8-2,2-2.1c0.7,0,72.4-2.2,99.8-7.7c1.1-0.2,2.2,0.5,2.4,1.6
			c0.2,1.1-0.5,2.2-1.6,2.4c-27.7,5.6-97.5,7.7-100.5,7.8C1352.6,788.7,1352.5,788.6,1352.4,788.6z"/>
	</g>
	<g>
		<g>
			<path class="st2" d="M246,743.3c14.5-2.2,25.9-7.6,34.5-16.3c16.2-16.5,16.3-38.9,11.5-53.1l-19-7.6
				c-1.6-4.7-32.6,18.1-32.6,18.1c-0.1,0.1-15.4,7-74.8-13c-41.3-13.9-64.9-38.9-71.9-76.4c-5.3-28.3,3.9-42.8,5.9-50.1
				c0.3-1-5.1-13.3-27.2-20.6c-23.8-7.9-32.5-1.7-32.5-1.7c-3.6,13.3-10.8,43.8-3.4,83.2c7.7,40.9,33.1,95.2,110.8,121.4
				C189.7,741.5,222.1,746.8,246,743.3z"/>
		</g>
	</g>
	<g class="st7">
		<path class="st10" d="M94.3,681c-0.3,0-0.5,0-0.8,0c-3.4-0.4-7.6-3.2-10.8-7.3c-4.9-6.2-6.1-13.3-2.6-16c1.1-0.9,2.5-1.2,4.1-1
			c3.4,0.4,7.6,3.2,10.8,7.3c4.9,6.2,6.1,13.3,2.6,16C96.8,680.7,95.6,681,94.3,681z M83.4,658.6c-0.8,0-1.5,0.2-2,0.6
			c-2.5,2-1.1,8,3,13.2l0,0c2.8,3.6,6.5,6.2,9.4,6.5c1.1,0.1,2-0.1,2.6-0.6c2.5-2,1.1-8-3-13.2c-2.8-3.6-6.5-6.2-9.4-6.5
			C83.8,658.6,83.6,658.6,83.4,658.6z"/>
	</g>
	<g>
		<g class="st8">
			<path class="st6" d="M204,538.1c1.8,3,4.5,5.3,7.2,7.6c5.7,4.9,11.4,9.9,17.1,14.8c6.6,5.8,13.7,12.3,15,21
				c1,6.3-1.2,13,1.1,18.9c2.5,6.2,9.5,9.5,16.2,10.5c6.7,1,24.5,1.8,30.7,11.7c2,3.2,6.7,5,11.5,4.3c8.6-1.3,11.1-10.5,5.2-17.3
				c-3.4-3.9-6.4-8-9.4-12.2c-5.1-7.1-8-15.7-8.4-24.4c-0.5-11,2.8-23-3.1-32.3c-3.5-5.5-9.5-8.7-15.2-11.8
				c-11-5.9-23.1-13.4-25.5-25.7c-1-5.1-0.3-10.9-3.5-15c-2.5-3.3-6.9-4.5-11-4.9c-3.7-0.4-8.2,0.1-10.1,3.3
				c-1.8,2.9-0.6,6.6-0.9,10c-0.8,9.2-11.3,13.9-16.3,21.6C200.7,524.1,200.4,532.2,204,538.1z M219.2,524.8c2-3.4,6.5-5.2,10.3-4.2
				c1.3,0.4,2.6,1,3.5,2c1.5,1.5,2.2,3.5,3.2,5.2c1.5,2.6,3.8,4.7,6.5,6.1c3.6,1.8,7.8,2.1,11.9,2.4c6.5,0.4,19.1,2,18.9,11.3
				c-0.1,5.4-5.6,6.7-10.1,6.9c-6.9,0.3-12.2-2.7-18.4-5.2c-7.9-3.2-17.5-3.9-23.6-10.6C218.1,535,216.6,529.1,219.2,524.8z"/>
		</g>
		<g>
			<path class="st3" d="M256.4,637.9c0,0,11.6,81.7,20.1,82.4c8.5,0.8,40.3,2.5,50.1,0c9.7-2.5,15.1-83.6,12.4-85.6
				C336.3,632.8,252.9,628.6,256.4,637.9z"/>
		</g>
	</g>
	<g>
		<g>
			<g>
				<path class="st2" d="M246.7,680c0,0,9.3-28.3,25.4-35.2c16-6.9,41.7-3.7,32.7,2.7c-9,6.4-22.8,11.4-22.8,11.4s29.9-9.3,29.1-1.4
					c-0.9,7.9-27,15.8-27,15.8s36.5-8.2,33.3-1c-3.2,7.2-31,13.3-31,13.3s34.3-6.3,30.3,2c-4,8.3-28.3,5-29.2,13
					c-0.9,7.9-6.9,39.2-29.3,39.5L246.7,680z"/>
			</g>
		</g>
		<g>
			<path class="st10" d="M271.2,665.5l-1.2-0.6c2.5-5.2,11.4-6.6,11.7-6.7l0.2,1.3C281.9,659.6,273.4,661,271.2,665.5z"/>
		</g>
		<g>
			<path class="st10" d="M271.1,681.3l-1-0.8c4.9-6.5,13.5-7.7,13.9-7.8l0.2,1.3C284,674,275.6,675.2,271.1,681.3z"/>
		</g>
		<g>
			<path class="st10" d="M274.3,693l-1.2-0.5c2.2-5.7,12.7-7.4,13.1-7.5l0.2,1.3C286.3,686.3,276.2,687.9,274.3,693z"/>
		</g>
	</g>
	<g>
		<path class="st2" d="M734.3,644.9c0,0,42.7,65.2,122.8,49.8l3.9-20.4L734.3,644.9z"/>
	</g>
	<g>
		<path class="st9" d="M828.8,714.1h136.3c2.9,0,5.4-1.8,6.3-4.5l28.3-84.6c1.4-4.3-1.8-8.7-6.3-8.7H862.3c-6,0-11.3,3.8-13.2,9.4
			l-26.7,79.7C821.1,709.7,824.3,714.1,828.8,714.1z"/>
	</g>
	<g>
		<path class="st9" d="M837.3,714.1h136.3c2.9,0,5.4-1.8,6.3-4.5l28.3-84.6c1.4-4.3-1.8-8.7-6.3-8.7H870.9c-6,0-11.3,3.8-13.2,9.4
			L831,705.4C829.6,709.7,832.8,714.1,837.3,714.1z"/>
	</g>
	<g>
		<path class="st13" d="M932.9,662.4c0-3.2-3.7-4.5-6.9-4.5c-3.2,0-8.5,3.5-8.5,8c0,4.9,3.8,5.5,7.1,5.5
			C927.7,671.4,932.9,666.5,932.9,662.4z"/>
	</g>
	<g>
		<path class="st9" d="M787.2,702.1h186.6v12H783.3c-2.2,0-4-1.8-4-4V710C779.3,705.7,782.8,702.1,787.2,702.1z"/>
	</g>
	<g>
		<path class="st1" d="M847,659.1l-0.9-0.2c0.3-1,6.8-25.4,11.2-33.3c4.4-8,9.9-9.6,10.1-9.6l0.2,0.9c-0.1,0-5.3,1.6-9.6,9.2
			C853.8,633.8,847.1,658.8,847,659.1z"/>
	</g>
	<g>
		<path class="st1" d="M826.9,702.6v-0.9c4.5,0,5.6-1.8,5.6-1.9l10.6-31.7l0.8,0.3l-10.6,31.7C833.2,700.3,831.9,702.6,826.9,702.6z
			"/>
	</g>
	<g>
		<g>
			<path class="st1" d="M713.8,639.3c0,0,11.5,80.5,19.8,81.2c8.4,0.7,39.8,2.4,49.3,0c9.6-2.4,14.9-82.4,12.2-84.3
				C792.6,634.3,710.3,630.1,713.8,639.3z"/>
		</g>
		<g>
			<path class="st1" d="M792.7,688l-3.7-7.3c10.3-5.2,25.4-15.5,26.8-21.8c0.2-0.9,0.1-1.5-0.5-2.1c-6.7-8.4-22.1,0.8-22.3,0.9
				l-4.3-7c0.9-0.5,21.7-13.2,33,0.9c2.1,2.6,2.8,5.7,2.1,9C821.1,673,797.4,685.6,792.7,688z"/>
		</g>
	</g>
	<g>
		<g>
			<g>
				<path class="st2" d="M716.1,672.6c0,0,40.1-15.1,53.4-9.6c13.3,5.5,26.1,22.5,17.2,20.9c-9-1.6-19.8-6.9-19.8-6.9
					s22.7,12.3,17.5,16.4c-5.2,4.1-24.8-6.8-24.8-6.8s25.8,16.8,19.7,19.1c-6.1,2.3-25.7-10.7-25.7-10.7s23.4,16.6,16.2,19
					c-7.2,2.4-19.3-13.8-24.4-9.8c-5.2,4.1-18,22.1-31,9.1L716.1,672.6z"/>
			</g>
		</g>
		<g>
			<g>
				<path class="st2" d="M551.4,674.6c45.5,39.8,90.2,47.6,163,38.6l1.7-40.6c-53,6.5-90-21.7-120.5-48.4
					c-43.4-38-56.1-96.9-59.7-123.5c-0.3-2.5-2-4.6-4.4-5.5c-7.9-2.9-27.7-7.7-57.5,1c-2.7,0.8-4.4,3.3-4.3,6
					C471.8,552.8,494.1,624.4,551.4,674.6z"/>
			</g>
		</g>
		<g class="st7">
			<path class="st10" d="M560.4,660.3c-0.3,0-0.6,0-1,0c-4-0.3-8.2-2.7-11.3-6.3l0,0c-5.4-6.3-5.9-14.8-1.2-18.8
				c1.9-1.6,4.3-2.3,7-2.1c4,0.3,8.2,2.7,11.3,6.3c5.4,6.3,5.9,14.8,1.2,18.8C564.9,659.6,562.8,660.3,560.4,660.3z M553.1,635.5
				c-1.8,0-3.3,0.5-4.5,1.5c-3.7,3.1-3,10,1.5,15.3l0,0c2.7,3.1,6.2,5.2,9.6,5.4c2.1,0.2,3.9-0.4,5.2-1.5c3.7-3.1,3-10-1.5-15.3
				c-2.7-3.1-6.2-5.2-9.6-5.4C553.6,635.5,553.3,635.5,553.1,635.5z"/>
		</g>
	</g>
	<g>
		<path class="st9" d="M376.7,760.1h137.5c2.9,0,5.4-1.8,6.3-4.5l28.6-85.3c1.4-4.3-1.8-8.7-6.3-8.7H410.5c-6,0-11.4,3.8-13.3,9.5
			l-26.9,80.3C368.9,755.6,372.1,760.1,376.7,760.1z"/>
	</g>
	<g>
		<path class="st9" d="M385.3,760.1h137.5c2.9,0,5.4-1.8,6.3-4.5l28.6-85.3c1.4-4.3-1.8-8.7-6.3-8.7H419.1c-6,0-11.4,3.8-13.3,9.5
			l-26.9,80.3C377.5,755.6,380.7,760.1,385.3,760.1z"/>
	</g>
	<g>
		<path class="st13" d="M481.6,708c0-3.2-3.7-4.6-7-4.6c-3.3,0-8.6,3.6-8.6,8.1c0,4.9,3.9,5.5,7.1,5.5
			C476.4,717.1,481.6,712.1,481.6,708z"/>
	</g>
	<g>
		<path class="st9" d="M334.7,748h188.1v12.1h-192c-2.2,0-4-1.8-4-4V756C326.7,751.6,330.3,748,334.7,748z"/>
	</g>
	<g>
		<path class="st3" d="M395.1,704.6l-1-0.3c0.3-1,6.8-25.7,11.3-33.6c4.5-8.1,10-9.7,10.3-9.8l0.3,1c-0.1,0-5.3,1.6-9.6,9.3
			C401.9,679.1,395.2,704.4,395.1,704.6z"/>
	</g>
	<g>
		<path class="st3" d="M374.7,748.6v-1.1c4.1,0,5.4-1.6,5.5-1.8l10.7-31.9l1,0.3l-10.7,32C381.2,746.3,379.9,748.6,374.7,748.6z"/>
	</g>
</g>
</svg>
