<?xml version="1.0" encoding="utf-8"?>
<!-- Generator: Adobe Illustrator 24.0.1, SVG Export Plug-In . SVG Version: 6.00 Build 0)  -->
<svg version="1.1" id="_x3C_Layer_x3E_" xmlns="http://www.w3.org/2000/svg" xmlns:xlink="http://www.w3.org/1999/xlink" x="0px"
	 y="0px" viewBox="0 0 1486 1231" style="enable-background:new 0 0 1486 1231;" xml:space="preserve">
<style type="text/css">
	.st0{fill:#FAA95D;}
	.st1{fill:#7F1CA0;}
	.st2{fill:#B9324A;}
	.st3{fill:#E08E71;}
	.st4{fill:#8B2544;}
	.st5{fill:#FFFBF0;}
	.st6{fill:#F9F3DC;}
	.st7{fill:#FC8E1F;}
	.st8{fill:#78759E;}
	.st9{fill:#EA7708;}
	.st10{fill:#33353B;}
	.st11{fill:#484A4F;}
	.st12{fill:#FFA757;}
	.st13{fill:#EFEFEF;}
	.st14{fill:#FFFFFF;}
	.st15{fill:#F79C8D;}
	.st16{fill:#F7A491;}
	.st17{fill:#D67218;}
	.st18{fill:#44474F;}
	.st19{fill:#C97E67;}
	.st20{fill:#AA6352;}
	.st21{fill:#13548C;}
</style>
<g>
	<g>
		<path class="st0" d="M377.9,813.6c-3.6,0-6.6,4.2-6.6,9.3c0,5.2,2.9,9.4,6.5,9.4c3.6,0,6.6-4.2,6.6-9.3S381.5,813.6,377.9,813.6z
			 M377.9,816.2c1.9,0,3.5,1,3.5,2.2c0,1.2-1.6,2.2-3.5,2.2c-1.9,0-3.5-1-3.5-2.2C374.4,817.2,376,816.2,377.9,816.2z M377.9,828.8
			c-2.7,0-5-1.5-5-3.3c0-1.8,2.2-3.3,5-3.3c2.7,0,5,1.5,5,3.3C382.9,827.3,380.6,828.8,377.9,828.8z"/>
		<path class="st1" d="M363,834.2c-1.4,3-2.1,6.2-2.1,9.5l-0.2,68.4c0,4.1,3.4,7.5,7.5,7.5l39.1,0.1c4.2,0,7.6-3.3,7.6-7.5l0.2-68.4
			c0-3.3-0.7-6.5-2.1-9.5L363,834.2z"/>
		<path class="st1" d="M363,834.2c-1.4,3-2.1,6.2-2.1,9.5l-0.2,68.4c0,4.1,3.4,7.5,7.5,7.5l39.1,0.1c4.2,0,7.6-3.3,7.6-7.5l0.2-68.4
			c0-3.3-0.7-6.5-2.1-9.5L363,834.2z"/>
		<path class="st2" d="M415.2,843.8l-0.2,68.4c0,4.1-3.4,7.5-7.6,7.5l-39.1-0.1c-4.2,0-7.6-3.4-7.5-7.5l0.2-68.4
			c0-3.3,0.7-6.5,2.1-9.5l50.1,0.1C414.5,837.3,415.2,840.6,415.2,843.8z"/>
		<path class="st3" d="M371.1,912.2l0.2-68.4c0-3.3,0.7-6.5,2.1-9.5l-10.4,0c-1.4,3-2.1,6.2-2.1,9.5l-0.2,68.4
			c0,4.1,3.4,7.5,7.5,7.5l10.4,0C374.5,919.7,371.1,916.3,371.1,912.2z"/>
		<path class="st4" d="M415.2,843.8l-0.2,68.4c0,4.1-3.4,7.5-7.6,7.5l-16,0c4.2,0,7.6-3.3,7.7-7.5l0.2-68.4c0-3.3-0.7-6.5-2.1-9.5
			l15.9,0C414.5,837.3,415.2,840.6,415.2,843.8z"/>
		<path class="st0" d="M413.1,834.4l-50.1-0.1l0,0c0-2.2,1.8-4,4-4l42.1,0.1C411.3,830.4,413.1,832.2,413.1,834.4L413.1,834.4z"/>
		
			<rect x="383.7" y="875.8" transform="matrix(2.454032e-03 -1 1 2.454032e-03 -515.9821 1288.6378)" class="st0" width="8.5" height="54.3"/>
	</g>
	<g>
		<path class="st2" d="M313.7,812.2h6c-1-0.7-2.2-1.1-3.5-1.1H166.3c-7.8,0-14.2,5.6-14.2,12.6v8c0,7,6.4,12.6,14.2,12.6l148.2,0
			L313.7,812.2z"/>
		<path class="st4" d="M228.6,811.2c-7.5,0-13.6,5.4-13.6,12v9c0,6.6,6.1,12,13.6,12H322v-2h-0.4l-23.7-2l-4.8-16.7
			c0,0,9.3-9.2,9.9-9.5c0.6-0.2,18.7-1,18.7-1l0.4,0v-2H228.6z"/>
		<path class="st5" d="M315.9,827.7c0-9.7,5.7-14.5,5.7-14.5h-91c-6.9,0-12.5,4.9-12.5,11.1v7c0,6.1,5.6,11.1,12.5,11.1h91
			C321.6,842.3,315.9,839.9,315.9,827.7z"/>
		<path class="st6" d="M218.1,824.2v7c0,0.9,0.1,1.8,0.4,2.7c3.1-6.7,9-13.1,20.2-15.1c26.2-4.8,83-5.5,83-5.5h-91
			C223.7,813.2,218.1,818.1,218.1,824.2z"/>
		<path class="st7" d="M311.3,878.5h6.8c-1.1-0.8-2.5-1.3-4-1.3H144.4c-8.9,0-16.1,7.1-16.1,15.8v10c0,8.7,7.2,15.8,16.1,15.8
			l167.8-0.1L311.3,878.5z"/>
		<path class="st8" d="M215,877.2c-8.5,0-15.4,6.7-15.4,15.1v11.3c0,8.3,6.9,15.1,15.4,15.1h105.6v-2.5h-0.4l-26.8-2.5l-5.4-20.9
			c0,0,10.5-11.5,11.2-11.8c0.7-0.3,21.1-1.2,21.1-1.2l0.4,0v-2.5H215z"/>
		<path class="st5" d="M313.7,897.8c0-12.2,6.4-18.1,6.4-18.1h-103c-7.8,0-14.1,6.2-14.1,13.8v8.7c0,7.6,6.3,13.8,14.1,13.8h103
			C320.2,916.1,313.7,913.2,313.7,897.8z"/>
		<path class="st6" d="M203,893.6v8.7c0,1.1,0.1,2.3,0.4,3.3c3.5-8.3,10.1-16.4,22.8-18.9c29.6-6,93.9-6.9,93.9-6.9h-103
			C209.3,879.7,203,885.9,203,893.6z"/>
		<path class="st0" d="M122.7,845.3H116c1.1-0.7,2.5-1.1,4-1.1h169.7c8.9,0,16.1,5.6,16.1,12.5v7.9c0,6.9-7.2,12.5-16.1,12.5
			l-167.8,0L122.7,845.3z"/>
		<path class="st9" d="M219.1,844.2c8.5,0,15.4,5.4,15.4,12v9c0,6.6-6.9,12-15.4,12H113.4v-2h0.4l26.9-2l5.4-16.6
			c0,0-10.5-9.2-11.2-9.4c-0.7-0.2-21.1-1-21.1-1l-0.4,0v-2H219.1z"/>
		<path class="st5" d="M120.3,860.6c0-9.7-6.4-14.4-6.4-14.4h103.1c7.8,0,14.1,4.9,14.1,11v6.9c0,6.1-6.3,11-14.1,11H113.8
			C113.8,875.1,120.3,872.8,120.3,860.6z"/>
		<path class="st6" d="M231,857.2v6.9c0,0.9-0.1,1.8-0.4,2.6c-3.5-6.6-10.1-13-22.8-15c-29.6-4.8-94-5.5-94-5.5h103.1
			C224.7,846.3,231,851.2,231,857.2z"/>
	</g>
	
		<rect x="695.1" y="858.2" transform="matrix(0.9825 0.1862 -0.1862 0.9825 206.6543 -112.6852)" class="st10" width="16.2" height="371.1"/>
	<polygon class="st10" points="1204.5,1229.2 1223.6,1229.2 1152.3,859.9 1136.4,862.9 	"/>
	<polygon class="st10" points="854.1,1229.2 873.2,1229.2 801.9,859.9 786,862.9 	"/>
	<polygon class="st10" points="1030.1,1229.2 1014.6,1229.4 1082.9,861.6 1098.9,864.6 	"/>
	<path class="st11" d="M960.7,362.5c63,6.7,144.5,13.9,226.4,152.8c89.5,151.8,42.4,378.6-28.2,441.6
		c-70.6,63-301.2,140.8-495.1,24.3c0,0-117.1-70.6-57-187.7c92.5-180.3,79.4-217.9,120.7-288.5C768.8,434.3,826.9,348.2,960.7,362.5
		z"/>
	<path class="st10" d="M1187.1,515.3c-55.9-94.8-111.6-128.2-161.4-142c19.3,19.9,38.8,45.6,58.3,78.7
		c89.5,151.8,42.4,378.6-28.2,441.6c-62.6,55.9-251.1,123.4-428.2,56.7c18.2,20.1,36.1,30.9,36.1,30.9
		c193.9,116.5,424.5,38.7,495.1-24.3C1229.5,893.9,1276.6,667.1,1187.1,515.3z"/>
	<path class="st7" d="M86.5,470.1c-1.8,14.1,12.9,25.3,25.9,24.4c14.4-1,26.7-12.8,28.8-27c2.3-15.3-6.9-27.6-21.2-28.7
		c-13.9-1.1-22.8,11.3-18.7,23.7c2.9,8.9,11,12.3,15.1,9.8c3.2-1.9,3-6.8-0.9-7.6c-1.6-0.3-3.2,0.5-4,1.7c-3.4-1.3-6.6-7.5-4.4-14.2
		c2.8-8.5,13.6-9,20.3-5c8.5,5.1,9.9,16,6.7,24.6c-3.3,9.1-12.2,16.3-22,17c-11,0.8-20.8-7.7-21.6-18.7
		C90.3,467.5,86.9,467.6,86.5,470.1z"/>
	<path class="st5" d="M1057.4,0c-100-0.9-160.3,73.6-84.2,123.3l-26.8,58.9l56-45.6C1183.8,184,1251.8,11.1,1057.4,0z"/>
	<path class="st12" d="M1012.2,79.4c17.6,53.9,91.6,30,79.6-21C1074.2,4.5,1000.2,28.5,1012.2,79.4z"/>
	<path class="st13" d="M1074.9,69.6c5.9,30-34.9,37.6-42.5,11.2L1074.9,69.6z"/>
	<path class="st12" d="M384.3,568.7l180-1.4c4.1,0,7.4-3.4,7.4-7.5l-0.9-120.4c0-4.1-3.4-7.4-7.5-7.4l-180,1.4
		c-4.1,0-7.4,3.4-7.4,7.5l0.9,120.4C376.8,565.5,380.1,568.8,384.3,568.7z"/>
	<polygon class="st12" points="565.3,499.1 623.4,558.3 551.7,544.9 	"/>
	<g>
		<path class="st14" d="M512.8,490.7l-17.5-0.3c0,0-22-16.5-22.7-22.3c-0.7-5.8,2.9-18.1-0.5-19.7c-3.4-1.5-10.7-2.8-15.2,4.9
			c-3.3,5.6-0.6,26-2.6,27.4c-1.3,0.9-11.3,1-18.7,0.9c-4.8,0-9.3,2.6-11.5,6.9l0,0c-1.5,2.9-0.8,6.5,1.7,8.5l3.9,3.3l-3.1,4.1
			c-2.3,3-1.7,7.4,1.3,9.7l3.1,2.3l-2.1,2.4c-2.7,3.1-2.1,7.9,1.2,10.2l2.7,1.9l-0.4,0.8c-1.7,3.2-0.7,7.1,2.3,9.1l2.8,1.8l46.6,0.8
			c4.4,0.1,8.7-0.7,12.7-2.4l16.4-2.4c1.8-0.3,3.1-1.8,3.1-3.6l0.1-40.8C516.4,492.4,514.8,490.8,512.8,490.7z"/>
	</g>
	<polygon class="st15" points="758.4,593.3 742.2,641.8 791.6,622.4 	"/>
	<path class="st6" d="M809.3,448.7c-3.3,0.1-12.3,3.1-25.5,28c-16.8,31.7-41.4,127.5-41.4,127.5l73.5,27.3l9.4-20l15.5-153.9
		C840.8,457.5,810.2,448.6,809.3,448.7z"/>
	<path class="st5" d="M906.4,434.9c-21,0-73,6.1-97.1,13.8c0,0-17.7,151.8,16,267.1c7.5,25.8-6.2,107-6.2,107l217.7-2.9
		c0,0-25.8-196.3-16.1-228c9.7-31.7,9.9-142.2,9.9-142.2s-1.5-0.2-48.9-8.4C959.5,437.5,928.8,434.9,906.4,434.9z"/>
	<path class="st16" d="M931.7,1104.5c0,0-4.8,55.4-13.7,70.7c-8.9,15.3,0.5,41.4,0.9,45c0.5,3.6,18.6,8.7,47.5,5.6
		c28.9-3.1,28.4-9.7,26.1-20.4c-2.3-10.7-17.7-24.5-18.6-34.8c-0.9-10.2,8.9-47,8.9-47L931.7,1104.5z"/>
	<path class="st17" d="M843.5,777.1c0,0-150.2-8.3-183.8,11.9c-33.6,20.2,6.1,61.8,6.1,61.8s122.3,53,327.1,64.8
		c48.5,2.8,52.7-126,43.6-136.7C1027.4,768.3,843.5,777.1,843.5,777.1z"/>
	<path class="st10" d="M970.1,1230.2c29.7-3.2,26.1-17.7,23.7-28.8c-1.5-6.9-10-15.1-15.1-22.8c-2.7,2.1-7,5.8-19.9,9.6
		c-13.4,3.9-31.8-3.9-43.5-8.8c-4.2,15.5-4.4,35.2-4,38.2C911.7,1221.4,940.4,1233.3,970.1,1230.2z"/>
	<path class="st7" d="M953.7,884.2c-6,45.3-35.7,270.6-35.7,270.6l69,8.5c0,0,84.8-294.1,80.5-339.1c-4.3-45-36.1-48.8-36.1-48.8
		S969.6,764.4,953.7,884.2z"/>
	<path class="st18" d="M887.6,243.4c0,0,22.9-24.2,41.3,5.2c0,0,14.2-8,24.2,6.2c0,0,25.7-7.7,31.9,30.6c0,0,13.2-2.5,14.9,13.2
		c1.7,15.7-6.2,26.1-6.2,26.1s7.4,5.6,4,20c-2.9,12.3-13,14.1-13,14.1s-2.7,20.7-11.7,26.9c-9,6.2-21.2,3.2-21.2,3.2
		s-3.2,11.2-13.7,10.2c-10.5-1-23.4-11-35.1-6.5c-11.7,4.5-42.1-0.2-42.1-0.2s-34.1-15.2-23.9-50.1c0,0-17.9-16.2-2.2-35.6
		c0,0-11.5-30.4,11.2-48.3C868.7,240.7,887.6,243.4,887.6,243.4z"/>
	<path class="st19" d="M891.5,407.4l-4.1,30.8c0,0-9.3,44.3,2.7,52.9c12,8.5,50.8-54.1,50.8-54.1l-4.1-78L891.5,407.4z"/>
	<path class="st20" d="M938.1,384.2c-9.9,26.6-33.4,42.9-50.1,49.3l3.5-26.1l45.2-48.5L938.1,384.2z"/>
	<path class="st19" d="M909.1,277c-24.3-8.3-50.1,7.8-53.8,32.8c-1.6,10.9-3.1,24.5-3.3,39.5c-0.7,35.9,18,70.9,34.3,70.9
		c16.3,0,61.4-23.3,63.1-74.3C950.3,314.4,934.6,285.8,909.1,277z"/>
	<path class="st19" d="M937.3,349.9c0,7.9,5.3,14.4,11.7,14.4c6.5,0,11.7-6.4,11.7-14.4c0-7.9-5.3-14.4-11.7-14.4
		C942.5,335.6,937.3,342,937.3,349.9z"/>
	<path class="st18" d="M838.4,259.1c-16.9,13.4-22.8,33.6-13.2,45.3c9.6,11.7,31,10.3,47.9-3c16.9-13.4,22.8-33.6,13.2-45.3
		C876.7,244.4,855.3,245.8,838.4,259.1z"/>
	<path class="st19" d="M1032.9,466.6c-20.4-7.6-30.3,175.1-33,250.3c-36,3.5-98.9,0-114.5-1.1c-7.4-0.6-24.3-6.7-31.6-7.7
		c-7.5-1-14.3-1.5-18-0.8c-1.4,0.2-38.9,15.5-42.1,18.9c-4,4.2-14.8,14.7-12.9,19.2c1.8,4.5,20.7-12.7,20.7-12.7l9.2-5.2
		c-11.5,11.2-33.4,25.9-30.3,31.3c3.1,5.2,22.9-9.7,37-19.9c-12.1,10.9-27.1,30.4-23.7,33.4c3.1,2.7,20.2-19.8,38.5-26.3
		c6.8-2.4,13.5,4.3,18.8,5.1c3.9,0.6,10,1.9,13.8,0.8l19.8-5.6c6.7,0.6,6.9,4.6,13.7,6c7.9,1.7,20.9,3.4,30.9,5.9
		c57.9,14.1,77.2,20.7,95,20.6C1077.9,778.7,1081,484.6,1032.9,466.6z"/>
	<path class="st6" d="M1071.5,638.1c3.8-77,3.3-172-40.1-188.2c-17.1-6.4-47.2,32-41.8,189.8
		C1012.7,641.6,1046.7,643.1,1071.5,638.1z"/>
	<polygon class="st15" points="829.1,605 833.5,605 899.9,767.7 895.3,767 	"/>
	<path class="st16" d="M730.1,1151.9c0,0,6,19.2-4.8,31.9c-10.8,12.7-55.5,25.2-61.4,32.1c-5.9,6.9-5.4,12.8-5.4,12.8l125.7-3.4
		l-1.4-37.8l-5.8-27.2L730.1,1151.9z"/>
	<path class="st10" d="M717.5,1190.2c0,0,32.3,13,47.9,5.3c15.6-7.7,15.1-9.8,19.6-7c4.5,2.9,6.1,38.3,6.1,38.3l-141.3,4.1
		c-9.8-0.2-14.8-7.4-6.8-13.6c5.5-4.2,11.8-7.1,15.4-9.1C669.5,1201.9,717.5,1190.2,717.5,1190.2z"/>
	<path class="st7" d="M734.8,812.6c-9.7-20.4-31.8-46.9-70.7-30.9c-37.1,15.2-47,52.7-35.3,91c11.7,38.3,88.7,263.7,91.4,294.7
		l61.5,0.4c0,0-11.2-178.5-13.9-221.6C765.1,904.7,751.6,847.9,734.8,812.6z"/>
	<path class="st21" d="M635,605h205.5c5.4,0,10.3,3.3,12.4,8.3l63.3,154.3h113.3c3.2,0,5.7,2.6,5.7,5.7l0,0c0,3.2-2.6,5.7-5.7,5.7
		H707.1c-8.9,0-16.9-5.2-20.5-13.3l-63.7-141.9C618.8,615.1,625.3,605,635,605z"/>
	<path class="st14" d="M745.7,694.9c1.4,6.9,7.4,11.6,13.5,10.4c6.1-1.2,9.9-7.8,8.5-14.7c-1.4-6.9-7.4-11.6-13.5-10.4
		C748.1,681.4,744.3,688,745.7,694.9z"/>
	<ellipse class="st5" cx="1323.4" cy="285.1" rx="101.5" ry="101.7"/>
	<g>
		<g>
			<g>
				<rect x="1214.3" y="283.1" class="st9" width="37.4" height="2.9"/>
			</g>
			<g>
				<rect x="1395.4" y="283.1" class="st9" width="37.4" height="2.9"/>
			</g>
			<g>
				<rect x="1321.8" y="176.5" class="st9" width="2.9" height="37.5"/>
			</g>
			<g>
				<rect x="1321.8" y="357.2" class="st9" width="2.9" height="37.5"/>
			</g>
			<path class="st9" d="M1326.5,285.1c0,1.7-1.4,3.1-3.1,3.1c-1.7,0-3.1-1.4-3.1-3.1c0-1.7,1.4-3.1,3.1-3.1
				C1325.1,282,1326.5,283.4,1326.5,285.1z"/>
			<g>
				<path class="st9" d="M1323.4,286.5c-0.4,0-0.7-0.1-1-0.4l-55.6-55.8c-0.5-0.5-0.5-1.4,0-2c0.5-0.5,1.4-0.5,2,0l55.6,55.8
					c0.5,0.5,0.5,1.4,0,2C1324.1,286.3,1323.8,286.5,1323.4,286.5z"/>
			</g>
			<g>
				<path class="st9" d="M1341.3,341.4c-0.2-0.1-0.4-0.3-0.5-0.6l-18-54.4c-0.2-0.5,0.1-1.1,0.6-1.3c0.5-0.2,1.1,0.1,1.3,0.6
					l18,54.4c0.2,0.5-0.1,1.1-0.6,1.3C1341.8,341.6,1341.5,341.5,1341.3,341.4z"/>
			</g>
		</g>
	</g>
	<path class="st21" d="M1363.6,499.7l9.1-14.7l-7.3-2.9c-1.6-0.6-2.4-2.5-1.7-4.1l0,0c0.6-1.6,2.5-2.4,4.1-1.7l8.4,3.4l8.1-13.2
		l-7.8-3.1c-1.6-0.6-2.4-2.5-1.7-4.1l0,0c0.6-1.6,2.5-2.4,4.1-1.7l8.9,3.6l9.4-15.1c0.8-1.3,2.4-1.8,3.8-1.2l1.4,0.6
		c1.8,0.7,2.5,2.9,1.5,4.5l-8.7,14.3l12.9,5.2l9.4-15.1c0.8-1.3,2.4-1.8,3.8-1.2l1.5,0.6c1.8,0.7,2.5,2.9,1.5,4.5l-8.7,14.3l7.3,2.9
		c1.6,0.6,2.4,2.5,1.7,4.1l0,0c-0.6,1.6-2.5,2.4-4.1,1.7l-8.4-3.4l-8,13.3l7.8,3.1c1.6,0.6,2.4,2.5,1.7,4.1l0,0
		c-0.6,1.6-2.5,2.4-4.1,1.7l-8.9-3.6l-9.6,15.6c-0.8,1.3-2.4,1.8-3.8,1.3l-1.6-0.6c-1.8-0.7-2.5-2.9-1.5-4.5l9.1-14.7l-12.9-5.2
		l-9.6,15.6c-0.8,1.3-2.4,1.8-3.8,1.3l-1.6-0.6C1363.3,503.5,1362.6,501.4,1363.6,499.7z M1396.4,488l8.1-13.2l-12.9-5.2l-8.1,13.2
		L1396.4,488z"/>
	<path class="st21" d="M690.6,114.3l9.3-20.9l-12-19.5c-1.4-2.2,0.4-5,3-4.8l22.7,2.3l14.8-17.4c1.7-2,4.9-1.2,5.5,1.4l4.8,22.3
		l21.1,8.7c2.4,1,2.6,4.3,0.4,5.6l-19.8,11.5l-1.8,22.8c-0.2,2.6-3.3,3.8-5.2,2.1l-17-15.3l-22.2,5.4
		C691.7,119.2,689.6,116.7,690.6,114.3z"/>
	<path class="st7" d="M1361.4,114.3l6.9-15.7l-9-14.6c-1-1.7,0.3-3.8,2.2-3.6l17.1,1.8l11.1-13.1c1.3-1.5,3.7-0.9,4.1,1l3.6,16.8
		l15.8,6.5c1.8,0.7,2,3.2,0.3,4.2l-14.8,8.6l-1.3,17.1c-0.2,1.9-2.5,2.9-3.9,1.6l-12.8-11.4l-16.7,4
		C1362.2,118,1360.6,116.1,1361.4,114.3z"/>
	<path class="st7" d="M1292.5,562.2l-1.1-13l-11.3-6.5c-1.3-0.7-1.2-2.6,0.2-3.2l12-5.1l2.6-12.8c0.3-1.5,2.1-1.9,3.1-0.8l8.5,9.9
		l13-1.4c1.5-0.2,2.5,1.4,1.7,2.7l-6.7,11.2l5.4,11.9c0.6,1.4-0.6,2.8-2,2.5l-12.7-3l-9.6,8.8
		C1294.4,564.3,1292.6,563.6,1292.5,562.2z"/>
	<path class="st7" d="M253.5,371.3l5.1-11.5L252,349c-0.7-1.2,0.2-2.8,1.6-2.6l12.5,1.3l8.2-9.6c0.9-1.1,2.7-0.6,3,0.8l2.6,12.3
		l11.6,4.8c1.3,0.5,1.4,2.4,0.2,3.1l-10.9,6.3l-1,12.5c-0.1,1.4-1.8,2.1-2.9,1.2l-9.4-8.4l-12.2,2.9
		C254.1,374,253,372.6,253.5,371.3z"/>
	<path class="st21" d="M647.8,350.5l5.1-11.5l-6.6-10.7c-0.7-1.2,0.2-2.8,1.6-2.6l12.5,1.3l8.2-9.6c0.9-1.1,2.7-0.6,3,0.8l2.6,12.3
		l11.6,4.8c1.3,0.5,1.4,2.4,0.2,3.1l-10.9,6.3l-1,12.5c-0.1,1.4-1.8,2.1-2.9,1.2l-9.4-8.4l-12.2,2.9
		C648.4,353.2,647.2,351.8,647.8,350.5z"/>
	<polygon class="st21" points="451.5,164.2 471.7,161.3 480,193.3 510,192.6 520.1,215.5 531.7,210.4 518.2,179.8 489.7,180.4 
		481.1,147.1 450.7,151.5 	"/>
	<polygon class="st21" points="408.2,699.5 423.5,686 447.9,708.2 472.7,691.2 493.7,704.8 500.6,694.1 472.5,675.9 449,692 
		423.6,669 400.6,689.3 	"/>
	<path class="st21" d="M168.3,716.2l12.8-20.8l-10.3-4.2c-2.3-0.9-3.3-3.5-2.4-5.7l0,0c0.9-2.3,3.5-3.3,5.7-2.4l11.9,4.8l11.5-18.7
		l-11-4.5c-2.3-0.9-3.3-3.5-2.4-5.7l0,0c0.9-2.3,3.5-3.3,5.7-2.4l12.6,5.1l13.3-21.4c1.1-1.8,3.4-2.6,5.4-1.8l1.9,0.8
		c2.5,1,3.5,4.1,2.1,6.4l-12.4,20.2l18.2,7.4l13.3-21.4c1.1-1.8,3.4-2.6,5.4-1.8l2.1,0.8c2.5,1,3.5,4.1,2.1,6.4l-12.4,20.2l10.3,4.2
		c2.3,0.9,3.3,3.5,2.4,5.7l0,0c-0.9,2.3-3.5,3.3-5.7,2.4l-11.9-4.8l-11.3,18.8l11,4.5c2.3,0.9,3.3,3.5,2.4,5.7l0,0
		c-0.9,2.3-3.5,3.3-5.7,2.4l-12.6-5.1l-13.6,22.1c-1.1,1.8-3.4,2.6-5.4,1.8l-2.2-0.9c-2.5-1-3.5-4.1-2.1-6.4l12.8-20.8l-18.2-7.4
		L178,721.7c-1.1,1.8-3.4,2.6-5.4,1.8l-2.2-0.9C167.9,721.6,166.9,718.5,168.3,716.2z M214.7,699.5l11.5-18.7l-18.2-7.4l-11.5,18.7
		L214.7,699.5z"/>
	<path class="st12" d="M1332.7,979.6c-1.3-11.5-2.9-23.3-8.2-33.6c-6.5-12.5-17.9-21.5-27.9-31.4c-18.6-18.6-33-41.4-41.6-66.3
		c-6.7-19.2-10-39.7-19.1-57.9c-5.6-11.1-13.2-21-19.6-31.7c-15-25.2-23.2-55-43.6-76.1c-3.9,25.6,3.8,52.7,20.7,72.4
		c5,5.9,10.8,11.1,14.7,17.8c6.9,12.2,6.3,27,7.1,41c1.5,26.3,8.9,52.2,21.5,75.4c13.4,24.6,32.7,46.4,39.8,73.5
		c5.4,20.3,3.8,43,15.2,60.6c1.2,1.9,2.7,3.8,3,6.1c0.2,1.3,0,2.5-0.2,3.8c-0.3,1.6-0.5,3.3-0.8,4.9c-2.6,16.6-5.3,37.7,9,50.1
		c9.9,8.6,22.6,8.8,29.7-2.6c7.1-11.5,6.5-28.4,6-41.3C1337.5,1022.7,1335.1,1001,1332.7,979.6z"/>
	<path class="st7" d="M1358.4,966.2c-5.5-19.2-14.2-37.5-18.5-57c-4.2-18.9-4.2-38.5-4.2-57.9c0-21.2,0-42.5,0-63.7
		c0-13.2,0-26.5-2.2-39.6c-4.7-28.1-19.3-54-21.8-82.4c-1.1-12.3,0.2-24.7-1.2-36.9c-0.8-7-2.6-14.1-5.8-20.3
		c-3.5-6.7-13.1-6.4-16.2,0.5c-7.1,15.4-11.6,32-8.7,48.4c1.7,9.9,6,19.1,9.2,28.6c14.2,42.3,6.7,89.1,17.7,132.3
		c3.3,13,8.3,25.8,8.9,39.3c1.4,32.2-22.7,61.6-20.4,93.8c1.8,26.4,20.8,48.2,28.7,73.4c4.5,14.1,5.4,29.2,10.2,43.2
		c3.7,10.9,12.3,24.1,25.7,20.8c12.7-3.1,8.9-13.5,8.3-23.4C1366.1,1031.5,1367.9,999,1358.4,966.2z"/>
	<path class="st12" d="M1387.5,983.8c-0.6-10-2.2-20-0.8-29.9c1.2-8.4,4.5-16.2,6.9-24.3c4.5-15.2,5.6-31.1,6.6-46.9
		c2-28.7,3.9-57.4,5.9-86.1c3-44.6,6.1-89.3,14.4-133.2c2.3-12.2,4.9-25.4-0.6-36.5c-1.2-2.3-3.4-4.8-5.9-4.1
		c-1.8,0.6-2.6,2.5-3.3,4.3c-18.2,49.5-25.1,102.8-45.5,151.5c-4.9,11.7-10.5,23.1-13.1,35.5c-3,14.9-1.4,30.2-1,45.4
		c0.6,21.8-1.6,43.7-7.6,64.6c-3.1,10.9-7.4,21.7-9.1,32.9c-2.1,14-0.3,28.3,1,42.5c2.6,27.2,3.5,54.5,2.6,81.8
		c-0.5,16,13.1,15.6,22,5.8c6.3-6.9,6.2-14.5,8.4-23.1C1375.6,1036,1389.2,1014.4,1387.5,983.8z"/>
	<path class="st7" d="M1302.8,1027.4c-12-19.2-35.8-30.2-43.5-51.5c-1.9-5.4-2.7-11.3-5.1-16.5c-5.3-11.7-17.3-18.3-29.1-23.6
		c-1.6-0.7-3.5,0.4-3.5,2.2l0,0c0,2.9,1.3,5.6,3.7,7.2c9.1,6.1,16,15.5,19.1,26.1c3.7,12.5,2.1,26.2,6.6,38.4
		c3.8,10.3,11.7,18.6,15.3,28.9c3.4,9.4,3,19.7,4.6,29.6c1.6,9.9,6,20.4,15,24.5C1318.8,1107.8,1310.6,1039.8,1302.8,1027.4z"/>
	<path class="st12" d="M1439.3,1021c-0.5,9.3,0.9,19.1-2.7,27.6c-2.3,5.5-6.5,9.9-10,14.8c-12.1,17.1-16.5,41.3-35,50.9
		c-1.2,0.6-2.6,1.2-3.9,1c-1.9-0.4-3.1-2.2-3.9-4c-4.6-10.6,0.6-22.5,3.6-33.7c0.5-1.9,1-4.1,0-5.9c-1-2-3.4-2.8-4.9-4.4
		c-3.2-3.1-2.9-8.2-2.2-12.6c1.6-11,3.8-21.8,6.6-32.5c1.6-6.1,3.5-12.2,7-17.4c3.8-5.7,9.4-10,14.7-14.5
		c23.1-19.9,40.8-46,50.7-74.9c2.1-6.2,4.1-12.8,8.5-17.7c4.4-4.9,12.3-7.4,17.7-3.6c3.8,2.7-11.9,28-13.7,31
		c-5.2,8.7-5.3,16.2-8.3,25.8C1456.1,974.6,1440.7,995.7,1439.3,1021z"/>
	<path class="st7" d="M1421,1031.8c3.4-8.9,6.9-17.9,8-27.3c1.3-10.5-0.4-21.3,1.4-31.7c2.3-13.4,10.1-25.2,14-38.2
		c2.8-9.4,3.5-19.3,5.2-29c4.8-27.7,17.8-54.7,14.1-82.6c-0.8-6.1-3.5-13.1-9.6-14.2c-5.4-0.9-10.4,4-11.8,9.4
		c-1.4,5.3-0.4,11,0,16.5c1.1,15.4-3.3,31.1-12.2,43.7c-8.6,12.1-21,21.2-28.7,33.9c-9.4,15.5-10.7,34.5-15.5,52
		c-9.6,34.9-33.6,65.3-38,101.2c-1.7,14.3,1.6,31.6,14.8,37.4C1400.9,1119.3,1412.4,1054.1,1421,1031.8z"/>
	<path class="st21" d="M1354.4,1076h-6.1h-81.4c-6,0-10.4,5.6-9,11.4l31.9,134.5c1,4.2,4.7,7.1,9,7.1h49.5h6.1h49.5c4.3,0,8-3,9-7.1
		l31.9-134.5c1.4-5.8-3-11.4-9-11.4H1354.4z"/>
	<g>
		<rect x="51.1" y="918.6" class="st10" width="425.3" height="22"/>
		<rect x="58.8" y="1046" class="st10" width="278.1" height="19.2"/>
		<rect x="416.8" y="929.6" class="st10" width="17.9" height="299.6"/>
		<rect x="163" y="929.6" class="st10" width="17.9" height="299.6"/>
		<polygon class="st10" points="289.2,1229.2 385.8,932.2 370,927 271.7,1229.2 		"/>
		<polygon class="st10" points="17.3,1229.2 100,931.5 83.9,927.1 0,1229.2 		"/>
	</g>
	<path class="st9" d="M1323.4,166.3c-65.4,0-118.5,53.2-118.5,118.7c0,65.6,53.1,118.7,118.5,118.7c65.4,0,118.5-53.2,118.5-118.7
		C1441.9,219.5,1388.9,166.3,1323.4,166.3z M1329.8,386.6c-55.9,3.5-104.1-39.1-107.6-95.1c-3.5-56,39-104.3,94.9-107.8
		c55.9-3.5,104.1,39.1,107.6,95.1C1428.2,334.8,1385.7,383,1329.8,386.6z"/>
	<path class="st14" d="M871.5,380.3l31.6-0.5c0,0-0.5,12-14.4,12.6C871.7,393.2,871.5,380.3,871.5,380.3z"/>
</g>
</svg>
