<svg width="145" height="208" viewBox="0 0 145 208" fill="none" xmlns="http://www.w3.org/2000/svg">
<path d="M127.5 69.3335C117.941 69.3335 110.167 77.1075 110.167 86.667V117C110.167 126.559 117.941 134.333 127.5 134.333C130.655 134.333 133.619 133.484 136.167 132.002V148.599C136.167 176.575 113.417 199.333 85.432 199.333H66.27C58.7994 199.333 51.3285 197.565 44.6465 194.22C31.118 187.451 21.4285 174.529 18.7245 159.64L15.076 139.646C14.92 138.736 14.8334 137.808 14.8334 136.881C14.8334 129.74 19.6869 123.604 26.6374 121.975L81.168 109.148C81.8265 112.736 81.3845 116.437 79.8505 119.851C77.8225 124.41 74.113 127.859 69.4245 129.567L50.748 136.361C47.7925 137.436 45.4354 139.724 44.2654 142.645C43.104 145.565 43.2514 148.841 44.6554 151.649L49.9594 162.266C51.034 164.415 53.6254 165.265 55.7749 164.207C57.9154 163.133 58.7824 160.533 57.7164 158.392L52.4124 147.767C51.9964 146.952 52.1784 146.215 52.3259 145.851C52.4644 145.479 52.8373 144.82 53.7124 144.499L72.3889 137.705C79.2964 135.191 84.7564 130.113 87.7634 123.396C90.7709 116.679 90.918 109.217 88.188 102.388C87.3905 100.395 85.2674 99.3115 83.1785 99.7795L24.661 113.551C13.767 116.107 6.1665 125.701 6.1665 136.89C6.1665 138.32 6.30504 139.75 6.54797 141.189L10.1965 161.209C13.386 178.759 24.817 194.012 40.7725 201.986C48.642 205.92 57.456 208 66.2614 208H85.4234C118.183 208 144.833 181.35 144.833 148.599V86.6666C144.833 77.1075 137.059 69.3335 127.5 69.3335ZM136.167 117C136.167 121.775 132.284 125.667 127.5 125.667C122.716 125.667 118.834 121.775 118.834 117V86.6666C118.834 81.8911 122.716 78 127.5 78C132.284 78 136.167 81.8915 136.167 86.6666V117Z" fill="#13548D"/>
<path d="M118.833 86.6667V69.3332C118.833 59.7738 111.059 51.9998 101.5 51.9998C91.9405 51.9998 84.1665 59.7738 84.1665 69.3332V112.667C84.1665 122.226 91.9405 130 101.5 130C111.051 130 118.833 122.226 118.833 112.667V95.3332C118.833 92.9412 116.892 90.9997 114.5 90.9997C112.108 90.9997 110.167 92.9412 110.167 95.3332V112.667C110.167 117.442 106.284 121.333 101.5 121.333C96.716 121.333 92.8334 117.442 92.8334 112.667V69.3336C92.8334 64.5582 96.716 60.6671 101.5 60.6671C106.284 60.6671 110.167 64.5586 110.167 69.3336V86.6671C110.167 89.0591 112.108 91.0006 114.5 91.0006C116.892 91.0006 118.833 89.0587 118.833 86.6667Z" fill="#13548D"/>
<path d="M74.85 0C65.568 0 57.8805 6.95947 56.936 16.458L54.5265 80.8685L33.441 33.592C31.439 29.0075 27.5475 25.4885 22.7724 23.9635C17.9969 22.4469 12.7799 23.0449 8.48989 25.6275C1.53042 29.796 -1.62411 38.1075 0.819888 45.8469L23.6999 118.3C24.2894 120.155 25.9879 121.334 27.8339 121.334C28.2674 121.334 28.7094 121.273 29.1424 121.134C31.4219 120.415 32.687 117.98 31.9679 115.7L9.07936 43.2384C7.84883 39.3469 9.44336 35.1609 12.9359 33.0549C15.1024 31.7549 17.7374 31.4515 20.1294 32.2229C22.5388 32.9944 24.4974 34.7535 25.5114 37.0935L49.8299 91.6155C51.1299 94.536 54.2064 96.1135 57.3784 95.5329C60.5244 94.9175 62.7779 92.2569 62.899 89.0764L65.5855 17.0479C66.062 12.2724 70.04 8.66734 74.85 8.66734C79.9895 8.66734 84.1665 12.8448 84.1665 17.9839V69.3339C84.1665 71.7259 86.108 73.6673 88.5 73.6673C90.892 73.6673 92.8335 71.7259 92.8335 69.3339V17.9839C92.8335 8.06853 84.7735 0 74.85 0Z" fill="#13548D"/>
</svg>
